<?xml version="1.0" standalone="no"?>
<!DOCTYPE svg PUBLIC "-//W3C//DTD SVG 1.1//EN" "http://www.w3.org/Graphics/SVG/1.1/DTD/svg11.dtd" >
<svg xmlns="http://www.w3.org/2000/svg" xmlns:xlink="http://www.w3.org/1999/xlink" version="1.1">
<metadata>
Created by FontForge 20170731 at Tue Apr  9 09:04:20 2019
 By Aleksey,,,
Copyright (c) 2019 Monotype Imaging Inc. All rights reserved.
</metadata>
<defs>
<font id="Carnero-Bold" horiz-adv-x="597" >
  <font-face 
    font-family="Carnero"
    font-weight="700"
    font-stretch="normal"
    units-per-em="1000"
    panose-1="2 11 8 2 2 2 3 2 2 4"
    ascent="760"
    descent="-240"
    x-height="508"
    cap-height="710"
    bbox="-243 -255 1324 971"
    underline-thickness="50"
    underline-position="-175"
    unicode-range="U+000D-FEFF"
  />
<missing-glyph horiz-adv-x="600" 
d="M30 -210v962h540v-962h-540zM100 -140h400v822h-400v-822z" />
    <glyph glyph-name="uniFB00" unicode="ff" horiz-adv-x="785" 
d="M103 0v372h-87v136h87v13q0 237 260 237h13l19 -137h-27q-52 0 -81 -26.5t-29 -73.5v-13h121v-136h-121v-372h-155zM496 0v372h-87v136h87v13q0 237 260 237h13l19 -137h-27q-52 0 -81 -26.5t-29 -73.5v-13h121v-136h-121v-372h-155z" />
    <glyph glyph-name="fi" unicode="fi" horiz-adv-x="672" 
d="M535 580q-38 0 -64 25.5t-26 63.5t26 64t64 26t63.5 -26t25.5 -64q0 -37 -26 -63t-63 -26zM103 0v372h-87v136h87v13q0 237 260 237h13l19 -137h-27q-52 0 -81 -26.5t-29 -73.5v-13h121v-136h-121v-372h-155zM455 0v508h154v-508h-154z" />
    <glyph glyph-name="fl" unicode="fl" horiz-adv-x="724" 
d="M103 0v372h-87v136h87v13q0 237 260 237h13l19 -137h-27q-52 0 -81 -26.5t-29 -73.5v-13h121v-136h-121v-372h-155zM698 -6q-128 0 -187 53t-59 167v538h155v-516q0 -48 29.5 -73.5t84.5 -25.5l-17 -143h-6z" />
    <glyph glyph-name="uniFB03" unicode="ffi" horiz-adv-x="1064" 
d="M928 580q-38 0 -64 25.5t-26 63.5t26 64t64 26t63.5 -26t25.5 -64q0 -37 -25.5 -63t-63.5 -26zM103 0v372h-87v136h87v13q0 237 260 237h13l19 -137h-27q-52 0 -81 -26.5t-29 -73.5v-13h121v-136h-121v-372h-155zM496 0v372h-87v136h87v13q0 237 260 237h13l19 -137h-27
q-52 0 -81 -26.5t-29 -73.5v-13h121v-136h-121v-372h-155zM848 0v508h154v-508h-154z" />
    <glyph glyph-name="uniFB04" unicode="ffl" horiz-adv-x="1116" 
d="M103 0v372h-87v136h87v13q0 237 260 237h13l19 -137h-27q-52 0 -81 -26.5t-29 -73.5v-13h121v-136h-121v-372h-155zM496 0v372h-87v136h87v13q0 237 260 237h13l19 -137h-27q-52 0 -81 -26.5t-29 -73.5v-13h121v-136h-121v-372h-155zM1091 -6q-128 0 -187 53t-59 167v538
h155v-516q0 -48 29.5 -73.5t84.5 -25.5l-18 -143h-5z" />
    <glyph glyph-name=".notdef" horiz-adv-x="600" 
d="M30 -210v962h540v-962h-540zM100 -140h400v822h-400v-822z" />
    <glyph glyph-name=".null" horiz-adv-x="0" 
 />
    <glyph glyph-name="nonmarkingreturn" horiz-adv-x="333" 
 />
    <glyph glyph-name="NULL" horiz-adv-x="0" 
 />
    <glyph glyph-name="NULL" horiz-adv-x="0" 
 />
    <glyph glyph-name="CR" unicode="&#xd;" horiz-adv-x="203" 
 />
    <glyph glyph-name="space" unicode=" " horiz-adv-x="203" 
 />
    <glyph glyph-name="exclam" unicode="!" horiz-adv-x="337" 
d="M105 264l-27 446h180l-27 -446h-126zM169 -17q-38 0 -65 27t-27 65t27 65t65 27t65 -27t27 -65t-27 -65t-65 -27z" />
    <glyph glyph-name="quotedbl" unicode="&#x22;" horiz-adv-x="452" 
d="M73 474l-22 236h143l-22 -236h-99zM280 474l-22 236h143l-22 -236h-99z" />
    <glyph glyph-name="numbersign" unicode="#" horiz-adv-x="713" 
d="M683 424h-137l-24 -137h114v-111h-134l-31 -176h-114l31 176h-127l-31 -176h-113l31 176h-118v111h138l24 137h-115v111h134l31 175h114l-31 -175h127l31 175h113l-31 -175h118v-111zM408 287l24 137h-127l-24 -137h127z" />
    <glyph glyph-name="dollar" unicode="$" 
d="M551 223q0 -80 -51.5 -135.5t-143.5 -71.5v-94h-108v89q-118 10 -212 71l71 138q89 -63 191 -63q81 0 81 54q0 26 -25.5 42t-101.5 43q-98 35 -146.5 79t-48.5 126q0 79 52 130.5t139 64.5v74h108v-74q67 -10 114.5 -41t67.5 -72l-133 -85q-15 24 -42.5 40.5t-62.5 16.5
q-32 0 -52 -12.5t-20 -34.5q0 -21 27 -35.5t108 -42.5q95 -33 141.5 -78t46.5 -129z" />
    <glyph glyph-name="percent" unicode="%" horiz-adv-x="939" 
d="M208 307q-82 0 -132 56t-50 149q0 92 50 148t132 56q81 0 131.5 -56t50.5 -148q0 -93 -50.5 -149t-131.5 -56zM178 0l460 710h124l-460 -710h-124zM208 412q57 0 57 100q0 99 -57 99t-57 -99q0 -100 57 -100zM730 -6q-81 0 -131.5 56t-50.5 149q0 92 50.5 148t131.5 56
q82 0 132.5 -56t50.5 -148q0 -93 -50.5 -149t-132.5 -56zM730 99q58 0 58 100q0 99 -58 99q-57 0 -57 -99q0 -100 57 -100z" />
    <glyph glyph-name="ampersand" unicode="&#x26;" horiz-adv-x="769" 
d="M771 134l-43 -140q-62 4 -110.5 23.5t-102.5 60.5q-93 -88 -233 -88q-115 0 -183 58t-68 156q0 118 135 195q-51 68 -51 142q0 76 57 128t154 52q130 0 216 -94l-109 -90q-26 29 -48 41t-50 12t-45.5 -15.5t-17.5 -39.5q0 -22 13 -42.5t50 -53.5l151 -137q22 69 28 151
h216v-135h-93q-15 -66 -37 -116q85 -61 171 -68zM199 211q0 -35 25.5 -57t69.5 -22q63 0 112 41l-151 135q-56 -41 -56 -97z" />
    <glyph glyph-name="quotesingle" unicode="'" horiz-adv-x="245" 
d="M73 474l-22 236h143l-22 -236h-99z" />
    <glyph glyph-name="parenleft" unicode="(" horiz-adv-x="407" 
d="M356 -162q-146 22 -220 142.5t-74 312.5t74.5 314t219.5 145l19 -133q-160 -41 -160 -326t160 -322z" />
    <glyph glyph-name="parenright" unicode=")" horiz-adv-x="407" 
d="M50 -162l-18 133q160 37 160 322t-160 326l18 133q145 -23 220 -145t75 -314t-74.5 -312.5t-220.5 -142.5z" />
    <glyph glyph-name="asterisk" unicode="*" horiz-adv-x="477" 
d="M173 317l-101 72l87 98l-127 28l38 117l120 -52l-14 130h125l-13 -130l119 52l38 -117l-127 -28l87 -98l-101 -72l-65 114z" />
    <glyph glyph-name="plus" unicode="+" 
d="M523 412v-124h-163v-163h-124v163h-163v124h163v163h124v-163h163z" />
    <glyph glyph-name="comma" unicode="," horiz-adv-x="308" 
d="M10 -135q71 147 86 297h168q-29 -148 -114 -297h-140z" />
    <glyph glyph-name="hyphen" unicode="-" horiz-adv-x="415" 
d="M42 210v128h331v-128h-331z" />
    <glyph glyph-name="period" unicode="." horiz-adv-x="308" 
d="M154 -11q-40 0 -68.5 28.5t-28.5 68.5t28.5 68.5t68.5 28.5t68.5 -28.5t28.5 -68.5t-28.5 -68.5t-68.5 -28.5z" />
    <glyph glyph-name="slash" unicode="/" horiz-adv-x="492" 
d="M10 -169l335 921h137l-335 -921h-137z" />
    <glyph glyph-name="zero" unicode="0" 
d="M299 -10q-123 0 -190.5 96t-67.5 268q0 173 68 269.5t190 96.5q123 0 190 -97t67 -269q0 -173 -67 -268.5t-190 -95.5zM299 134q96 0 96 222q0 220 -96 220q-95 0 -95 -221t95 -221z" />
    <glyph glyph-name="one" unicode="1" horiz-adv-x="447" 
d="M242 717h114v-717h-160v508q-81 -59 -163 -72v150q105 22 209 131z" />
    <glyph glyph-name="two" unicode="2" 
d="M55 0v43q0 99 42 170.5t142 139.5q78 54 108 87t30 67q0 31 -22 49t-61 18q-72 0 -116 -69l-122 87q85 128 253 128q100 0 166.5 -57.5t66.5 -147.5q0 -73 -36.5 -128t-125.5 -114q-129 -86 -144 -132h314v-141h-495z" />
    <glyph glyph-name="three" unicode="3" 
d="M291 -10q-150 0 -258 78l92 125q83 -60 164 -60q48 0 74 21t26 56q0 86 -180 86v130q83 0 118 26t35 64q0 28 -19.5 44.5t-52.5 16.5q-67 0 -107 -67l-121 78q77 132 247 132q89 0 150 -48.5t61 -121.5q0 -121 -118 -168q146 -44 146 -177q0 -96 -70 -155.5t-187 -59.5z
" />
    <glyph glyph-name="four" unicode="4" 
d="M317 0v185h-301v111l296 421h166v-403h104v-129h-104v-185h-161zM180 314h137v199z" />
    <glyph glyph-name="five" unicode="5" 
d="M290 -10q-158 0 -255 79l75 130q83 -66 176 -66q49 0 76.5 25t27.5 66t-28 63.5t-75 22.5q-49 0 -86 -23l-115 36l22 387h396v-141h-270l-10 -143q39 22 98 22q100 0 164 -59t64 -162q0 -107 -72 -172t-188 -65z" />
    <glyph glyph-name="six" unicode="6" 
d="M342 445q95 0 158 -59t63 -158q0 -105 -70.5 -171.5t-181.5 -66.5q-122 0 -198 80.5t-76 229.5q0 88 27 161.5t80.5 130.5t141 90.5t201.5 37.5l32 -138q-131 -5 -206.5 -48t-109.5 -136q56 47 139 47zM304 128q48 0 76.5 27t28.5 71q0 43 -28.5 69.5t-76.5 26.5
q-44 0 -75.5 -24t-31.5 -64q0 -47 30.5 -76.5t76.5 -29.5z" />
    <glyph glyph-name="seven" unicode="7" 
d="M170 0q-13 280 216 568h-349v142h528v-92q-234 -317 -222 -618h-173z" />
    <glyph glyph-name="eight" unicode="8" 
d="M301 -10q-118 0 -191.5 61t-73.5 152q0 129 137 181q-48 18 -76.5 57.5t-28.5 92.5q0 79 64 132.5t166 53.5t166 -53t64 -133q0 -54 -28 -93t-77 -57q137 -51 137 -179q0 -92 -72.5 -153.5t-186.5 -61.5zM302 451q34 0 56 20t22 49t-22 49t-56 20q-35 0 -57 -20t-22 -49
t22 -49t57 -20zM301 129q42 0 70.5 26t28.5 64q0 40 -28.5 66.5t-70.5 26.5t-70.5 -27t-28.5 -66q0 -38 28.5 -64t70.5 -26z" />
    <glyph glyph-name="nine" unicode="9" 
d="M253 265q-96 0 -158.5 59t-62.5 159q0 105 70 171.5t182 66.5q121 0 197.5 -80.5t76.5 -229.5q0 -88 -26 -161.5t-78.5 -130.5t-137.5 -90.5t-196 -37.5l-32 138q126 5 199 47.5t105 135.5q-58 -47 -139 -47zM290 583q-47 0 -75.5 -27t-28.5 -71q0 -43 28.5 -69.5
t76.5 -26.5q44 0 76 24t32 64q0 47 -31.5 76.5t-77.5 29.5z" />
    <glyph glyph-name="colon" unicode=":" horiz-adv-x="303" 
d="M151 320q-39 0 -66.5 27.5t-27.5 66.5q0 40 27.5 67.5t66.5 27.5q40 0 67.5 -27.5t27.5 -67.5q0 -39 -27.5 -66.5t-67.5 -27.5zM151 -10q-39 0 -66.5 27.5t-27.5 66.5q0 40 27.5 67.5t66.5 27.5q40 0 67.5 -27.5t27.5 -67.5q0 -39 -27.5 -66.5t-67.5 -27.5z" />
    <glyph glyph-name="semicolon" unicode=";" horiz-adv-x="303" 
d="M154 319q-40 0 -68.5 28.5t-28.5 68.5t28.5 68.5t68.5 28.5t68.5 -28.5t28.5 -68.5t-28.5 -68.5t-68.5 -28.5zM-1 -135q71 147 86 297h168q-29 -148 -114 -297h-140z" />
    <glyph glyph-name="less" unicode="&#x3c;" 
d="M523 581v-125l-341 -106l341 -106v-125l-450 153v156z" />
    <glyph glyph-name="equal" unicode="=" 
d="M73 403v125h450v-125h-450zM73 172v125h450v-125h-450z" />
    <glyph glyph-name="greater" unicode="&#x3e;" 
d="M73 581l450 -153v-156l-450 -153v125l341 106l-341 106v125z" />
    <glyph glyph-name="question" unicode="?" horiz-adv-x="519" 
d="M190 256q-9 49 5.5 88.5t56.5 83.5q44 43 57 61.5t13 39.5q0 22 -16 35t-44 13q-31 0 -57.5 -19t-41.5 -50l-132 75q75 137 237 137q99 0 159.5 -47.5t60.5 -127.5q0 -58 -22.5 -95t-68.5 -80q-82 -77 -78 -114h-129zM260 -11q-40 0 -68.5 28.5t-28.5 68.5t28.5 68.5
t68.5 28.5t68.5 -28.5t28.5 -68.5t-28.5 -68.5t-68.5 -28.5z" />
    <glyph glyph-name="at" unicode="@" horiz-adv-x="947" 
d="M703 212q44 11 68.5 54.5t24.5 114.5q0 108 -88 184.5t-225 76.5q-145 0 -238.5 -95t-93.5 -239q0 -139 96 -236.5t236 -97.5q107 0 186 42l36 -95q-35 -22 -96 -37t-126 -15q-186 0 -314.5 127.5t-128.5 311.5q0 185 128 312t315 127q178 0 301 -108t123 -258
q0 -124 -68.5 -206.5t-197.5 -82.5h-50l-10 72q-45 -81 -144 -81q-85 0 -142 59t-57 159q0 101 62.5 163.5t159.5 62.5q59 0 122 -30l3 21h116zM469 200q45 0 74 32.5t29 82.5v71q-45 24 -97 24q-48 0 -75.5 -30t-27.5 -79q0 -46 27.5 -73.5t69.5 -27.5z" />
    <glyph glyph-name="A" unicode="A" horiz-adv-x="703" 
d="M524 0l-49 145h-256l-49 -145h-169l258 710h184l259 -710h-178zM263 277h168l-84 251z" />
    <glyph glyph-name="B" unicode="B" horiz-adv-x="648" 
d="M481 371q58 -15 93 -61t35 -114q0 -87 -59 -141.5t-160 -54.5h-314v710h281q102 0 160.5 -49t58.5 -132q0 -108 -95 -158zM244 574v-154h89q41 0 63 21t22 55q0 37 -23 57.5t-64 20.5h-87zM356 136q39 0 61.5 20.5t22.5 57.5q0 36 -21.5 56t-60.5 20h-114v-154h112z" />
    <glyph glyph-name="C" unicode="C" horiz-adv-x="693" 
d="M422 -10q-175 0 -281 100t-106 274q0 165 101 260.5t253 95.5q186 0 277 -135l-125 -98q-55 76 -152 76q-80 0 -129 -56.5t-49 -142.5q0 -96 60 -156.5t164 -60.5q87 0 172 48l63 -138q-106 -67 -248 -67z" />
    <glyph glyph-name="D" unicode="D" horiz-adv-x="756" 
d="M351 710q165 0 267.5 -96.5t102.5 -255.5t-103 -258.5t-267 -99.5h-275v710h275zM333 145q98 0 154.5 56t56.5 156q0 99 -57 153.5t-154 54.5h-89v-420h89z" />
    <glyph glyph-name="E" unicode="E" horiz-adv-x="609" 
d="M76 0v710h467v-147h-299v-137h280v-142h-280v-137h304v-147h-472z" />
    <glyph glyph-name="F" unicode="F" horiz-adv-x="550" 
d="M76 0v710h442v-147h-274v-142h260v-146h-260v-275h-168z" />
    <glyph glyph-name="G" unicode="G" horiz-adv-x="763" 
d="M419 -11q-176 0 -280 98t-104 264q0 173 103 271t256 98q89 0 165.5 -36.5t127.5 -103.5l-129 -99q-68 82 -164 82q-74 0 -128.5 -55t-54.5 -156q0 -99 56.5 -151.5t149.5 -52.5q66 0 109 20v74h-116v141h282v-327q-127 -67 -273 -67z" />
    <glyph glyph-name="H" unicode="H" horiz-adv-x="799" 
d="M555 710h168v-710h-168v282h-311v-282h-168v710h168v-282h311v282z" />
    <glyph glyph-name="I" unicode="I" horiz-adv-x="320" 
d="M76 0v710h168v-710h-168z" />
    <glyph glyph-name="J" unicode="J" horiz-adv-x="444" 
d="M144 -9q-80 0 -141 25l27 142q49 -17 85 -17q99 0 99 142v427h167v-449q0 -128 -62 -199t-175 -71z" />
    <glyph glyph-name="K" unicode="K" horiz-adv-x="689" 
d="M661 140h23l-21 -143h-29q-87 0 -140.5 34t-104.5 109l-102 151h-43v-291h-168v710h168v-295h31l204 295h183l-243 -342l104 -142q63 -86 138 -86z" />
    <glyph glyph-name="L" unicode="L" horiz-adv-x="534" 
d="M244 150h270v-150h-438v710h168v-560z" />
    <glyph glyph-name="M" unicode="M" horiz-adv-x="951" 
d="M60 0l36 710h231l148 -346l156 346h225l35 -710h-164l-27 527l-153 -367h-154l-149 367l-27 -527h-157z" />
    <glyph glyph-name="N" unicode="N" horiz-adv-x="784" 
d="M548 710h160v-711h-143l-329 456v-455h-160v710h162l310 -428v428z" />
    <glyph glyph-name="O" unicode="O" horiz-adv-x="818" 
d="M408 -10q-162 0 -267.5 100.5t-105.5 264.5t105.5 264.5t268.5 100.5t268.5 -100t105.5 -262q0 -163 -106 -265.5t-269 -102.5zM409 149q88 0 143 57.5t55 148.5t-55 148.5t-143 57.5t-143 -57.5t-55 -148.5t55 -148.5t143 -57.5z" />
    <glyph glyph-name="P" unicode="P" horiz-adv-x="617" 
d="M302 710q146 0 217 -70t71 -177q0 -50 -16.5 -94t-49.5 -81t-90 -59t-132 -22h-58v-207h-168v710h226zM288 344q58 0 91.5 31t33.5 88q0 56 -33.5 83.5t-91.5 27.5h-44v-230h44z" />
    <glyph glyph-name="Q" unicode="Q" horiz-adv-x="818" 
d="M810 -14h22l-8 -143h-27q-115 0 -184.5 31t-117.5 107l-10 16q-35 -7 -77 -7q-162 0 -267.5 100.5t-105.5 264.5t105.5 264.5t268.5 100.5t268.5 -100t105.5 -262q0 -97 -40 -175.5t-111 -127.5l3 -4q47 -65 175 -65zM213 355q0 -89 55 -146.5t141 -57.5t141 57.5
t55 146.5t-55 146.5t-141 57.5t-141 -57.5t-55 -146.5z" />
    <glyph glyph-name="R" unicode="R" horiz-adv-x="659" 
d="M647 143h7l-20 -143h-8q-86 0 -140 32t-103 111l-77 123h-62v-266h-168v710h273q115 0 179 -60t64 -151q0 -64 -32.5 -117.5t-94.5 -83.5l64 -87q51 -68 118 -68zM244 574v-177h77q43 0 68.5 23t25.5 66t-25 65.5t-68 22.5h-78z" />
    <glyph glyph-name="S" unicode="S" horiz-adv-x="584" 
d="M294 720q88 0 149.5 -35t85.5 -87l-132 -80q-34 56 -102 56q-32 0 -53 -14.5t-21 -39.5q0 -29 29.5 -46.5t102.5 -43.5q96 -35 142.5 -82.5t46.5 -132.5q0 -105 -71 -165t-194 -60q-140 0 -249 72l71 138q88 -63 185 -63q87 0 87 62q0 30 -25.5 46.5t-101.5 45.5
q-98 38 -145.5 84.5t-47.5 128.5q0 100 67.5 158t175.5 58z" />
    <glyph glyph-name="T" unicode="T" horiz-adv-x="569" 
d="M560 710v-146h-191v-564h-168v564h-192v146h551z" />
    <glyph glyph-name="U" unicode="U" horiz-adv-x="737" 
d="M368 -10q-136 0 -216.5 73.5t-80.5 202.5v444h168v-425q0 -67 35 -101.5t95 -34.5q61 0 96 34.5t35 101.5v425h166v-444q0 -129 -80.5 -202.5t-217.5 -73.5z" />
    <glyph glyph-name="V" unicode="V" horiz-adv-x="677" 
d="M506 710h175l-251 -710h-183l-251 710h179l167 -515z" />
    <glyph glyph-name="W" unicode="W" horiz-adv-x="1054" 
d="M886 710h165l-237 -710h-138l-148 484l-152 -484h-136l-237 710h183l127 -434l140 434h166l135 -425z" />
    <glyph glyph-name="X" unicode="X" horiz-adv-x="650" 
d="M644 0h-196l-128 231l-127 -231h-185l221 360l-213 350h196l117 -221l129 221h176l-216 -346z" />
    <glyph glyph-name="Y" unicode="Y" horiz-adv-x="626" 
d="M626 710l-235 -439v-271h-164v271l-235 439h180l145 -286l145 286h164z" />
    <glyph glyph-name="Z" unicode="Z" horiz-adv-x="594" 
d="M254 145h307v-145h-533v93l302 471h-281v146h508v-93z" />
    <glyph glyph-name="bracketleft" unicode="[" horiz-adv-x="388" 
d="M354 634h-127v-680h127v-118h-278v916h278v-118z" />
    <glyph glyph-name="backslash" unicode="\" horiz-adv-x="492" 
d="M345 -169l-335 921h137l335 -921h-137z" />
    <glyph glyph-name="bracketright" unicode="]" horiz-adv-x="388" 
d="M312 752v-916h-278v118h127v680h-127v118h278z" />
    <glyph glyph-name="asciicircum" unicode="^" horiz-adv-x="482" 
d="M472 260h-125l-106 341l-106 -341h-125l153 450h156z" />
    <glyph glyph-name="underscore" unicode="_" horiz-adv-x="450" 
d="M-5 -137v45h460v-45h-460z" />
    <glyph glyph-name="grave" unicode="`" horiz-adv-x="400" 
d="M427 578l-139 169h143l123 -169h-127z" />
    <glyph glyph-name="a" unicode="a" horiz-adv-x="647" 
d="M583 206q0 -60 49 -80l-66 -135q-85 15 -121 89q-26 -43 -72.5 -66.5t-104.5 -23.5q-102 0 -169.5 70t-67.5 190t75 194t190 74q85 0 144 -42l5 32h138v-302zM306 131q54 0 88.5 38.5t33.5 97.5v85q-54 27 -108 27q-60 0 -94.5 -35.5t-34.5 -93.5q0 -54 32.5 -86.5
t82.5 -32.5z" />
    <glyph glyph-name="b" unicode="b" horiz-adv-x="645" 
d="M377 518q102 0 169.5 -70t67.5 -189q0 -120 -72.5 -194.5t-182.5 -74.5q-86 0 -155 41l-4 -31h-138v752h155v-308q55 74 160 74zM333 129q55 0 87.5 35.5t32.5 94.5q0 54 -32 86.5t-82 32.5q-53 0 -87.5 -38.5t-34.5 -95.5v-82q51 -33 116 -33z" />
    <glyph glyph-name="c" unicode="c" horiz-adv-x="535" 
d="M312 -10q-129 0 -205 73t-76 194q0 118 73 189.5t196 71.5q60 0 116.5 -25t91.5 -68l-95 -100q-41 55 -108 55q-47 0 -79 -34t-32 -92q0 -54 34.5 -88t94.5 -34q67 0 146 42l37 -133q-83 -51 -194 -51z" />
    <glyph glyph-name="d" unicode="d" horiz-adv-x="643" 
d="M428 752h155v-752h-155v68q-56 -78 -160 -78q-102 0 -169.5 70t-67.5 190t74 194t190 74q65 0 133 -29v263zM306 131q54 0 88.5 38.5t33.5 97.5v85q-54 27 -115 27q-56 0 -89 -35.5t-33 -93.5q0 -54 32.5 -86.5t82.5 -32.5z" />
    <glyph glyph-name="e" unicode="e" horiz-adv-x="565" 
d="M534 236v-24h-345q16 -94 137 -94q83 0 151 29l32 -120q-81 -37 -194 -37q-127 0 -205.5 73t-78.5 190q0 124 72 194.5t185 70.5q109 0 177.5 -73.5t68.5 -208.5zM192 319h186q-5 37 -31.5 59.5t-58.5 22.5q-36 0 -61 -22t-35 -60z" />
    <glyph glyph-name="f" unicode="f" horiz-adv-x="393" 
d="M103 0v372h-87v136h87v13q0 237 260 237h13l19 -137h-27q-52 0 -81 -26.5t-29 -73.5v-13h121v-136h-121v-372h-155z" />
    <glyph glyph-name="g" unicode="g" horiz-adv-x="643" 
d="M444 508h139v-457q0 -135 -75.5 -201.5t-209.5 -66.5q-137 0 -240 51l53 127q90 -45 187 -45q57 0 93.5 34t36.5 91v42q-53 -76 -165 -76q-103 0 -167.5 68t-64.5 182q0 115 70 188t181 73q93 0 156 -47zM302 139q54 0 91 36t37 87v92q-47 33 -114 33q-55 0 -90.5 -36.5
t-35.5 -93.5q0 -53 30 -85.5t82 -32.5z" />
    <glyph glyph-name="h" unicode="h" horiz-adv-x="625" 
d="M377 519q94 0 141.5 -55.5t47.5 -159.5v-304h-155v281q0 100 -86 100q-61 0 -108 -57v-324h-155v752h155v-301q64 68 160 68z" />
    <glyph glyph-name="i" unicode="i" horiz-adv-x="279" 
d="M142 580q-38 0 -63.5 26t-25.5 63q0 38 25.5 64t63.5 26t63.5 -26t25.5 -64q0 -37 -25.5 -63t-63.5 -26zM62 0v508h155v-508h-155z" />
    <glyph glyph-name="j" unicode="j" horiz-adv-x="277" 
d="M140 580q-38 0 -63.5 26t-25.5 63q0 38 25.5 64t63.5 26t64 -26t26 -64t-26 -63.5t-64 -25.5zM-2 -216l-36 138q100 16 100 104v482h155v-498q0 -116 -54 -166t-165 -60z" />
    <glyph glyph-name="k" unicode="k" horiz-adv-x="574" 
d="M552 -5q-86 0 -136 30.5t-101 97.5l-65 86h-33v-209h-155v752h155v-433h35l130 189h172l-163 -239l31 -41q39 -47 72 -68t79 -21z" />
    <glyph glyph-name="l" unicode="l" horiz-adv-x="331" 
d="M305 -6q-128 0 -187 53t-59 167v538h155v-516q0 -48 29.5 -73.5t84.5 -25.5l-17 -143h-6z" />
    <glyph glyph-name="m" unicode="m" horiz-adv-x="948" 
d="M710 519q89 0 134 -54.5t45 -157.5v-307h-155v285q0 96 -76 96q-60 0 -105 -54v-20v-307h-155v285q0 96 -76 96q-58 0 -105 -57v-324h-155v508h155v-57q63 68 157 68q113 0 156 -89q72 89 180 89z" />
    <glyph glyph-name="n" unicode="n" horiz-adv-x="625" 
d="M377 519q94 0 141.5 -55.5t47.5 -159.5v-304h-155v281q0 100 -86 100q-61 0 -108 -57v-324h-155v508h155v-57q63 68 160 68z" />
    <glyph glyph-name="o" unicode="o" horiz-adv-x="624" 
d="M312 -10q-124 0 -202.5 74.5t-78.5 189.5t78.5 189.5t202.5 74.5t202.5 -74.5t78.5 -189.5t-78.5 -189.5t-202.5 -74.5zM312 131q54 0 87.5 34.5t33.5 89.5q0 54 -33.5 88t-86.5 34q-54 0 -88 -34t-34 -89t33.5 -89t87.5 -34z" />
    <glyph glyph-name="p" unicode="p" horiz-adv-x="642" 
d="M378 518q104 0 168.5 -71.5t64.5 -191.5q0 -116 -71 -190t-185 -74q-80 0 -138 40v-241h-155v718h155v-63q23 34 65.5 53.5t95.5 19.5zM328 130q56 0 89 33.5t33 91.5q0 57 -32 90t-86 33q-71 0 -117 -67v-154q46 -27 113 -27z" />
    <glyph glyph-name="q" unicode="q" horiz-adv-x="643" 
d="M444 508h139v-718h-155v279q-24 -37 -67.5 -58t-98.5 -21q-100 0 -165.5 72t-65.5 187q0 120 74.5 194.5t189.5 74.5q83 0 145 -44zM304 131q56 0 91 39.5t35 104.5v70q-58 34 -113 34q-57 0 -91.5 -35.5t-34.5 -95.5q0 -56 32 -86.5t81 -30.5z" />
    <glyph glyph-name="r" unicode="r" horiz-adv-x="402" 
d="M377 513l21 -138h-15q-106 0 -168 -78v-297h-153v508h153v-83q45 88 145 88h17z" />
    <glyph glyph-name="s" unicode="s" horiz-adv-x="481" 
d="M234 -10q-117 0 -209 52l52 113q69 -45 155 -45q65 0 65 35q0 17 -21 28t-79 27q-73 20 -112.5 56t-39.5 99q0 75 54.5 119.5t143.5 44.5q66 0 115.5 -23.5t75.5 -59.5l-96 -76q-14 20 -41 33.5t-54 13.5q-47 0 -47 -33q0 -17 24.5 -29.5t83.5 -29.5q73 -22 108.5 -57.5
t35.5 -98.5q0 -79 -55.5 -124t-158.5 -45z" />
    <glyph glyph-name="t" unicode="t" horiz-adv-x="420" 
d="M360 -5q-133 0 -194.5 53.5t-61.5 167.5v156h-89v136h89l-3 141h158v-141h141v-136h-141v-134q0 -101 123 -101h10l-18 -142h-14z" />
    <glyph glyph-name="u" unicode="u" horiz-adv-x="625" 
d="M408 509h155v-509h-155v58q-63 -68 -158 -68t-143 56t-48 160v303h155v-281q0 -99 88 -99q62 0 106 56v324z" />
    <glyph glyph-name="v" unicode="v" horiz-adv-x="550" 
d="M396 508h158l-203 -508h-150l-205 508h170l115 -321z" />
    <glyph glyph-name="w" unicode="w" horiz-adv-x="878" 
d="M717 508h159l-183 -508h-129l-121 335l-118 -335h-130l-193 508h160l98 -306l106 306h149l114 -306z" />
    <glyph glyph-name="x" unicode="x" horiz-adv-x="570" 
d="M11 0l191 261l-177 247h175l90 -146l94 146h170l-183 -243l188 -265h-178l-92 151l-96 -151h-182z" />
    <glyph glyph-name="y" unicode="y" horiz-adv-x="551" 
d="M395 508h160l-195 -503q-43 -115 -102.5 -167.5t-156.5 -52.5h-19l-28 136h5q51 0 85.5 21t58.5 76l-207 490h169l119 -317z" />
    <glyph glyph-name="z" unicode="z" horiz-adv-x="542" 
d="M34 0v96l241 283h-229v129h451v-97l-243 -282h255v-129h-475z" />
    <glyph glyph-name="braceleft" unicode="{" horiz-adv-x="442" 
d="M319 -164q-169 0 -169 145v195q0 27 -23.5 43t-68.5 16h-29v118h29q92 0 92 59v195q0 145 169 145h83v-118h-51q-67 0 -67 -56v-169q0 -91 -105 -115q105 -24 105 -115l-1 -169q0 -56 68 -56h51v-118h-83z" />
    <glyph glyph-name="bar" unicode="|" horiz-adv-x="308" 
d="M87 -210v962h134v-962h-134z" />
    <glyph glyph-name="braceright" unicode="}" horiz-adv-x="442" 
d="M123 -164h-83v118h51q68 0 68 56v169q0 91 105 115q-105 24 -105 115v169q0 56 -68 56h-51v118h83q169 0 169 -145v-195q0 -59 92 -59h29v-118h-29q-45 0 -68.5 -16t-23.5 -43v-195q0 -145 -169 -145z" />
    <glyph glyph-name="asciitilde" unicode="~" 
d="M75 276q1 78 33.5 116.5t76.5 38.5q32 0 122 -25q70 -18 87 -18q32 0 39 43h93q-1 -72 -33.5 -113.5t-73.5 -41.5t-125 24q-69 19 -85 19q-31 0 -41 -43h-93z" />
    <glyph glyph-name="uni00A0" unicode="&#xa0;" horiz-adv-x="203" 
 />
    <glyph glyph-name="exclamdown" unicode="&#xa1;" horiz-adv-x="337" 
d="M168 517q38 0 65 -27t27 -65t-27 -65t-65 -27t-65 27t-27 65t27 65t65 27zM232 236l27 -446h-180l27 446h126z" />
    <glyph glyph-name="cent" unicode="&#xa2;" horiz-adv-x="526" 
d="M470 295l37 -133q-67 -42 -155 -49v-113h-91v115q-106 14 -167 84.5t-61 178.5q0 107 61 177t167 82v73h91v-76q102 -18 158 -88l-95 -100q-26 33 -63 47v-239q52 6 118 41zM195 375q0 -78 66 -109v225q-66 -29 -66 -116z" />
    <glyph glyph-name="sterling" unicode="&#xa3;" 
d="M290 252q0 -78 -53 -111h325v-141h-523v141q42 5 64 34.5t22 74.5v37h-86v123h86v70q0 117 61 178.5t165 61.5q125 0 214 -89l-104 -108q-57 49 -100 49q-71 0 -71 -93v-69h186v-123h-186v-35z" />
    <glyph glyph-name="currency" unicode="&#xa4;" horiz-adv-x="657" 
d="M566 350q0 -56 -25 -106l66 -66l-107 -106l-65 65q-50 -25 -107 -25q-56 0 -106 25l-65 -65l-107 106l65 65q-25 50 -25 107t25 107l-65 65l107 106l65 -65q50 25 106 25q57 0 107 -25l65 65l107 -106l-66 -66q25 -50 25 -106zM241 350q0 -36 26 -61.5t61 -25.5
q36 0 61.5 25.5t25.5 61.5t-25.5 61.5t-61.5 25.5q-35 0 -61 -25.5t-26 -61.5z" />
    <glyph glyph-name="yen" unicode="&#xa5;" 
d="M595 710l-172 -356h121v-91h-163v-47h163v-91h-163v-125h-165v125h-164v91h164v47h-164v91h122l-172 356h184l122 -275l123 275h164z" />
    <glyph glyph-name="brokenbar" unicode="&#xa6;" horiz-adv-x="308" 
d="M87 361v391h134v-391h-134zM87 -210v391h134v-391h-134z" />
    <glyph glyph-name="section" unicode="&#xa7;" horiz-adv-x="489" 
d="M455 393q0 -76 -47 -121q39 -39 39 -105q0 -82 -56 -129.5t-159 -47.5q-118 0 -208 52l51 113q69 -45 156 -45q65 0 65 43q0 23 -21 38t-77 34q-71 24 -108.5 56.5t-37.5 90.5q0 74 54 118q-54 40 -54 107q0 75 54.5 120t142.5 45q66 0 115.5 -23.5t75.5 -60.5l-95 -75
q-15 19 -41.5 33t-51.5 14q-22 0 -35.5 -9.5t-13.5 -24.5q0 -18 21 -30.5t87 -36.5q73 -26 108.5 -61.5t35.5 -94.5zM194 395q0 -17 18.5 -29.5t61.5 -27.5q39 9 39 39q0 18 -15 29.5t-56 27.5q-21 -2 -34.5 -12.5t-13.5 -26.5z" />
    <glyph glyph-name="dieresis" unicode="&#xa8;" horiz-adv-x="400" 
d="M326 595q-32 0 -54 22.5t-22 54.5t22 54t54 22t54.5 -22t22.5 -54t-22.5 -54.5t-54.5 -22.5zM549 595q-32 0 -54 22.5t-22 54.5t22 54t54 22t54 -22t22 -54t-22 -54.5t-54 -22.5z" />
    <glyph glyph-name="copyright" unicode="&#xa9;" horiz-adv-x="810" 
d="M405 -10q-151 0 -258 107t-107 258t107 258t258 107t258 -107t107 -258t-107 -258t-258 -107zM405 58q124 0 210.5 86.5t86.5 210.5t-86.5 210.5t-210.5 86.5t-210.5 -86.5t-86.5 -210.5t86.5 -210.5t210.5 -86.5zM423 142q-107 0 -170 60.5t-63 160.5q0 97 60.5 156.5
t161.5 59.5q50 0 97 -21t76 -57l-78 -82q-38 46 -90 46q-39 0 -65.5 -28.5t-26.5 -76.5q0 -45 29 -73t78 -28q53 0 120 35l31 -110q-69 -42 -160 -42z" />
    <glyph glyph-name="ordfeminine" unicode="&#xaa;" horiz-adv-x="421" 
d="M375 531q0 -36 31 -48l-41 -86q-54 10 -77 55q-33 -55 -110 -55q-64 0 -105.5 41.5t-41.5 113.5q0 70 46.5 117t114.5 47q53 0 93 -25l2 19h88v-179zM202 486q33 0 54 23.5t21 59.5v42q-32 16 -69 16q-35 0 -55 -20.5t-20 -54.5q0 -31 19.5 -48.5t49.5 -17.5z" />
    <glyph glyph-name="guillemotleft" unicode="&#xab;" horiz-adv-x="689" 
d="M191 60l-161 200l161 200h173l-175 -200l175 -200h-173zM485 60l-161 200l161 200h174l-175 -200l175 -200h-174z" />
    <glyph glyph-name="logicalnot" unicode="&#xac;" 
d="M399 193v190h-326v125h450v-315h-124z" />
    <glyph glyph-name="uni00AD" unicode="&#xad;" horiz-adv-x="415" 
d="M42 210v128h331v-128h-331z" />
    <glyph glyph-name="registered" unicode="&#xae;" horiz-adv-x="449" 
d="M225 710q87 0 143.5 -56.5t56.5 -143.5t-56.5 -143.5t-143.5 -56.5q-88 0 -144 56.5t-56 143.5t56 143.5t144 56.5zM225 357q68 0 110.5 42.5t42.5 110.5t-42.5 110.5t-110.5 42.5t-111 -42.5t-43 -110.5t43 -110.5t111 -42.5zM306 551q0 -40 -35 -61l55 -88h-67l-44 76
h-8v-76h-60v216h84q34 0 54.5 -18.5t20.5 -48.5zM223 567h-16v-39h16q21 0 21 20q0 19 -21 19z" />
    <glyph glyph-name="macron" unicode="&#xaf;" horiz-adv-x="400" 
d="M266 607v98h339v-98h-339z" />
    <glyph glyph-name="degree" unicode="&#xb0;" horiz-adv-x="392" 
d="M196 378q-70 0 -119.5 49t-49.5 117t49.5 117t119.5 49t119 -49t49 -117t-49 -117t-119 -49zM196 486q24 0 41 17t17 41t-17 41t-41 17t-41 -17t-17 -41t17 -41t41 -17z" />
    <glyph glyph-name="plusminus" unicode="&#xb1;" 
d="M360 479h163v-112h-163v-113h-124v113h-163v112h163v113h124v-113zM73 112v113h450v-113h-450z" />
    <glyph glyph-name="two.sups" unicode="&#xb2;" horiz-adv-x="415" 
d="M43 435v26q0 60 26 103t89 85q46 32 64 52t18 39q0 33 -40 33q-38 0 -66 -45l-89 58q49 85 166 85q63 0 104 -35t41 -90q0 -44 -21.5 -77t-70.5 -64q-74 -48 -84 -72h181v-98h-318z" />
    <glyph glyph-name="three.sups" unicode="&#xb3;" horiz-adv-x="413" 
d="M202 429q-103 0 -174 48l55 88q58 -39 114 -39q29 1 44 12t15 28q0 46 -119 46v85q55 0 78.5 14.5t23.5 32.5q0 30 -41 30q-45 0 -69 -41l-83 56q52 82 163 82q62 0 101.5 -30t39.5 -78q0 -76 -82 -99q98 -23 98 -104q0 -60 -44 -95.5t-120 -35.5z" />
    <glyph glyph-name="acute" unicode="&#xb4;" horiz-adv-x="400" 
d="M202 578l120 169h143l-137 -169h-126z" />
    <glyph glyph-name="uni00B5" unicode="&#xb5;" horiz-adv-x="627" 
d="M410 508h155v-508h-155v59q-43 -70 -120 -70q-40 0 -73 25v-224h-155v718h155v-264q0 -58 22.5 -87t72.5 -29q46 0 72 31.5t26 88.5v260z" />
    <glyph glyph-name="paragraph" unicode="&#xb6;" horiz-adv-x="715" 
d="M327 -210v367h-43q-115 0 -184.5 76t-69.5 201t69.5 200.5t184.5 75.5h401v-87h-79v-833h-91v833h-97v-833h-91z" />
    <glyph glyph-name="periodcentered" unicode="&#xb7;" horiz-adv-x="308" 
d="M153 261q-40 0 -68.5 28.5t-28.5 68.5t28.5 68t68.5 28t68.5 -28t28.5 -68t-28 -68.5t-69 -28.5z" />
    <glyph glyph-name="cedilla" unicode="&#xb8;" horiz-adv-x="400" 
d="M337 -30q61 -17 61 -89q0 -111 -173 -111v78q41 0 56.5 8.5t15.5 27.5q0 33 -42 33l29 111h69z" />
    <glyph glyph-name="one.sups" unicode="&#xb9;" horiz-adv-x="333" 
d="M165 866h79v-431h-112v290q-43 -30 -95 -47v110q85 34 128 78z" />
    <glyph glyph-name="ordmasculine" unicode="&#xba;" horiz-adv-x="397" 
d="M198 398q-71 0 -120 46t-49 113t49 113t120 46q72 0 120.5 -45.5t48.5 -113.5t-48.5 -113.5t-120.5 -45.5zM198 487q30 0 49.5 20.5t19.5 50.5q0 31 -20.5 50.5t-49.5 19.5q-30 0 -49.5 -21.5t-19.5 -51.5t21 -49t49 -19z" />
    <glyph glyph-name="guillemotright" unicode="&#xbb;" horiz-adv-x="689" 
d="M203 60h-173l175 200l-175 200h173l161 -200zM498 60h-174l175 200l-175 200h174l161 -200z" />
    <glyph glyph-name="onequarter" unicode="&#xbc;" horiz-adv-x="954" 
d="M149 285v290q-45 -30 -96 -47v110q83 32 129 78h79v-431h-112zM653 710h125l-520 -710h-125zM828 188h57v-89h-57v-99h-111v99h-192v78l189 253h114v-242zM717 188v112l-84 -112h84z" />
    <glyph glyph-name="onehalf" unicode="&#xbd;" horiz-adv-x="954" 
d="M144 285v290q-45 -30 -96 -47v110q83 32 129 78h79v-431h-112zM642 710h126l-520 -710h-125zM728 98h181v-98h-318v26q0 60 26 103t89 85q46 32 64 52t18 39q0 33 -40 33q-37 0 -67 -45l-89 58q51 85 167 85q63 0 104 -35t41 -90q0 -44 -21.5 -77t-70.5 -64
q-74 -48 -84 -72z" />
    <glyph glyph-name="threequarters" unicode="&#xbe;" horiz-adv-x="954" 
d="M209 279q-103 0 -174 48l55 88q56 -39 114 -39q29 1 44 12t15 28q0 46 -119 46v85q55 0 78.5 14.5t23.5 32.5q0 30 -41 30q-44 0 -70 -41l-82 56q52 82 163 82q62 0 101 -30t39 -78q0 -76 -81 -99q98 -23 98 -104q0 -60 -44 -95.5t-120 -35.5zM174 0l520 710h125
l-519 -710h-126zM745 0v99h-192v78l188 253h115v-242h57v-89h-57v-99h-111zM660 188h85v112z" />
    <glyph glyph-name="questiondown" unicode="&#xbf;" horiz-adv-x="520" 
d="M263 519q40 0 68.5 -28.5t28.5 -68.5t-28.5 -68.5t-68.5 -28.5q-41 0 -69 28.5t-28 68.5t28.5 68.5t68.5 28.5zM333 251q10 -48 -5 -87.5t-58 -84.5q-44 -45 -56.5 -62t-12.5 -38q0 -22 16 -35t44 -13q31 0 57.5 19t42.5 50l131 -75q-73 -137 -237 -137
q-99 0 -159.5 47.5t-60.5 127.5q0 57 22.5 94t68.5 81q82 75 78 113h129z" />
    <glyph glyph-name="Agrave" unicode="&#xc0;" horiz-adv-x="703" 
d="M438 766h-126l-150 157h152zM524 0l-49 145h-256l-49 -145h-169l258 710h184l259 -710h-178zM263 277h168l-84 251z" />
    <glyph glyph-name="Aacute" unicode="&#xc1;" horiz-adv-x="703" 
d="M543 923l-150 -157h-126l124 157h152zM524 0l-49 145h-256l-49 -145h-169l258 710h184l259 -710h-178zM263 277h168l-84 251z" />
    <glyph glyph-name="Acircumflex" unicode="&#xc2;" horiz-adv-x="703" 
d="M352 834l-80 -68h-127l134 154h146l134 -154h-127zM524 0l-49 145h-256l-49 -145h-169l258 710h184l259 -710h-178zM263 277h168l-84 251z" />
    <glyph glyph-name="Atilde" unicode="&#xc3;" horiz-adv-x="703" 
d="M286 809q-26 0 -35 -43h-85q6 69 35.5 103.5t72.5 34.5q28 0 87 -24q44 -19 57 -19q26 0 33 43h85q-6 -64 -35 -101t-72 -37q-31 0 -85 24q-42 19 -58 19zM524 0l-49 145h-256l-49 -145h-169l258 710h184l259 -710h-178zM263 277h168l-84 251z" />
    <glyph glyph-name="Adieresis" unicode="&#xc4;" horiz-adv-x="703" 
d="M241 776q-32 0 -54 22.5t-22 54.5q0 31 22.5 53.5t53.5 22.5q33 0 55 -22t22 -54t-22 -54.5t-55 -22.5zM465 776q-33 0 -55 22.5t-22 54.5t22 54t55 22q31 0 53.5 -22.5t22.5 -53.5q0 -32 -22 -54.5t-54 -22.5zM524 0l-49 145h-256l-49 -145h-169l258 710h184l259 -710
h-178zM263 277h168l-84 251z" />
    <glyph glyph-name="Aring" unicode="&#xc5;" horiz-adv-x="703" 
d="M352 734q-50 0 -84 33.5t-34 80.5t34.5 80.5t83.5 33.5q48 0 82 -33.5t34 -80.5t-34 -80.5t-82 -33.5zM352 884q-17 0 -27.5 -10t-10.5 -26t11 -26.5t27 -10.5t26.5 10.5t10.5 26.5q0 15 -10.5 25.5t-26.5 10.5zM524 0l-49 145h-256l-49 -145h-169l258 710h184l259 -710
h-178zM263 277h168l-84 251z" />
    <glyph glyph-name="AE" unicode="&#xc6;" horiz-adv-x="963" 
d="M599 147h303v-147h-471v183h-195l-63 -183h-169l258 710h635v-147h-298v-137h280v-142h-280v-137zM282 315h149v248h-64z" />
    <glyph glyph-name="Ccedilla" unicode="&#xc7;" horiz-adv-x="693" 
d="M422 -30q61 -17 61 -89q0 -111 -172 -111v78q40 0 55.5 8.5t15.5 27.5q0 33 -41 33l19 77q-149 17 -237 114.5t-88 255.5q0 165 101 260.5t253 95.5q186 0 277 -135l-125 -98q-55 76 -152 76q-80 0 -129 -56.5t-49 -142.5q0 -96 60 -156.5t164 -60.5q87 0 172 48l63 -138
q-104 -66 -243 -67z" />
    <glyph glyph-name="Egrave" unicode="&#xc8;" horiz-adv-x="609" 
d="M262 766l-150 157h152l124 -157h-126zM76 0v710h467v-147h-299v-137h280v-142h-280v-137h304v-147h-472z" />
    <glyph glyph-name="Eacute" unicode="&#xc9;" horiz-adv-x="609" 
d="M217 766l124 157h152l-150 -157h-126zM76 0v710h467v-147h-299v-137h280v-142h-280v-137h304v-147h-472z" />
    <glyph glyph-name="Ecircumflex" unicode="&#xca;" horiz-adv-x="609" 
d="M95 766l134 154h146l134 -154h-127l-80 68l-80 -68h-127zM76 0v710h467v-147h-299v-137h280v-142h-280v-137h304v-147h-472z" />
    <glyph glyph-name="Edieresis" unicode="&#xcb;" horiz-adv-x="609" 
d="M191 776q-32 0 -54 22.5t-22 54.5q0 31 22.5 53.5t53.5 22.5q33 0 55 -22t22 -54t-22 -54.5t-55 -22.5zM415 776q-33 0 -55 22.5t-22 54.5t22 54t55 22q31 0 53.5 -22.5t22.5 -53.5q0 -32 -22 -54.5t-54 -22.5zM76 0v710h467v-147h-299v-137h280v-142h-280v-137h304v-147
h-472z" />
    <glyph glyph-name="Igrave" unicode="&#xcc;" horiz-adv-x="320" 
d="M120 766l-150 157h152l124 -157h-126zM76 0v710h168v-710h-168z" />
    <glyph glyph-name="Iacute" unicode="&#xcd;" horiz-adv-x="320" 
d="M75 766l124 157h152l-150 -157h-126zM76 0v710h168v-710h-168z" />
    <glyph glyph-name="Icircumflex" unicode="&#xce;" horiz-adv-x="320" 
d="M-47 766l134 154h146l134 -154h-127l-80 68l-80 -68h-127zM76 0v710h168v-710h-168z" />
    <glyph glyph-name="Idieresis" unicode="&#xcf;" horiz-adv-x="320" 
d="M49 776q-32 0 -54 22.5t-22 54.5q0 31 22.5 53.5t53.5 22.5q33 0 55 -22t22 -54t-22 -54.5t-55 -22.5zM273 776q-33 0 -55 22.5t-22 54.5t22 54t55 22q31 0 53.5 -22.5t22.5 -53.5q0 -32 -22 -54.5t-54 -22.5zM76 0v710h168v-710h-168z" />
    <glyph glyph-name="Eth" unicode="&#xd0;" horiz-adv-x="754" 
d="M351 710q165 0 267.5 -96.5t102.5 -255.5t-103 -258.5t-267 -99.5h-275v291h-70v129h70v290h275zM333 145q98 0 154.5 56t56.5 156q0 99 -57 153.5t-154 54.5h-89v-145h141v-129h-141v-146h89z" />
    <glyph glyph-name="Ntilde" unicode="&#xd1;" horiz-adv-x="784" 
d="M328 809q-26 0 -35 -43h-85q6 69 35.5 103.5t72.5 34.5q28 0 87 -24q44 -19 57 -19q26 0 33 43h85q-6 -64 -35 -101t-72 -37q-31 0 -85 24q-42 19 -58 19zM548 710h160v-711h-143l-329 456v-455h-160v710h162l310 -428v428z" />
    <glyph glyph-name="Ograve" unicode="&#xd2;" horiz-adv-x="818" 
d="M368 766l-150 157h152l124 -157h-126zM408 -10q-162 0 -267.5 100.5t-105.5 264.5t105.5 264.5t268.5 100.5t268.5 -100t105.5 -262q0 -163 -106 -265.5t-269 -102.5zM409 149q88 0 143 57.5t55 148.5t-55 148.5t-143 57.5t-143 -57.5t-55 -148.5t55 -148.5t143 -57.5z
" />
    <glyph glyph-name="Oacute" unicode="&#xd3;" horiz-adv-x="818" 
d="M322 766l124 157h152l-150 -157h-126zM408 -10q-162 0 -267.5 100.5t-105.5 264.5t105.5 264.5t268.5 100.5t268.5 -100t105.5 -262q0 -163 -106 -265.5t-269 -102.5zM409 149q88 0 143 57.5t55 148.5t-55 148.5t-143 57.5t-143 -57.5t-55 -148.5t55 -148.5t143 -57.5z
" />
    <glyph glyph-name="Ocircumflex" unicode="&#xd4;" horiz-adv-x="818" 
d="M201 766l134 154h146l134 -154h-127l-80 68l-80 -68h-127zM408 -10q-162 0 -267.5 100.5t-105.5 264.5t105.5 264.5t268.5 100.5t268.5 -100t105.5 -262q0 -163 -106 -265.5t-269 -102.5zM409 149q88 0 143 57.5t55 148.5t-55 148.5t-143 57.5t-143 -57.5t-55 -148.5
t55 -148.5t143 -57.5z" />
    <glyph glyph-name="Otilde" unicode="&#xd5;" horiz-adv-x="818" 
d="M222 766q6 69 35.5 103.5t72.5 34.5q28 0 87 -24q44 -19 57 -19q26 0 33 43h85q-6 -64 -35 -101t-72 -37q-31 0 -85 24q-42 19 -58 19q-26 0 -35 -43h-85zM408 -10q-162 0 -267.5 100.5t-105.5 264.5t105.5 264.5t268.5 100.5t268.5 -100t105.5 -262q0 -163 -106 -265.5
t-269 -102.5zM409 149q88 0 143 57.5t55 148.5t-55 148.5t-143 57.5t-143 -57.5t-55 -148.5t55 -148.5t143 -57.5z" />
    <glyph glyph-name="Odieresis" unicode="&#xd6;" horiz-adv-x="818" 
d="M297 776q-32 0 -54 22.5t-22 54.5q0 31 22.5 53.5t53.5 22.5q33 0 55 -22t22 -54t-22 -54.5t-55 -22.5zM521 776q-33 0 -55 22.5t-22 54.5t22 54t55 22q31 0 53.5 -22.5t22.5 -53.5q0 -32 -22 -54.5t-54 -22.5zM408 -10q-162 0 -267.5 100.5t-105.5 264.5t105.5 264.5
t268.5 100.5t268.5 -100t105.5 -262q0 -163 -106 -265.5t-269 -102.5zM409 149q88 0 143 57.5t55 148.5t-55 148.5t-143 57.5t-143 -57.5t-55 -148.5t55 -148.5t143 -57.5z" />
    <glyph glyph-name="multiply" unicode="&#xd7;" 
d="M519 482l-132 -132l132 -132l-88 -88l-133 132l-131 -131l-88 88l131 131l-131 131l88 88l131 -131l132 132z" />
    <glyph glyph-name="Oslash" unicode="&#xd8;" horiz-adv-x="818" 
d="M656 639q127 -103 127 -281q0 -163 -106 -265.5t-269 -102.5q-75 0 -142 23l-39 -63h-138l75 120q-129 103 -129 285q0 164 105.5 264.5t268.5 100.5q78 0 144 -24l41 65h137zM211 355q0 -83 45 -137l209 336q-24 7 -56 7q-88 0 -143 -57.5t-55 -148.5zM409 149
q88 0 143 57.5t55 148.5q0 82 -43 136l-209 -336q25 -6 54 -6z" />
    <glyph glyph-name="Ugrave" unicode="&#xd9;" horiz-adv-x="737" 
d="M329 766l-150 157h152l124 -157h-126zM368 -10q-136 0 -216.5 73.5t-80.5 202.5v444h168v-425q0 -67 35 -101.5t95 -34.5q61 0 96 34.5t35 101.5v425h166v-444q0 -129 -80.5 -202.5t-217.5 -73.5z" />
    <glyph glyph-name="Uacute" unicode="&#xda;" horiz-adv-x="737" 
d="M284 766l124 157h152l-150 -157h-126zM368 -10q-136 0 -216.5 73.5t-80.5 202.5v444h168v-425q0 -67 35 -101.5t95 -34.5q61 0 96 34.5t35 101.5v425h166v-444q0 -129 -80.5 -202.5t-217.5 -73.5z" />
    <glyph glyph-name="Ucircumflex" unicode="&#xdb;" horiz-adv-x="737" 
d="M162 766l134 154h146l134 -154h-127l-80 68l-80 -68h-127zM368 -10q-136 0 -216.5 73.5t-80.5 202.5v444h168v-425q0 -67 35 -101.5t95 -34.5q61 0 96 34.5t35 101.5v425h166v-444q0 -129 -80.5 -202.5t-217.5 -73.5z" />
    <glyph glyph-name="Udieresis" unicode="&#xdc;" horiz-adv-x="737" 
d="M258 776q-32 0 -54 22.5t-22 54.5q0 31 22 53.5t54 22.5q33 0 55 -22t22 -54t-22 -54.5t-55 -22.5zM482 776q-33 0 -55 22.5t-22 54.5t22 54t55 22q32 0 54 -22.5t22 -53.5q0 -32 -22 -54.5t-54 -22.5zM368 -10q-136 0 -216.5 73.5t-80.5 202.5v444h168v-425
q0 -67 35 -101.5t95 -34.5q61 0 96 34.5t35 101.5v425h166v-444q0 -129 -80.5 -202.5t-217.5 -73.5z" />
    <glyph glyph-name="Yacute" unicode="&#xdd;" horiz-adv-x="626" 
d="M500 923l-150 -157h-126l124 157h152zM626 710l-235 -439v-271h-164v271l-235 439h180l145 -286l145 286h164z" />
    <glyph glyph-name="Thorn" unicode="&#xde;" horiz-adv-x="617" 
d="M302 619q146 0 217 -70t71 -177q0 -50 -16.5 -94t-49.5 -81t-90 -58.5t-132 -21.5h-58v-117h-168v710h168v-91h58zM288 253q58 0 91.5 31t33.5 88q0 111 -125 111h-44v-230h44z" />
    <glyph glyph-name="germandbls" unicode="&#xdf;" horiz-adv-x="618" 
d="M440 413q69 -20 108 -70t39 -128q0 -103 -61.5 -163.5t-157.5 -60.5q-74 0 -123 17l24 131q33 -12 69 -12q40 0 63 27.5t23 72.5q0 49 -34 77.5t-100 28.5h-12v128l18 1q36 2 61.5 24.5t25.5 60.5q0 34 -22 54t-58 20q-88 0 -88 -111v-510h-153v518q0 120 68 180t179 60
q102 0 164 -50.5t62 -138.5q0 -107 -95 -156z" />
    <glyph glyph-name="agrave" unicode="&#xe0;" horiz-adv-x="647" 
d="M294 578l-139 169h143l123 -169h-127zM583 206q0 -60 49 -80l-66 -135q-85 15 -121 89q-26 -43 -72.5 -66.5t-104.5 -23.5q-102 0 -169.5 70t-67.5 190t75 194t190 74q85 0 144 -42l5 32h138v-302zM306 131q54 0 88.5 38.5t33.5 97.5v85q-54 27 -108 27
q-60 0 -94.5 -35.5t-34.5 -93.5q0 -54 32.5 -86.5t82.5 -32.5z" />
    <glyph glyph-name="aacute" unicode="&#xe1;" horiz-adv-x="647" 
d="M231 578l121 169h143l-137 -169h-127zM583 206q0 -60 49 -80l-66 -135q-85 15 -121 89q-26 -43 -72.5 -66.5t-104.5 -23.5q-102 0 -169.5 70t-67.5 190t75 194t190 74q85 0 144 -42l5 32h138v-302zM306 131q54 0 88.5 38.5t33.5 97.5v85q-54 27 -108 27
q-60 0 -94.5 -35.5t-34.5 -93.5q0 -54 32.5 -86.5t82.5 -32.5z" />
    <glyph glyph-name="acircumflex" unicode="&#xe2;" horiz-adv-x="647" 
d="M114 578l134 169h146l134 -169h-127l-80 87l-80 -87h-127zM583 206q0 -60 49 -80l-66 -135q-85 15 -121 89q-26 -43 -72.5 -66.5t-104.5 -23.5q-102 0 -169.5 70t-67.5 190t75 194t190 74q85 0 144 -42l5 32h138v-302zM306 131q54 0 88.5 38.5t33.5 97.5v85
q-54 27 -108 27q-60 0 -94.5 -35.5t-34.5 -93.5q0 -54 32.5 -86.5t82.5 -32.5z" />
    <glyph glyph-name="atilde" unicode="&#xe3;" horiz-adv-x="647" 
d="M135 597q6 71 36.5 104.5t70.5 33.5q35 0 88 -24q41 -19 53 -19q31 0 37 43h85q-6 -67 -36.5 -102.5t-72.5 -35.5q-29 0 -83 24q-43 19 -57 19q-26 0 -36 -43h-85zM583 206q0 -60 49 -80l-66 -135q-85 15 -121 89q-26 -43 -72.5 -66.5t-104.5 -23.5q-102 0 -169.5 70
t-67.5 190t75 194t190 74q85 0 144 -42l5 32h138v-302zM306 131q54 0 88.5 38.5t33.5 97.5v85q-54 27 -108 27q-60 0 -94.5 -35.5t-34.5 -93.5q0 -54 32.5 -86.5t82.5 -32.5z" />
    <glyph glyph-name="adieresis" unicode="&#xe4;" horiz-adv-x="647" 
d="M209 595q-32 0 -54 22.5t-22 54.5t22.5 54t53.5 22q33 0 55 -22t22 -54t-22 -54.5t-55 -22.5zM433 595q-33 0 -55 22.5t-22 54.5t22 54t55 22q31 0 53.5 -22t22.5 -54t-22 -54.5t-54 -22.5zM583 206q0 -60 49 -80l-66 -135q-85 15 -121 89q-26 -43 -72.5 -66.5
t-104.5 -23.5q-102 0 -169.5 70t-67.5 190t75 194t190 74q85 0 144 -42l5 32h138v-302zM306 131q54 0 88.5 38.5t33.5 97.5v85q-54 27 -108 27q-60 0 -94.5 -35.5t-34.5 -93.5q0 -54 32.5 -86.5t82.5 -32.5z" />
    <glyph glyph-name="aring" unicode="&#xe5;" horiz-adv-x="647" 
d="M324 564q-51 0 -84.5 33t-33.5 81t34 81t84 33q49 0 82.5 -33t33.5 -81q0 -49 -33 -81.5t-83 -32.5zM324 641q16 0 26.5 10.5t10.5 26.5q0 15 -10 25t-27 10t-27.5 -9.5t-10.5 -25.5q0 -17 10.5 -27t27.5 -10zM583 206q0 -60 49 -80l-66 -135q-85 15 -121 89
q-26 -43 -72.5 -66.5t-104.5 -23.5q-102 0 -169.5 70t-67.5 190t75 194t190 74q85 0 144 -42l5 32h138v-302zM306 131q54 0 88.5 38.5t33.5 97.5v85q-54 27 -108 27q-60 0 -94.5 -35.5t-34.5 -93.5q0 -54 32.5 -86.5t82.5 -32.5z" />
    <glyph glyph-name="ae" unicode="&#xe6;" horiz-adv-x="962" 
d="M268 -10q-102 0 -169.5 70t-67.5 190t75 194t190 74q84 0 144 -42l5 32h96v-32q61 42 144 42q109 0 177.5 -73.5t68.5 -208.5v-24h-345q17 -94 137 -94q83 0 151 29l32 -120q-81 -37 -194 -37q-102 0 -171 50v-40h-101l-5 67q-57 -77 -167 -77zM590 319h185
q-5 37 -31.5 59.5t-58.5 22.5q-36 0 -61.5 -22t-33.5 -60zM306 131q54 0 88 38t34 96v87q-54 27 -108 27q-60 0 -94.5 -35.5t-34.5 -93.5q0 -54 32.5 -86.5t82.5 -32.5z" />
    <glyph glyph-name="ccedilla" unicode="&#xe7;" horiz-adv-x="535" 
d="M312 -10h-10l-5 -20q61 -17 61 -89q0 -111 -172 -111v78q40 0 55.5 8.5t15.5 27.5q0 33 -41 33l20 80q-96 20 -150.5 89t-54.5 171q0 118 73 189.5t196 71.5q60 0 116.5 -25t91.5 -68l-95 -100q-41 55 -108 55q-47 0 -79 -34t-32 -92q0 -54 34.5 -88t94.5 -34
q67 0 146 42l37 -133q-83 -51 -194 -51z" />
    <glyph glyph-name="egrave" unicode="&#xe8;" horiz-adv-x="565" 
d="M264 578l-139 169h143l123 -169h-127zM534 236v-24h-345q16 -94 137 -94q83 0 151 29l32 -120q-81 -37 -194 -37q-127 0 -205.5 73t-78.5 190q0 124 72 194.5t185 70.5q109 0 177.5 -73.5t68.5 -208.5zM192 319h186q-5 37 -31.5 59.5t-58.5 22.5q-36 0 -61 -22t-35 -60z
" />
    <glyph glyph-name="eacute" unicode="&#xe9;" horiz-adv-x="566" 
d="M205 578l120 169h143l-137 -169h-126zM534 236v-24h-345q16 -94 137 -94q83 0 151 29l32 -120q-81 -37 -194 -37q-127 0 -205.5 73t-78.5 190q0 124 72 194.5t185 70.5q109 0 177.5 -73.5t68.5 -208.5zM192 319h186q-5 37 -31.5 59.5t-58.5 22.5q-36 0 -61 -22t-35 -60z
" />
    <glyph glyph-name="ecircumflex" unicode="&#xea;" horiz-adv-x="566" 
d="M88 578l134 169h145l134 -169h-127l-80 87l-79 -87h-127zM534 236v-24h-345q16 -94 137 -94q83 0 151 29l32 -120q-81 -37 -194 -37q-127 0 -205.5 73t-78.5 190q0 124 72 194.5t185 70.5q109 0 177.5 -73.5t68.5 -208.5zM192 319h186q-5 37 -31.5 59.5t-58.5 22.5
q-36 0 -61 -22t-35 -60z" />
    <glyph glyph-name="edieresis" unicode="&#xeb;" horiz-adv-x="565" 
d="M179 595q-32 0 -54 22.5t-22 54.5t22.5 54t53.5 22q33 0 55 -22t22 -54t-22 -54.5t-55 -22.5zM403 595q-33 0 -55 22.5t-22 54.5t22 54t55 22q31 0 53.5 -22t22.5 -54t-22 -54.5t-54 -22.5zM534 236v-24h-345q16 -94 137 -94q83 0 151 29l32 -120q-81 -37 -194 -37
q-127 0 -205.5 73t-78.5 190q0 124 72 194.5t185 70.5q109 0 177.5 -73.5t68.5 -208.5zM192 319h186q-5 37 -31.5 59.5t-58.5 22.5q-36 0 -61 -22t-35 -60z" />
    <glyph glyph-name="igrave" unicode="&#xec;" horiz-adv-x="279" 
d="M115 578l-139 169h143l123 -169h-127zM62 0v508h155v-508h-155z" />
    <glyph glyph-name="iacute" unicode="&#xed;" horiz-adv-x="279" 
d="M52 578l121 169h143l-137 -169h-127zM62 0v508h155v-508h-155z" />
    <glyph glyph-name="icircumflex" unicode="&#xee;" horiz-adv-x="279" 
d="M-45 578l114 169h146l114 -169h-127l-60 82l-60 -82h-127zM62 0v508h155v-508h-155z" />
    <glyph glyph-name="idieresis" unicode="&#xef;" horiz-adv-x="279" 
d="M41 588q-35 0 -59 24.5t-24 59.5t24 58.5t59 23.5t59 -23.5t24 -58.5t-24 -59.5t-59 -24.5zM243 588q-35 0 -59 24.5t-24 59.5t24 58.5t59 23.5t59 -23.5t24 -58.5t-24 -59.5t-59 -24.5zM62 0v508h155v-508h-155z" />
    <glyph glyph-name="eth" unicode="&#xf0;" horiz-adv-x="624" 
d="M441 634q152 -141 152 -355q0 -131 -77 -210t-203 -79q-123 0 -202.5 69.5t-79.5 189.5q0 114 78 183.5t194 69.5q50 0 90 -19q-39 57 -89 96l-146 -59l-44 87l87 35q-44 21 -94 36l98 88q80 -26 145 -64l136 55l44 -87zM311 125q55 0 91 35.5t36 90.5t-35 89t-90 34
q-56 0 -92 -34t-36 -89q0 -56 35.5 -91t90.5 -35z" />
    <glyph glyph-name="ntilde" unicode="&#xf1;" horiz-adv-x="625" 
d="M139 597q6 71 36.5 104.5t70.5 33.5q35 0 88 -24q41 -19 53 -19q31 0 37 43h85q-6 -67 -36.5 -102.5t-72.5 -35.5q-29 0 -83 24q-43 19 -57 19q-26 0 -36 -43h-85zM377 519q94 0 141.5 -55.5t47.5 -159.5v-304h-155v281q0 100 -86 100q-61 0 -108 -57v-324h-155v508h155
v-57q63 68 160 68z" />
    <glyph glyph-name="ograve" unicode="&#xf2;" horiz-adv-x="624" 
d="M285 578l-139 169h143l123 -169h-127zM312 -10q-124 0 -202.5 74.5t-78.5 189.5t78.5 189.5t202.5 74.5t202.5 -74.5t78.5 -189.5t-78.5 -189.5t-202.5 -74.5zM312 131q54 0 87.5 34.5t33.5 89.5q0 54 -33.5 88t-86.5 34q-54 0 -88 -34t-34 -89t33.5 -89t87.5 -34z" />
    <glyph glyph-name="oacute" unicode="&#xf3;" horiz-adv-x="624" 
d="M222 578l121 169h143l-137 -169h-127zM312 -10q-124 0 -202.5 74.5t-78.5 189.5t78.5 189.5t202.5 74.5t202.5 -74.5t78.5 -189.5t-78.5 -189.5t-202.5 -74.5zM312 131q54 0 87.5 34.5t33.5 89.5q0 54 -33.5 88t-86.5 34q-54 0 -88 -34t-34 -89t33.5 -89t87.5 -34z" />
    <glyph glyph-name="ocircumflex" unicode="&#xf4;" horiz-adv-x="624" 
d="M105 578l134 169h146l134 -169h-127l-80 87l-80 -87h-127zM312 -10q-124 0 -202.5 74.5t-78.5 189.5t78.5 189.5t202.5 74.5t202.5 -74.5t78.5 -189.5t-78.5 -189.5t-202.5 -74.5zM312 131q54 0 87.5 34.5t33.5 89.5q0 54 -33.5 88t-86.5 34q-54 0 -88 -34t-34 -89
t33.5 -89t87.5 -34z" />
    <glyph glyph-name="otilde" unicode="&#xf5;" horiz-adv-x="624" 
d="M126 597q6 71 36.5 104.5t70.5 33.5q35 0 88 -24q41 -19 53 -19q31 0 37 43h85q-6 -67 -36.5 -102.5t-72.5 -35.5q-29 0 -83 24q-43 19 -57 19q-26 0 -36 -43h-85zM312 -10q-124 0 -202.5 74.5t-78.5 189.5t78.5 189.5t202.5 74.5t202.5 -74.5t78.5 -189.5t-78.5 -189.5
t-202.5 -74.5zM312 131q54 0 87.5 34.5t33.5 89.5q0 54 -33.5 88t-86.5 34q-54 0 -88 -34t-34 -89t33.5 -89t87.5 -34z" />
    <glyph glyph-name="odieresis" unicode="&#xf6;" horiz-adv-x="624" 
d="M200 595q-32 0 -54 22.5t-22 54.5t22 54t54 22q33 0 55 -22t22 -54t-22 -54.5t-55 -22.5zM424 595q-33 0 -55 22.5t-22 54.5t22 54t55 22q32 0 54 -22t22 -54t-22 -54.5t-54 -22.5zM312 -10q-124 0 -202.5 74.5t-78.5 189.5t78.5 189.5t202.5 74.5t202.5 -74.5
t78.5 -189.5t-78.5 -189.5t-202.5 -74.5zM312 131q54 0 87.5 34.5t33.5 89.5q0 54 -33.5 88t-86.5 34q-54 0 -88 -34t-34 -89t33.5 -89t87.5 -34z" />
    <glyph glyph-name="divide" unicode="&#xf7;" 
d="M298 456q-32 0 -54.5 22.5t-22.5 55.5q0 32 22.5 54.5t54.5 22.5q33 0 55.5 -22.5t22.5 -54.5q0 -33 -22.5 -55.5t-55.5 -22.5zM73 288v124h450v-124h-450zM298 89q-32 0 -54.5 22.5t-22.5 54.5q0 33 22.5 55.5t54.5 22.5q33 0 55.5 -22.5t22.5 -55.5q0 -32 -22.5 -54.5
t-55.5 -22.5z" />
    <glyph glyph-name="oslash" unicode="&#xf8;" horiz-adv-x="624" 
d="M502 451q91 -77 91 -197q0 -112 -81 -188t-200 -76q-59 0 -110 20l-44 -64h-111l75 111q-91 78 -91 197q0 112 81 188t200 76q59 0 111 -20l38 56h112zM183 254q0 -43 22 -76l138 203q-13 4 -31 4q-54 0 -91.5 -37t-37.5 -94zM312 123q54 0 91.5 37.5t37.5 93.5
q0 42 -22 75l-138 -203q15 -3 31 -3z" />
    <glyph glyph-name="ugrave" unicode="&#xf9;" horiz-adv-x="625" 
d="M285 577l-139 169h143l123 -169h-127zM408 509h155v-509h-155v58q-63 -68 -158 -68t-143 56t-48 160v303h155v-281q0 -99 88 -99q62 0 106 56v324z" />
    <glyph glyph-name="uacute" unicode="&#xfa;" horiz-adv-x="625" 
d="M221 577l121 169h143l-137 -169h-127zM408 509h155v-509h-155v58q-63 -68 -158 -68t-143 56t-48 160v303h155v-281q0 -99 88 -99q62 0 106 56v324z" />
    <glyph glyph-name="ucircumflex" unicode="&#xfb;" horiz-adv-x="625" 
d="M105 577l134 169h146l134 -169h-127l-80 87l-80 -87h-127zM408 509h155v-509h-155v58q-63 -68 -158 -68t-143 56t-48 160v303h155v-281q0 -99 88 -99q62 0 106 56v324z" />
    <glyph glyph-name="udieresis" unicode="&#xfc;" horiz-adv-x="625" 
d="M199 594q-32 0 -54 22.5t-22 54.5q0 31 22.5 53.5t53.5 22.5q33 0 55 -22t22 -54t-22 -54.5t-55 -22.5zM423 594q-33 0 -55 22.5t-22 54.5t22 54t55 22q31 0 53.5 -22.5t22.5 -53.5q0 -32 -22 -54.5t-54 -22.5zM408 509h155v-509h-155v58q-63 -68 -158 -68t-143 56
t-48 160v303h155v-281q0 -99 88 -99q62 0 106 56v324z" />
    <glyph glyph-name="yacute" unicode="&#xfd;" horiz-adv-x="551" 
d="M454 747l-137 -169h-127l121 169h143zM395 508h160l-195 -503q-43 -115 -102.5 -167.5t-156.5 -52.5h-19l-28 136h5q51 0 85.5 21t58.5 76l-207 490h169l119 -317z" />
    <glyph glyph-name="thorn" unicode="&#xfe;" horiz-adv-x="642" 
d="M368 518q106 0 174.5 -73.5t68.5 -189.5t-69.5 -190.5t-179.5 -74.5q-99 0 -145 63v-263h-155v962h155v-301q47 67 151 67zM328 130q56 0 89 33.5t33 91.5q0 57 -32 90t-86 33q-71 0 -117 -67v-154q46 -27 113 -27z" />
    <glyph glyph-name="ydieresis" unicode="&#xff;" horiz-adv-x="551" 
d="M168 595q-32 0 -54 22.5t-22 54.5t22 54t54 22q33 0 55 -22t22 -54t-22 -54.5t-55 -22.5zM392 595q-33 0 -55 22.5t-22 54.5t22 54t55 22q32 0 54 -22t22 -54t-22 -54.5t-54 -22.5zM395 508h160l-195 -503q-43 -115 -102.5 -167.5t-156.5 -52.5h-19l-28 136h5
q51 0 85.5 21t58.5 76l-207 490h169l119 -317z" />
    <glyph glyph-name="Amacron" unicode="&#x100;" horiz-adv-x="703" 
d="M535 886v-93h-368v93h368zM524 0l-49 145h-256l-49 -145h-169l258 710h184l259 -710h-178zM263 277h168l-84 251z" />
    <glyph glyph-name="amacron" unicode="&#x101;" horiz-adv-x="647" 
d="M152 607v98h338v-98h-338zM583 206q0 -60 49 -80l-66 -135q-85 15 -121 89q-26 -43 -72.5 -66.5t-104.5 -23.5q-102 0 -169.5 70t-67.5 190t75 194t190 74q85 0 144 -42l5 32h138v-302zM306 131q54 0 88.5 38.5t33.5 97.5v85q-54 27 -108 27q-60 0 -94.5 -35.5
t-34.5 -93.5q0 -54 32.5 -86.5t82.5 -32.5z" />
    <glyph glyph-name="Abreve" unicode="&#x102;" horiz-adv-x="703" 
d="M350 770q-82 0 -124.5 41t-43.5 107h97q2 -26 20.5 -42t52.5 -16q33 0 52 16t21 42h97q-1 -65 -46 -106.5t-126 -41.5zM524 0l-49 145h-256l-49 -145h-169l258 710h184l259 -710h-178zM263 277h168l-84 251z" />
    <glyph glyph-name="abreve" unicode="&#x103;" horiz-adv-x="647" 
d="M321 574q-86 0 -128.5 47t-43.5 126h105q3 -82 67 -82q63 0 67 82h105q-1 -79 -43.5 -126t-128.5 -47zM583 206q0 -60 49 -80l-66 -135q-85 15 -121 89q-26 -43 -72.5 -66.5t-104.5 -23.5q-102 0 -169.5 70t-67.5 190t75 194t190 74q85 0 144 -42l5 32h138v-302zM306 131
q54 0 88.5 38.5t33.5 97.5v85q-54 27 -108 27q-60 0 -94.5 -35.5t-34.5 -93.5q0 -54 32.5 -86.5t82.5 -32.5z" />
    <glyph glyph-name="Aogonek" unicode="&#x104;" horiz-adv-x="703" 
d="M706 -117l19 -78q-40 -14 -85 -14q-57 0 -89 27.5t-32 73.5q0 64 57 108h-52l-49 145h-256l-49 -145h-169l258 710h184l259 -710h-1q-80 -31 -80 -83q0 -20 11.5 -31t29.5 -11q23 0 44 8zM263 277h168l-84 251z" />
    <glyph glyph-name="aogonek" unicode="&#x105;" horiz-adv-x="647" 
d="M522 -125q23 0 44 8l19 -78q-40 -14 -85 -14q-57 0 -89 27.5t-32 73.5q0 45 28.5 80t77.5 56q-24 20 -40 52q-26 -43 -72.5 -66.5t-104.5 -23.5q-102 0 -169.5 70t-67.5 190t75 194t190 74q85 0 144 -42l5 32h138v-302q0 -60 49 -80l-66 -135q-12 2 -17 4
q-68 -29 -68 -78q0 -20 11.5 -31t29.5 -11zM306 131q54 0 88.5 38.5t33.5 97.5v85q-54 27 -108 27q-60 0 -94.5 -35.5t-34.5 -93.5q0 -54 32.5 -86.5t82.5 -32.5z" />
    <glyph glyph-name="Cacute" unicode="&#x106;" horiz-adv-x="693" 
d="M305 768l124 157h152l-150 -157h-126zM422 -10q-175 0 -281 100t-106 274q0 165 101 260.5t253 95.5q186 0 277 -135l-125 -98q-55 76 -152 76q-80 0 -129 -56.5t-49 -142.5q0 -96 60 -156.5t164 -60.5q87 0 172 48l63 -138q-106 -67 -248 -67z" />
    <glyph glyph-name="cacute" unicode="&#x107;" horiz-adv-x="535" 
d="M204 578l121 169h143l-137 -169h-127zM312 -10q-129 0 -205 73t-76 194q0 118 73 189.5t196 71.5q60 0 116.5 -25t91.5 -68l-95 -100q-41 55 -108 55q-47 0 -79 -34t-32 -92q0 -54 34.5 -88t94.5 -34q67 0 146 42l37 -133q-83 -51 -194 -51z" />
    <glyph glyph-name="Ccircumflex" unicode="&#x108;" horiz-adv-x="693" 
d="M183 768l134 154h146l134 -154h-127l-80 68l-80 -68h-127zM422 -10q-175 0 -281 100t-106 274q0 165 101 260.5t253 95.5q186 0 277 -135l-125 -98q-55 76 -152 76q-80 0 -129 -56.5t-49 -142.5q0 -96 60 -156.5t164 -60.5q87 0 172 48l63 -138q-106 -67 -248 -67z" />
    <glyph glyph-name="ccircumflex" unicode="&#x109;" horiz-adv-x="535" 
d="M87 578l134 169h146l134 -169h-127l-80 87l-80 -87h-127zM312 -10q-129 0 -205 73t-76 194q0 118 73 189.5t196 71.5q60 0 116.5 -25t91.5 -68l-95 -100q-41 55 -108 55q-47 0 -79 -34t-32 -92q0 -54 34.5 -88t94.5 -34q67 0 146 42l37 -133q-83 -51 -194 -51z" />
    <glyph glyph-name="Cdotaccent" unicode="&#x10a;" horiz-adv-x="693" 
d="M390 765q-37 0 -63 26t-26 64q0 37 25.5 63t63.5 26t63.5 -26t25.5 -63q0 -38 -26 -64t-63 -26zM422 -10q-175 0 -281 100t-106 274q0 165 101 260.5t253 95.5q186 0 277 -135l-125 -98q-55 76 -152 76q-80 0 -129 -56.5t-49 -142.5q0 -96 60 -156.5t164 -60.5
q87 0 172 48l63 -138q-106 -67 -248 -67z" />
    <glyph glyph-name="cdotaccent" unicode="&#x10b;" horiz-adv-x="535" 
d="M294 580q-38 0 -63.5 26t-25.5 63t25.5 63t63.5 26t63.5 -26t25.5 -63t-25.5 -63t-63.5 -26zM312 -10q-129 0 -205 73t-76 194q0 118 73 189.5t196 71.5q60 0 116.5 -25t91.5 -68l-95 -100q-41 55 -108 55q-47 0 -79 -34t-32 -92q0 -54 34.5 -88t94.5 -34q67 0 146 42
l37 -133q-83 -51 -194 -51z" />
    <glyph glyph-name="Ccaron" unicode="&#x10c;" horiz-adv-x="693" 
d="M596 922l-134 -154h-146l-134 154h127l80 -68l80 68h127zM422 -10q-175 0 -281 100t-106 274q0 165 101 260.5t253 95.5q186 0 277 -135l-125 -98q-55 76 -152 76q-80 0 -129 -56.5t-49 -142.5q0 -96 60 -156.5t164 -60.5q87 0 172 48l63 -138q-106 -67 -248 -67z" />
    <glyph glyph-name="ccaron" unicode="&#x10d;" horiz-adv-x="535" 
d="M221 578l-131 169h126l78 -83l76 83h126l-129 -169h-146zM312 -10q-129 0 -205 73t-76 194q0 118 73 189.5t196 71.5q60 0 116.5 -25t91.5 -68l-95 -100q-41 55 -108 55q-47 0 -79 -34t-32 -92q0 -54 34.5 -88t94.5 -34q67 0 146 42l37 -133q-83 -51 -194 -51z" />
    <glyph glyph-name="Dcaron" unicode="&#x10e;" horiz-adv-x="756" 
d="M570 920l-134 -154h-146l-134 154h127l80 -68l80 68h127zM351 710q165 0 267.5 -96.5t102.5 -255.5t-103 -258.5t-267 -99.5h-275v710h275zM333 145q98 0 154.5 56t56.5 156q0 99 -57 153.5t-154 54.5h-89v-420h89z" />
    <glyph glyph-name="dcaron" unicode="&#x10f;" horiz-adv-x="643" 
d="M428 752h155v-752h-155v68q-56 -78 -160 -78q-102 0 -169.5 70t-67.5 190t74 194t190 74q65 0 133 -29v263zM622 538l45 214h159l-78 -214h-126zM306 131q54 0 88.5 38.5t33.5 97.5v85q-54 27 -115 27q-56 0 -89 -35.5t-33 -93.5q0 -54 32.5 -86.5t82.5 -32.5z" />
    <glyph glyph-name="Dcroat" unicode="&#x110;" horiz-adv-x="754" 
d="M351 710q165 0 267.5 -96.5t102.5 -255.5t-103 -258.5t-267 -99.5h-275v291h-70v129h70v290h275zM333 145q98 0 154.5 56t56.5 156q0 99 -57 153.5t-154 54.5h-89v-145h141v-129h-141v-146h89z" />
    <glyph glyph-name="dcroat" unicode="&#x111;" horiz-adv-x="643" 
d="M633 684v-108h-50v-576h-155v68q-56 -78 -160 -78q-102 0 -169.5 70t-67.5 190t74 194t190 74q65 0 133 -29v87h-144v108h144v68h155v-68h50zM306 131q54 0 88.5 38.5t33.5 97.5v85q-54 27 -115 27q-56 0 -89 -35.5t-33 -93.5q0 -54 32.5 -86.5t82.5 -32.5z" />
    <glyph glyph-name="Emacron" unicode="&#x112;" horiz-adv-x="609" 
d="M117 793v93h368v-93h-368zM76 0v710h467v-147h-299v-137h280v-142h-280v-137h304v-147h-472z" />
    <glyph glyph-name="emacron" unicode="&#x113;" horiz-adv-x="566" 
d="M125 607v98h339v-98h-339zM534 236v-24h-345q16 -94 137 -94q83 0 151 29l32 -120q-81 -37 -194 -37q-127 0 -205.5 73t-78.5 190q0 124 72 194.5t185 70.5q109 0 177.5 -73.5t68.5 -208.5zM192 319h186q-5 37 -31.5 59.5t-58.5 22.5q-36 0 -61 -22t-35 -60z" />
    <glyph glyph-name="Ebreve" unicode="&#x114;" horiz-adv-x="609" 
d="M300 770q-82 0 -124.5 41t-43.5 107h97q2 -26 20.5 -42t52.5 -16q33 0 52 16t21 42h97q-1 -65 -46 -106.5t-126 -41.5zM76 0v710h467v-147h-299v-137h280v-142h-280v-137h304v-147h-472z" />
    <glyph glyph-name="ebreve" unicode="&#x115;" horiz-adv-x="566" 
d="M294 574q-86 0 -128.5 47t-42.5 126h105q1 -82 66 -82q64 0 67 82h105q0 -79 -43 -126t-129 -47zM534 236v-24h-345q16 -94 137 -94q83 0 151 29l32 -120q-81 -37 -194 -37q-127 0 -205.5 73t-78.5 190q0 124 72 194.5t185 70.5q109 0 177.5 -73.5t68.5 -208.5zM192 319
h186q-5 37 -31.5 59.5t-58.5 22.5q-36 0 -61 -22t-35 -60z" />
    <glyph glyph-name="Edotaccent" unicode="&#x116;" horiz-adv-x="609" 
d="M302 763q-37 0 -63 26t-26 64q0 37 25.5 63t63.5 26t63.5 -26t25.5 -63q0 -38 -26 -64t-63 -26zM76 0v710h467v-147h-299v-137h280v-142h-280v-137h304v-147h-472z" />
    <glyph glyph-name="edotaccent" unicode="&#x117;" horiz-adv-x="565" 
d="M291 580q-37 0 -63 26t-26 63t26 63t63 26t63 -26t26 -63t-26 -63t-63 -26zM534 236v-24h-345q16 -94 137 -94q83 0 151 29l32 -120q-81 -37 -194 -37q-127 0 -205.5 73t-78.5 190q0 124 72 194.5t185 70.5q109 0 177.5 -73.5t68.5 -208.5zM192 319h186q-5 37 -31.5 59.5
t-58.5 22.5q-36 0 -61 -22t-35 -60z" />
    <glyph glyph-name="Eogonek" unicode="&#x118;" horiz-adv-x="609" 
d="M533 -117l19 -78q-40 -14 -85 -14q-57 0 -89 27.5t-32 73.5q0 64 57 108h-327v710h467v-147h-299v-137h280v-142h-280v-137h304v-147h-20q-80 -31 -80 -83q0 -20 11.5 -31t29.5 -11q23 0 44 8z" />
    <glyph glyph-name="eogonek" unicode="&#x119;" horiz-adv-x="565" 
d="M534 236v-24h-345q16 -94 137 -94q83 0 151 29l32 -120q-44 -20 -92 -29q-75 -31 -75 -81q0 -20 11.5 -31t29.5 -11q23 0 44 8l19 -78q-40 -14 -85 -14q-57 0 -89 27.5t-32 73.5q0 56 46 99q-115 8 -185 80t-70 182q0 124 72 194.5t185 70.5q109 0 177.5 -73.5
t68.5 -208.5zM192 319h186q-5 37 -31.5 59.5t-58.5 22.5q-36 0 -61 -22t-35 -60z" />
    <glyph glyph-name="Ecaron" unicode="&#x11a;" horiz-adv-x="609" 
d="M509 920l-134 -154h-146l-134 154h127l80 -68l80 68h127zM76 0v710h467v-147h-299v-137h280v-142h-280v-137h304v-147h-472z" />
    <glyph glyph-name="ecaron" unicode="&#x11b;" horiz-adv-x="566" 
d="M222 578l-132 169h127l77 -83l76 83h127l-130 -169h-145zM534 236v-24h-345q16 -94 137 -94q83 0 151 29l32 -120q-81 -37 -194 -37q-127 0 -205.5 73t-78.5 190q0 124 72 194.5t185 70.5q109 0 177.5 -73.5t68.5 -208.5zM192 319h186q-5 37 -31.5 59.5t-58.5 22.5
q-36 0 -61 -22t-35 -60z" />
    <glyph glyph-name="Gcircumflex" unicode="&#x11c;" horiz-adv-x="763" 
d="M189 766l134 154h146l134 -154h-127l-80 68l-80 -68h-127zM419 -11q-176 0 -280 98t-104 264q0 173 103 271t256 98q89 0 165.5 -36.5t127.5 -103.5l-129 -99q-68 82 -164 82q-74 0 -128.5 -55t-54.5 -156q0 -99 56.5 -151.5t149.5 -52.5q66 0 109 20v74h-116v141h282
v-327q-127 -67 -273 -67z" />
    <glyph glyph-name="gcircumflex" unicode="&#x11d;" horiz-adv-x="643" 
d="M109 578l134 169h146l134 -169h-127l-80 87l-80 -87h-127zM444 508h139v-457q0 -135 -75.5 -201.5t-209.5 -66.5q-137 0 -240 51l53 127q90 -45 187 -45q57 0 93.5 34t36.5 91v42q-53 -76 -165 -76q-103 0 -167.5 68t-64.5 182q0 115 70 188t181 73q93 0 156 -47z
M302 139q54 0 91 36t37 87v92q-47 33 -114 33q-55 0 -90.5 -36.5t-35.5 -93.5q0 -53 30 -85.5t82 -32.5z" />
    <glyph glyph-name="Gbreve" unicode="&#x11e;" horiz-adv-x="763" 
d="M394 770q-82 0 -124.5 41t-43.5 107h97q2 -26 20.5 -42t52.5 -16q33 0 52 16t21 42h97q-1 -65 -46 -106.5t-126 -41.5zM419 -11q-176 0 -280 98t-104 264q0 173 103 271t256 98q89 0 165.5 -36.5t127.5 -103.5l-129 -99q-68 82 -164 82q-74 0 -128.5 -55t-54.5 -156
q0 -99 56.5 -151.5t149.5 -52.5q66 0 109 20v74h-116v141h282v-327q-127 -67 -273 -67z" />
    <glyph glyph-name="gbreve" unicode="&#x11f;" horiz-adv-x="643" 
d="M316 574q-86 0 -128.5 47t-43.5 126h105q3 -82 67 -82q63 0 67 82h105q-1 -79 -43.5 -126t-128.5 -47zM444 508h139v-457q0 -135 -75.5 -201.5t-209.5 -66.5q-137 0 -240 51l53 127q90 -45 187 -45q57 0 93.5 34t36.5 91v42q-53 -76 -165 -76q-103 0 -167.5 68t-64.5 182
q0 115 70 188t181 73q93 0 156 -47zM302 139q54 0 91 36t37 87v92q-47 33 -114 33q-55 0 -90.5 -36.5t-35.5 -93.5q0 -53 30 -85.5t82 -32.5z" />
    <glyph glyph-name="Gdotaccent" unicode="&#x120;" horiz-adv-x="763" 
d="M396 763q-37 0 -63 26t-26 64q0 37 25.5 63t63.5 26t63.5 -26t25.5 -63q0 -38 -26 -64t-63 -26zM419 -11q-176 0 -280 98t-104 264q0 173 103 271t256 98q89 0 165.5 -36.5t127.5 -103.5l-129 -99q-68 82 -164 82q-74 0 -128.5 -55t-54.5 -156q0 -99 56.5 -151.5
t149.5 -52.5q66 0 109 20v74h-116v141h282v-327q-127 -67 -273 -67z" />
    <glyph glyph-name="gdotaccent" unicode="&#x121;" horiz-adv-x="643" 
d="M316 580q-38 0 -63.5 26t-25.5 63t25.5 63t63.5 26t63.5 -26t25.5 -63t-25.5 -63t-63.5 -26zM444 508h139v-457q0 -135 -75.5 -201.5t-209.5 -66.5q-137 0 -240 51l53 127q90 -45 187 -45q57 0 93.5 34t36.5 91v42q-53 -76 -165 -76q-103 0 -167.5 68t-64.5 182
q0 115 70 188t181 73q93 0 156 -47zM302 139q54 0 91 36t37 87v92q-47 33 -114 33q-55 0 -90.5 -36.5t-35.5 -93.5q0 -53 30 -85.5t82 -32.5z" />
    <glyph glyph-name="uni0122" unicode="&#x122;" horiz-adv-x="763" 
d="M419 -11q-176 0 -280 98t-104 264q0 173 103 271t256 98q89 0 165.5 -36.5t127.5 -103.5l-129 -99q-68 82 -164 82q-74 0 -128.5 -55t-54.5 -156q0 -99 56.5 -151.5t149.5 -52.5q66 0 109 20v74h-116v141h282v-327q-127 -67 -273 -67zM289 -221l68 176h143l-88 -176h-123
z" />
    <glyph glyph-name="uni0123" unicode="&#x123;" horiz-adv-x="643" 
d="M221 578l101 185h125l-82 -185h-144zM444 508h139v-457q0 -135 -75.5 -201.5t-209.5 -66.5q-137 0 -240 51l53 127q90 -45 187 -45q57 0 93.5 34t36.5 91v42q-53 -76 -165 -76q-103 0 -167.5 68t-64.5 182q0 115 70 188t181 73q93 0 156 -47zM302 139q54 0 91 36t37 87
v92q-47 33 -114 33q-55 0 -90.5 -36.5t-35.5 -93.5q0 -53 30 -85.5t82 -32.5z" />
    <glyph glyph-name="Hcircumflex" unicode="&#x124;" horiz-adv-x="799" 
d="M176 766l134 154h146l134 -154h-127l-80 68l-80 -68h-127zM555 710h168v-710h-168v282h-311v-282h-168v710h168v-282h311v282z" />
    <glyph glyph-name="hcircumflex" unicode="&#x125;" horiz-adv-x="625" 
d="M220 762l-80 68l-80 -68h-126l133 154h146l134 -154h-127zM377 519q94 0 141.5 -55.5t47.5 -159.5v-304h-155v281q0 100 -86 100q-61 0 -108 -57v-324h-155v707h155v-256q64 68 160 68z" />
    <glyph glyph-name="Hbar" unicode="&#x126;" horiz-adv-x="799" 
d="M555 710h168v-710h-168v282h-311v-282h-168v710h168v-73h311v73zM244 428h311v80h-311v-80z" />
    <glyph glyph-name="hbar" unicode="&#x127;" horiz-adv-x="625" 
d="M377 519q94 0 141.5 -55.5t47.5 -159.5v-304h-155v281q0 100 -86 100q-61 0 -108 -57v-324h-155v575h-51v109h51v68h155v-68h146v-109h-146v-124q64 68 160 68z" />
    <glyph glyph-name="Itilde" unicode="&#x128;" horiz-adv-x="320" 
d="M-26 766q6 69 35.5 103.5t72.5 34.5q28 0 87 -24q44 -19 57 -19q26 0 33 43h85q-6 -64 -35 -101t-72 -37q-31 0 -85 24q-42 19 -58 19q-26 0 -35 -43h-85zM76 0v710h168v-710h-168z" />
    <glyph glyph-name="itilde" unicode="&#x129;" horiz-adv-x="279" 
d="M-28 597q5 70 28 104t71 34q31 0 75 -24q32 -19 47 -19q27 0 32 43h83q-12 -138 -100 -138q-25 0 -71 24q-35 19 -50 19q-25 0 -32 -43h-83zM62 0v508h155v-508h-155z" />
    <glyph glyph-name="Imacron" unicode="&#x12a;" horiz-adv-x="320" 
d="M-25 793v93h368v-93h-368zM76 0v710h168v-710h-168z" />
    <glyph glyph-name="imacron" unicode="&#x12b;" horiz-adv-x="279" 
d="M-13 607v99h308v-99h-308zM62 0v508h155v-508h-155z" />
    <glyph glyph-name="Ibreve" unicode="&#x12c;" horiz-adv-x="320" 
d="M158 770q-82 0 -124.5 41t-43.5 107h97q2 -26 20.5 -42t52.5 -16q33 0 52 16t21 42h97q-1 -65 -46 -106.5t-126 -41.5zM76 0v710h168v-710h-168z" />
    <glyph glyph-name="ibreve" unicode="&#x12d;" horiz-adv-x="279" 
d="M142 574q-81 0 -121 46.5t-41 126.5h105q3 -82 57 -82q53 0 57 82h105q-1 -80 -41 -126.5t-121 -46.5zM62 0v508h155v-508h-155z" />
    <glyph glyph-name="Iogonek" unicode="&#x12e;" horiz-adv-x="320" 
d="M249 -117l19 -78q-40 -14 -85 -14q-57 0 -89 27.5t-32 73.5q0 64 57 108h-43v710h168v-710q-80 -31 -80 -83q0 -20 11.5 -31t29.5 -11q23 0 44 8z" />
    <glyph glyph-name="iogonek" unicode="&#x12f;" horiz-adv-x="279" 
d="M142 580q-38 0 -63.5 26t-25.5 63q0 38 25.5 64t63.5 26t63.5 -26t25.5 -64q0 -37 -25.5 -63t-63.5 -26zM222 -117l19 -78q-40 -14 -85 -14q-57 0 -89 27.5t-32 73.5q0 64 57 108h-30v508h155v-508q-80 -31 -80 -83q0 -20 11.5 -31t29.5 -11q23 0 44 8z" />
    <glyph glyph-name="Idotaccent" unicode="&#x130;" horiz-adv-x="320" 
d="M160 763q-37 0 -63 26t-26 64q0 37 25.5 63t63.5 26t63.5 -26t25.5 -63q0 -38 -26 -64t-63 -26zM76 0v710h168v-710h-168z" />
    <glyph glyph-name="dotlessi" unicode="&#x131;" horiz-adv-x="279" 
d="M62 0v508h155v-508h-155z" />
    <glyph glyph-name="IJ" unicode="&#x132;" horiz-adv-x="765" 
d="M76 0v710h168v-710h-168zM464 -9q-80 0 -141 25l27 142q49 -17 85 -17q99 0 99 142v427h167v-449q0 -128 -62 -199t-175 -71z" />
    <glyph glyph-name="ij" unicode="&#x133;" horiz-adv-x="556" 
d="M142 580q-38 0 -63.5 26t-25.5 63q0 38 25.5 64t63.5 26t63.5 -26t25.5 -64q0 -37 -25.5 -63t-63.5 -26zM419 580q-37 0 -63 26t-26 63q0 38 26 64t63 26q38 0 64 -26t26 -64t-26 -63.5t-64 -25.5zM62 0v508h155v-508h-155zM277 -216l-36 138q100 16 100 104v482h155
v-498q0 -116 -54 -166t-165 -60z" />
    <glyph glyph-name="Jcircumflex" unicode="&#x134;" horiz-adv-x="444" 
d="M91 766l134 154h146l134 -154h-127l-80 68l-80 -68h-127zM144 -9q-80 0 -141 25l27 142q49 -17 85 -17q99 0 99 142v427h167v-449q0 -128 -62 -199t-175 -71z" />
    <glyph glyph-name="jcircumflex" unicode="&#x135;" horiz-adv-x="277" 
d="M-47 578l114 169h146l114 -169h-127l-60 82l-60 -82h-127zM-2 -216l-36 138q100 16 100 104v482h155v-498q0 -116 -54 -166t-165 -60z" />
    <glyph glyph-name="uni0136" unicode="&#x136;" horiz-adv-x="689" 
d="M661 140h23l-21 -143h-29q-87 0 -140.5 34t-104.5 109l-102 151h-43v-291h-168v710h168v-295h31l204 295h183l-243 -342l104 -142q63 -86 138 -86zM221 -221l69 176h143l-88 -176h-124z" />
    <glyph glyph-name="uni0137" unicode="&#x137;" horiz-adv-x="574" 
d="M552 -5q-86 0 -136 30.5t-101 97.5l-65 86h-33v-209h-155v752h155v-433h35l130 189h172l-163 -239l31 -41q39 -47 72 -68t79 -21zM185 -221l69 176h143l-88 -176h-124z" />
    <glyph glyph-name="kgreenlandic" unicode="&#x138;" horiz-adv-x="574" 
d="M553 -5q-60 0 -105 17t-72 41.5t-61 68.5l-66 86h-32v-208h-155v508h155v-190h35l130 190h172l-163 -240l31 -40q39 -48 71.5 -68.5t79.5 -20.5z" />
    <glyph glyph-name="Lacute" unicode="&#x139;" horiz-adv-x="534" 
d="M84 766l124 157h152l-150 -157h-126zM244 150h270v-150h-438v710h168v-560z" />
    <glyph glyph-name="lacute" unicode="&#x13a;" horiz-adv-x="331" 
d="M73 762l125 157h152l-150 -157h-127zM305 -6q-128 0 -187 53t-59 167v501h155v-479q0 -48 29.5 -73.5t84.5 -25.5l-17 -143h-6z" />
    <glyph glyph-name="uni013B" unicode="&#x13b;" horiz-adv-x="534" 
d="M244 150h270v-150h-438v710h168v-560zM169 -221l69 176h143l-88 -176h-124z" />
    <glyph glyph-name="uni013C" unicode="&#x13c;" horiz-adv-x="331" 
d="M305 -6q-128 0 -187 53t-59 167v538h155v-516q0 -48 29.5 -73.5t84.5 -25.5l-17 -143h-6zM57 -221l69 176h143l-88 -176h-124z" />
    <glyph glyph-name="Lcaron" unicode="&#x13d;" horiz-adv-x="534" 
d="M244 150h270v-150h-438v710h168v-560zM317 496l45 214h159l-78 -214h-126z" />
    <glyph glyph-name="lcaron" unicode="&#x13e;" horiz-adv-x="335" 
d="M305 -6q-128 0 -187 53t-59 167v538h155v-516q0 -48 29.5 -73.5t84.5 -25.5l-17 -143h-6zM253 538l45 214h159l-78 -214h-126z" />
    <glyph glyph-name="Ldot" unicode="&#x13f;" horiz-adv-x="534" 
d="M244 150h270v-150h-438v710h168v-560zM428 321q-38 0 -64 25.5t-26 63.5t26 64t64 26q37 0 63 -26t26 -64t-25.5 -63.5t-63.5 -25.5z" />
    <glyph glyph-name="ldot" unicode="&#x140;" horiz-adv-x="409" 
d="M305 -6q-128 0 -187 53t-59 167v538h155v-516q0 -48 29.5 -73.5t84.5 -25.5l-17 -143h-6zM344 320q-38 0 -63.5 26t-25.5 64t25.5 63.5t63.5 25.5t64 -26t26 -63q0 -38 -26 -64t-64 -26z" />
    <glyph glyph-name="Lslash" unicode="&#x141;" horiz-adv-x="534" 
d="M244 150h270v-150h-438v217l-51 -29v140l51 29v353h168v-256l131 75v-140l-131 -75v-164z" />
    <glyph glyph-name="lslash" unicode="&#x142;" horiz-adv-x="351" 
d="M223 236q0 -48 30 -73.5t85 -25.5l-18 -143h-5q-129 0 -187.5 53t-58.5 167v72l-50 -29v131l50 29v335h154v-244l88 52v-131l-88 -52v-141z" />
    <glyph glyph-name="Nacute" unicode="&#x143;" horiz-adv-x="784" 
d="M584 923l-150 -157h-126l124 157h152zM548 710h160v-711h-143l-329 456v-455h-160v710h162l310 -428v428z" />
    <glyph glyph-name="nacute" unicode="&#x144;" horiz-adv-x="625" 
d="M235 578l121 169h143l-137 -169h-127zM377 519q94 0 141.5 -55.5t47.5 -159.5v-304h-155v281q0 100 -86 100q-61 0 -108 -57v-324h-155v508h155v-57q63 68 160 68z" />
    <glyph glyph-name="uni0145" unicode="&#x145;" horiz-adv-x="784" 
d="M548 710h160v-711h-143l-329 456v-455h-160v710h162l310 -428v428zM254 -221l69 176h143l-88 -176h-124z" />
    <glyph glyph-name="uni0146" unicode="&#x146;" horiz-adv-x="625" 
d="M377 519q94 0 141.5 -55.5t47.5 -159.5v-304h-155v281q0 100 -86 100q-61 0 -108 -57v-324h-155v508h155v-57q63 68 160 68zM177 -221l69 176h143l-88 -176h-124z" />
    <glyph glyph-name="Ncaron" unicode="&#x147;" horiz-adv-x="784" 
d="M466 766h-146l-134 154h127l80 -68l80 68h127zM548 710h160v-711h-143l-329 456v-455h-160v710h162l310 -428v428z" />
    <glyph glyph-name="ncaron" unicode="&#x148;" horiz-adv-x="625" 
d="M252 578l-131 169h126l78 -83l76 83h126l-129 -169h-146zM377 519q94 0 141.5 -55.5t47.5 -159.5v-304h-155v281q0 100 -86 100q-61 0 -108 -57v-324h-155v508h155v-57q63 68 160 68z" />
    <glyph glyph-name="napostrophe" unicode="&#x149;" horiz-adv-x="716" 
d="M-42 480q40 111 54 230h159q-26 -114 -82 -230h-131zM468 519q94 0 141.5 -55.5t47.5 -159.5v-304h-155v281q0 100 -86 100q-61 0 -108 -57v-324h-155v508h155v-57q63 68 160 68z" />
    <glyph glyph-name="Eng" unicode="&#x14a;" horiz-adv-x="784" 
d="M548 710h160v-664q0 -126 -64 -197.5t-176 -71.5q-70 0 -130 22l26 131q38 -15 75 -15q109 0 109 106v17l-312 422v-460h-160v710h163l309 -417v417z" />
    <glyph glyph-name="eng" unicode="&#x14b;" horiz-adv-x="625" 
d="M377 519q94 0 141.5 -55.5t47.5 -159.5v-294q0 -116 -54 -166t-165 -60l-36 138q100 16 100 104v255q0 100 -86 100q-61 0 -108 -57v-324h-155v508h155v-57q64 68 160 68z" />
    <glyph glyph-name="Omacron" unicode="&#x14c;" horiz-adv-x="818" 
d="M223 793v93h368v-93h-368zM408 -10q-162 0 -267.5 100.5t-105.5 264.5t105.5 264.5t268.5 100.5t268.5 -100t105.5 -262q0 -163 -106 -265.5t-269 -102.5zM409 149q88 0 143 57.5t55 148.5t-55 148.5t-143 57.5t-143 -57.5t-55 -148.5t55 -148.5t143 -57.5z" />
    <glyph glyph-name="omacron" unicode="&#x14d;" horiz-adv-x="624" 
d="M143 607v98h338v-98h-338zM312 -10q-124 0 -202.5 74.5t-78.5 189.5t78.5 189.5t202.5 74.5t202.5 -74.5t78.5 -189.5t-78.5 -189.5t-202.5 -74.5zM312 131q54 0 87.5 34.5t33.5 89.5q0 54 -33.5 88t-86.5 34q-54 0 -88 -34t-34 -89t33.5 -89t87.5 -34z" />
    <glyph glyph-name="Obreve" unicode="&#x14e;" horiz-adv-x="818" 
d="M406 770q-82 0 -124.5 41t-43.5 107h97q2 -26 20.5 -42t52.5 -16q33 0 52 16t21 42h97q-1 -65 -46 -106.5t-126 -41.5zM408 -10q-162 0 -267.5 100.5t-105.5 264.5t105.5 264.5t268.5 100.5t268.5 -100t105.5 -262q0 -163 -106 -265.5t-269 -102.5zM409 149
q88 0 143 57.5t55 148.5t-55 148.5t-143 57.5t-143 -57.5t-55 -148.5t55 -148.5t143 -57.5z" />
    <glyph glyph-name="obreve" unicode="&#x14f;" horiz-adv-x="624" 
d="M312 574q-86 0 -128.5 47t-43.5 126h105q3 -82 67 -82q63 0 67 82h105q-1 -79 -43.5 -126t-128.5 -47zM312 -10q-124 0 -202.5 74.5t-78.5 189.5t78.5 189.5t202.5 74.5t202.5 -74.5t78.5 -189.5t-78.5 -189.5t-202.5 -74.5zM312 131q54 0 87.5 34.5t33.5 89.5
q0 54 -33.5 88t-86.5 34q-54 0 -88 -34t-34 -89t33.5 -89t87.5 -34z" />
    <glyph glyph-name="Ohungarumlaut" unicode="&#x150;" horiz-adv-x="818" 
d="M221 766l130 157h143l-146 -157h-127zM424 766l130 157h143l-146 -157h-127zM408 -10q-162 0 -267.5 100.5t-105.5 264.5t105.5 264.5t268.5 100.5t268.5 -100t105.5 -262q0 -163 -106 -265.5t-269 -102.5zM409 149q88 0 143 57.5t55 148.5t-55 148.5t-143 57.5
t-143 -57.5t-55 -148.5t55 -148.5t143 -57.5z" />
    <glyph glyph-name="ohungarumlaut" unicode="&#x151;" horiz-adv-x="624" 
d="M130 578l127 169h143l-144 -169h-126zM332 578l128 169h142l-143 -169h-127zM312 -10q-124 0 -202.5 74.5t-78.5 189.5t78.5 189.5t202.5 74.5t202.5 -74.5t78.5 -189.5t-78.5 -189.5t-202.5 -74.5zM312 131q54 0 87.5 34.5t33.5 89.5q0 54 -33.5 88t-86.5 34
q-54 0 -88 -34t-34 -89t33.5 -89t87.5 -34z" />
    <glyph glyph-name="OE" unicode="&#x152;" horiz-adv-x="1138" 
d="M774 147h303v-147h-471v48q-85 -58 -198 -58q-162 0 -267.5 100.5t-105.5 264.5t105.5 264.5t268.5 100.5q113 0 197 -56v46h466v-147h-298v-137h280v-142h-280v-137zM409 149q88 0 142.5 57.5t54.5 148.5q0 92 -54.5 149t-142.5 57t-143 -57.5t-55 -148.5t55 -148.5
t143 -57.5z" />
    <glyph glyph-name="oe" unicode="&#x153;" horiz-adv-x="968" 
d="M937 236v-24h-346q16 -94 137 -94q84 0 152 29l32 -120q-82 -37 -195 -37q-127 0 -205 72q-78 -72 -200 -72q-124 0 -202.5 74.5t-78.5 189.5t78.5 189.5t202.5 74.5q119 0 196 -68q71 68 182 68q109 0 178 -73t69 -209zM595 319h185q-5 37 -31.5 59.5t-58.5 22.5
q-35 0 -60 -22t-35 -60zM312 131q54 0 87.5 34.5t33.5 89.5q0 54 -33.5 88t-86.5 34q-54 0 -88 -34t-34 -89t33.5 -89t87.5 -34z" />
    <glyph glyph-name="Racute" unicode="&#x154;" horiz-adv-x="659" 
d="M242 766l124 157h152l-150 -157h-126zM647 143h7l-20 -143h-8q-86 0 -140 32t-103 111l-77 123h-62v-266h-168v710h273q115 0 179 -60t64 -151q0 -64 -32.5 -117.5t-94.5 -83.5l64 -87q51 -68 118 -68zM244 574v-177h77q43 0 68.5 23t25.5 66t-25 65.5t-68 22.5h-78z" />
    <glyph glyph-name="racute" unicode="&#x155;" horiz-adv-x="402" 
d="M136 578l121 169h143l-137 -169h-127zM377 513l21 -138h-15q-106 0 -168 -78v-297h-153v508h153v-83q45 88 145 88h17z" />
    <glyph glyph-name="uni0156" unicode="&#x156;" horiz-adv-x="659" 
d="M647 143h7l-20 -143h-8q-86 0 -140 32t-103 111l-77 123h-62v-266h-168v710h273q115 0 179 -60t64 -151q0 -64 -32.5 -117.5t-94.5 -83.5l64 -87q51 -68 118 -68zM244 574v-177h77q43 0 68.5 23t25.5 66t-25 65.5t-68 22.5h-78zM206 -221l69 176h143l-88 -176h-124z" />
    <glyph glyph-name="uni0157" unicode="&#x157;" horiz-adv-x="402" 
d="M377 513l21 -138h-15q-106 0 -168 -78v-297h-153v508h153v-83q45 88 145 88h17zM7 -221l69 176h143l-88 -176h-124z" />
    <glyph glyph-name="Rcaron" unicode="&#x158;" horiz-adv-x="659" 
d="M533 920l-134 -154h-146l-134 154h127l80 -68l80 68h127zM647 143h7l-20 -143h-8q-86 0 -140 32t-103 111l-77 123h-62v-266h-168v710h273q115 0 179 -60t64 -151q0 -64 -32.5 -117.5t-94.5 -83.5l64 -87q51 -68 118 -68zM244 574v-177h77q43 0 68.5 23t25.5 66t-25 65.5
t-68 22.5h-78z" />
    <glyph glyph-name="rcaron" unicode="&#x159;" horiz-adv-x="402" 
d="M153 578l-114 169h127l60 -83l60 83h127l-114 -169h-146zM377 513l21 -138h-15q-106 0 -168 -78v-297h-153v508h153v-83q45 88 145 88h17z" />
    <glyph glyph-name="Sacute" unicode="&#x15a;" horiz-adv-x="584" 
d="M211 766l124 157h152l-150 -157h-126zM294 720q88 0 149.5 -35t85.5 -87l-132 -80q-34 56 -102 56q-32 0 -53 -14.5t-21 -39.5q0 -29 29.5 -46.5t102.5 -43.5q96 -35 142.5 -82.5t46.5 -132.5q0 -105 -71 -165t-194 -60q-140 0 -249 72l71 138q88 -63 185 -63q87 0 87 62
q0 30 -25.5 46.5t-101.5 45.5q-98 38 -145.5 84.5t-47.5 128.5q0 100 67.5 158t175.5 58z" />
    <glyph glyph-name="sacute" unicode="&#x15b;" horiz-adv-x="481" 
d="M164 578l121 169h143l-137 -169h-127zM234 -10q-117 0 -209 52l52 113q69 -45 155 -45q65 0 65 35q0 17 -21 28t-79 27q-73 20 -112.5 56t-39.5 99q0 75 54.5 119.5t143.5 44.5q66 0 115.5 -23.5t75.5 -59.5l-96 -76q-14 20 -41 33.5t-54 13.5q-47 0 -47 -33
q0 -17 24.5 -29.5t83.5 -29.5q73 -22 108.5 -57.5t35.5 -98.5q0 -79 -55.5 -124t-158.5 -45z" />
    <glyph glyph-name="Scircumflex" unicode="&#x15c;" horiz-adv-x="584" 
d="M89 766l134 154h146l134 -154h-127l-80 68l-80 -68h-127zM294 720q88 0 149.5 -35t85.5 -87l-132 -80q-34 56 -102 56q-32 0 -53 -14.5t-21 -39.5q0 -29 29.5 -46.5t102.5 -43.5q96 -35 142.5 -82.5t46.5 -132.5q0 -105 -71 -165t-194 -60q-140 0 -249 72l71 138
q88 -63 185 -63q87 0 87 62q0 30 -25.5 46.5t-101.5 45.5q-98 38 -145.5 84.5t-47.5 128.5q0 100 67.5 158t175.5 58z" />
    <glyph glyph-name="scircumflex" unicode="&#x15d;" horiz-adv-x="481" 
d="M47 578l134 169h146l134 -169h-127l-80 87l-80 -87h-127zM234 -10q-117 0 -209 52l52 113q69 -45 155 -45q65 0 65 35q0 17 -21 28t-79 27q-73 20 -112.5 56t-39.5 99q0 75 54.5 119.5t143.5 44.5q66 0 115.5 -23.5t75.5 -59.5l-96 -76q-14 20 -41 33.5t-54 13.5
q-47 0 -47 -33q0 -17 24.5 -29.5t83.5 -29.5q73 -22 108.5 -57.5t35.5 -98.5q0 -79 -55.5 -124t-158.5 -45z" />
    <glyph glyph-name="Scedilla" unicode="&#x15e;" horiz-adv-x="584" 
d="M542 215q0 -101 -66.5 -160.5t-181.5 -64.5l-5 -20q61 -17 61 -89q0 -111 -172 -111v78q40 0 55.5 8.5t15.5 27.5q0 33 -41 33l19 76q-110 11 -199 69l71 138q88 -63 185 -63q87 0 87 62q0 30 -25.5 46.5t-101.5 45.5q-98 38 -145.5 84.5t-47.5 128.5q0 100 67.5 158
t175.5 58q88 0 149.5 -35t85.5 -87l-132 -80q-34 56 -102 56q-32 0 -53 -14.5t-21 -39.5q0 -29 29.5 -46.5t102.5 -43.5q96 -35 142.5 -82.5t46.5 -132.5z" />
    <glyph glyph-name="scedilla" unicode="&#x15f;" horiz-adv-x="481" 
d="M448 159q0 -72 -45.5 -116t-131.5 -51l-6 -22q61 -17 61 -89q0 -111 -172 -111v78q40 0 55.5 8.5t15.5 27.5q0 33 -41 33l19 74q-99 6 -178 51l52 113q69 -45 155 -45q65 0 65 35q0 17 -21 28t-79 27q-73 20 -112.5 56t-39.5 99q0 75 54.5 119.5t143.5 44.5
q66 0 115.5 -23.5t75.5 -59.5l-96 -76q-14 20 -41 33.5t-54 13.5q-47 0 -47 -33q0 -17 24.5 -29.5t83.5 -29.5q73 -22 108.5 -57.5t35.5 -98.5z" />
    <glyph glyph-name="Scaron" unicode="&#x160;" horiz-adv-x="584" 
d="M502 920l-134 -154h-146l-134 154h127l80 -68l80 68h127zM294 720q88 0 149.5 -35t85.5 -87l-132 -80q-34 56 -102 56q-32 0 -53 -14.5t-21 -39.5q0 -29 29.5 -46.5t102.5 -43.5q96 -35 142.5 -82.5t46.5 -132.5q0 -105 -71 -165t-194 -60q-140 0 -249 72l71 138
q88 -63 185 -63q87 0 87 62q0 30 -25.5 46.5t-101.5 45.5q-98 38 -145.5 84.5t-47.5 128.5q0 100 67.5 158t175.5 58z" />
    <glyph glyph-name="scaron" unicode="&#x161;" horiz-adv-x="481" 
d="M181 578l-131 169h126l78 -83l76 83h126l-129 -169h-146zM234 -10q-117 0 -209 52l52 113q69 -45 155 -45q65 0 65 35q0 17 -21 28t-79 27q-73 20 -112.5 56t-39.5 99q0 75 54.5 119.5t143.5 44.5q66 0 115.5 -23.5t75.5 -59.5l-96 -76q-14 20 -41 33.5t-54 13.5
q-47 0 -47 -33q0 -17 24.5 -29.5t83.5 -29.5q73 -22 108.5 -57.5t35.5 -98.5q0 -79 -55.5 -124t-158.5 -45z" />
    <glyph glyph-name="uni0162" unicode="&#x162;" horiz-adv-x="569" 
d="M9 710h551v-146h-191v-564h-58l-8 -30q61 -17 61 -89q0 -111 -172 -111v78q40 0 55.5 8.5t15.5 27.5q0 33 -41 33l21 83h-42v564h-192v146z" />
    <glyph glyph-name="uni0163" unicode="&#x163;" horiz-adv-x="420" 
d="M400 372h-141v-134q0 -101 123 -101h10l-18 -142h-14q-56 0 -100 9l-9 -34q61 -17 61 -89q0 -111 -172 -111v78q40 0 55.5 8.5t15.5 27.5q0 33 -41 33l28 109q-94 50 -94 190v156h-89v136h89l-3 141h158v-141h141v-136z" />
    <glyph glyph-name="Tcaron" unicode="&#x164;" horiz-adv-x="569" 
d="M491 920l-134 -154h-146l-134 154h127l80 -68l80 68h127zM560 710v-146h-191v-564h-168v564h-192v146h551z" />
    <glyph glyph-name="tcaron" unicode="&#x165;" horiz-adv-x="420" 
d="M299 566l45 214h159l-78 -214h-126zM360 -5q-133 0 -194.5 53.5t-61.5 167.5v156h-89v136h89l-3 141h158v-141h141v-136h-141v-134q0 -101 123 -101h10l-18 -142h-14z" />
    <glyph glyph-name="Tbar" unicode="&#x166;" horiz-adv-x="569" 
d="M560 564h-191v-140h140v-146h-140v-278h-168v278h-137v146h137v140h-192v146h551v-146z" />
    <glyph glyph-name="tbar" unicode="&#x167;" horiz-adv-x="422" 
d="M400 372h-141v-52h141v-104h-139q12 -79 121 -79h10l-18 -142h-14q-133 0 -194.5 53.5t-61.5 167.5h-74v104h74v52h-89v136h89l-3 141h158v-141h141v-136z" />
    <glyph glyph-name="Utilde" unicode="&#x168;" horiz-adv-x="737" 
d="M183 766q6 69 35.5 103.5t72.5 34.5q28 0 87 -24q44 -19 57 -19q26 0 33 43h85q-6 -64 -35 -101t-72 -37q-31 0 -85 24q-42 19 -58 19q-26 0 -35 -43h-85zM368 -10q-136 0 -216.5 73.5t-80.5 202.5v444h168v-425q0 -67 35 -101.5t95 -34.5q61 0 96 34.5t35 101.5v425h166
v-444q0 -129 -80.5 -202.5t-217.5 -73.5z" />
    <glyph glyph-name="utilde" unicode="&#x169;" horiz-adv-x="625" 
d="M126 596q6 71 36.5 104.5t70.5 33.5q35 0 88 -24q41 -19 53 -19q31 0 37 43h85q-6 -67 -36.5 -102.5t-72.5 -35.5q-29 0 -83 24q-43 19 -57 19q-26 0 -36 -43h-85zM408 509h155v-509h-155v58q-63 -68 -158 -68t-143 56t-48 160v303h155v-281q0 -99 88 -99q62 0 106 56
v324z" />
    <glyph glyph-name="Umacron" unicode="&#x16a;" horiz-adv-x="737" 
d="M184 793v93h368v-93h-368zM368 -10q-136 0 -216.5 73.5t-80.5 202.5v444h168v-425q0 -67 35 -101.5t95 -34.5q61 0 96 34.5t35 101.5v425h166v-444q0 -129 -80.5 -202.5t-217.5 -73.5z" />
    <glyph glyph-name="umacron" unicode="&#x16b;" horiz-adv-x="625" 
d="M142 606v98h338v-98h-338zM408 509h155v-509h-155v58q-63 -68 -158 -68t-143 56t-48 160v303h155v-281q0 -99 88 -99q62 0 106 56v324z" />
    <glyph glyph-name="Ubreve" unicode="&#x16c;" horiz-adv-x="737" 
d="M367 770q-82 0 -124.5 41t-43.5 107h97q2 -26 20.5 -42t52.5 -16q33 0 52 16t21 42h97q-1 -65 -46 -106.5t-126 -41.5zM368 -10q-136 0 -216.5 73.5t-80.5 202.5v444h168v-425q0 -67 35 -101.5t95 -34.5q61 0 96 34.5t35 101.5v425h166v-444q0 -129 -80.5 -202.5
t-217.5 -73.5z" />
    <glyph glyph-name="ubreve" unicode="&#x16d;" horiz-adv-x="625" 
d="M312 573q-86 0 -128.5 47t-43.5 126h105q3 -82 67 -82q63 0 67 82h105q-1 -79 -43.5 -126t-128.5 -47zM408 509h155v-509h-155v58q-63 -68 -158 -68t-143 56t-48 160v303h155v-281q0 -99 88 -99q62 0 106 56v324z" />
    <glyph glyph-name="Uring" unicode="&#x16e;" horiz-adv-x="737" 
d="M369 734q-50 0 -84 33.5t-34 80.5t34.5 80.5t83.5 33.5q48 0 82 -33.5t34 -80.5t-34 -80.5t-82 -33.5zM369 811q16 0 26.5 10.5t10.5 26.5q0 15 -10.5 25.5t-26.5 10.5q-17 0 -27.5 -10t-10.5 -26t11 -26.5t27 -10.5zM368 -10q-136 0 -216.5 73.5t-80.5 202.5v444h168
v-425q0 -67 35 -101.5t95 -34.5q61 0 96 34.5t35 101.5v425h166v-444q0 -129 -80.5 -202.5t-217.5 -73.5z" />
    <glyph glyph-name="uring" unicode="&#x16f;" horiz-adv-x="625" 
d="M314 563q-51 0 -84.5 33t-33.5 81t34 81t84 33q49 0 82.5 -33t33.5 -81q0 -49 -33 -81.5t-83 -32.5zM314 640q16 0 26.5 10t10.5 27q0 15 -10 25t-27 10t-27.5 -9.5t-10.5 -25.5q0 -17 10.5 -27t27.5 -10zM408 509h155v-509h-155v58q-63 -68 -158 -68t-143 56t-48 160
v303h155v-281q0 -99 88 -99q62 0 106 56v324z" />
    <glyph glyph-name="Uhungarumlaut" unicode="&#x170;" horiz-adv-x="737" 
d="M182 766l130 157h143l-146 -157h-127zM385 766l130 157h143l-146 -157h-127zM368 -10q-136 0 -216.5 73.5t-80.5 202.5v444h168v-425q0 -67 35 -101.5t95 -34.5q61 0 96 34.5t35 101.5v425h166v-444q0 -129 -80.5 -202.5t-217.5 -73.5z" />
    <glyph glyph-name="uhungarumlaut" unicode="&#x171;" horiz-adv-x="625" 
d="M129 577l127 169h143l-144 -169h-126zM331 577l128 169h142l-143 -169h-127zM408 509h155v-509h-155v58q-63 -68 -158 -68t-143 56t-48 160v303h155v-281q0 -99 88 -99q62 0 106 56v324z" />
    <glyph glyph-name="Uogonek" unicode="&#x172;" horiz-adv-x="737" 
d="M500 710h166v-444q0 -104 -53 -172.5t-148 -92.5q-80 -31 -80 -83q0 -20 11.5 -31t29.5 -11q23 0 44 8l19 -78q-40 -14 -85 -14q-57 0 -89 27.5t-32 73.5q0 58 46 99q-120 11 -189 83t-69 191v444h168v-425q0 -67 35 -101.5t95 -34.5q61 0 96 34.5t35 101.5v425z" />
    <glyph glyph-name="uogonek" unicode="&#x173;" horiz-adv-x="625" 
d="M548 -117l19 -78q-40 -14 -85 -14q-57 0 -89 27.5t-32 73.5q0 64 57 108h-10v58q-63 -68 -158 -68t-143 56t-48 160v303h155v-281q0 -99 88 -99q62 0 106 56v324h155v-509h-20q-80 -31 -80 -83q0 -20 11.5 -31t29.5 -11q23 0 44 8z" />
    <glyph glyph-name="Wcircumflex" unicode="&#x174;" horiz-adv-x="1054" 
d="M535 834l-80 -68h-127l134 154h146l134 -154h-127zM886 710h165l-237 -710h-138l-148 484l-152 -484h-136l-237 710h183l127 -434l140 434h166l135 -425z" />
    <glyph glyph-name="wcircumflex" unicode="&#x175;" horiz-adv-x="878" 
d="M427 665l-80 -87h-127l134 169h146l134 -169h-127zM717 508h159l-183 -508h-129l-121 335l-118 -335h-130l-193 508h160l98 -306l106 306h149l114 -306z" />
    <glyph glyph-name="Ycircumflex" unicode="&#x176;" horiz-adv-x="626" 
d="M309 834l-80 -68h-127l134 154h146l134 -154h-127zM626 710l-235 -439v-271h-164v271l-235 439h180l145 -286l145 286h164z" />
    <glyph glyph-name="ycircumflex" unicode="&#x177;" horiz-adv-x="551" 
d="M280 665l-80 -87h-127l134 169h146l134 -169h-127zM395 508h160l-195 -503q-43 -115 -102.5 -167.5t-156.5 -52.5h-19l-28 136h5q51 0 85.5 21t58.5 76l-207 490h169l119 -317z" />
    <glyph glyph-name="Ydieresis" unicode="&#x178;" horiz-adv-x="626" 
d="M198 776q-32 0 -54 22.5t-22 54.5q0 31 22 53.5t54 22.5q33 0 55 -22t22 -54t-22 -54.5t-55 -22.5zM422 776q-33 0 -55 22.5t-22 54.5t22 54t55 22q32 0 54 -22.5t22 -53.5q0 -32 -22 -54.5t-54 -22.5zM626 710l-235 -439v-271h-164v271l-235 439h180l145 -286l145 286
h164z" />
    <glyph glyph-name="Zacute" unicode="&#x179;" horiz-adv-x="594" 
d="M488 923l-150 -157h-126l124 157h152zM254 145h307v-145h-533v93l302 471h-281v146h508v-93z" />
    <glyph glyph-name="zacute" unicode="&#x17a;" horiz-adv-x="542" 
d="M170 578l121 169h143l-137 -169h-127zM34 0v96l241 283h-229v129h451v-97l-243 -282h255v-129h-475z" />
    <glyph glyph-name="Zdotaccent" unicode="&#x17b;" horiz-adv-x="594" 
d="M297 763q-37 0 -63 26t-26 64q0 37 26 63t63 26t63 -26t26 -63q0 -38 -26 -64t-63 -26zM254 145h307v-145h-533v93l302 471h-281v146h508v-93z" />
    <glyph glyph-name="zdotaccent" unicode="&#x17c;" horiz-adv-x="542" 
d="M260 580q-38 0 -63.5 26t-25.5 63t25.5 63t63.5 26t63.5 -26t25.5 -63t-25.5 -63t-63.5 -26zM34 0v96l241 283h-229v129h451v-97l-243 -282h255v-129h-475z" />
    <glyph glyph-name="Zcaron" unicode="&#x17d;" horiz-adv-x="594" 
d="M369 766h-146l-134 154h127l80 -68l80 68h127zM254 145h307v-145h-533v93l302 471h-281v146h508v-93z" />
    <glyph glyph-name="zcaron" unicode="&#x17e;" horiz-adv-x="542" 
d="M188 578l-131 169h126l78 -83l76 83h126l-129 -169h-146zM34 0v96l241 283h-229v129h451v-97l-243 -282h255v-129h-475z" />
    <glyph glyph-name="uni018F" unicode="&#x18f;" horiz-adv-x="814" 
d="M404 720q163 0 268.5 -101t105.5 -261q0 -166 -108.5 -267t-267.5 -101q-166 0 -266.5 100.5t-100.5 283.5v28h563q-13 78 -64 119.5t-131 41.5q-118 0 -211 -70l-92 129q124 98 304 98zM401 140q160 0 193 131h-375q8 -61 54 -96t128 -35z" />
    <glyph glyph-name="florin" unicode="&#x192;" 
d="M108 -201q-66 0 -120 26l49 129q32 -18 64 -18q53 0 67 78l64 365h-84l24 129h83l8 53q18 106 74.5 153t137.5 47q68 0 120 -27l-49 -128q-36 18 -64 18q-52 0 -64 -65l-8 -51h116l-23 -129h-116l-67 -379q-35 -201 -212 -201z" />
    <glyph glyph-name="uni01F4" unicode="&#x1f4;" horiz-adv-x="763" 
d="M311 766l124 157h152l-150 -157h-126zM419 -11q-176 0 -280 98t-104 264q0 173 103 271t256 98q89 0 165.5 -36.5t127.5 -103.5l-129 -99q-68 82 -164 82q-74 0 -128.5 -55t-54.5 -156q0 -99 56.5 -151.5t149.5 -52.5q66 0 109 20v74h-116v141h282v-327
q-127 -67 -273 -67z" />
    <glyph glyph-name="uni01F5" unicode="&#x1f5;" horiz-adv-x="643" 
d="M226 578l121 169h143l-137 -169h-127zM444 508h139v-457q0 -135 -75.5 -201.5t-209.5 -66.5q-137 0 -240 51l53 127q90 -45 187 -45q57 0 93.5 34t36.5 91v42q-53 -76 -165 -76q-103 0 -167.5 68t-64.5 182q0 115 70 188t181 73q93 0 156 -47zM302 139q54 0 91 36t37 87
v92q-47 33 -114 33q-55 0 -90.5 -36.5t-35.5 -93.5q0 -53 30 -85.5t82 -32.5z" />
    <glyph glyph-name="Aringacute" unicode="&#x1fa;" horiz-adv-x="703" 
d="M524 0l-49 145h-256l-49 -145h-169l251 690q-17 26 -17 59q0 61 52 94l93 118h152l-113 -120q49 -34 49 -92q0 -34 -17 -60l251 -689h-178zM352 784q-16 0 -26.5 -10t-10.5 -25q0 -16 10.5 -26.5t26.5 -10.5t26.5 10.5t10.5 26.5q0 15 -10 25t-27 10zM263 277h168
l-84 251z" />
    <glyph glyph-name="aringacute" unicode="&#x1fb;" horiz-adv-x="647" 
d="M324 564q-51 0 -84.5 33t-33.5 81q0 36 19 64t51 41l75 104h142l-97 -119q44 -34 44 -90q0 -49 -33 -81.5t-83 -32.5zM324 641q16 0 26.5 10.5t10.5 26.5q0 15 -10 25t-27 10t-27.5 -9.5t-10.5 -25.5q0 -17 10.5 -27t27.5 -10zM583 206q0 -60 49 -80l-66 -135
q-85 15 -121 89q-26 -43 -72.5 -66.5t-104.5 -23.5q-102 0 -169.5 70t-67.5 190t75 194t190 74q85 0 144 -42l5 32h138v-302zM306 131q54 0 88.5 38.5t33.5 97.5v85q-54 27 -108 27q-60 0 -94.5 -35.5t-34.5 -93.5q0 -54 32.5 -86.5t82.5 -32.5z" />
    <glyph glyph-name="AEacute" unicode="&#x1fc;" horiz-adv-x="963" 
d="M454 766l125 157h152l-150 -157h-127zM599 147h303v-147h-471v183h-195l-63 -183h-169l258 710h635v-147h-298v-137h280v-142h-280v-137zM282 315h149v248h-64z" />
    <glyph glyph-name="aeacute" unicode="&#x1fd;" horiz-adv-x="962" 
d="M401 578l121 169h143l-137 -169h-127zM268 -10q-102 0 -169.5 70t-67.5 190t75 194t190 74q84 0 144 -42l5 32h96v-32q61 42 144 42q109 0 177.5 -73.5t68.5 -208.5v-24h-345q17 -94 137 -94q83 0 151 29l32 -120q-81 -37 -194 -37q-102 0 -171 50v-40h-101l-5 67
q-57 -77 -167 -77zM590 319h185q-5 37 -31.5 59.5t-58.5 22.5q-36 0 -61.5 -22t-33.5 -60zM306 131q54 0 88 38t34 96v87q-54 27 -108 27q-60 0 -94.5 -35.5t-34.5 -93.5q0 -54 32.5 -86.5t82.5 -32.5z" />
    <glyph glyph-name="Oslashacute" unicode="&#x1fe;" horiz-adv-x="818" 
d="M323 766l124 157h152l-150 -157h-126zM656 639q127 -103 127 -281q0 -163 -106 -265.5t-269 -102.5q-75 0 -142 23l-39 -63h-138l75 120q-129 103 -129 285q0 164 105.5 264.5t268.5 100.5q78 0 144 -24l41 65h137zM211 355q0 -83 45 -137l209 336q-24 7 -56 7
q-88 0 -143 -57.5t-55 -148.5zM409 149q88 0 143 57.5t55 148.5q0 82 -43 136l-209 -336q25 -6 54 -6z" />
    <glyph glyph-name="oslashacute" unicode="&#x1ff;" horiz-adv-x="624" 
d="M490 747l-137 -169h-127l121 169h143zM502 451q91 -77 91 -197q0 -112 -81 -188t-200 -76q-59 0 -110 20l-44 -64h-111l75 111q-91 78 -91 197q0 112 81 188t200 76q59 0 111 -20l38 56h112zM183 254q0 -43 22 -76l138 203q-13 4 -31 4q-54 0 -91.5 -37t-37.5 -94z
M312 123q54 0 91.5 37.5t37.5 93.5q0 42 -22 75l-138 -203q15 -3 31 -3z" />
    <glyph glyph-name="uni0218" unicode="&#x218;" horiz-adv-x="584" 
d="M294 720q88 0 149.5 -35t85.5 -87l-132 -80q-34 56 -102 56q-32 0 -53 -14.5t-21 -39.5q0 -29 29.5 -46.5t102.5 -43.5q96 -35 142.5 -82.5t46.5 -132.5q0 -105 -71 -165t-194 -60q-140 0 -249 72l71 138q88 -63 185 -63q87 0 87 62q0 30 -25.5 46.5t-101.5 45.5
q-98 38 -145.5 84.5t-47.5 128.5q0 100 67.5 158t175.5 58zM132 -221l69 176h143l-88 -176h-124z" />
    <glyph glyph-name="uni0219" unicode="&#x219;" horiz-adv-x="481" 
d="M234 -10q-117 0 -209 52l52 113q69 -45 155 -45q65 0 65 35q0 17 -21 28t-79 27q-73 20 -112.5 56t-39.5 99q0 75 54.5 119.5t143.5 44.5q66 0 115.5 -23.5t75.5 -59.5l-96 -76q-14 20 -41 33.5t-54 13.5q-47 0 -47 -33q0 -17 24.5 -29.5t83.5 -29.5q73 -22 108.5 -57.5
t35.5 -98.5q0 -79 -55.5 -124t-158.5 -45zM108 -221l69 176h143l-88 -176h-124z" />
    <glyph glyph-name="uni021A" unicode="&#x21a;" horiz-adv-x="569" 
d="M560 710v-146h-191v-564h-168v564h-192v146h551zM147 -221l69 176h143l-88 -176h-124z" />
    <glyph glyph-name="uni021B" unicode="&#x21b;" horiz-adv-x="420" 
d="M360 -5q-133 0 -194.5 53.5t-61.5 167.5v156h-89v136h89l-3 141h158v-141h141v-136h-141v-134q0 -101 123 -101h10l-18 -142h-14zM95 -221l69 176h143l-88 -176h-124z" />
    <glyph glyph-name="uni0237" unicode="&#x237;" horiz-adv-x="277" 
d="M-2 -216l-36 138q100 16 100 104v482h155v-498q0 -116 -54 -166t-165 -60z" />
    <glyph glyph-name="uni0259" unicode="&#x259;" horiz-adv-x="566" 
d="M31 272v24h345q-16 94 -137 94q-83 0 -151 -29l-32 120q81 37 194 37q127 0 205.5 -73t78.5 -190q0 -124 -72 -194.5t-185 -70.5q-109 0 -177.5 73.5t-68.5 208.5zM373 189h-186q5 -37 31.5 -59.5t58.5 -22.5q36 0 61 22t35 60z" />
    <glyph glyph-name="uni02BC" unicode="&#x2bc;" horiz-adv-x="277" 
d="M32 480q40 111 54 230h159q-26 -114 -82 -230h-131z" />
    <glyph glyph-name="circumflex" unicode="&#x2c6;" horiz-adv-x="400" 
d="M250 578l134 169h145l134 -169h-127l-79 87l-80 -87h-127z" />
    <glyph glyph-name="caron" unicode="&#x2c7;" horiz-adv-x="400" 
d="M381 578l-131 169h127l77 -83l76 83h127l-130 -169h-146z" />
    <glyph glyph-name="uni02C9" unicode="&#x2c9;" horiz-adv-x="400" 
d="M266 607v98h339v-98h-339z" />
    <glyph glyph-name="breve" unicode="&#x2d8;" horiz-adv-x="400" 
d="M422 574q-86 0 -129 47t-43 126h105q1 -82 67 -82q63 0 66 82h105q0 -79 -43 -126t-128 -47z" />
    <glyph glyph-name="dotaccent" unicode="&#x2d9;" horiz-adv-x="400" 
d="M339 580q-37 0 -63 26t-26 63t26 63t63 26q38 0 64 -25.5t26 -63.5t-26 -63.5t-64 -25.5z" />
    <glyph glyph-name="ring" unicode="&#x2da;" horiz-adv-x="400" 
d="M367 564q-51 0 -84 33t-33 81t34 81t84 33q49 0 82.5 -33t33.5 -81q0 -49 -33.5 -81.5t-83.5 -32.5zM368 641q16 0 26 10.5t10 26.5q0 15 -9.5 25t-26.5 10t-27.5 -9.5t-10.5 -25.5q0 -17 10.5 -27t27.5 -10z" />
    <glyph glyph-name="ogonek" unicode="&#x2db;" horiz-adv-x="400" 
d="M389 -209q-57 0 -89 27.5t-32 73.5q0 48 32.5 85t87.5 57l62 -34q-80 -31 -80 -83q0 -20 11.5 -31t29.5 -11q23 0 44 8l19 -78q-40 -14 -85 -14z" />
    <glyph glyph-name="tilde" unicode="&#x2dc;" horiz-adv-x="400" 
d="M251 597q6 71 36 104.5t71 33.5q35 0 88 -24q40 -19 53 -19q30 0 36 43h85q-6 -67 -36.5 -102.5t-72.5 -35.5q-28 0 -83 24q-41 19 -56 19q-27 0 -36 -43h-85z" />
    <glyph glyph-name="hungarumlaut" unicode="&#x2dd;" horiz-adv-x="400" 
d="M213 578l128 169h143l-144 -169h-127zM416 578l128 169h142l-143 -169h-127z" />
    <glyph glyph-name="gravecomb" unicode="&#x300;" horiz-adv-x="0" 
d="M6 578l-139 169h143l123 -169h-127z" />
    <glyph glyph-name="acutecomb" unicode="&#x301;" horiz-adv-x="0" 
d="M-132 578l121 169h143l-137 -169h-127z" />
    <glyph glyph-name="uni0302" unicode="&#x302;" horiz-adv-x="0" 
d="M-207 578l134 169h146l134 -169h-127l-80 87l-80 -87h-127z" />
    <glyph glyph-name="tildecomb" unicode="&#x303;" horiz-adv-x="0" 
d="M-185 597q6 71 36.5 104.5t70.5 33.5q35 0 88 -24q41 -19 53 -19q31 0 37 43h85q-6 -67 -36.5 -102.5t-72.5 -35.5q-29 0 -83 24q-43 19 -57 19q-26 0 -36 -43h-85z" />
    <glyph glyph-name="uni0304" unicode="&#x304;" horiz-adv-x="0" 
d="M-169 607v98h338v-98h-338z" />
    <glyph glyph-name="uni0306" unicode="&#x306;" horiz-adv-x="0" 
d="M0 574q-86 0 -128.5 47t-43.5 126h105q3 -82 67 -82q63 0 67 82h105q-1 -79 -43.5 -126t-128.5 -47z" />
    <glyph glyph-name="uni0307" unicode="&#x307;" horiz-adv-x="0" 
d="M0 580q-38 0 -63.5 26t-25.5 63t25.5 63t63.5 26t63.5 -26t25.5 -63t-25.5 -63t-63.5 -26z" />
    <glyph glyph-name="uni0308" unicode="&#x308;" horiz-adv-x="0" 
d="M-112 595q-32 0 -54 22.5t-22 54.5t22 54t54 22q33 0 55 -22t22 -54t-22 -54.5t-55 -22.5zM112 595q-33 0 -55 22.5t-22 54.5t22 54t55 22q32 0 54 -22t22 -54t-22 -54.5t-54 -22.5z" />
    <glyph glyph-name="uni030A" unicode="&#x30a;" horiz-adv-x="0" 
d="M1 564q-51 0 -84.5 33t-33.5 81t34 81t84 33q49 0 82.5 -33t33.5 -81q0 -49 -33 -81.5t-83 -32.5zM1 641q17 0 27 10.5t10 26.5q0 15 -10 25t-27 10t-27.5 -9.5t-10.5 -25.5q0 -17 10.5 -27t27.5 -10z" />
    <glyph glyph-name="uni030B" unicode="&#x30b;" horiz-adv-x="0" 
d="M-236 578l127 169h143l-144 -169h-126zM-34 578l128 169h142l-143 -169h-127z" />
    <glyph glyph-name="uni030C" unicode="&#x30c;" horiz-adv-x="0" 
d="M-72 578l-131 169h126l78 -83l76 83h126l-129 -169h-146z" />
    <glyph glyph-name="uni0312" unicode="&#x312;" horiz-adv-x="0" 
d="M-113 578l101 185h125l-82 -185h-144z" />
    <glyph glyph-name="uni0313" unicode="&#x313;" horiz-adv-x="0" 
d="M-113 578l82 185h144l-101 -185h-125z" />
    <glyph glyph-name="dotbelowcomb" unicode="&#x323;" horiz-adv-x="0" 
d="M0 -218q-38 0 -63.5 26t-25.5 63t25.5 63t63.5 26t63.5 -26t25.5 -63t-25.5 -63t-63.5 -26z" />
    <glyph glyph-name="uni0324" unicode="&#x324;" horiz-adv-x="0" 
d="M-112 -192q-32 0 -54 22.5t-22 54.5t22 54t54 22q33 0 55 -22t22 -54t-22 -54.5t-55 -22.5zM112 -192q-33 0 -55 22.5t-22 54.5t22 54t55 22q32 0 54 -22t22 -54t-22 -54.5t-54 -22.5z" />
    <glyph glyph-name="uni0325" unicode="&#x325;" horiz-adv-x="0" 
d="M1 -255q-51 0 -84.5 33t-33.5 81q0 49 34 81.5t84 32.5t83 -32.5t33 -81.5t-33 -81.5t-83 -32.5zM1 -178q17 0 27 10t10 27q0 15 -10 25.5t-27 10.5t-27.5 -10t-10.5 -26q0 -17 10.5 -27t27.5 -10z" />
    <glyph glyph-name="uni0326" unicode="&#x326;" horiz-adv-x="0" 
d="M-106 -221l69 176h143l-88 -176h-124z" />
    <glyph glyph-name="uni0327" unicode="&#x327;" horiz-adv-x="0" 
d="M25 -30q61 -17 61 -89q0 -111 -172 -111v78q40 0 55.5 8.5t15.5 27.5q0 33 -41 33l28 111h69z" />
    <glyph glyph-name="uni0328" unicode="&#x328;" horiz-adv-x="0" 
d="M18 -209q-57 0 -89 27.5t-32 73.5q0 48 32.5 85t87.5 57l62 -34q-80 -31 -80 -83q0 -20 11.5 -31t29.5 -11q23 0 44 8l19 -78q-40 -14 -85 -14z" />
    <glyph glyph-name="uni032E" unicode="&#x32e;" horiz-adv-x="0" 
d="M-2 -196q-82 0 -124.5 41.5t-43.5 107.5h97q2 -26 20.5 -42t52.5 -16q33 0 52 16t21 42h97q0 -65 -45.5 -107t-126.5 -42z" />
    <glyph glyph-name="uni0331" unicode="&#x331;" horiz-adv-x="0" 
d="M-184 -170v93h368v-93h-368z" />
    <glyph glyph-name="uni0394" unicode="&#x394;" horiz-adv-x="703" 
d="M444 710l211 -609v-101h-606v101l211 609h184zM347 540l-129 -393h259z" />
    <glyph glyph-name="uni03A9" unicode="&#x3a9;" horiz-adv-x="841" 
d="M41 0v147h167v12q-74 37 -117 103t-43 151q0 138 103.5 222.5t267.5 84.5q165 0 268.5 -84.5t103.5 -222.5q0 -82 -42 -147.5t-115 -107.5v-11h166v-147h-320v217q136 49 136 175q0 74 -53 122.5t-144 48.5t-143.5 -48.5t-52.5 -122.5q0 -127 138 -176v-216h-320z" />
    <glyph glyph-name="uni03BC" unicode="&#x3bc;" horiz-adv-x="627" 
d="M410 508h155v-508h-155v59q-43 -70 -120 -70q-40 0 -73 25v-224h-155v718h155v-264q0 -58 22.5 -87t72.5 -29q46 0 72 31.5t26 88.5v260z" />
    <glyph glyph-name="pi" unicode="&#x3c0;" horiz-adv-x="741" 
d="M720 379h-132v-195q0 -60 49 -60q22 0 58 13l18 -117q-49 -30 -125 -30q-71 0 -113 40.5t-42 118.5v230h-145v-379h-155v379h-111v129h698v-129z" />
    <glyph glyph-name="Wgrave" unicode="&#x1e80;" horiz-adv-x="1054" 
d="M621 766h-126l-150 157h152zM886 710h165l-237 -710h-138l-148 484l-152 -484h-136l-237 710h183l127 -434l140 434h166l135 -425z" />
    <glyph glyph-name="wgrave" unicode="&#x1e81;" horiz-adv-x="878" 
d="M528 578h-127l-139 169h143zM717 508h159l-183 -508h-129l-121 335l-118 -335h-130l-193 508h160l98 -306l106 306h149l114 -306z" />
    <glyph glyph-name="Wacute" unicode="&#x1e82;" horiz-adv-x="1054" 
d="M726 923l-150 -157h-126l124 157h152zM886 710h165l-237 -710h-138l-148 484l-152 -484h-136l-237 710h183l127 -434l140 434h166l135 -425z" />
    <glyph glyph-name="wacute" unicode="&#x1e83;" horiz-adv-x="878" 
d="M601 747l-137 -169h-127l121 169h143zM717 508h159l-183 -508h-129l-121 335l-118 -335h-130l-193 508h160l98 -306l106 306h149l114 -306z" />
    <glyph glyph-name="Wdieresis" unicode="&#x1e84;" horiz-adv-x="1054" 
d="M424 776q-32 0 -54 22.5t-22 54.5q0 31 22 53.5t54 22.5q33 0 55 -22t22 -54t-22 -54.5t-55 -22.5zM648 776q-33 0 -55 22.5t-22 54.5t22 54t55 22q32 0 54 -22.5t22 -53.5q0 -32 -22 -54.5t-54 -22.5zM886 710h165l-237 -710h-138l-148 484l-152 -484h-136l-237 710h183
l127 -434l140 434h166l135 -425z" />
    <glyph glyph-name="wdieresis" unicode="&#x1e85;" horiz-adv-x="878" 
d="M315 595q-32 0 -54 22.5t-22 54.5t22.5 54t53.5 22q33 0 55 -22t22 -54t-22 -54.5t-55 -22.5zM539 595q-33 0 -55 22.5t-22 54.5t22 54t55 22q31 0 53.5 -22t22.5 -54t-22 -54.5t-54 -22.5zM717 508h159l-183 -508h-129l-121 335l-118 -335h-130l-193 508h160l98 -306
l106 306h149l114 -306z" />
    <glyph glyph-name="uni1E9E" unicode="&#x1e9e;" horiz-adv-x="799" 
d="M540 425q98 -5 158 -59t60 -147q0 -101 -69 -165t-195 -64q-117 0 -215 47l48 134q81 -45 151 -45q52 0 80 25t28 65q0 60 -53.5 85t-176.5 27v121l170 103q-47 37 -122 37q-91 0 -128.5 -53t-37.5 -151v-385h-167v399q0 152 86.5 236.5t243.5 84.5q175 0 283 -104v-112z
" />
    <glyph glyph-name="Ygrave" unicode="&#x1ef2;" horiz-adv-x="626" 
d="M395 766h-126l-150 157h152zM626 710l-235 -439v-271h-164v271l-235 439h180l145 -286l145 286h164z" />
    <glyph glyph-name="ygrave" unicode="&#x1ef3;" horiz-adv-x="551" 
d="M380 578h-127l-139 169h143zM395 508h160l-195 -503q-43 -115 -102.5 -167.5t-156.5 -52.5h-19l-28 136h5q51 0 85.5 21t58.5 76l-207 490h169l119 -317z" />
    <glyph glyph-name="uni2010" unicode="&#x2010;" horiz-adv-x="415" 
d="M42 210v128h331v-128h-331z" />
    <glyph glyph-name="uni2011" unicode="&#x2011;" horiz-adv-x="415" 
d="M42 210v128h331v-128h-331z" />
    <glyph glyph-name="endash" unicode="&#x2013;" horiz-adv-x="544" 
d="M42 210v128h460v-128h-460z" />
    <glyph glyph-name="emdash" unicode="&#x2014;" horiz-adv-x="1044" 
d="M42 210v128h960v-128h-960z" />
    <glyph glyph-name="uni2015" unicode="&#x2015;" horiz-adv-x="1044" 
d="M42 210v128h960v-128h-960z" />
    <glyph glyph-name="underscoredbl" unicode="&#x2017;" horiz-adv-x="450" 
d="M-5 -137v45h460v-45h-460zM-4 -232v45h460v-45h-460z" />
    <glyph glyph-name="quoteleft" unicode="&#x2018;" horiz-adv-x="277" 
d="M32 480q24 109 82 230h131q-42 -116 -54 -230h-159z" />
    <glyph glyph-name="quoteright" unicode="&#x2019;" horiz-adv-x="277" 
d="M32 480q40 111 54 230h159q-26 -114 -82 -230h-131z" />
    <glyph glyph-name="quotesinglbase" unicode="&#x201a;" horiz-adv-x="277" 
d="M32 -115q40 111 54 230h159q-26 -114 -82 -230h-131z" />
    <glyph glyph-name="quotereversed" unicode="&#x201b;" horiz-adv-x="277" 
d="M114 480q-58 121 -82 230h159q12 -114 54 -230h-131z" />
    <glyph glyph-name="quotedblleft" unicode="&#x201c;" horiz-adv-x="512" 
d="M32 480q24 109 82 230h131q-42 -116 -54 -230h-159zM267 480q25 110 83 230h131q-42 -116 -54 -230h-160z" />
    <glyph glyph-name="quotedblright" unicode="&#x201d;" horiz-adv-x="512" 
d="M32 480q40 111 54 230h159q-26 -114 -82 -230h-131zM267 480q42 116 54 230h160q-25 -110 -83 -230h-131z" />
    <glyph glyph-name="quotedblbase" unicode="&#x201e;" horiz-adv-x="512" 
d="M32 -115q40 111 54 230h159q-26 -114 -82 -230h-131zM267 -115q42 116 54 230h160q-25 -110 -83 -230h-131z" />
    <glyph glyph-name="dagger" unicode="&#x2020;" horiz-adv-x="517" 
d="M492 547v-143l-179 14l17 -534h-143l16 535l-178 -15v143l177 -14l-15 219h143l-15 -218z" />
    <glyph glyph-name="daggerdbl" unicode="&#x2021;" horiz-adv-x="517" 
d="M492 404l-181 14v-174l181 13v-143l-177 13l15 -243h-143l14 244l-176 -14v143l180 -15v177l-180 -15v143l177 -14l-15 219h143l-15 -218l177 13v-143z" />
    <glyph glyph-name="bullet" unicode="&#x2022;" horiz-adv-x="390" 
d="M195 211q-59 0 -99.5 40.5t-40.5 99.5t40.5 99.5t99.5 40.5t99.5 -40.5t40.5 -99.5t-40.5 -99.5t-99.5 -40.5z" />
    <glyph glyph-name="ellipsis" unicode="&#x2026;" horiz-adv-x="924" 
d="M154 -11q-40 0 -68.5 28.5t-28.5 68.5t28.5 68.5t68.5 28.5t68.5 -28.5t28.5 -68.5t-28.5 -68.5t-68.5 -28.5zM462 -11q-40 0 -68 28.5t-28 68.5t28 68.5t68 28.5t68.5 -28.5t28.5 -68.5t-28.5 -68.5t-68.5 -28.5zM770 -11q-40 0 -68.5 28.5t-28.5 68.5t28.5 68.5
t68.5 28.5t68.5 -28.5t28.5 -68.5t-28.5 -68.5t-68.5 -28.5z" />
    <glyph glyph-name="perthousand" unicode="&#x2030;" horiz-adv-x="1340" 
d="M208 307q-82 0 -132 56t-50 149q0 92 50 148t132 56q81 0 131.5 -56t50.5 -148q0 -93 -50.5 -149t-131.5 -56zM178 0l460 710h124l-460 -710h-124zM208 412q57 0 57 100q0 99 -57 99t-57 -99q0 -100 57 -100zM730 -6q-81 0 -131.5 56t-50.5 149q0 92 50.5 148t131.5 56
q82 0 132.5 -56t50.5 -148q0 -93 -50.5 -149t-132.5 -56zM1132 -6q-81 0 -131.5 56t-50.5 149q0 92 50.5 148t131.5 56q82 0 132 -56t50 -148q0 -93 -50 -149t-132 -56zM730 99q58 0 58 100q0 99 -58 99q-57 0 -57 -99q0 -100 57 -100zM1132 99q57 0 57 100q0 99 -57 99
t-57 -99q0 -100 57 -100z" />
    <glyph glyph-name="guilsinglleft" unicode="&#x2039;" horiz-adv-x="394" 
d="M191 60l-161 200l161 200h173l-175 -200l175 -200h-173z" />
    <glyph glyph-name="guilsinglright" unicode="&#x203a;" horiz-adv-x="394" 
d="M203 60h-173l175 200l-175 200h173l161 -200z" />
    <glyph glyph-name="exclamdbl" unicode="&#x203c;" horiz-adv-x="593" 
d="M105 264l-27 446h180l-27 -446h-126zM360 264l-26 446h179l-26 -446h-127zM169 -17q-38 0 -65 27t-27 65t27 65t65 27t65 -27t27 -65t-27 -65t-65 -27zM425 -17q-38 0 -65 27t-27 65t27 65t65 27t65 -27t27 -65t-27 -65t-65 -27z" />
    <glyph glyph-name="uni203E" unicode="&#x203e;" horiz-adv-x="450" 
d="M-5 783v45h460v-45h-460z" />
    <glyph glyph-name="fraction" unicode="&#x2044;" horiz-adv-x="158" 
d="M-243 0l520 710h125l-520 -710h-125z" />
    <glyph glyph-name="zero.sups" unicode="&#x2070;" horiz-adv-x="415" 
d="M208 427q-81 0 -124 56.5t-43 164.5t43 164.5t124 56.5t123.5 -57t42.5 -164q0 -108 -42.5 -164.5t-123.5 -56.5zM208 526q30 0 41.5 30.5t11.5 93.5q0 60 -11.5 90t-41.5 30q-31 0 -42.5 -30t-11.5 -92q0 -61 11.5 -91.5t42.5 -30.5z" />
    <glyph glyph-name="four.sups" unicode="&#x2074;" horiz-adv-x="388" 
d="M207 435v99h-192v78l188 253h115v-242h57v-89h-57v-99h-111zM122 623h85v112z" />
    <glyph glyph-name="five.sups" unicode="&#x2075;" horiz-adv-x="407" 
d="M197 429q-98 0 -166 45l45 89q63 -37 119 -37q29 0 45 14t16 36q0 21 -15.5 33t-40.5 12q-30 0 -50 -15l-87 23l15 236h263v-98h-171l-6 -69q28 14 60 14q62 0 101 -35.5t39 -100.5q0 -67 -46 -107t-121 -40z" />
    <glyph glyph-name="six.sups" unicode="&#x2076;" horiz-adv-x="407" 
d="M238 706q58 0 98.5 -36t40.5 -96q0 -64 -46.5 -104t-120.5 -40q-79 0 -127.5 48t-48.5 139q0 110 71.5 180.5t212.5 74.5l20 -94q-79 -4 -124 -27t-65 -74q33 29 89 29zM207 520q28 0 44.5 14.5t16.5 37.5q0 24 -16.5 38.5t-45.5 14.5q-23 0 -40.5 -13t-17.5 -36
q0 -24 17 -40t42 -16z" />
    <glyph glyph-name="seven.sups" unicode="&#x2077;" horiz-adv-x="382" 
d="M109 434q-9 165 134 334h-209v96h320v-74q-130 -182 -124 -356h-121z" />
    <glyph glyph-name="eight.sups" unicode="&#x2078;" horiz-adv-x="411" 
d="M205 428q-79 0 -125.5 33.5t-46.5 91.5q0 73 85 106q-67 29 -67 96q0 51 42 83.5t112 32.5q72 0 114 -31.5t42 -83.5q0 -65 -68 -97q85 -32 85 -105q0 -58 -46.5 -92t-126.5 -34zM206 700q23 0 37.5 12.5t14.5 34.5t-14.5 35t-37.5 13t-37.5 -13t-14.5 -35t14 -34.5
t38 -12.5zM207 508q27 0 44 14t17 38q0 25 -17 38.5t-44 13.5q-26 0 -43 -13.5t-17 -38.5q0 -24 16.5 -38t43.5 -14z" />
    <glyph glyph-name="nine.sups" unicode="&#x2079;" horiz-adv-x="406" 
d="M87 429l-19 94q78 3 123 26t65 74q-32 -28 -89 -28t-97.5 36.5t-40.5 95.5q0 63 46.5 103.5t119.5 40.5q79 0 128 -48.5t49 -139.5q0 -110 -71.5 -180t-213.5 -74zM199 676q23 0 40.5 13t17.5 35q0 25 -17 41t-42 16q-28 0 -44.5 -14.5t-16.5 -38.5q0 -23 17 -37.5
t45 -14.5z" />
    <glyph glyph-name="n.sups" unicode="&#x207f;" horiz-adv-x="415" 
d="M246 716q112 0 112 -127v-184h-93v170q0 57 -51 57q-35 0 -64 -34v-193h-93v305h93v-36q37 42 96 42z" />
    <glyph glyph-name="zero.subs" unicode="&#x2080;" horiz-adv-x="415" 
d="M208 -153q-81 0 -124 56.5t-43 164.5t43 164.5t124 56.5t123.5 -57t42.5 -164q0 -108 -42.5 -164.5t-123.5 -56.5zM208 -54q30 0 41.5 30.5t11.5 93.5q0 60 -11.5 90t-41.5 30q-31 0 -42.5 -30t-11.5 -92q0 -61 11.5 -91.5t42.5 -30.5z" />
    <glyph glyph-name="one.subs" unicode="&#x2081;" horiz-adv-x="333" 
d="M165 286h79v-431h-112v290q-43 -30 -95 -47v110q85 34 128 78z" />
    <glyph glyph-name="two.subs" unicode="&#x2082;" horiz-adv-x="415" 
d="M43 -145v26q0 60 26 103t89 85q46 32 64 52t18 39q0 33 -40 33q-38 0 -66 -45l-89 58q49 85 166 85q63 0 104 -35t41 -90q0 -44 -21.5 -77t-70.5 -64q-74 -48 -84 -72h181v-98h-318z" />
    <glyph glyph-name="three.subs" unicode="&#x2083;" horiz-adv-x="413" 
d="M202 -151q-103 0 -174 48l55 88q58 -39 114 -39q29 1 44 12t15 28q0 46 -119 46v85q55 0 78.5 14.5t23.5 32.5q0 30 -41 30q-45 0 -69 -41l-83 56q52 82 163 82q62 0 101.5 -30t39.5 -78q0 -76 -82 -99q98 -23 98 -104q0 -60 -44 -95.5t-120 -35.5z" />
    <glyph glyph-name="four.subs" unicode="&#x2084;" horiz-adv-x="388" 
d="M207 -145v99h-192v78l188 253h115v-242h57v-89h-57v-99h-111zM122 43h85v112z" />
    <glyph glyph-name="five.subs" unicode="&#x2085;" horiz-adv-x="407" 
d="M197 -151q-98 0 -166 45l45 89q63 -37 119 -37q29 0 45 14t16 36q0 21 -15.5 33t-40.5 12q-30 0 -50 -15l-87 23l15 236h263v-98h-171l-6 -69q28 14 60 14q62 0 101 -35.5t39 -100.5q0 -67 -46 -107t-121 -40z" />
    <glyph glyph-name="six.subs" unicode="&#x2086;" horiz-adv-x="407" 
d="M238 126q58 0 98.5 -36t40.5 -96q0 -64 -46.5 -104t-120.5 -40q-79 0 -127.5 48t-48.5 139q0 110 71.5 180.5t212.5 74.5l20 -94q-79 -4 -124 -27t-65 -74q33 29 89 29zM207 -60q28 0 44.5 14.5t16.5 37.5q0 24 -16.5 38.5t-45.5 14.5q-23 0 -40.5 -13t-17.5 -36
q0 -24 17 -40t42 -16z" />
    <glyph glyph-name="seven.subs" unicode="&#x2087;" horiz-adv-x="382" 
d="M109 -146q-9 165 134 334h-209v96h320v-74q-130 -182 -124 -356h-121z" />
    <glyph glyph-name="eight.subs" unicode="&#x2088;" horiz-adv-x="411" 
d="M205 -152q-79 0 -125.5 33.5t-46.5 91.5q0 73 85 106q-67 29 -67 96q0 51 42 83.5t112 32.5q72 0 114 -31.5t42 -83.5q0 -65 -68 -97q85 -32 85 -105q0 -58 -46.5 -92t-126.5 -34zM206 120q23 0 37.5 12.5t14.5 34.5t-14.5 35t-37.5 13t-37.5 -13t-14.5 -35t14 -34.5
t38 -12.5zM207 -72q27 0 44 14t17 38q0 25 -17 38.5t-44 13.5q-26 0 -43 -13.5t-17 -38.5q0 -24 16.5 -38t43.5 -14z" />
    <glyph glyph-name="nine.subs" unicode="&#x2089;" horiz-adv-x="406" 
d="M87 -151l-19 94q78 3 123 26t65 74q-32 -28 -89 -28t-97.5 36.5t-40.5 95.5q0 63 46.5 103.5t119.5 40.5q79 0 128 -48.5t49 -139.5q0 -110 -71.5 -180t-213.5 -74zM199 96q23 0 40.5 13t17.5 35q0 25 -17 41t-42 16q-28 0 -44.5 -14.5t-16.5 -38.5q0 -23 17 -37.5
t45 -14.5z" />
    <glyph glyph-name="n.subs" unicode="&#x2099;" horiz-adv-x="415" 
d="M246 166q112 0 112 -127v-184h-93v171q0 56 -51 56q-35 0 -64 -34v-193h-93v305h93v-36q37 42 96 42z" />
    <glyph glyph-name="franc" unicode="&#x20a3;" horiz-adv-x="550" 
d="M512 563h-252v-125h238v-147h-238v-79h126v-128h-126v-84h-168v84h-83v128h83v498h420v-147z" />
    <glyph glyph-name="lira" unicode="&#x20a4;" horiz-adv-x="585" 
d="M288 226q-9 -59 -51 -85h325v-141h-523v141q72 9 84 85h-81v100h83v45h-83v99h83v10q0 117 61 178.5t165 61.5q125 0 214 -89l-104 -108q-57 49 -100 49q-71 0 -71 -93v-9h189v-99h-189v-45h189v-100h-191z" />
    <glyph glyph-name="peseta" unicode="&#x20a7;" horiz-adv-x="617" 
d="M609 496v-116h-55q-17 -98 -89.5 -157t-193.5 -59h-27v-164h-168v380h-69v116h69v214h195q124 0 196.5 -57t87.5 -157h54zM244 582v-86h133q-21 86 -128 86h-5zM249 292q104 0 127 88h-132v-88h5z" />
    <glyph glyph-name="Euro" unicode="&#x20ac;" 
d="M407 140q58 0 126 34l50 -138q-84 -47 -200 -47q-125 0 -204.5 70t-99.5 203h-64v75h57v18q0 25 1 37h-58v74h66q22 123 94.5 188.5t193.5 65.5q67 0 125 -26t92 -67l-111 -104q-39 46 -99 46q-87 0 -114 -103h181v-74h-192q-1 -12 -1 -37v-18h193v-75h-183
q32 -122 147 -122z" />
    <glyph glyph-name="uni20B8" unicode="&#x20b8;" horiz-adv-x="569" 
d="M9 710h551v-100h-551v100zM560 551v-146h-191v-405h-168v405h-192v146h551z" />
    <glyph glyph-name="uni20B9" unicode="&#x20b9;" 
d="M565 0h-203l-214 267h-86v104h129q38 0 65.5 18.5t38.5 51.5h-232v98h231q-26 66 -103 66h-129v105h484v-104h-106q18 -31 26 -67h80v-98h-82q-26 -110 -139 -153z" />
    <glyph glyph-name="uni20BA" unicode="&#x20ba;" 
d="M410 316h155v-94q0 -112 -57.5 -167t-160.5 -55h-260v291l-60 -22v75l60 22v54l-60 -22v75l60 22v215h168v-155l154 55v-75l-154 -55v-54l154 55v-75l-154 -55v-201h58q97 0 97 99v67z" />
    <glyph glyph-name="uni20BC" unicode="&#x20bc;" 
d="M356 563q98 -16 154 -84.5t56 -178.5v-300h-145v281q0 109 -65 141v-310h-117v310q-65 -32 -65 -141v-281h-143v300q0 110 55 178.5t153 84.5v147h117v-147z" />
    <glyph glyph-name="uni20BD" unicode="&#x20bd;" horiz-adv-x="601" 
d="M328 266h-65v-58h151v-123h-151v-85h-160v85h-71v123h71v58h-71v136h71v308h225q118 0 182 -60.5t64 -157.5q0 -96 -64.5 -161t-181.5 -65zM306 574h-43v-172h43q46 0 73 24t27 66q0 82 -100 82z" />
    <glyph glyph-name="uni2105" unicode="&#x2105;" horiz-adv-x="990" 
d="M246 324q-96 0 -152.5 54.5t-56.5 144.5q0 88 54 141.5t146 53.5q45 0 87 -18.5t69 -50.5l-71 -75q-32 40 -80 40q-36 0 -59.5 -25t-23.5 -69q0 -39 26 -64t70 -25q52 0 108 31l28 -100q-59 -38 -145 -38zM165 0l519 710h125l-519 -710h-125zM743 -9q-92 0 -150.5 55.5
t-58.5 140.5q0 86 58.5 142t150.5 56q93 0 151.5 -56t58.5 -142q0 -85 -58.5 -140.5t-151.5 -55.5zM743 97q40 0 64.5 25t24.5 66q0 40 -24 65t-64 25t-64.5 -25t-24.5 -66q0 -40 24.5 -65t63.5 -25z" />
    <glyph glyph-name="uni2113" unicode="&#x2113;" horiz-adv-x="600" 
d="M339 -28q-78 0 -117.5 37.5t-54.5 113.5q-34 -8 -52 -9v100q26 4 42 8q-2 34 -2 112q0 198 38.5 288t134.5 90q143 0 143 -203q0 -249 -174 -342q9 -42 27 -58.5t54 -16.5q40 0 71 13v-117q-49 -16 -110 -16zM288 288q59 64 59 231q0 68 -24 68q-12 0 -19 -20
t-11.5 -77.5t-4.5 -157.5v-44z" />
    <glyph glyph-name="uni2116" unicode="&#x2116;" horiz-adv-x="1063" 
d="M835 398q-71 0 -120 46t-49 113t49 113t120 46t120 -46t49 -113t-49 -113t-120 -46zM467 266v444h135v-710h-136l-253 445v-445h-135v710h137zM834 628q-30 0 -49.5 -21.5t-19.5 -51.5t21 -49t49 -19q30 0 49.5 20.5t19.5 50.5q0 31 -20.5 50.5t-49.5 19.5zM680 272v86
h314v-86h-314z" />
    <glyph glyph-name="uni2117" unicode="&#x2117;" horiz-adv-x="810" 
d="M405 720q151 0 258 -107t107 -258t-107 -258t-258 -107t-258 107t-107 258t107 258t258 107zM405 70q119 0 202 83t83 202t-83 202t-202 83t-202 -83t-83 -202t83 -202t202 -83zM439 574q72 0 117 -40t45 -104q0 -65 -46 -107.5t-116 -42.5h-55v-144h-121v438h176z
M420 374q24 0 39.5 16t15.5 39q0 24 -15.5 37.5t-39.5 13.5h-36v-106h36z" />
    <glyph glyph-name="trademark" unicode="&#x2122;" horiz-adv-x="894" 
d="M146 326v293h-116v91h327v-91h-116v-293h-95zM401 326l30 384h95l97 -200l96 200h95l30 -384h-97l-17 245l-81 -177h-56l-87 177l-12 -245h-93z" />
    <glyph glyph-name="uni2126" unicode="&#x2126;" horiz-adv-x="841" 
d="M41 0v147h167v12q-74 37 -117 103t-43 151q0 138 103.5 222.5t267.5 84.5q165 0 268.5 -84.5t103.5 -222.5q0 -82 -42 -147.5t-115 -107.5v-11h166v-147h-320v217q136 49 136 175q0 74 -53 122.5t-144 48.5t-143.5 -48.5t-52.5 -122.5q0 -127 138 -176v-216h-320z" />
    <glyph glyph-name="estimated" unicode="&#x212e;" horiz-adv-x="901" 
d="M451 720q184 0 292 -109.5t108 -268.5h-639q-14 0 -14 -13v-174q0 -31 16 -46q96 -96 237 -96q74 0 140.5 31.5t109.5 83.5h71q-41 -58 -122.5 -99t-198.5 -41q-180 0 -291 102t-111 262q0 159 109.5 263.5t292.5 104.5zM451 693q-141 0 -237 -98q-16 -15 -16 -43v-174
q0 -13 14 -13h476q14 0 14 13v174q0 28 -16 43q-99 98 -235 98z" />
    <glyph glyph-name="oneeighth" unicode="&#x215b;" horiz-adv-x="954" 
d="M163 285v290q-45 -30 -96 -47v110q85 34 128 78h79v-431h-111zM646 710h126l-520 -710h-125zM818 224q85 -32 85 -105q0 -58 -46.5 -92t-125.5 -34q-80 0 -126.5 33.5t-46.5 91.5q0 73 85 106q-67 29 -67 96q0 51 42.5 83.5t112.5 32.5q72 0 114 -31.5t42 -83.5
q0 -65 -69 -97zM732 360q-23 0 -38 -13t-15 -35t14.5 -34.5t38.5 -12.5q23 0 37.5 12.5t14.5 34.5t-14.5 35t-37.5 13zM732 73q27 0 44 14t17 38q0 25 -17 38.5t-44 13.5q-26 0 -43 -13.5t-17 -38.5q0 -24 17 -38t43 -14z" />
    <glyph glyph-name="threeeighths" unicode="&#x215c;" horiz-adv-x="954" 
d="M199 279q-103 0 -174 48l55 88q56 -39 114 -39q29 1 44 12t15 28q0 46 -119 46v85q55 0 78.5 14.5t23.5 32.5q0 30 -41 30q-44 0 -70 -41l-82 56q52 82 163 82q62 0 101 -30t39 -78q0 -76 -81 -99q98 -23 98 -104q0 -60 -44 -95.5t-120 -35.5zM156 0l520 710h125
l-519 -710h-126zM755 -7q-80 0 -126.5 33.5t-46.5 91.5q0 73 85 106q-67 29 -67 96q0 51 42.5 83.5t112.5 32.5q71 0 113 -31.5t42 -83.5q0 -65 -68 -97q85 -32 85 -105q0 -58 -46.5 -92t-125.5 -34zM756 265q23 0 37.5 12.5t14.5 34.5t-14.5 35t-37.5 13t-38 -13t-15 -35
t14.5 -34.5t38.5 -12.5zM756 73q27 0 44 14t17 38q0 25 -17 38.5t-44 13.5q-26 0 -43 -13.5t-17 -38.5q0 -24 17 -38t43 -14z" />
    <glyph glyph-name="fiveeighths" unicode="&#x215d;" horiz-adv-x="954" 
d="M194 279q-98 0 -165 45l44 89q63 -37 119 -37q29 0 45 14t16 36q0 21 -15 33t-40 12q-32 0 -51 -15l-86 23l14 236h263v-98h-171l-6 -69q28 14 60 14q62 0 101 -35.5t39 -100.5q0 -67 -46 -107t-121 -40zM152 0l519 710h125l-519 -710h-125zM750 -7q-79 0 -125.5 33.5
t-46.5 91.5q0 73 85 106q-67 28 -67 96q0 51 42 83.5t112 32.5q72 0 114 -31.5t42 -83.5q0 -65 -68 -97q84 -31 84 -105q0 -58 -46 -92t-126 -34zM751 265q23 0 37.5 12.5t14.5 34.5t-14.5 35t-37.5 13t-37.5 -13t-14.5 -35t14 -34.5t38 -12.5zM752 73q27 0 44 14t17 38
q0 25 -17 38.5t-44 13.5q-26 0 -43.5 -14t-17.5 -38t17 -38t44 -14z" />
    <glyph glyph-name="seveneighths" unicode="&#x215e;" horiz-adv-x="954" 
d="M139 284q-9 166 133 334h-209v96h320v-74q-130 -182 -124 -356h-120zM118 0l519 710h126l-520 -710h-125zM730 -7q-79 0 -125.5 33.5t-46.5 91.5q0 73 84 106q-67 29 -67 96q0 51 42.5 83.5t112.5 32.5q72 0 114 -31.5t42 -83.5q0 -65 -69 -97q85 -31 85 -105
q0 -58 -46.5 -92t-125.5 -34zM731 265q23 0 37.5 12.5t14.5 34.5t-14.5 35t-37.5 13t-37.5 -13t-14.5 -35t14 -34.5t38 -12.5zM732 73q27 0 43.5 14t16.5 38q0 25 -17 38.5t-44 13.5q-26 0 -43 -13.5t-17 -38.5q0 -24 17 -38t44 -14z" />
    <glyph glyph-name="uni2166" unicode="&#x2166;" horiz-adv-x="1318" 
d="M342 195l164 515h175l-251 -710h-183l-251 710h179zM753 0v710h168v-710h-168zM1073 710h168v-710h-168v710z" />
    <glyph glyph-name="arrowleft" unicode="&#x2190;" horiz-adv-x="956" 
d="M842 438v-162h-494l171 -196l-120 -93l-285 370l285 362l120 -85l-170 -196h493z" />
    <glyph glyph-name="arrowup" unicode="&#x2191;" horiz-adv-x="956" 
d="M841 443l-93 -120l-196 172v-495h-161v494l-196 -171l-86 120l363 285z" />
    <glyph glyph-name="arrowright" unicode="&#x2192;" horiz-adv-x="956" 
d="M560 723l285 -362l-285 -370l-119 93l172 197h-496v161h494l-170 196z" />
    <glyph glyph-name="arrowdown" unicode="&#x2193;" horiz-adv-x="951" 
d="M755 397l86 -120l-363 -285l-369 285l93 120l196 -172v495h161l1 -493z" />
    <glyph glyph-name="arrowboth" unicode="&#x2194;" horiz-adv-x="1438" 
d="M1039 719l285 -362l-285 -370l-120 93l172 196h-743l171 -196l-120 -93l-285 370l285 362l120 -85l-170 -196h740l-170 196z" />
    <glyph glyph-name="arrowupdn" unicode="&#x2195;" horiz-adv-x="951" 
d="M756 163l86 -120l-362 -285l-370 285l92 120l197 -173l-1 250v495l-196 -172l-93 120l370 285l362 -285l-85 -119l-197 170l1 -494h-1l1 -249z" />
    <glyph glyph-name="uni2196" unicode="&#x2196;" horiz-adv-x="951" 
d="M789 152l-113 -114l-349 349l-19 -259l-145 25l55 457l463 60l19 -150l-260 -18z" />
    <glyph glyph-name="uni2197" unicode="&#x2197;" horiz-adv-x="956" 
d="M793 159l-150 -18l-18 259l-350 -350l-113 115l349 349l-260 18l24 145l459 -54z" />
    <glyph glyph-name="uni2198" unicode="&#x2198;" horiz-adv-x="951" 
d="M644 585l145 -24l-54 -459l-464 -59l-19 150l260 18l-350 350l115 113l348 -348z" />
    <glyph glyph-name="uni2199" unicode="&#x2199;" horiz-adv-x="951" 
d="M792 553l-349 -349l258 -19l-24 -145l-457 55l-61 463l151 19l18 -259l350 349z" />
    <glyph glyph-name="partialdiff" unicode="&#x2202;" horiz-adv-x="600" 
d="M293 -12q-108 0 -177.5 64.5t-69.5 179.5q0 107 58 171.5t152 64.5q80 0 123 -42l2 1q-35 71 -102.5 126t-154.5 88l93 99q144 -48 240 -166t96 -289q0 -153 -71.5 -225t-188.5 -72zM303 107q44 0 73 35t29 100q0 59 -29 90t-74 31q-49 0 -76.5 -35t-27.5 -96
q0 -58 28.5 -91.5t76.5 -33.5z" />
    <glyph glyph-name="uni2206" unicode="&#x2206;" horiz-adv-x="703" 
d="M444 710l211 -609v-101h-606v101l211 609h184zM347 540l-129 -393h259z" />
    <glyph glyph-name="product" unicode="&#x220f;" horiz-adv-x="755" 
d="M679 710v-920h-168v774h-267v-774h-168v920h603z" />
    <glyph glyph-name="summation" unicode="&#x2211;" horiz-adv-x="566" 
d="M27 -210v123l216 356l-206 322v119h472v-147h-266l163 -253v-91l-172 -282h307v-147h-514z" />
    <glyph glyph-name="minus" unicode="&#x2212;" 
d="M73 288v124h450v-124h-450z" />
    <glyph glyph-name="uni2215" unicode="&#x2215;" horiz-adv-x="936" 
d="M189 0l410 710h147l-410 -710h-147z" />
    <glyph glyph-name="uni2219" unicode="&#x2219;" horiz-adv-x="500" 
d="M250 166q-38 0 -65 27t-27 65t27 65t65 27t65 -27t27 -65t-27 -65t-65 -27z" />
    <glyph glyph-name="radical" unicode="&#x221a;" horiz-adv-x="600" 
d="M209 -84l-92 315h-95v142h202l54 -203q26 -102 31 -134h2q7 45 25 139l102 535h141l-160 -794h-210z" />
    <glyph glyph-name="infinity" unicode="&#x221e;" horiz-adv-x="786" 
d="M204 98q-81 0 -132 53t-51 136q0 91 54.5 146t145.5 55q112 0 177 -101q69 101 185 101q82 0 132 -53.5t50 -136.5q0 -91 -54 -145.5t-145 -54.5q-109 0 -178 101q-69 -101 -184 -101zM234 212q56 0 89 78q-31 84 -93 84q-35 0 -57 -23.5t-22 -61.5q0 -32 23 -54.5
t60 -22.5zM560 212q33 0 55 22.5t22 55.5q0 37 -20 60.5t-61 23.5q-54 0 -91 -82q30 -80 95 -80z" />
    <glyph glyph-name="integral" unicode="&#x222b;" horiz-adv-x="600" 
d="M206 -170q-30 0 -75 12l7 113q18 -5 34 -5q25 0 39.5 20.5t14.5 52.5v514q0 90 42 136.5t123 46.5q33 0 78 -11l-6 -114q-22 6 -37 6q-25 0 -40.5 -21.5t-15.5 -52.5v-514q0 -183 -164 -183z" />
    <glyph glyph-name="approxequal" unicode="&#x2248;" horiz-adv-x="600" 
d="M75 386q1 78 33.5 116.5t76.5 38.5q32 0 122 -25q70 -18 87 -18q32 0 39 43h93q-1 -72 -33.5 -113.5t-73.5 -41.5t-125 24q-69 19 -85 19q-31 0 -41 -43h-93zM75 166q1 78 33.5 116.5t76.5 38.5q32 0 122 -25q70 -18 87 -18q32 0 39 43h93q-1 -72 -33.5 -113.5
t-73.5 -41.5t-125 24q-69 19 -85 19q-31 0 -41 -43h-93z" />
    <glyph glyph-name="notequal" unicode="&#x2260;" 
d="M523 403h-137l-55 -106h192v-125h-258l-57 -110h-120l57 110h-72v125h137l56 106h-193v125h258l57 110h121l-57 -110h71v-125z" />
    <glyph glyph-name="lessequal" unicode="&#x2264;" 
d="M523 627v-124l-354 -82l354 -81v-125l-450 116v180zM73 73v112h450v-112h-450z" />
    <glyph glyph-name="greaterequal" unicode="&#x2265;" 
d="M73 627l450 -116v-180l-450 -116v125l354 81l-354 82v124zM73 73v112h450v-112h-450z" />
    <glyph glyph-name="lozenge" unicode="&#x25ca;" horiz-adv-x="482" 
d="M163 0l-153 352l153 358h156l153 -358l-153 -352h-156zM241 87l106 265l-106 271l-106 -271z" />
    <glyph glyph-name="uniFEFF" unicode="&#xfeff;" horiz-adv-x="0" 
 />
    <glyph glyph-name="a.ss01" horiz-adv-x="578" 
d="M293 518q101 0 163 -52t62 -160v-306h-155v51q-57 -62 -161 -62q-79 0 -127.5 40.5t-48.5 117.5q0 74 59.5 120.5t176.5 46.5q42 0 101 -8v2q0 39 -25 61.5t-72 22.5q-72 0 -134 -43l-66 105q99 64 227 64zM242 109q32 0 66 15t56 40v50q-35 5 -71 5q-106 0 -106 -60
q0 -24 15 -37t40 -13z" />
    <glyph glyph-name="aacute.ss01" horiz-adv-x="578" 
d="M469 747l-137 -169h-126l120 169h143zM293 518q101 0 163 -52t62 -160v-306h-155v51q-57 -62 -161 -62q-79 0 -127.5 40.5t-48.5 117.5q0 74 59.5 120.5t176.5 46.5q42 0 101 -8v2q0 39 -25 61.5t-72 22.5q-72 0 -134 -43l-66 105q99 64 227 64zM242 109q32 0 66 15
t56 40v50q-35 5 -71 5q-106 0 -106 -60q0 -24 15 -37t40 -13z" />
    <glyph glyph-name="abreve.ss01" horiz-adv-x="578" 
d="M295 574q-86 0 -128.5 47t-43.5 126h105q3 -82 67 -82q63 0 67 82h105q-1 -79 -43.5 -126t-128.5 -47zM293 518q101 0 163 -52t62 -160v-306h-155v51q-57 -62 -161 -62q-79 0 -127.5 40.5t-48.5 117.5q0 74 59.5 120.5t176.5 46.5q42 0 101 -8v2q0 39 -25 61.5t-72 22.5
q-72 0 -134 -43l-66 105q99 64 227 64zM242 109q32 0 66 15t56 40v50q-35 5 -71 5q-106 0 -106 -60q0 -24 15 -37t40 -13z" />
    <glyph glyph-name="acircumflex.ss01" horiz-adv-x="578" 
d="M300 665l-80 -87h-127l134 169h145l134 -169h-127zM293 518q101 0 163 -52t62 -160v-306h-155v51q-57 -62 -161 -62q-79 0 -127.5 40.5t-48.5 117.5q0 74 59.5 120.5t176.5 46.5q42 0 101 -8v2q0 39 -25 61.5t-72 22.5q-72 0 -134 -43l-66 105q99 64 227 64zM242 109
q32 0 66 15t56 40v50q-35 5 -71 5q-106 0 -106 -60q0 -24 15 -37t40 -13z" />
    <glyph glyph-name="adieresis.ss01" horiz-adv-x="578" 
d="M188 595q-32 0 -54 22.5t-22 54.5t22 54t54 22t54 -22t22 -54t-22 -54.5t-54 -22.5zM411 595q-32 0 -54.5 22.5t-22.5 54.5t22.5 54t54.5 22t54 -22t22 -54t-22 -54.5t-54 -22.5zM293 518q101 0 163 -52t62 -160v-306h-155v51q-57 -62 -161 -62q-79 0 -127.5 40.5
t-48.5 117.5q0 74 59.5 120.5t176.5 46.5q42 0 101 -8v2q0 39 -25 61.5t-72 22.5q-72 0 -134 -43l-66 105q99 64 227 64zM242 109q32 0 66 15t56 40v50q-35 5 -71 5q-106 0 -106 -60q0 -24 15 -37t40 -13z" />
    <glyph glyph-name="agrave.ss01" horiz-adv-x="578" 
d="M392 578h-127l-138 169h142zM293 518q101 0 163 -52t62 -160v-306h-155v51q-57 -62 -161 -62q-79 0 -127.5 40.5t-48.5 117.5q0 74 59.5 120.5t176.5 46.5q42 0 101 -8v2q0 39 -25 61.5t-72 22.5q-72 0 -134 -43l-66 105q99 64 227 64zM242 109q32 0 66 15t56 40v50
q-35 5 -71 5q-106 0 -106 -60q0 -24 15 -37t40 -13z" />
    <glyph glyph-name="amacron.ss01" horiz-adv-x="578" 
d="M462 705v-98h-339v98h339zM293 518q101 0 163 -52t62 -160v-306h-155v51q-57 -62 -161 -62q-79 0 -127.5 40.5t-48.5 117.5q0 74 59.5 120.5t176.5 46.5q42 0 101 -8v2q0 39 -25 61.5t-72 22.5q-72 0 -134 -43l-66 105q99 64 227 64zM242 109q32 0 66 15t56 40v50
q-35 5 -71 5q-106 0 -106 -60q0 -24 15 -37t40 -13z" />
    <glyph glyph-name="aogonek.ss01" horiz-adv-x="578" 
d="M518 -117l19 -78q-40 -14 -85 -14q-57 0 -89 27.5t-32 73.5q0 64 57 108h-25v51q-57 -62 -161 -62q-79 0 -127.5 40.5t-48.5 117.5q0 74 59.5 120.5t176.5 46.5q42 0 101 -8v2q0 39 -25 61.5t-72 22.5q-72 0 -134 -43l-66 105q99 64 227 64q101 0 163 -52t62 -160v-306
h-5q-80 -31 -80 -83q0 -20 11.5 -31t29.5 -11q23 0 44 8zM242 109q32 0 66 15t56 40v50q-35 5 -71 5q-106 0 -106 -60q0 -24 15 -37t40 -13z" />
    <glyph glyph-name="aring.ss01" horiz-adv-x="578" 
d="M298 564q-51 0 -84 33t-33 81t34 81t84 33q49 0 82.5 -33t33.5 -81q0 -49 -33.5 -81.5t-83.5 -32.5zM299 713q-17 0 -27.5 -9.5t-10.5 -25.5q0 -17 10.5 -27t27.5 -10q16 0 26 10.5t10 26.5q0 15 -9.5 25t-26.5 10zM293 518q101 0 163 -52t62 -160v-306h-155v51
q-57 -62 -161 -62q-79 0 -127.5 40.5t-48.5 117.5q0 74 59.5 120.5t176.5 46.5q42 0 101 -8v2q0 39 -25 61.5t-72 22.5q-72 0 -134 -43l-66 105q99 64 227 64zM242 109q32 0 66 15t56 40v50q-35 5 -71 5q-106 0 -106 -60q0 -24 15 -37t40 -13z" />
    <glyph glyph-name="atilde.ss01" horiz-adv-x="578" 
d="M234 640q-26 0 -36 -43h-85q6 71 36.5 104.5t70.5 33.5q35 0 88 -24q41 -19 53 -19q31 0 37 43h85q-6 -67 -36.5 -102.5t-72.5 -35.5q-29 0 -83 24q-43 19 -57 19zM293 518q101 0 163 -52t62 -160v-306h-155v51q-57 -62 -161 -62q-79 0 -127.5 40.5t-48.5 117.5
q0 74 59.5 120.5t176.5 46.5q42 0 101 -8v2q0 39 -25 61.5t-72 22.5q-72 0 -134 -43l-66 105q99 64 227 64zM242 109q32 0 66 15t56 40v50q-35 5 -71 5q-106 0 -106 -60q0 -24 15 -37t40 -13z" />
    <glyph glyph-name="ae.ss01" horiz-adv-x="905" 
d="M874 236v-24h-345q16 -94 137 -94q89 0 151 29l32 -120q-82 -37 -194 -37q-143 0 -222 89q-88 -90 -233 -90q-81 0 -127.5 40t-46.5 118q0 74 60.5 120.5t180.5 46.5q44 0 105 -8v2q0 39 -25.5 61.5t-71.5 22.5q-72 0 -135 -43l-68 103q101 66 229 66q108 0 162 -57
q68 57 165 57q107 0 176.5 -76.5t69.5 -205.5zM532 319h186q-5 37 -31.5 59.5t-58.5 22.5q-35 0 -60 -22t-36 -60zM250 109q32 0 69.5 17t63.5 44q-8 27 -10 44q-36 5 -75 5q-111 0 -111 -60q0 -24 17 -37t46 -13z" />
    <glyph glyph-name="a.ss02" horiz-adv-x="646" 
d="M448 508h138v-508h-155v69q-56 -79 -160 -79q-102 0 -169.5 70t-67.5 190t74 194t190 74q75 0 147 -36zM309 131q54 0 88.5 38.5t33.5 97.5v85q-54 27 -115 27q-56 0 -88.5 -35.5t-32.5 -93.5q0 -54 32.5 -86.5t81.5 -32.5z" />
    <glyph glyph-name="aacute.ss02" horiz-adv-x="646" 
d="M511 747l-137 -169h-127l121 169h143zM448 508h138v-508h-155v69q-56 -79 -160 -79q-102 0 -169.5 70t-67.5 190t74 194t190 74q75 0 147 -36zM309 131q54 0 88.5 38.5t33.5 97.5v85q-54 27 -115 27q-56 0 -88.5 -35.5t-32.5 -93.5q0 -54 32.5 -86.5t81.5 -32.5z" />
    <glyph glyph-name="abreve.ss02" horiz-adv-x="646" 
d="M337 574q-86 0 -128.5 47t-43.5 126h105q3 -82 67 -82q63 0 67 82h105q-1 -79 -43.5 -126t-128.5 -47zM448 508h138v-508h-155v69q-56 -79 -160 -79q-102 0 -169.5 70t-67.5 190t74 194t190 74q75 0 147 -36zM309 131q54 0 88.5 38.5t33.5 97.5v85q-54 27 -115 27
q-56 0 -88.5 -35.5t-32.5 -93.5q0 -54 32.5 -86.5t81.5 -32.5z" />
    <glyph glyph-name="acircumflex.ss02" horiz-adv-x="646" 
d="M337 665l-80 -87h-127l134 169h146l134 -169h-127zM448 508h138v-508h-155v69q-56 -79 -160 -79q-102 0 -169.5 70t-67.5 190t74 194t190 74q75 0 147 -36zM309 131q54 0 88.5 38.5t33.5 97.5v85q-54 27 -115 27q-56 0 -88.5 -35.5t-32.5 -93.5q0 -54 32.5 -86.5
t81.5 -32.5z" />
    <glyph glyph-name="adieresis.ss02" horiz-adv-x="646" 
d="M224 595q-32 0 -54 22.5t-22 54.5t22 54t54 22q33 0 55 -22t22 -54t-22 -54.5t-55 -22.5zM448 595q-33 0 -55 22.5t-22 54.5t22 54t55 22q32 0 54 -22t22 -54t-22 -54.5t-54 -22.5zM448 508h138v-508h-155v69q-56 -79 -160 -79q-102 0 -169.5 70t-67.5 190t74 194t190 74
q75 0 147 -36zM309 131q54 0 88.5 38.5t33.5 97.5v85q-54 27 -115 27q-56 0 -88.5 -35.5t-32.5 -93.5q0 -54 32.5 -86.5t81.5 -32.5z" />
    <glyph glyph-name="agrave.ss02" horiz-adv-x="646" 
d="M437 578h-127l-139 169h143zM448 508h138v-508h-155v69q-56 -79 -160 -79q-102 0 -169.5 70t-67.5 190t74 194t190 74q75 0 147 -36zM309 131q54 0 88.5 38.5t33.5 97.5v85q-54 27 -115 27q-56 0 -88.5 -35.5t-32.5 -93.5q0 -54 32.5 -86.5t81.5 -32.5z" />
    <glyph glyph-name="amacron.ss02" horiz-adv-x="646" 
d="M505 705v-98h-338v98h338zM448 508h138v-508h-155v69q-56 -79 -160 -79q-102 0 -169.5 70t-67.5 190t74 194t190 74q75 0 147 -36zM309 131q54 0 88.5 38.5t33.5 97.5v85q-54 27 -115 27q-56 0 -88.5 -35.5t-32.5 -93.5q0 -54 32.5 -86.5t81.5 -32.5z" />
    <glyph glyph-name="aogonek.ss02" horiz-adv-x="646" 
d="M553 0q-80 -31 -80 -83q0 -20 11.5 -31t29.5 -11q23 0 44 8l19 -78q-40 -14 -85 -14q-57 0 -89 27.5t-32 73.5q0 66 60 110v67q-56 -79 -160 -79q-102 0 -169.5 70t-67.5 190t74 194t190 74q75 0 147 -36l3 26h138v-508h-33zM309 131q54 0 88.5 38.5t33.5 97.5v85
q-54 27 -115 27q-56 0 -88.5 -35.5t-32.5 -93.5q0 -54 32.5 -86.5t81.5 -32.5z" />
    <glyph glyph-name="aring.ss02" horiz-adv-x="646" 
d="M339 564q-51 0 -84.5 33t-33.5 81t34 81t84 33q49 0 82.5 -33t33.5 -81q0 -49 -33 -81.5t-83 -32.5zM339 713q-17 0 -27.5 -9.5t-10.5 -25.5q0 -17 10.5 -27t27.5 -10t27 10.5t10 26.5q0 15 -10 25t-27 10zM448 508h138v-508h-155v69q-56 -79 -160 -79q-102 0 -169.5 70
t-67.5 190t74 194t190 74q75 0 147 -36zM309 131q54 0 88.5 38.5t33.5 97.5v85q-54 27 -115 27q-56 0 -88.5 -35.5t-32.5 -93.5q0 -54 32.5 -86.5t81.5 -32.5z" />
    <glyph glyph-name="atilde.ss02" horiz-adv-x="646" 
d="M272 640q-26 0 -36 -43h-85q6 71 36.5 104.5t70.5 33.5q35 0 88 -24q41 -19 53 -19q31 0 37 43h85q-6 -67 -36.5 -102.5t-72.5 -35.5q-29 0 -83 24q-43 19 -57 19zM448 508h138v-508h-155v69q-56 -79 -160 -79q-102 0 -169.5 70t-67.5 190t74 194t190 74q75 0 147 -36z
M309 131q54 0 88.5 38.5t33.5 97.5v85q-54 27 -115 27q-56 0 -88.5 -35.5t-32.5 -93.5q0 -54 32.5 -86.5t81.5 -32.5z" />
    <glyph glyph-name="a.sc" horiz-adv-x="609" 
d="M433 0l-35 106h-199l-34 -106h-164l213 589h182l212 -589h-175zM237 228h122l-62 189z" />
    <glyph glyph-name="aacute.sc" horiz-adv-x="609" 
d="M479 828l-137 -169h-127l121 169h143zM433 0l-35 106h-199l-34 -106h-164l213 589h182l212 -589h-175zM237 228h122l-62 189z" />
    <glyph glyph-name="abreve.sc" horiz-adv-x="609" 
d="M305 655q-86 0 -128.5 47t-43.5 126h105q3 -82 67 -82q63 0 67 82h105q-1 -79 -43.5 -126t-128.5 -47zM433 0l-35 106h-199l-34 -106h-164l213 589h182l212 -589h-175zM237 228h122l-62 189z" />
    <glyph glyph-name="acircumflex.sc" horiz-adv-x="609" 
d="M305 746l-80 -87h-127l134 169h146l134 -169h-127zM433 0l-35 106h-199l-34 -106h-164l213 589h182l212 -589h-175zM237 228h122l-62 189z" />
    <glyph glyph-name="adieresis.sc" horiz-adv-x="609" 
d="M193 676q-32 0 -54 22.5t-22 54.5q0 31 22.5 53.5t53.5 22.5q33 0 55 -22t22 -54t-22 -54.5t-55 -22.5zM417 676q-33 0 -55 22.5t-22 54.5t22 54t55 22q31 0 53.5 -22.5t22.5 -53.5q0 -32 -22 -54.5t-54 -22.5zM433 0l-35 106h-199l-34 -106h-164l213 589h182l212 -589
h-175zM237 228h122l-62 189z" />
    <glyph glyph-name="agrave.sc" horiz-adv-x="609" 
d="M405 659h-127l-139 169h143zM433 0l-35 106h-199l-34 -106h-164l213 589h182l212 -589h-175zM237 228h122l-62 189z" />
    <glyph glyph-name="amacron.sc" horiz-adv-x="609" 
d="M474 786v-98h-338v98h338zM433 0l-35 106h-199l-34 -106h-164l213 589h182l212 -589h-175zM237 228h122l-62 189z" />
    <glyph glyph-name="aogonek.sc" horiz-adv-x="609" 
d="M613 -117l19 -78q-40 -14 -85 -14q-57 0 -89 27.5t-32 73.5q0 64 57 108h-50l-35 106h-199l-34 -106h-164l213 589h182l212 -589q-80 -31 -80 -83q0 -20 11.5 -31t29.5 -11q23 0 44 8zM237 228h122l-62 189z" />
    <glyph glyph-name="aring.sc" horiz-adv-x="609" 
d="M308 645q-51 0 -84.5 33t-33.5 81t34 81t84 33q49 0 82.5 -33t33.5 -81q0 -49 -33 -81.5t-83 -32.5zM308 794q-17 0 -27.5 -9.5t-10.5 -25.5q0 -17 10.5 -27t27.5 -10q16 0 26.5 10t10.5 27q0 15 -10 25t-27 10zM433 0l-35 106h-199l-34 -106h-164l213 589h182l212 -589
h-175zM237 228h122l-62 189z" />
    <glyph glyph-name="aringacute.sc" horiz-adv-x="609" 
d="M308 645q-51 0 -84.5 33t-33.5 81q0 35 19 63t50 41l77 108h143l-99 -122q44 -34 44 -90q0 -49 -33 -81.5t-83 -32.5zM308 722q16 0 26.5 10t10.5 27q0 15 -10 25t-27 10t-27.5 -9.5t-10.5 -25.5q0 -17 10.5 -27t27.5 -10zM433 0l-35 106h-199l-34 -106h-164l213 589h182
l212 -589h-175zM237 228h122l-62 189z" />
    <glyph glyph-name="atilde.sc" horiz-adv-x="609" 
d="M240 721q-26 0 -36 -43h-85q6 71 36.5 104.5t70.5 33.5q35 0 88 -24q41 -19 53 -19q31 0 37 43h85q-6 -67 -36.5 -102.5t-72.5 -35.5q-29 0 -83 24q-43 19 -57 19zM433 0l-35 106h-199l-34 -106h-164l213 589h182l212 -589h-175zM237 228h122l-62 189z" />
    <glyph glyph-name="ae.sc" horiz-adv-x="824" 
d="M524 135h242v-135h-407v139h-151l-45 -139h-162l213 589h549v-134h-239v-97h224v-124h-224v-99zM248 260h111v195h-47z" />
    <glyph glyph-name="aeacute.sc" horiz-adv-x="824" 
d="M390 651l121 169h143l-137 -169h-127zM524 135h242v-135h-407v139h-151l-45 -139h-162l213 589h549v-134h-239v-97h224v-124h-224v-99zM248 260h111v195h-47z" />
    <glyph glyph-name="b.sc" horiz-adv-x="567" 
d="M424 308q47 -12 76.5 -51t29.5 -95q0 -72 -50 -117t-134 -45h-279v589h244q86 0 136 -41t50 -109q0 -90 -73 -131zM232 461v-104h45q32 0 48.5 14t16.5 39q0 51 -64 51h-46zM304 127q26 0 42.5 14t16.5 40t-15.5 40.5t-44.5 14.5h-71v-109h72z" />
    <glyph glyph-name="c.sc" horiz-adv-x="581" 
d="M354 -8q-144 0 -233.5 84t-89.5 227q0 136 85 215.5t214 79.5q158 0 233 -112l-121 -94q-42 55 -112 55q-58 0 -92 -40.5t-34 -102.5q0 -72 44.5 -116.5t125.5 -44.5q66 0 133 37l60 -132q-89 -56 -213 -56z" />
    <glyph glyph-name="cacute.sc" horiz-adv-x="581" 
d="M242 659l121 169h143l-137 -169h-127zM354 -8q-144 0 -233.5 84t-89.5 227q0 136 85 215.5t214 79.5q158 0 233 -112l-121 -94q-42 55 -112 55q-58 0 -92 -40.5t-34 -102.5q0 -72 44.5 -116.5t125.5 -44.5q66 0 133 37l60 -132q-89 -56 -213 -56z" />
    <glyph glyph-name="ccaron.sc" horiz-adv-x="581" 
d="M259 659l-131 169h126l78 -83l76 83h126l-129 -169h-146zM354 -8q-144 0 -233.5 84t-89.5 227q0 136 85 215.5t214 79.5q158 0 233 -112l-121 -94q-42 55 -112 55q-58 0 -92 -40.5t-34 -102.5q0 -72 44.5 -116.5t125.5 -44.5q66 0 133 37l60 -132q-89 -56 -213 -56z" />
    <glyph glyph-name="ccedilla.sc" horiz-adv-x="581" 
d="M341 -30q61 -17 61 -89q0 -111 -172 -111v78q40 0 55.5 8.5t15.5 27.5q0 33 -41 33l21 81q-115 21 -182.5 101t-67.5 204q0 136 85 215.5t214 79.5q158 0 233 -112l-121 -94q-42 55 -112 55q-58 0 -92 -40.5t-34 -102.5q0 -72 44.5 -116.5t125.5 -44.5q66 0 133 37
l60 -132q-89 -56 -213 -56h-7z" />
    <glyph glyph-name="ccircumflex.sc" horiz-adv-x="581" 
d="M125 659l134 169h146l134 -169h-127l-80 87l-80 -87h-127zM354 -8q-144 0 -233.5 84t-89.5 227q0 136 85 215.5t214 79.5q158 0 233 -112l-121 -94q-42 55 -112 55q-58 0 -92 -40.5t-34 -102.5q0 -72 44.5 -116.5t125.5 -44.5q66 0 133 37l60 -132q-89 -56 -213 -56z" />
    <glyph glyph-name="cdotaccent.sc" horiz-adv-x="581" 
d="M332 661q-38 0 -63.5 25.5t-25.5 63.5t25.5 63.5t63.5 25.5t63.5 -25.5t25.5 -63.5t-25.5 -63.5t-63.5 -25.5zM354 -8q-144 0 -233.5 84t-89.5 227q0 136 85 215.5t214 79.5q158 0 233 -112l-121 -94q-42 55 -112 55q-58 0 -92 -40.5t-34 -102.5q0 -72 44.5 -116.5
t125.5 -44.5q66 0 133 37l60 -132q-89 -56 -213 -56z" />
    <glyph glyph-name="d.sc" horiz-adv-x="652" 
d="M314 589q134 0 220.5 -80.5t86.5 -211.5t-86.5 -214t-220.5 -83h-247v589h247zM294 137q69 0 110.5 42.5t41.5 115.5q0 74 -41.5 115.5t-111.5 41.5h-61v-315h62z" />
    <glyph glyph-name="eth.sc" horiz-adv-x="652" 
d="M314 589q135 0 221 -80.5t86 -211.5t-86.5 -214t-220.5 -83h-247v236h-53v116h53v237h247zM294 137q69 0 110.5 42.5t41.5 115.5q0 75 -41 116t-111 41h-62v-100h101v-116h-101v-99h62z" />
    <glyph glyph-name="dcaron.sc" horiz-adv-x="652" 
d="M241 659l-131 169h126l78 -83l76 83h126l-129 -169h-146zM314 589q134 0 220.5 -80.5t86.5 -211.5t-86.5 -214t-220.5 -83h-247v589h247zM294 137q69 0 110.5 42.5t41.5 115.5q0 74 -41.5 115.5t-111.5 41.5h-61v-315h62z" />
    <glyph glyph-name="e.sc" horiz-adv-x="532" 
d="M67 0v589h404v-134h-239v-97h224v-124h-224v-99h242v-135h-407z" />
    <glyph glyph-name="eacute.sc" horiz-adv-x="532" 
d="M179 659l121 169h143l-137 -169h-127zM67 0v589h404v-134h-239v-97h224v-124h-224v-99h242v-135h-407z" />
    <glyph glyph-name="ebreve.sc" horiz-adv-x="532" 
d="M269 655q-86 0 -128.5 47t-43.5 126h105q3 -82 67 -82q63 0 67 82h105q-1 -79 -43.5 -126t-128.5 -47zM67 0v589h404v-134h-239v-97h224v-124h-224v-99h242v-135h-407z" />
    <glyph glyph-name="ecaron.sc" horiz-adv-x="532" 
d="M196 659l-131 169h126l78 -83l76 83h126l-129 -169h-146zM67 0v589h404v-134h-239v-97h224v-124h-224v-99h242v-135h-407z" />
    <glyph glyph-name="ecircumflex.sc" horiz-adv-x="532" 
d="M62 659l134 169h146l134 -169h-127l-80 87l-80 -87h-127zM67 0v589h404v-134h-239v-97h224v-124h-224v-99h242v-135h-407z" />
    <glyph glyph-name="edieresis.sc" horiz-adv-x="532" 
d="M157 676q-32 0 -54 22.5t-22 54.5q0 31 22.5 53.5t53.5 22.5q33 0 55 -22t22 -54t-22 -54.5t-55 -22.5zM381 676q-33 0 -55 22.5t-22 54.5t22 54t55 22q31 0 53.5 -22.5t22.5 -53.5q0 -32 -22 -54.5t-54 -22.5zM67 0v589h404v-134h-239v-97h224v-124h-224v-99h242v-135
h-407z" />
    <glyph glyph-name="edotaccent.sc" horiz-adv-x="532" 
d="M269 661q-37 0 -63 25.5t-26 63.5t26 63.5t63 25.5t63 -25.5t26 -63.5t-26 -63.5t-63 -25.5zM67 0v589h404v-134h-239v-97h224v-124h-224v-99h242v-135h-407z" />
    <glyph glyph-name="egrave.sc" horiz-adv-x="532" 
d="M243 659l-139 169h143l123 -169h-127zM67 0v589h404v-134h-239v-97h224v-124h-224v-99h242v-135h-407z" />
    <glyph glyph-name="emacron.sc" horiz-adv-x="532" 
d="M100 688v98h338v-98h-338zM67 0v589h404v-134h-239v-97h224v-124h-224v-99h242v-135h-407z" />
    <glyph glyph-name="eogonek.sc" horiz-adv-x="532" 
d="M437 0q-80 -31 -80 -83q0 -20 11.5 -31t29.5 -11q23 0 44 8l19 -78q-40 -14 -85 -14q-57 0 -89 27.5t-32 73.5q0 64 57 108h-245v589h404v-134h-239v-97h224v-124h-224v-99h242v-135h-37z" />
    <glyph glyph-name="f.sc" horiz-adv-x="486" 
d="M67 0v589h385v-139h-220v-110h209v-133h-209v-207h-165z" />
    <glyph glyph-name="g.sc" horiz-adv-x="653" 
d="M359 -9q-152 0 -240 80t-88 219q0 147 87.5 227.5t217.5 80.5q156 0 244 -109l-121 -96q-53 57 -123 57q-55 0 -93.5 -41.5t-38.5 -117.5q0 -77 42 -115t110 -38q41 0 70 11v62h-88v123h252v-287q-110 -56 -231 -56z" />
    <glyph glyph-name="gbreve.sc" horiz-adv-x="653" 
d="M334 655q-86 0 -128.5 47t-43.5 126h105q3 -82 67 -82q63 0 67 82h105q-1 -79 -43.5 -126t-128.5 -47zM359 -9q-152 0 -240 80t-88 219q0 147 87.5 227.5t217.5 80.5q156 0 244 -109l-121 -96q-53 57 -123 57q-55 0 -93.5 -41.5t-38.5 -117.5q0 -77 42 -115t110 -38
q41 0 70 11v62h-88v123h252v-287q-110 -56 -231 -56z" />
    <glyph glyph-name="gcircumflex.sc" horiz-adv-x="653" 
d="M127 659l134 169h146l134 -169h-127l-80 87l-80 -87h-127zM359 -9q-152 0 -240 80t-88 219q0 147 87.5 227.5t217.5 80.5q156 0 244 -109l-121 -96q-53 57 -123 57q-55 0 -93.5 -41.5t-38.5 -117.5q0 -77 42 -115t110 -38q41 0 70 11v62h-88v123h252v-287
q-110 -56 -231 -56z" />
    <glyph glyph-name="uni0123.sc" horiz-adv-x="653" 
d="M359 -9q-152 0 -240 80t-88 219q0 147 87.5 227.5t217.5 80.5q156 0 244 -109l-121 -96q-53 57 -123 57q-55 0 -93.5 -41.5t-38.5 -117.5q0 -77 42 -115t110 -38q41 0 70 11v62h-88v123h252v-287q-110 -56 -231 -56zM223 -221l69 176h143l-88 -176h-124z" />
    <glyph glyph-name="gdotaccent.sc" horiz-adv-x="653" 
d="M334 661q-38 0 -63.5 25.5t-25.5 63.5t25.5 63.5t63.5 25.5t63.5 -25.5t25.5 -63.5t-25.5 -63.5t-63.5 -25.5zM359 -9q-152 0 -240 80t-88 219q0 147 87.5 227.5t217.5 80.5q156 0 244 -109l-121 -96q-53 57 -123 57q-55 0 -93.5 -41.5t-38.5 -117.5q0 -77 42 -115
t110 -38q41 0 70 11v62h-88v123h252v-287q-110 -56 -231 -56z" />
    <glyph glyph-name="h.sc" horiz-adv-x="699" 
d="M467 589h165v-589h-165v223h-235v-223h-165v589h165v-223h235v223z" />
    <glyph glyph-name="hbar.sc" horiz-adv-x="699" 
d="M467 589h165v-589h-165v223h-235v-223h-165v589h165v-50h235v50zM232 366h235v56h-235v-56z" />
    <glyph glyph-name="hcircumflex.sc" horiz-adv-x="699" 
d="M142 659l134 169h146l134 -169h-127l-80 87l-80 -87h-127zM467 589h165v-589h-165v223h-235v-223h-165v589h165v-223h235v223z" />
    <glyph glyph-name="i.sc" horiz-adv-x="299" 
d="M67 0v589h165v-589h-165z" />
    <glyph glyph-name="iacute.sc" horiz-adv-x="299" 
d="M60 659l121 169h143l-137 -169h-127zM67 0v589h165v-589h-165z" />
    <glyph glyph-name="ibreve.sc" horiz-adv-x="299" 
d="M150 655q-81 0 -121 46.5t-41 126.5h105q3 -82 57 -82q53 0 57 82h105q-1 -80 -41 -126.5t-121 -46.5zM67 0v589h165v-589h-165z" />
    <glyph glyph-name="icircumflex.sc" horiz-adv-x="299" 
d="M-37 659l114 169h146l114 -169h-127l-60 82l-60 -82h-127zM67 0v589h165v-589h-165z" />
    <glyph glyph-name="idieresis.sc" horiz-adv-x="299" 
d="M49 669q-35 0 -59 24.5t-24 59.5t24 58.5t59 23.5t59 -23.5t24 -58.5t-24 -59.5t-59 -24.5zM251 669q-35 0 -59 24.5t-24 59.5t24 58.5t59 23.5t59 -23.5t24 -58.5t-24 -59.5t-59 -24.5zM67 0v589h165v-589h-165z" />
    <glyph glyph-name="igrave.sc" horiz-adv-x="299" 
d="M123 659l-139 169h143l123 -169h-127zM67 0v589h165v-589h-165z" />
    <glyph glyph-name="ij.sc" horiz-adv-x="703" 
d="M67 0v589h165v-589h-165zM437 -8q-70 0 -124 19l24 140q39 -13 70 -13q77 0 77 110v341h165v-362q0 -111 -56.5 -173t-155.5 -62z" />
    <glyph glyph-name="imacron.sc" horiz-adv-x="299" 
d="M-5 688v99h308v-99h-308zM67 0v589h165v-589h-165z" />
    <glyph glyph-name="iogonek.sc" horiz-adv-x="299" 
d="M237 -117l19 -78q-40 -14 -85 -14q-57 0 -89 27.5t-32 73.5q0 64 57 108h-40v589h165v-589q-80 -31 -80 -83q0 -20 11.5 -31t29.5 -11q23 0 44 8z" />
    <glyph glyph-name="itilde.sc" horiz-adv-x="299" 
d="M-20 678q5 70 28 104t71 34q31 0 75 -24q32 -19 47 -19q27 0 32 43h83q-12 -138 -100 -138q-25 0 -71 24q-35 19 -50 19q-25 0 -32 -43h-83zM67 0v589h165v-589h-165z" />
    <glyph glyph-name="j.sc" horiz-adv-x="404" 
d="M138 -8q-70 0 -124 19l24 140q39 -13 70 -13q77 0 77 110v341h165v-362q0 -111 -56.5 -173t-155.5 -62z" />
    <glyph glyph-name="jcircumflex.sc" horiz-adv-x="404" 
d="M82 659l114 169h146l114 -169h-127l-60 82l-60 -82h-127zM138 -8q-70 0 -124 19l24 140q39 -13 70 -13q77 0 77 110v341h165v-362q0 -111 -56.5 -173t-155.5 -62z" />
    <glyph glyph-name="k.sc" horiz-adv-x="621" 
d="M581 137h23l-20 -139h-28q-79 0 -129.5 28.5t-91.5 91.5l-75 117h-28v-235h-165v590h165v-236h17l154 236h182l-190 -281l74 -104q47 -68 112 -68z" />
    <glyph glyph-name="uni0137.sc" horiz-adv-x="621" 
d="M581 137h23l-20 -139h-28q-79 0 -129.5 28.5t-91.5 91.5l-75 117h-28v-235h-165v590h165v-236h17l154 236h182l-190 -281l74 -104q47 -68 112 -68zM205 -221l69 176h143l-88 -176h-124z" />
    <glyph glyph-name="l.sc" horiz-adv-x="474" 
d="M232 147h215v-147h-380v589h165v-442z" />
    <glyph glyph-name="lacute.sc" horiz-adv-x="474" 
d="M72 659l121 169h143l-137 -169h-127zM232 147h215v-147h-380v589h165v-442z" />
    <glyph glyph-name="lcaron.sc" horiz-adv-x="474" 
d="M280 419l45 214h159l-78 -214h-126zM232 147h215v-147h-380v589h165v-442z" />
    <glyph glyph-name="uni013C.sc" horiz-adv-x="474" 
d="M232 147h215v-147h-380v589h165v-442zM131 -221l69 176h143l-88 -176h-124z" />
    <glyph glyph-name="ldot.sc" horiz-adv-x="474" 
d="M232 147h215v-147h-380v589h165v-442zM381 256q-40 0 -68 28.5t-28 68.5t28 68.5t68 28.5t68.5 -28.5t28.5 -68.5q0 -41 -28 -69t-69 -28z" />
    <glyph glyph-name="lslash.sc" horiz-adv-x="474" 
d="M232 147h215v-147h-380v164l-36 -21v135l36 21v290h165v-196l103 59v-135l-103 -59v-111z" />
    <glyph glyph-name="m.sc" horiz-adv-x="835" 
d="M44 0l36 589h217l122 -286l129 286h207l37 -589h-163l-20 408l-131 -294h-130l-128 294l-22 -408h-154z" />
    <glyph glyph-name="n.sc" horiz-adv-x="680" 
d="M456 589h157v-590h-141l-248 343v-342h-157v589h160l229 -316v316z" />
    <glyph glyph-name="nacute.sc" horiz-adv-x="680" 
d="M256 659l121 169h143l-137 -169h-127zM456 589h157v-590h-141l-248 343v-342h-157v589h160l229 -316v316z" />
    <glyph glyph-name="ncaron.sc" horiz-adv-x="680" 
d="M273 659l-131 169h126l78 -83l76 83h126l-129 -169h-146zM456 589h157v-590h-141l-248 343v-342h-157v589h160l229 -316v316z" />
    <glyph glyph-name="uni0146.sc" horiz-adv-x="680" 
d="M456 589h157v-590h-141l-248 343v-342h-157v589h160l229 -316v316zM203 -221l69 176h143l-88 -176h-124z" />
    <glyph glyph-name="eng.sc" horiz-adv-x="680" 
d="M456 589h157v-537q0 -112 -56.5 -175t-156.5 -63q-60 0 -116 19l25 127q29 -11 62 -11q85 0 85 76v12l-232 314v-351h-157v589h161l228 -306v306z" />
    <glyph glyph-name="ntilde.sc" horiz-adv-x="680" 
d="M160 678q6 71 36.5 104.5t70.5 33.5q35 0 88 -24q41 -19 53 -19q31 0 37 43h85q-6 -67 -36.5 -102.5t-72.5 -35.5q-29 0 -83 24q-43 19 -57 19q-26 0 -36 -43h-85zM456 589h157v-590h-141l-248 343v-342h-157v589h160l229 -316v316z" />
    <glyph glyph-name="o.sc" horiz-adv-x="692" 
d="M344 -8q-136 0 -224.5 82.5t-88.5 220.5q0 137 89 220t226 83q138 0 226.5 -82.5t88.5 -217.5q0 -137 -89.5 -221.5t-227.5 -84.5zM346 142q63 0 102 42.5t39 110.5t-39 110t-102 42t-102.5 -42t-39.5 -110t39.5 -110.5t102.5 -42.5z" />
    <glyph glyph-name="oacute.sc" horiz-adv-x="692" 
d="M254 659l121 169h143l-137 -169h-127zM344 -8q-136 0 -224.5 82.5t-88.5 220.5q0 137 89 220t226 83q138 0 226.5 -82.5t88.5 -217.5q0 -137 -89.5 -221.5t-227.5 -84.5zM346 142q63 0 102 42.5t39 110.5t-39 110t-102 42t-102.5 -42t-39.5 -110t39.5 -110.5t102.5 -42.5
z" />
    <glyph glyph-name="obreve.sc" horiz-adv-x="692" 
d="M344 655q-86 0 -128.5 47t-43.5 126h105q3 -82 67 -82q63 0 67 82h105q-1 -79 -43.5 -126t-128.5 -47zM344 -8q-136 0 -224.5 82.5t-88.5 220.5q0 137 89 220t226 83q138 0 226.5 -82.5t88.5 -217.5q0 -137 -89.5 -221.5t-227.5 -84.5zM346 142q63 0 102 42.5t39 110.5
t-39 110t-102 42t-102.5 -42t-39.5 -110t39.5 -110.5t102.5 -42.5z" />
    <glyph glyph-name="ocircumflex.sc" horiz-adv-x="692" 
d="M137 659l134 169h146l134 -169h-127l-80 87l-80 -87h-127zM344 -8q-136 0 -224.5 82.5t-88.5 220.5q0 137 89 220t226 83q138 0 226.5 -82.5t88.5 -217.5q0 -137 -89.5 -221.5t-227.5 -84.5zM346 142q63 0 102 42.5t39 110.5t-39 110t-102 42t-102.5 -42t-39.5 -110
t39.5 -110.5t102.5 -42.5z" />
    <glyph glyph-name="odieresis.sc" horiz-adv-x="692" 
d="M232 676q-32 0 -54 22.5t-22 54.5q0 31 22 53.5t54 22.5q33 0 55 -22t22 -54t-22 -54.5t-55 -22.5zM456 676q-33 0 -55 22.5t-22 54.5t22 54t55 22q32 0 54 -22.5t22 -53.5q0 -32 -22 -54.5t-54 -22.5zM344 -8q-136 0 -224.5 82.5t-88.5 220.5q0 137 89 220t226 83
q138 0 226.5 -82.5t88.5 -217.5q0 -137 -89.5 -221.5t-227.5 -84.5zM346 142q63 0 102 42.5t39 110.5t-39 110t-102 42t-102.5 -42t-39.5 -110t39.5 -110.5t102.5 -42.5z" />
    <glyph glyph-name="ograve.sc" horiz-adv-x="692" 
d="M317 659l-139 169h143l123 -169h-127zM344 -8q-136 0 -224.5 82.5t-88.5 220.5q0 137 89 220t226 83q138 0 226.5 -82.5t88.5 -217.5q0 -137 -89.5 -221.5t-227.5 -84.5zM346 142q63 0 102 42.5t39 110.5t-39 110t-102 42t-102.5 -42t-39.5 -110t39.5 -110.5t102.5 -42.5
z" />
    <glyph glyph-name="ohungarumlaut.sc" horiz-adv-x="692" 
d="M162 659l127 169h143l-144 -169h-126zM364 659l128 169h142l-143 -169h-127zM344 -8q-136 0 -224.5 82.5t-88.5 220.5q0 137 89 220t226 83q138 0 226.5 -82.5t88.5 -217.5q0 -137 -89.5 -221.5t-227.5 -84.5zM346 142q63 0 102 42.5t39 110.5t-39 110t-102 42
t-102.5 -42t-39.5 -110t39.5 -110.5t102.5 -42.5z" />
    <glyph glyph-name="omacron.sc" horiz-adv-x="692" 
d="M175 688v98h338v-98h-338zM344 -8q-136 0 -224.5 82.5t-88.5 220.5q0 137 89 220t226 83q138 0 226.5 -82.5t88.5 -217.5q0 -137 -89.5 -221.5t-227.5 -84.5zM346 142q63 0 102 42.5t39 110.5t-39 110t-102 42t-102.5 -42t-39.5 -110t39.5 -110.5t102.5 -42.5z" />
    <glyph glyph-name="oslash.sc" horiz-adv-x="692" 
d="M556 529q105 -86 105 -231q0 -137 -89.5 -221.5t-227.5 -84.5q-58 0 -107 15l-30 -49h-134l63 103q-105 84 -105 234q0 137 89 220t226 83q60 0 109 -16l31 50h133zM204 295q0 -50 22 -88l147 241q-13 3 -27 3q-63 0 -102.5 -43t-39.5 -113zM346 139q63 0 102 43t39 113
q0 51 -21 87l-147 -241q18 -2 27 -2z" />
    <glyph glyph-name="oslashacute.sc" horiz-adv-x="692" 
d="M255 659l121 169h143l-137 -169h-127zM556 529q105 -86 105 -231q0 -137 -89.5 -221.5t-227.5 -84.5q-58 0 -107 15l-30 -49h-134l63 103q-105 84 -105 234q0 137 89 220t226 83q60 0 109 -16l31 50h133zM204 295q0 -50 22 -88l147 241q-13 3 -27 3q-63 0 -102.5 -43
t-39.5 -113zM346 139q63 0 102 43t39 113q0 51 -21 87l-147 -241q18 -2 27 -2z" />
    <glyph glyph-name="otilde.sc" horiz-adv-x="692" 
d="M158 678q6 71 36.5 104.5t70.5 33.5q35 0 88 -24q41 -19 53 -19q31 0 37 43h85q-6 -67 -36.5 -102.5t-72.5 -35.5q-29 0 -83 24q-43 19 -57 19q-26 0 -36 -43h-85zM344 -8q-136 0 -224.5 82.5t-88.5 220.5q0 137 89 220t226 83q138 0 226.5 -82.5t88.5 -217.5
q0 -137 -89.5 -221.5t-227.5 -84.5zM346 142q63 0 102 42.5t39 110.5t-39 110t-102 42t-102.5 -42t-39.5 -110t39.5 -110.5t102.5 -42.5z" />
    <glyph glyph-name="oe.sc" horiz-adv-x="950" 
d="M651 135h241v-135h-406v26q-63 -34 -142 -34q-136 0 -224.5 82.5t-88.5 220.5q0 137 89 220t226 83q79 0 140 -32v23h403v-134h-238v-97h223v-124h-223v-99zM346 139q63 0 101.5 43t38.5 113t-38.5 113t-101.5 43t-102 -43t-39 -113t39 -113t102 -43z" />
    <glyph glyph-name="p.sc" horiz-adv-x="546" 
d="M265 589q129 0 191 -61t62 -151q0 -42 -14 -79.5t-42.5 -69.5t-79 -51t-117.5 -19h-33v-158h-165v589h198zM260 287q42 0 65.5 23t23.5 67q0 41 -23.5 62.5t-65.5 21.5h-28v-174h28z" />
    <glyph glyph-name="thorn.sc" horiz-adv-x="546" 
d="M265 520q129 0 191 -61t62 -151q0 -42 -14 -79.5t-42.5 -69.5t-79 -51t-117.5 -19h-33v-89h-165v589h165v-69h33zM252 222q44 0 68.5 22t24.5 64q0 40 -24.5 60t-68.5 20h-20v-166h20z" />
    <glyph glyph-name="q.sc" horiz-adv-x="693" 
d="M683 7h19l-7 -139h-25q-103 0 -164.5 26.5t-101.5 95.5l-4 6q-24 -4 -56 -4q-136 0 -224.5 82.5t-88.5 220.5q0 137 89 220t226 83q138 0 226.5 -82.5t88.5 -217.5q0 -157 -117 -245q35 -46 139 -46zM204 295q0 -68 39.5 -110.5t102.5 -42.5t102 42.5t39 110.5t-39 110
t-102 42t-102.5 -42t-39.5 -110z" />
    <glyph glyph-name="r.sc" horiz-adv-x="580" 
d="M559 139h7l-18 -139h-7q-79 0 -126.5 26t-89.5 95l-55 91h-38v-212h-165v589h237q106 0 162 -50.5t56 -126.5q0 -110 -98 -165l44 -59q36 -49 91 -49zM232 461v-126h45q34 0 52.5 16.5t18.5 46.5q0 63 -71 63h-45z" />
    <glyph glyph-name="racute.sc" horiz-adv-x="580" 
d="M201 659l121 169h143l-137 -169h-127zM559 139h7l-18 -139h-7q-79 0 -126.5 26t-89.5 95l-55 91h-38v-212h-165v589h237q106 0 162 -50.5t56 -126.5q0 -110 -98 -165l44 -59q36 -49 91 -49zM232 461v-126h45q34 0 52.5 16.5t18.5 46.5q0 63 -71 63h-45z" />
    <glyph glyph-name="rcaron.sc" horiz-adv-x="580" 
d="M218 659l-131 169h126l78 -83l76 83h126l-129 -169h-146zM559 139h7l-18 -139h-7q-79 0 -126.5 26t-89.5 95l-55 91h-38v-212h-165v589h237q106 0 162 -50.5t56 -126.5q0 -110 -98 -165l44 -59q36 -49 91 -49zM232 461v-126h45q34 0 52.5 16.5t18.5 46.5q0 63 -71 63h-45
z" />
    <glyph glyph-name="uni0157.sc" horiz-adv-x="580" 
d="M559 139h7l-18 -139h-7q-79 0 -126.5 26t-89.5 95l-55 91h-38v-212h-165v589h237q106 0 162 -50.5t56 -126.5q0 -110 -98 -165l44 -59q36 -49 91 -49zM232 461v-126h45q34 0 52.5 16.5t18.5 46.5q0 63 -71 63h-45zM188 -221l69 176h143l-88 -176h-124z" />
    <glyph glyph-name="s.sc" horiz-adv-x="518" 
d="M266 597q74 0 126 -29t78 -72l-115 -76q-31 48 -87 48q-49 0 -49 -35q0 -18 23 -31t76 -33q8 -2 12 -4q77 -27 114 -68.5t37 -111.5q0 -89 -61.5 -141t-166.5 -52q-123 0 -220 56l65 131q79 -50 156 -50q58 0 58 38q0 21 -20.5 35.5t-88.5 40.5q-75 28 -113 67.5
t-38 106.5q0 82 60 131t154 49z" />
    <glyph glyph-name="sacute.sc" horiz-adv-x="518" 
d="M178 659l121 169h143l-137 -169h-127zM266 597q74 0 126 -29t78 -72l-115 -76q-31 48 -87 48q-49 0 -49 -35q0 -18 23 -31t76 -33q8 -2 12 -4q77 -27 114 -68.5t37 -111.5q0 -89 -61.5 -141t-166.5 -52q-123 0 -220 56l65 131q79 -50 156 -50q58 0 58 38q0 21 -20.5 35.5
t-88.5 40.5q-75 28 -113 67.5t-38 106.5q0 82 60 131t154 49z" />
    <glyph glyph-name="scaron.sc" horiz-adv-x="518" 
d="M195 659l-131 169h126l78 -83l76 83h126l-129 -169h-146zM266 597q74 0 126 -29t78 -72l-115 -76q-31 48 -87 48q-49 0 -49 -35q0 -18 23 -31t76 -33q8 -2 12 -4q77 -27 114 -68.5t37 -111.5q0 -89 -61.5 -141t-166.5 -52q-123 0 -220 56l65 131q79 -50 156 -50
q58 0 58 38q0 21 -20.5 35.5t-88.5 40.5q-75 28 -113 67.5t-38 106.5q0 82 60 131t154 49z" />
    <glyph glyph-name="scedilla.sc" horiz-adv-x="518" 
d="M481 185q0 -81 -51 -131.5t-140 -59.5l-6 -24q61 -17 61 -89q0 -111 -172 -111v78q40 0 55.5 8.5t15.5 27.5q0 33 -41 33l19 76q-106 7 -189 55l65 131q79 -50 156 -50q58 0 58 38q0 21 -20.5 35.5t-88.5 40.5q-75 28 -113 67.5t-38 106.5q0 82 60 131t154 49
q74 0 126 -29t78 -72l-115 -76q-31 48 -87 48q-49 0 -49 -35q0 -18 23 -31t76 -33q8 -2 12 -4q77 -27 114 -68.5t37 -111.5z" />
    <glyph glyph-name="scircumflex.sc" horiz-adv-x="518" 
d="M61 659l134 169h146l134 -169h-127l-80 87l-80 -87h-127zM266 597q74 0 126 -29t78 -72l-115 -76q-31 48 -87 48q-49 0 -49 -35q0 -18 23 -31t76 -33q8 -2 12 -4q77 -27 114 -68.5t37 -111.5q0 -89 -61.5 -141t-166.5 -52q-123 0 -220 56l65 131q79 -50 156 -50
q58 0 58 38q0 21 -20.5 35.5t-88.5 40.5q-75 28 -113 67.5t-38 106.5q0 82 60 131t154 49z" />
    <glyph glyph-name="uni0219.sc" horiz-adv-x="518" 
d="M266 597q74 0 126 -29t78 -72l-115 -76q-31 48 -87 48q-49 0 -49 -35q0 -18 23 -31t76 -33q8 -2 12 -4q77 -27 114 -68.5t37 -111.5q0 -89 -61.5 -141t-166.5 -52q-123 0 -220 56l65 131q79 -50 156 -50q58 0 58 38q0 21 -20.5 35.5t-88.5 40.5q-75 28 -113 67.5
t-38 106.5q0 82 60 131t154 49zM127 -221l69 176h143l-88 -176h-124z" />
    <glyph glyph-name="germandbls.sc" horiz-adv-x="703" 
d="M497 352q75 -4 122 -48t47 -119q0 -85 -59.5 -139t-170.5 -54q-99 0 -182 36l44 130q68 -34 122 -34q38 0 57.5 16.5t19.5 41.5q0 42 -41 59t-138 18v108l134 76q-37 27 -97 27q-41 0 -68 -13.5t-39 -38.5t-16.5 -49t-4.5 -55v-314h-164v326q0 130 76.5 201t212.5 71
q151 0 249 -85v-110z" />
    <glyph glyph-name="t.sc" horiz-adv-x="548" 
d="M530 589v-142h-173v-447h-165v447h-174v142h512z" />
    <glyph glyph-name="tbar.sc" horiz-adv-x="548" 
d="M530 447h-173v-88h82v-128h-82v-231h-165v231h-84v128h84v88h-174v142h512v-142z" />
    <glyph glyph-name="tcaron.sc" horiz-adv-x="548" 
d="M201 659l-131 169h126l78 -83l76 83h126l-129 -169h-146zM530 589v-142h-173v-447h-165v447h-174v142h512z" />
    <glyph glyph-name="uni0163.sc" horiz-adv-x="548" 
d="M18 589h512v-142h-173v-447h-57l-8 -30q61 -17 61 -89q0 -111 -172 -111v78q40 0 55.5 8.5t15.5 27.5q0 33 -41 33l21 83h-40v447h-174v142z" />
    <glyph glyph-name="uni021B.sc" horiz-adv-x="548" 
d="M530 589v-142h-173v-447h-165v447h-174v142h512zM136 -221l69 176h143l-88 -176h-124z" />
    <glyph glyph-name="u.sc" horiz-adv-x="637" 
d="M319 -8q-118 0 -187 60.5t-69 170.5v366h165v-349q0 -45 24.5 -68.5t67.5 -23.5q42 0 66 23.5t24 68.5v349h164v-366q0 -109 -69 -170t-186 -61z" />
    <glyph glyph-name="uacute.sc" horiz-adv-x="637" 
d="M228 659l121 169h143l-137 -169h-127zM319 -8q-118 0 -187 60.5t-69 170.5v366h165v-349q0 -45 24.5 -68.5t67.5 -23.5q42 0 66 23.5t24 68.5v349h164v-366q0 -109 -69 -170t-186 -61z" />
    <glyph glyph-name="ubreve.sc" horiz-adv-x="637" 
d="M318 655q-86 0 -128.5 47t-43.5 126h105q3 -82 67 -82q63 0 67 82h105q-1 -79 -43.5 -126t-128.5 -47zM319 -8q-118 0 -187 60.5t-69 170.5v366h165v-349q0 -45 24.5 -68.5t67.5 -23.5q42 0 66 23.5t24 68.5v349h164v-366q0 -109 -69 -170t-186 -61z" />
    <glyph glyph-name="ucircumflex.sc" horiz-adv-x="637" 
d="M111 659l134 169h146l134 -169h-127l-80 87l-80 -87h-127zM319 -8q-118 0 -187 60.5t-69 170.5v366h165v-349q0 -45 24.5 -68.5t67.5 -23.5q42 0 66 23.5t24 68.5v349h164v-366q0 -109 -69 -170t-186 -61z" />
    <glyph glyph-name="udieresis.sc" horiz-adv-x="637" 
d="M206 676q-32 0 -54 22.5t-22 54.5q0 31 22 53.5t54 22.5q33 0 55 -22t22 -54t-22 -54.5t-55 -22.5zM430 676q-33 0 -55 22.5t-22 54.5t22 54t55 22q32 0 54 -22.5t22 -53.5q0 -32 -22 -54.5t-54 -22.5zM319 -8q-118 0 -187 60.5t-69 170.5v366h165v-349q0 -45 24.5 -68.5
t67.5 -23.5q42 0 66 23.5t24 68.5v349h164v-366q0 -109 -69 -170t-186 -61z" />
    <glyph glyph-name="ugrave.sc" horiz-adv-x="637" 
d="M292 659l-139 169h143l123 -169h-127zM319 -8q-118 0 -187 60.5t-69 170.5v366h165v-349q0 -45 24.5 -68.5t67.5 -23.5q42 0 66 23.5t24 68.5v349h164v-366q0 -109 -69 -170t-186 -61z" />
    <glyph glyph-name="uhungarumlaut.sc" horiz-adv-x="637" 
d="M136 659l127 169h143l-144 -169h-126zM338 659l128 169h142l-143 -169h-127zM319 -8q-118 0 -187 60.5t-69 170.5v366h165v-349q0 -45 24.5 -68.5t67.5 -23.5q42 0 66 23.5t24 68.5v349h164v-366q0 -109 -69 -170t-186 -61z" />
    <glyph glyph-name="umacron.sc" horiz-adv-x="637" 
d="M149 688v98h338v-98h-338zM319 -8q-118 0 -187 60.5t-69 170.5v366h165v-349q0 -45 24.5 -68.5t67.5 -23.5q42 0 66 23.5t24 68.5v349h164v-366q0 -109 -69 -170t-186 -61z" />
    <glyph glyph-name="uogonek.sc" horiz-adv-x="637" 
d="M410 589h164v-366q0 -86 -43 -142.5t-120 -77.5q-49 -27 -49 -68q0 -20 11.5 -31t29.5 -11q23 0 44 8l19 -78q-40 -14 -85 -14q-57 0 -89 27.5t-32 73.5q0 47 31 83q-106 8 -167 67.5t-61 162.5v366h165v-349q0 -45 24.5 -68.5t67.5 -23.5q42 0 66 23.5t24 68.5v349z" />
    <glyph glyph-name="uring.sc" horiz-adv-x="637" 
d="M321 645q-51 0 -84.5 33t-33.5 81t34 81t84 33q49 0 82.5 -33t33.5 -81q0 -49 -33 -81.5t-83 -32.5zM321 722q17 0 27 10t10 27q0 15 -10 25t-27 10t-27.5 -9.5t-10.5 -25.5q0 -17 10.5 -27t27.5 -10zM319 -8q-118 0 -187 60.5t-69 170.5v366h165v-349q0 -45 24.5 -68.5
t67.5 -23.5q42 0 66 23.5t24 68.5v349h164v-366q0 -109 -69 -170t-186 -61z" />
    <glyph glyph-name="utilde.sc" horiz-adv-x="637" 
d="M132 678q6 71 36.5 104.5t70.5 33.5q35 0 88 -24q41 -19 53 -19q31 0 37 43h85q-6 -67 -36.5 -102.5t-72.5 -35.5q-29 0 -83 24q-43 19 -57 19q-26 0 -36 -43h-85zM319 -8q-118 0 -187 60.5t-69 170.5v366h165v-349q0 -45 24.5 -68.5t67.5 -23.5q42 0 66 23.5t24 68.5
v349h164v-366q0 -109 -69 -170t-186 -61z" />
    <glyph glyph-name="v.sc" horiz-adv-x="603" 
d="M424 589h174l-206 -589h-181l-206 589h183l118 -400z" />
    <glyph glyph-name="w.sc" horiz-adv-x="926" 
d="M756 589h163l-205 -589h-137l-114 369l-114 -369h-138l-204 589h181l98 -347l115 347h143l110 -337z" />
    <glyph glyph-name="wacute.sc" horiz-adv-x="926" 
d="M645 828l-137 -169h-127l121 169h143zM756 589h163l-205 -589h-137l-114 369l-114 -369h-138l-204 589h181l98 -347l115 347h143l110 -337z" />
    <glyph glyph-name="wcircumflex.sc" horiz-adv-x="926" 
d="M471 746l-80 -87h-127l134 169h146l134 -169h-127zM756 589h163l-205 -589h-137l-114 369l-114 -369h-138l-204 589h181l98 -347l115 347h143l110 -337z" />
    <glyph glyph-name="wdieresis.sc" horiz-adv-x="926" 
d="M359 676q-32 0 -54 22.5t-22 54.5q0 31 22.5 53.5t53.5 22.5q33 0 55 -22t22 -54t-22 -54.5t-55 -22.5zM583 676q-33 0 -55 22.5t-22 54.5t22 54t55 22q31 0 53.5 -22.5t22.5 -53.5q0 -32 -22 -54.5t-54 -22.5zM756 589h163l-205 -589h-137l-114 369l-114 -369h-138
l-204 589h181l98 -347l115 347h143l110 -337z" />
    <glyph glyph-name="wgrave.sc" horiz-adv-x="926" 
d="M571 659h-127l-139 169h143zM756 589h163l-205 -589h-137l-114 369l-114 -369h-138l-204 589h181l98 -347l115 347h143l110 -337z" />
    <glyph glyph-name="x.sc" horiz-adv-x="558" 
d="M554 0h-192l-89 174l-86 -174h-182l174 298l-168 291h194l78 -170l90 170h172l-171 -286z" />
    <glyph glyph-name="y.sc" horiz-adv-x="545" 
d="M545 589l-192 -366v-223h-161v222l-192 367h169l107 -229l106 229h163z" />
    <glyph glyph-name="yacute.sc" horiz-adv-x="545" 
d="M446 828l-137 -169h-127l121 169h143zM545 589l-192 -366v-223h-161v222l-192 367h169l107 -229l106 229h163z" />
    <glyph glyph-name="ycircumflex.sc" horiz-adv-x="545" 
d="M272 746l-80 -87h-127l134 169h146l134 -169h-127zM545 589l-192 -366v-223h-161v222l-192 367h169l107 -229l106 229h163z" />
    <glyph glyph-name="ydieresis.sc" horiz-adv-x="545" 
d="M160 676q-32 0 -54 22.5t-22 54.5q0 31 22 53.5t54 22.5q33 0 55 -22t22 -54t-22 -54.5t-55 -22.5zM384 676q-33 0 -55 22.5t-22 54.5t22 54t55 22q32 0 54 -22.5t22 -53.5q0 -32 -22 -54.5t-54 -22.5zM545 589l-192 -366v-223h-161v222l-192 367h169l107 -229l106 229
h163z" />
    <glyph glyph-name="ygrave.sc" horiz-adv-x="545" 
d="M373 659h-127l-139 169h143zM545 589l-192 -366v-223h-161v222l-192 367h169l107 -229l106 229h163z" />
    <glyph glyph-name="z.sc" horiz-adv-x="517" 
d="M249 141h235v-141h-458v92l232 355h-211v142h434v-92z" />
    <glyph glyph-name="zacute.sc" horiz-adv-x="517" 
d="M433 828l-137 -169h-127l121 169h143zM249 141h235v-141h-458v92l232 355h-211v142h434v-92z" />
    <glyph glyph-name="zcaron.sc" horiz-adv-x="517" 
d="M332 659h-146l-131 169h126l78 -83l76 83h126zM249 141h235v-141h-458v92l232 355h-211v142h434v-92z" />
    <glyph glyph-name="zdotaccent.sc" horiz-adv-x="517" 
d="M259 661q-37 0 -63 25.5t-26 63.5t26 63.5t63 25.5t63 -25.5t26 -63.5t-26 -63.5t-63 -25.5zM249 141h235v-141h-458v92l232 355h-211v142h434v-92z" />
    <glyph glyph-name="zero.dnom" horiz-adv-x="415" 
d="M208 -8q-81 0 -124 56.5t-43 164.5t43 164.5t124 56.5t123.5 -57t42.5 -164q0 -108 -42.5 -164.5t-123.5 -56.5zM208 91q30 0 41.5 30.5t11.5 93.5q0 60 -11.5 90t-41.5 30q-31 0 -42.5 -30t-11.5 -92q0 -61 11.5 -91.5t42.5 -30.5z" />
    <glyph glyph-name="one.dnom" horiz-adv-x="333" 
d="M165 431h79v-431h-112v290q-43 -30 -95 -47v110q85 34 128 78z" />
    <glyph glyph-name="two.dnom" horiz-adv-x="415" 
d="M43 0v26q0 60 26 103t89 85q46 32 64 52t18 39q0 33 -40 33q-38 0 -66 -45l-89 58q49 85 166 85q63 0 104 -35t41 -90q0 -44 -21.5 -77t-70.5 -64q-74 -48 -84 -72h181v-98h-318z" />
    <glyph glyph-name="three.dnom" horiz-adv-x="413" 
d="M202 -6q-103 0 -174 48l55 88q58 -39 114 -39q29 1 44 12t15 28q0 46 -119 46v85q55 0 78.5 14.5t23.5 32.5q0 30 -41 30q-45 0 -69 -41l-83 56q52 82 163 82q62 0 101.5 -30t39.5 -78q0 -76 -82 -99q98 -23 98 -104q0 -60 -44 -95.5t-120 -35.5z" />
    <glyph glyph-name="four.dnom" horiz-adv-x="388" 
d="M207 0v99h-192v78l188 253h115v-242h57v-89h-57v-99h-111zM122 188h85v112z" />
    <glyph glyph-name="five.dnom" horiz-adv-x="407" 
d="M197 -6q-98 0 -166 45l45 89q63 -37 119 -37q29 0 45 14t16 36q0 21 -15.5 33t-40.5 12q-30 0 -50 -15l-87 23l15 236h263v-98h-171l-6 -69q28 14 60 14q62 0 101 -35.5t39 -100.5q0 -67 -46 -107t-121 -40z" />
    <glyph glyph-name="six.dnom" horiz-adv-x="407" 
d="M238 271q58 0 98.5 -36t40.5 -96q0 -64 -46.5 -104t-120.5 -40q-79 0 -127.5 48t-48.5 139q0 110 71.5 180.5t212.5 74.5l20 -94q-79 -4 -124 -27t-65 -74q33 29 89 29zM207 85q28 0 44.5 14.5t16.5 37.5q0 24 -16.5 38.5t-45.5 14.5q-23 0 -40.5 -13t-17.5 -36
q0 -24 17 -40t42 -16z" />
    <glyph glyph-name="seven.dnom" horiz-adv-x="382" 
d="M109 -1q-9 165 134 334h-209v96h320v-74q-130 -182 -124 -356h-121z" />
    <glyph glyph-name="eight.dnom" horiz-adv-x="411" 
d="M205 -7q-79 0 -125.5 33.5t-46.5 91.5q0 73 85 106q-67 29 -67 96q0 51 42 83.5t112 32.5q72 0 114 -31.5t42 -83.5q0 -65 -68 -97q85 -32 85 -105q0 -58 -46.5 -92t-126.5 -34zM206 265q23 0 37.5 12.5t14.5 34.5t-14.5 35t-37.5 13t-37.5 -13t-14.5 -35t14 -34.5
t38 -12.5zM207 73q27 0 44 14t17 38q0 25 -17 38.5t-44 13.5q-26 0 -43 -13.5t-17 -38.5q0 -24 16.5 -38t43.5 -14z" />
    <glyph glyph-name="nine.dnom" horiz-adv-x="406" 
d="M87 -6l-19 94q78 3 123 26t65 74q-32 -28 -89 -28t-97.5 36.5t-40.5 95.5q0 63 46.5 103.5t119.5 40.5q79 0 128 -48.5t49 -139.5q0 -110 -71.5 -180t-213.5 -74zM199 241q23 0 40.5 13t17.5 35q0 25 -17 41t-42 16q-28 0 -44.5 -14.5t-16.5 -38.5q0 -23 17 -37.5
t45 -14.5z" />
    <glyph glyph-name="zero.numr" horiz-adv-x="415" 
d="M208 277q-81 0 -124 56.5t-43 164.5t43 164.5t124 56.5t123.5 -57t42.5 -164q0 -108 -42.5 -164.5t-123.5 -56.5zM208 376q30 0 41.5 30.5t11.5 93.5q0 60 -11.5 90t-41.5 30q-31 0 -42.5 -30t-11.5 -92q0 -61 11.5 -91.5t42.5 -30.5z" />
    <glyph glyph-name="one.numr" horiz-adv-x="333" 
d="M165 716h79v-431h-112v290q-43 -30 -95 -47v110q85 34 128 78z" />
    <glyph glyph-name="two.numr" horiz-adv-x="415" 
d="M43 285v26q0 60 26 103t89 85q46 32 64 52t18 39q0 33 -40 33q-38 0 -66 -45l-89 58q49 85 166 85q63 0 104 -35t41 -90q0 -44 -21.5 -77t-70.5 -64q-74 -48 -84 -72h181v-98h-318z" />
    <glyph glyph-name="three.numr" horiz-adv-x="413" 
d="M202 279q-103 0 -174 48l55 88q58 -39 114 -39q29 1 44 12t15 28q0 46 -119 46v85q55 0 78.5 14.5t23.5 32.5q0 30 -41 30q-45 0 -69 -41l-83 56q52 82 163 82q62 0 101.5 -30t39.5 -78q0 -76 -82 -99q98 -23 98 -104q0 -60 -44 -95.5t-120 -35.5z" />
    <glyph glyph-name="four.numr" horiz-adv-x="388" 
d="M207 285v99h-192v78l188 253h115v-242h57v-89h-57v-99h-111zM122 473h85v112z" />
    <glyph glyph-name="five.numr" horiz-adv-x="407" 
d="M197 279q-98 0 -166 45l45 89q63 -37 119 -37q29 0 45 14t16 36q0 21 -15.5 33t-40.5 12q-30 0 -50 -15l-87 23l15 236h263v-98h-171l-6 -69q28 14 60 14q62 0 101 -35.5t39 -100.5q0 -67 -46 -107t-121 -40z" />
    <glyph glyph-name="six.numr" horiz-adv-x="407" 
d="M238 556q58 0 98.5 -36t40.5 -96q0 -64 -46.5 -104t-120.5 -40q-79 0 -127.5 48t-48.5 139q0 110 71.5 180.5t212.5 74.5l20 -94q-79 -4 -124 -27t-65 -74q33 29 89 29zM207 370q28 0 44.5 14.5t16.5 37.5q0 24 -16.5 38.5t-45.5 14.5q-23 0 -40.5 -13t-17.5 -36
q0 -24 17 -40t42 -16z" />
    <glyph glyph-name="seven.numr" horiz-adv-x="382" 
d="M109 284q-9 165 134 334h-209v96h320v-74q-130 -182 -124 -356h-121z" />
    <glyph glyph-name="eight.numr" horiz-adv-x="411" 
d="M205 278q-79 0 -125.5 33.5t-46.5 91.5q0 73 85 106q-67 29 -67 96q0 51 42 83.5t112 32.5q72 0 114 -31.5t42 -83.5q0 -65 -68 -97q85 -32 85 -105q0 -58 -46.5 -92t-126.5 -34zM206 550q23 0 37.5 12.5t14.5 34.5t-14.5 35t-37.5 13t-37.5 -13t-14.5 -35t14 -34.5
t38 -12.5zM207 358q27 0 44 14t17 38q0 25 -17 38.5t-44 13.5q-26 0 -43 -13.5t-17 -38.5q0 -24 16.5 -38t43.5 -14z" />
    <glyph glyph-name="nine.numr" horiz-adv-x="406" 
d="M87 279l-19 94q78 3 123 26t65 74q-32 -28 -89 -28t-97.5 36.5t-40.5 95.5q0 63 46.5 103.5t119.5 40.5q79 0 128 -48.5t49 -139.5q0 -110 -71.5 -180t-213.5 -74zM199 526q23 0 40.5 13t17.5 35q0 25 -17 41t-42 16q-28 0 -44.5 -14.5t-16.5 -38.5q0 -23 17 -37.5
t45 -14.5z" />
    <glyph glyph-name="zero.tosf" 
d="M298 -10q-119 0 -195 77t-76 196q0 118 76 195t195 77q120 0 195.5 -76.5t75.5 -195.5t-75.5 -196t-195.5 -77zM298 131q50 0 80.5 37t30.5 95q0 59 -30.5 95t-79.5 36q-50 0 -80.5 -36.5t-30.5 -94.5q0 -59 30.5 -95.5t79.5 -36.5z" />
    <glyph glyph-name="one.tosf" 
d="M322 528h115v-528h-160v329q-89 -61 -183 -75v149q115 22 228 125z" />
    <glyph glyph-name="two.tosf" 
d="M53 0v51q0 72 36 125.5t135 98.5q80 37 105.5 55.5t25.5 38.5q0 39 -64 39q-32 0 -63 -17t-50 -43l-108 84q69 103 235 103q100 0 158 -47t58 -113q0 -59 -39.5 -101.5t-141.5 -79.5q-95 -34 -114 -60h317v-134h-490z" />
    <glyph glyph-name="three.tosf" 
d="M289 -196q-149 0 -258 78l93 125q81 -60 164 -60q49 0 74.5 20.5t25.5 56.5q0 86 -180 86v129q83 1 117.5 27t34.5 64q0 28 -19.5 44t-51.5 16q-69 0 -107 -67l-121 79q77 132 246 132q89 0 150.5 -48.5t61.5 -122.5q0 -119 -118 -168q145 -44 145 -177q0 -96 -70 -155
t-187 -59z" />
    <glyph glyph-name="four.tosf" 
d="M317 -189v193h-302v111l297 409h165v-390h105v-130h-105v-193h-160zM180 134h137v190z" />
    <glyph glyph-name="five.tosf" 
d="M290 -195q-158 0 -255 79l75 130q83 -66 176 -66q49 0 76.5 25t27.5 66t-28 63.5t-75 22.5q-49 0 -86 -23l-115 36l22 387h396v-141h-270l-10 -143q39 22 98 22q100 0 164 -59t64 -162q0 -107 -72 -172t-188 -65z" />
    <glyph glyph-name="six.tosf" 
d="M343 445q95 0 158 -59t63 -158q0 -105 -70.5 -171.5t-181.5 -66.5q-122 0 -198 80t-76 230q0 88 27 161.5t80.5 130.5t141 90.5t201.5 37.5l32 -138q-131 -5 -206.5 -48t-109.5 -136q56 47 139 47zM305 128q47 0 76 27t29 71q0 43 -28.5 69.5t-76.5 26.5q-44 0 -75.5 -24
t-31.5 -64q0 -47 30.5 -76.5t76.5 -29.5z" />
    <glyph glyph-name="seven.tosf" 
d="M161 -186q-15 283 224 569h-348v141h528v-91q-244 -318 -231 -619h-173z" />
    <glyph glyph-name="eight.tosf" 
d="M301 -10q-118 0 -191.5 61t-73.5 153q0 130 137 182q-48 18 -76.5 57t-28.5 92q0 79 64 132t166 53t166 -53t64 -132q0 -54 -28 -92.5t-77 -56.5q137 -51 137 -180q0 -93 -72.5 -154.5t-186.5 -61.5zM302 452q34 0 56 20t22 49t-22 48.5t-56 19.5q-35 0 -57 -19.5
t-22 -48.5t22 -49t57 -20zM301 129q42 0 70.5 26.5t28.5 64.5q0 40 -28.5 67t-70.5 27t-70.5 -27.5t-28.5 -66.5q0 -38 28.5 -64.5t70.5 -26.5z" />
    <glyph glyph-name="nine.tosf" 
d="M254 80q-95 0 -158 59t-63 158q0 105 70 171.5t182 66.5q122 0 198.5 -80.5t76.5 -229.5q0 -87 -26.5 -160.5t-78.5 -130.5t-137 -91t-196 -38l-32 138q126 6 199 48.5t105 135.5q-56 -47 -140 -47zM292 397q-47 0 -75.5 -26.5t-28.5 -70.5t28 -70.5t76 -26.5
q44 0 76 24.5t32 64.5q0 46 -31 75.5t-77 29.5z" />
    <glyph glyph-name="zero.osf" horiz-adv-x="647" 
d="M324 -10q-124 0 -202.5 77t-78.5 196q0 118 78.5 195t202.5 77t202 -76.5t78 -195.5t-78 -196t-202 -77zM324 131q54 0 87 37t33 95q0 59 -33 95t-87 36t-87.5 -36.5t-33.5 -94.5q0 -59 33.5 -95.5t87.5 -36.5z" />
    <glyph glyph-name="one.osf" horiz-adv-x="439" 
d="M242 528h114v-528h-160v326q-81 -59 -163 -72v149q105 23 209 125z" />
    <glyph glyph-name="two.osf" horiz-adv-x="591" 
d="M55 0v51q0 72 36 125.5t135 98.5q81 37 106.5 56t25.5 38q0 18 -17.5 28.5t-46.5 10.5q-32 0 -63.5 -17t-50.5 -43l-108 84q69 103 235 103q100 0 158 -47t58 -113q0 -59 -39.5 -101.5t-141.5 -79.5q-96 -35 -113 -60h316v-134h-490z" />
    <glyph glyph-name="three.osf" horiz-adv-x="593" 
d="M289 -196q-149 0 -258 78l93 125q81 -60 164 -60q49 0 74.5 20.5t25.5 56.5q0 86 -180 86v129q83 1 117.5 27t34.5 64q0 28 -19.5 44t-51.5 16q-69 0 -107 -67l-121 79q77 132 246 132q89 0 150.5 -48.5t61.5 -122.5q0 -119 -118 -168q145 -44 145 -177q0 -96 -70 -155
t-187 -59z" />
    <glyph glyph-name="four.osf" horiz-adv-x="596" 
d="M317 -189v193h-302v111l297 409h165v-390h105v-130h-105v-193h-160zM180 134h137v190z" />
    <glyph glyph-name="five.osf" 
d="M290 -195q-158 0 -255 79l75 130q83 -66 176 -66q49 0 76.5 25t27.5 66t-28 63.5t-75 22.5q-49 0 -86 -23l-115 36l22 387h396v-141h-270l-10 -143q39 22 98 22q100 0 164 -59t64 -162q0 -107 -72 -172t-188 -65z" />
    <glyph glyph-name="six.osf" horiz-adv-x="615" 
d="M353 445q95 0 158 -59t63 -158q0 -105 -70.5 -171.5t-181.5 -66.5q-122 0 -198 80t-76 230q0 88 27 161.5t80.5 130.5t141 90.5t201.5 37.5l32 -138q-131 -5 -206.5 -48t-109.5 -136q56 47 139 47zM315 128q47 0 76 27t29 71q0 43 -28.5 69.5t-76.5 26.5q-44 0 -75.5 -24
t-31.5 -64q0 -47 30.5 -76.5t76.5 -29.5z" />
    <glyph glyph-name="seven.osf" horiz-adv-x="593" 
d="M159 -186q-16 281 224 569h-349v141h528v-91q-243 -318 -231 -619h-172z" />
    <glyph glyph-name="eight.osf" horiz-adv-x="609" 
d="M307 -10q-117 0 -190.5 61t-73.5 153q0 131 137 182q-48 18 -77 57t-29 92q0 79 64.5 132t166.5 53t165.5 -53t63.5 -132q0 -54 -27.5 -92.5t-76.5 -56.5q136 -52 136 -180q0 -93 -72.5 -154.5t-186.5 -61.5zM308 452q35 0 56.5 20t21.5 49t-22 48.5t-56 19.5
q-35 0 -56.5 -19.5t-21.5 -48.5t21.5 -49t56.5 -20zM307 129q42 0 70.5 26.5t28.5 64.5q0 40 -28.5 67t-70.5 27q-41 0 -70 -27.5t-29 -66.5q0 -38 28.5 -64.5t70.5 -26.5z" />
    <glyph glyph-name="nine.osf" horiz-adv-x="615" 
d="M263 80q-95 0 -158 59t-63 158q0 105 70 171.5t181 66.5q122 0 198.5 -80.5t76.5 -229.5q0 -87 -26.5 -160.5t-78.5 -130.5t-137 -91t-196 -38l-32 138q126 6 199 48.5t105 135.5q-56 -47 -139 -47zM300 397q-47 0 -75.5 -26.5t-28.5 -70.5t28.5 -70.5t76.5 -26.5
q44 0 75.5 24.5t31.5 64.5q0 47 -31 76t-77 29z" />
    <glyph glyph-name="zero.tf" 
d="M299 -10q-123 0 -190.5 96t-67.5 268q0 173 68 269.5t190 96.5q123 0 190 -97t67 -269q0 -173 -67 -268.5t-190 -95.5zM299 134q96 0 96 222q0 220 -96 220q-95 0 -95 -221t95 -221z" />
    <glyph glyph-name="one.tf" 
d="M323 717h115v-717h-161v512q-91 -60 -192 -76v150q121 23 238 131z" />
    <glyph glyph-name="two.tf" 
d="M55 0v43q0 99 42 170.5t142 139.5q78 54 108 87t30 67q0 31 -22 49t-61 18q-72 0 -116 -69l-122 87q85 128 253 128q100 0 166.5 -57.5t66.5 -147.5q0 -73 -36.5 -128t-125.5 -114q-129 -86 -144 -132h314v-141h-495z" />
    <glyph glyph-name="three.tf" 
d="M291 -10q-150 0 -258 78l92 125q83 -60 164 -60q48 0 74 21t26 56q0 86 -180 86v130q83 0 118 26t35 64q0 28 -19.5 44.5t-52.5 16.5q-67 0 -107 -67l-121 78q77 132 247 132q89 0 150 -48.5t61 -121.5q0 -121 -118 -168q146 -44 146 -177q0 -96 -70 -155.5t-187 -59.5z
" />
    <glyph glyph-name="four.tf" 
d="M317 0v185h-301v111l296 421h166v-403h104v-129h-104v-185h-161zM180 314h137v199z" />
    <glyph glyph-name="five.tf" 
d="M290 -10q-158 0 -255 79l75 130q83 -66 176 -66q49 0 76.5 25t27.5 66t-28 63.5t-75 22.5q-49 0 -86 -23l-115 36l22 387h396v-141h-270l-10 -143q39 22 98 22q100 0 164 -59t64 -162q0 -107 -72 -172t-188 -65z" />
    <glyph glyph-name="six.tf" 
d="M342 445q95 0 158 -59t63 -158q0 -105 -70.5 -171.5t-181.5 -66.5q-122 0 -198 80.5t-76 229.5q0 88 27 161.5t80.5 130.5t141 90.5t201.5 37.5l32 -138q-131 -5 -206.5 -48t-109.5 -136q56 47 139 47zM304 128q48 0 76.5 27t28.5 71q0 43 -28.5 69.5t-76.5 26.5
q-44 0 -75.5 -24t-31.5 -64q0 -47 30.5 -76.5t76.5 -29.5z" />
    <glyph glyph-name="seven.tf" 
d="M170 0q-13 280 216 568h-349v142h528v-92q-234 -317 -222 -618h-173z" />
    <glyph glyph-name="eight.tf" 
d="M301 -10q-118 0 -191.5 61t-73.5 152q0 129 137 181q-48 18 -76.5 57.5t-28.5 92.5q0 79 64 132.5t166 53.5t166 -53t64 -133q0 -54 -28 -93t-77 -57q137 -51 137 -179q0 -92 -72.5 -153.5t-186.5 -61.5zM302 451q34 0 56 20t22 49t-22 49t-56 20q-35 0 -57 -20t-22 -49
t22 -49t57 -20zM301 129q42 0 70.5 26t28.5 64q0 40 -28.5 66.5t-70.5 26.5t-70.5 -27t-28.5 -66q0 -38 28.5 -64t70.5 -26z" />
    <glyph glyph-name="nine.tf" 
d="M253 265q-96 0 -158.5 59t-62.5 159q0 105 70 171.5t182 66.5q121 0 197.5 -80.5t76.5 -229.5q0 -88 -26 -161.5t-78.5 -130.5t-137.5 -90.5t-196 -37.5l-32 138q126 5 199 47.5t105 135.5q-58 -47 -139 -47zM290 583q-47 0 -75.5 -27t-28.5 -71q0 -43 28.5 -69.5
t76.5 -26.5q44 0 76 24t32 64q0 47 -31.5 76.5t-77.5 29.5z" />
    <glyph glyph-name="caroncomb.alt" horiz-adv-x="0" 
d="M-102 538l45 214h159l-78 -214h-126z" />
    <glyph glyph-name="uni0308.case" horiz-adv-x="0" 
d="M-112 776q-32 0 -54 22.5t-22 54.5q0 31 22 53.5t54 22.5q33 0 55 -22t22 -54t-22 -54.5t-55 -22.5zM112 776q-33 0 -55 22.5t-22 54.5t22 54t55 22q32 0 54 -22.5t22 -53.5q0 -32 -22 -54.5t-54 -22.5z" />
    <glyph glyph-name="uni0307.case" horiz-adv-x="0" 
d="M0 763q-37 0 -63 26t-26 64q0 37 25.5 63t63.5 26t63.5 -26t25.5 -63q0 -38 -26 -64t-63 -26z" />
    <glyph glyph-name="gravecomb.case" horiz-adv-x="0" 
d="M12 766l-150 157h152l124 -157h-126z" />
    <glyph glyph-name="acutecomb.case" horiz-adv-x="0" 
d="M-138 766l124 157h152l-150 -157h-126z" />
    <glyph glyph-name="uni030B.case" horiz-adv-x="0" 
d="M-238 766l130 157h143l-146 -157h-127zM-35 766l130 157h143l-146 -157h-127z" />
    <glyph glyph-name="uni0302.case" horiz-adv-x="0" 
d="M-207 766l134 154h146l134 -154h-127l-80 68l-80 -68h-127z" />
    <glyph glyph-name="uni030C.case" horiz-adv-x="0" 
d="M207 920l-134 -154h-146l-134 154h127l80 -68l80 68h127z" />
    <glyph glyph-name="uni0306.case" horiz-adv-x="0" 
d="M-2 770q-82 0 -124.5 41t-43.5 107h97q2 -26 20.5 -42t52.5 -16q33 0 52 16t21 42h97q-1 -65 -46 -106.5t-126 -41.5z" />
    <glyph glyph-name="uni030A.case" horiz-adv-x="0" 
d="M1 734q-50 0 -84 33.5t-34 80.5t34.5 80.5t83.5 33.5q48 0 82 -33.5t34 -80.5t-34 -80.5t-82 -33.5zM1 811q16 0 26.5 10.5t10.5 26.5q0 15 -10.5 25.5t-26.5 10.5q-17 0 -27.5 -10t-10.5 -26t11 -26.5t27 -10.5z" />
    <glyph glyph-name="tildecomb.case" horiz-adv-x="0" 
d="M-185 766q6 69 35.5 103.5t72.5 34.5q28 0 87 -24q44 -19 57 -19q26 0 33 43h85q-6 -64 -35 -101t-72 -37q-31 0 -85 24q-42 19 -58 19q-26 0 -35 -43h-85z" />
    <glyph glyph-name="uni0304.case" horiz-adv-x="0" 
d="M-184 793v93h368v-93h-368z" />
    <glyph glyph-name="uni0308.narrow" horiz-adv-x="0" 
d="M-101 588q-35 0 -59 24.5t-24 59.5t24 58.5t59 23.5t59 -23.5t24 -58.5t-24 -59.5t-59 -24.5zM101 588q-35 0 -59 24.5t-24 59.5t24 58.5t59 23.5t59 -23.5t24 -58.5t-24 -59.5t-59 -24.5z" />
    <glyph glyph-name="uni0302.narrow" horiz-adv-x="0" 
d="M-187 578l114 169h146l114 -169h-127l-60 82l-60 -82h-127z" />
    <glyph glyph-name="uni030C.narrow" horiz-adv-x="0" 
d="M-73 578l-114 169h127l60 -83l60 83h127l-114 -169h-146z" />
    <glyph glyph-name="uni0306.narrow" horiz-adv-x="0" 
d="M0 574q-81 0 -121 46.5t-41 126.5h105q3 -82 57 -82q53 0 57 82h105q-1 -80 -41 -126.5t-121 -46.5z" />
    <glyph glyph-name="tildecomb.narrow" horiz-adv-x="0" 
d="M-168 597q5 70 28 104t71 34q31 0 75 -24q32 -19 47 -19q27 0 32 43h83q-12 -138 -100 -138q-25 0 -71 24q-35 19 -50 19q-25 0 -32 -43h-83z" />
    <glyph glyph-name="uni0304.narrow" horiz-adv-x="0" 
d="M-154 607v99h308v-99h-308z" />
    </font>
</defs>
</svg>
