<svg width="43" height="44" viewBox="0 0 43 44" fill="none" xmlns="http://www.w3.org/2000/svg">
<g clip-path="url(#clip0_875_570)">
<path d="M14.2898 8.47656H6.59637C5.88437 8.47656 5.30731 9.05362 5.30731 9.76562C5.30731 10.4776 5.88437 11.0547 6.59637 11.0547H14.2898C15.0015 11.0547 15.5789 10.4776 15.5789 9.76562C15.5789 9.05362 15.0015 8.47656 14.2898 8.47656Z" fill="#F6F9FF"/>
<path d="M14.2899 13.6333H6.59644C5.88443 13.6333 5.30737 14.2104 5.30737 14.9224C5.30737 15.6344 5.88443 16.2114 6.59644 16.2114H14.2899C15.0015 16.2114 15.5789 15.6344 15.5789 14.9224C15.5789 14.2104 15.0015 13.6333 14.2899 13.6333Z" fill="#F6F9FF"/>
<path d="M14.2899 18.7896H6.59644C5.88443 18.7896 5.30737 19.3666 5.30737 20.0786C5.30737 20.7906 5.88443 21.3677 6.59644 21.3677H14.2899C15.0015 21.3677 15.5789 20.7906 15.5789 20.0786C15.5789 19.3666 15.0015 18.7896 14.2899 18.7896Z" fill="#F6F9FF"/>
<path d="M14.2898 23.9463H6.59637C5.88437 23.9463 5.30731 24.5233 5.30731 25.2354C5.30731 25.9474 5.88437 26.5244 6.59637 26.5244H14.2898C15.0015 26.5244 15.5789 25.9474 15.5789 25.2354C15.5789 24.5233 15.0015 23.9463 14.2898 23.9463Z" fill="#F6F9FF"/>
<path d="M14.2899 29.189H6.59644C5.88443 29.189 5.30737 29.7664 5.30737 30.478C5.30737 31.19 5.88443 31.7671 6.59644 31.7671H14.2899C15.0015 31.7671 15.5789 31.19 15.5789 30.478C15.5789 29.7664 15.0015 29.189 14.2899 29.189Z" fill="#F6F9FF"/>
<path d="M18.6189 11.0547H26.3123C27.0243 11.0547 27.6014 10.4776 27.6014 9.76562C27.6014 9.05362 27.0243 8.47656 26.3123 8.47656H18.6189C17.9072 8.47656 17.3298 9.05362 17.3298 9.76562C17.3298 10.4776 17.9072 11.0547 18.6189 11.0547Z" fill="#F6F9FF"/>
<path d="M18.6189 16.2114H26.3123C27.0243 16.2114 27.6014 15.6344 27.6014 14.9224C27.6014 14.2104 27.0243 13.6333 26.3123 13.6333H18.6189C17.9072 13.6333 17.3298 14.2104 17.3298 14.9224C17.3298 15.6344 17.9072 16.2114 18.6189 16.2114Z" fill="#F6F9FF"/>
<path d="M23.6133 20.0786C23.6133 19.3666 23.0363 18.7896 22.3243 18.7896H18.6189C17.9072 18.7896 17.3298 19.3666 17.3298 20.0786C17.3298 20.7906 17.9072 21.3677 18.6189 21.3677H22.3243C23.0363 21.3677 23.6133 20.7906 23.6133 20.0786Z" fill="#F6F9FF"/>
<path d="M35.8249 29.7333C35.2696 29.2879 34.4586 29.3768 34.0128 29.9321L30.6928 34.0712L28.6373 32.582C28.061 32.1641 27.2546 32.293 26.837 32.8694C26.4194 33.4461 26.5483 34.2521 27.1247 34.6697L30.1738 36.8789C30.4021 37.0441 30.6666 37.1243 30.9295 37.1243C31.3078 37.1243 31.6818 36.9581 31.9355 36.6416L36.024 31.5454C36.4694 30.9902 36.3805 30.1788 35.8249 29.7333Z" fill="#F6F9FF"/>
<path d="M39.0831 25.7762C37.404 24.0675 35.2465 22.9906 32.9087 22.6734V5.1915C32.9087 2.32904 30.5797 0 27.7172 0H5.19183C2.32904 0 0 2.32904 0 5.1915V35.0524C0 37.9152 2.32904 40.2443 5.1915 40.2443H23.3085C25.3472 42.6391 28.2785 44 31.4498 44C37.3529 44 42.1554 39.1942 42.1554 33.287C42.1554 30.4591 41.0644 27.7917 39.0831 25.7762ZM2.57812 35.0524V5.1915C2.57812 3.7507 3.7507 2.57812 5.19183 2.57812H27.7172C29.1583 2.57812 30.3306 3.7507 30.3306 5.1915V22.6324C24.9514 23.1941 20.7442 27.7578 20.7442 33.287C20.7442 34.8195 21.0638 36.3012 21.6767 37.6658H5.19183C3.7507 37.6658 2.57812 36.4936 2.57812 35.0524ZM31.4498 41.4219C28.8753 41.4219 26.5087 40.2399 24.9561 38.1794C23.8873 36.7604 23.322 35.0689 23.322 33.287C23.322 28.8015 26.9683 25.1522 31.4498 25.1522C31.4921 25.1522 31.5347 25.1528 31.577 25.1535L31.5968 25.1538C33.7362 25.1918 35.7419 26.0545 37.2445 27.5833C38.7487 29.1137 39.5772 31.1396 39.5772 33.287C39.5772 37.7726 35.9313 41.4219 31.4498 41.4219Z" fill="#F6F9FF"/>
</g>
<defs>
<clipPath id="clip0_875_570">
<rect width="42.1953" height="44" fill="white"/>
</clipPath>
</defs>
</svg>
