<svg width="98" height="49" viewBox="0 0 98 49" fill="none" xmlns="http://www.w3.org/2000/svg">
<path d="M36.1924 25.9433C35.382 23.0376 34.101 20.5629 32.2514 18.3428C33.7546 16.2664 35.2382 14.2226 36.7218 12.1723C39.3622 8.53525 42.0091 4.90477 44.6234 1.2547C44.9632 0.778031 45.3162 0.595201 45.9109 0.601731C48.8389 0.634379 51.7669 0.61479 54.8974 0.61479C51.8061 4.81335 48.8062 8.88133 45.7345 13.0538C47.9958 13.204 50.0611 13.6153 51.9891 14.5295C58.7861 17.7421 62.4134 23.129 62.6422 30.6251C62.8317 36.7368 67.7138 41.3206 73.6547 40.6872C78.3277 40.191 82.1184 36.3516 82.4909 31.722C82.8765 26.9423 79.9028 22.5805 75.3605 21.2746C71.2627 20.0993 66.7923 21.7056 64.3741 25.2185C64.2434 25.4079 64.1127 25.5972 63.897 25.9041C63.0997 23.0572 61.8252 20.5759 59.9756 18.3428C60.8122 17.1609 61.6488 15.9986 62.4722 14.8298C65.6747 10.3179 68.8837 5.80586 72.0666 1.27428C72.4064 0.791091 72.7659 0.61479 73.3541 0.61479C81.3799 0.627849 89.4056 0.61479 97.4379 0.60826C97.5883 0.60826 97.732 0.627849 98 0.640909C97.8039 0.934743 97.6732 1.14369 97.5229 1.34611C95.9282 3.51395 94.3139 5.66221 92.7453 7.84964C92.3859 8.3459 92.0199 8.54831 91.399 8.54831C86.7456 8.5222 82.0922 8.54831 77.4389 8.52873C76.8768 8.52873 76.5369 8.70503 76.2167 9.15557C75.3213 10.4354 74.3736 11.6825 73.3998 13.0081C74.3867 13.1517 75.3017 13.2562 76.2102 13.4325C84.2294 14.9996 90.2749 22.2606 90.3598 30.4161C90.4513 39.3748 84.4516 46.6488 75.5958 48.3204C66.459 50.0442 57.0084 43.6452 55.2504 34.4906C54.9628 32.9888 54.9497 31.4347 54.7929 29.9003C54.355 25.6038 51.4335 22.1953 47.303 21.1505C43.3032 20.145 39.055 21.797 36.663 25.2838C36.5257 25.4601 36.4081 25.6299 36.1924 25.9433Z" fill="#000086"/>
<path d="M11.1217 20.9285C14.1869 16.7626 17.1475 12.7338 20.2128 8.57443C14.6509 8.57443 9.21981 8.57443 3.57301 8.57443C4.49454 7.31421 5.28535 6.23029 6.0827 5.1529C7.08919 3.7882 8.08914 2.41044 9.12831 1.07187C9.30477 0.843328 9.67077 0.640909 9.94527 0.634379C18.4155 0.60826 26.8857 0.61479 35.3559 0.61479C35.4539 0.61479 35.5585 0.634379 35.833 0.653968C32.2972 5.47938 28.8202 10.2068 25.4543 14.7841C27.0752 16.1423 28.7548 17.3176 30.16 18.7607C33.4932 22.1822 34.8069 26.433 34.9768 31.1474C35.1794 36.789 39.7609 40.968 45.375 40.6872C48.5252 40.5305 51.0871 39.1593 52.9629 36.5866C53.1459 36.332 53.3223 36.0773 53.5053 35.8292C53.5184 35.8096 53.5511 35.8031 53.6295 35.7704C54.4007 38.5194 55.6752 41.0072 57.5444 43.2469C55.7797 45.0491 53.7537 46.3811 51.4466 47.2953C40.7674 51.5199 29.0293 44.7552 27.3235 33.374C27.0883 31.8004 27.1209 30.181 26.8072 28.6335C25.755 23.5143 21.0885 20.7457 17.2587 20.922C15.2718 21.0004 13.2915 20.9285 11.1217 20.9285Z" fill="#000086"/>
<path d="M0.0110856 30.7752C2.61227 30.7752 5.16117 30.7752 7.71661 30.7752C8.10875 35.568 10.3766 38.9961 15.0496 40.2759C19.8991 41.6079 23.4087 39.3748 25.9903 35.4244C26.5131 36.7433 26.9576 38.1015 27.585 39.3683C28.2189 40.6481 29.0424 41.8299 29.8006 43.0902C26.9445 46.5574 19.5984 50.2597 11.9844 47.5891C3.47498 44.605 -0.230733 36.7303 0.0110856 30.7752Z" fill="#000086"/>
</svg>
