<svg width="98" height="48" viewBox="0 0 98 48" fill="none" xmlns="http://www.w3.org/2000/svg">
<path d="M36.1924 25.3417C35.382 22.436 34.101 19.9613 32.2514 17.7412C33.7546 15.6648 35.2382 13.621 36.7218 11.5707C39.3622 7.93369 42.0091 4.30321 44.6234 0.653133C44.9632 0.176469 45.3162 -0.00636131 45.9109 0.000168339C48.8389 0.0328166 51.7669 0.0132276 54.8974 0.0132276C51.8061 4.21179 48.8062 8.27976 45.7345 12.4522C47.9958 12.6024 50.0611 13.0138 51.9891 13.9279C58.7861 17.1405 62.4134 22.5275 62.6422 30.0235C62.8317 36.1353 67.7138 40.7191 73.6547 40.0857C78.3277 39.5894 82.1184 35.75 82.4909 31.1205C82.8765 26.3408 79.9028 21.979 75.3605 20.673C71.2627 19.4977 66.7923 21.104 64.3741 24.6169C64.2434 24.8063 64.1127 24.9957 63.897 25.3026C63.0997 22.4556 61.8252 19.9744 59.9756 17.7412C60.8122 16.5594 61.6488 15.3971 62.4722 14.2283C65.6747 9.71629 68.8837 5.2043 72.0666 0.672722C72.4064 0.189528 72.7659 0.0132276 73.3541 0.0132276C81.3799 0.0262869 89.4056 0.0132276 97.4379 0.00669799C97.5883 0.00669799 97.732 0.0262869 98 0.0393462C97.8039 0.33318 97.6732 0.542129 97.5229 0.744548C95.9282 2.91239 94.3139 5.06065 92.7453 7.24808C92.3859 7.74433 92.0199 7.94675 91.399 7.94675C86.7456 7.92063 82.0922 7.94675 77.4389 7.92716C76.8768 7.92716 76.5369 8.10346 76.2167 8.55401C75.3213 9.83382 74.3736 11.081 73.3998 12.4065C74.3867 12.5502 75.3017 12.6546 76.2102 12.8309C84.2294 14.398 90.2749 21.659 90.3598 29.8145C90.4513 38.7732 84.4516 46.0473 75.5958 47.7188C66.459 49.4427 57.0084 43.0436 55.2504 33.889C54.9628 32.3872 54.9497 30.8332 54.7929 29.2987C54.355 25.0022 51.4335 21.5937 47.303 20.549C43.3032 19.5434 39.055 21.1954 36.663 24.6822C36.5257 24.8585 36.4081 25.0283 36.1924 25.3417Z" fill="#041851"/>
<path d="M11.1217 20.327C14.1869 16.161 17.1475 12.1323 20.2128 7.97287C14.6509 7.97287 9.21981 7.97287 3.57301 7.97287C4.49454 6.71265 5.28535 5.62873 6.0827 4.55133C7.08919 3.18664 8.08914 1.80888 9.12831 0.470303C9.30477 0.241765 9.67077 0.0393462 9.94527 0.0328166C18.4155 0.00669799 26.8857 0.0132276 35.3559 0.0132276C35.4539 0.0132276 35.5585 0.0328166 35.833 0.0524055C32.2972 4.87782 28.8202 9.60528 25.4543 14.1826C27.0752 15.5407 28.7548 16.7161 30.16 18.1591C33.4932 21.5807 34.8069 25.8315 34.9768 30.5459C35.1794 36.1875 39.7609 40.3665 45.375 40.0857C48.5252 39.929 51.0871 38.5577 52.9629 35.9851C53.1459 35.7304 53.3223 35.4758 53.5053 35.2276C53.5184 35.208 53.5511 35.2015 53.6295 35.1689C54.4007 37.9178 55.6752 40.4056 57.5444 42.6453C55.7797 44.4475 53.7537 45.7795 51.4466 46.6937C40.7674 50.9184 29.0293 44.1537 27.3235 32.7725C27.0883 31.1988 27.1209 29.5795 26.8072 28.032C25.755 22.9127 21.0885 20.1441 17.2587 20.3204C15.2718 20.3988 13.2915 20.327 11.1217 20.327Z" fill="#041851"/>
<path d="M0.0110856 30.1737C2.61227 30.1737 5.16117 30.1737 7.71661 30.1737C8.10875 34.9664 10.3766 38.3945 15.0496 39.6743C19.8991 41.0064 23.4087 38.7732 25.9903 34.8228C26.5131 36.1418 26.9576 37.4999 27.585 38.7667C28.2189 40.0465 29.0424 41.2284 29.8006 42.4886C26.9445 45.9558 19.5984 49.6582 11.9844 46.9875C3.47498 44.0035 -0.230733 36.1287 0.0110856 30.1737Z" fill="#041851"/>
</svg>
