<svg width="131" height="64" viewBox="0 0 131 64" fill="none" xmlns="http://www.w3.org/2000/svg">
<path d="M48.3797 33.789C47.2963 29.9147 45.584 26.6151 43.1116 23.655C45.121 20.8864 47.1041 18.1614 49.0873 15.4276C52.6168 10.5783 56.1551 5.73761 59.6496 0.870844C60.1039 0.235292 60.5757 -0.00848175 61.3707 0.000224451C65.2846 0.0437554 69.1985 0.0176369 73.3833 0.0176369C69.251 5.61572 65.241 11.0397 61.1348 16.6029C64.1576 16.8032 66.9184 17.3517 69.4956 18.5705C78.5815 22.854 83.4302 30.0366 83.736 40.0313C83.9893 48.1803 90.5154 54.2921 98.4568 53.4476C104.703 52.7859 109.771 47.6667 110.268 41.494C110.784 35.121 106.809 29.3053 100.737 27.5641C95.2593 25.9969 89.2836 28.1387 86.0511 32.8226C85.8764 33.0751 85.7017 33.3276 85.4133 33.7367C84.3475 29.9408 82.6439 26.6325 80.1715 23.655C81.2898 22.0791 82.408 20.5294 83.5088 18.971C87.7897 12.9551 92.0792 6.93907 96.3339 0.896963C96.7882 0.252704 97.2687 0.0176369 98.055 0.0176369C108.783 0.0350492 119.512 0.0176369 130.249 0.00893065C130.45 0.00893065 130.642 0.0350492 131 0.0524616C130.738 0.444241 130.563 0.722839 130.362 0.992731C128.231 3.88319 126.073 6.74753 123.976 9.66411C123.495 10.3258 123.006 10.5957 122.176 10.5957C115.956 10.5608 109.736 10.5957 103.515 10.5696C102.764 10.5696 102.31 10.8046 101.882 11.4053C100.685 13.1118 99.4178 14.7746 98.1161 16.542C99.4353 16.7335 100.658 16.8728 101.873 17.1079C112.592 19.1974 120.674 28.8787 120.787 39.7527C120.909 51.6976 112.889 61.3963 101.052 63.6251C88.838 65.9236 76.2052 57.3915 73.8551 45.1854C73.4707 43.183 73.4532 41.1109 73.2435 39.0649C72.6582 33.3363 68.753 28.7916 63.2316 27.3986C57.8849 26.0579 52.2062 28.2605 49.0087 32.9097C48.8252 33.1447 48.668 33.3711 48.3797 33.789Z" fill="#F6F9FF"/>
<path d="M14.8667 27.1026C18.9641 21.5481 22.9217 16.1763 27.0191 10.6305C19.5844 10.6305 12.3244 10.6305 4.77617 10.6305C6.008 8.9502 7.06511 7.50497 8.13096 6.06845C9.47636 4.24885 10.813 2.41184 12.2021 0.627071C12.438 0.322354 12.9273 0.0524616 13.2942 0.0437554C24.6166 0.00893065 35.939 0.0176369 47.2614 0.0176369C47.3924 0.0176369 47.5322 0.0437554 47.8992 0.069874C43.1727 6.50376 38.525 12.807 34.0257 18.9101C36.1923 20.721 38.4376 22.2881 40.3159 24.2122C44.7715 28.7742 46.5275 34.4419 46.7547 40.7278C47.0255 48.25 53.1497 53.8219 60.6543 53.4476C64.8653 53.2386 68.29 51.4103 70.7973 47.9801C71.0419 47.6405 71.2778 47.301 71.5224 46.9702C71.5399 46.9441 71.5836 46.9353 71.6884 46.8918C72.7193 50.5571 74.4229 53.8742 76.9216 56.8604C74.5627 59.2633 71.8544 61.0394 68.7705 62.2583C54.4952 67.8912 38.8045 58.8715 36.5243 43.6966C36.2098 41.5984 36.2535 39.4393 35.8341 37.3759C34.4276 30.5503 28.1898 26.8589 23.0702 27.0939C20.4144 27.1984 17.7672 27.1026 14.8667 27.1026Z" fill="#F6F9FF"/>
<path d="M0.0148185 40.2316C3.49191 40.2316 6.89912 40.2316 10.3151 40.2316C10.8392 46.6219 13.8708 51.1927 20.1173 52.8991C26.5998 54.6752 31.2912 51.6976 34.7421 46.4304C35.441 48.189 36.0351 49.9999 36.8738 51.6889C37.7212 53.3953 38.822 54.9712 39.8354 56.6515C36.0176 61.2745 26.1979 66.2109 16.0199 62.65C4.64512 58.6713 -0.308429 48.1716 0.0148185 40.2316Z" fill="#F6F9FF"/>
</svg>
