<svg width="211" height="278" viewBox="0 0 211 278" fill="none" xmlns="http://www.w3.org/2000/svg">
<path d="M41.3154 221.336L52.3283 229.757" stroke="#000086" stroke-width="1.1533" stroke-miterlimit="10" stroke-linecap="round" stroke-linejoin="round"/>
<path d="M3.56836 192.472L23.7851 207.931" stroke="#000086" stroke-width="1.1533" stroke-miterlimit="10" stroke-linecap="round" stroke-linejoin="round"/>
<path d="M34.0872 190.6L110.219 248.815" stroke="#000086" stroke-width="1.1533" stroke-miterlimit="10" stroke-linecap="round" stroke-linejoin="round"/>
<path d="M-4.72681 160.899L10.7049 172.721" stroke="#000086" stroke-width="1.1533" stroke-miterlimit="10" stroke-linecap="round" stroke-linejoin="round"/>
<path d="M85.062 204.369L152.044 255.588" stroke="#FDC041" stroke-width="1.1533" stroke-miterlimit="10" stroke-linecap="round" stroke-linejoin="round"/>
<path d="M-16.0225 127.074L55.4014 181.69" stroke="#FDC041" stroke-width="1.1533" stroke-miterlimit="10" stroke-linecap="round" stroke-linejoin="round"/>
<path d="M36.2532 141.818L154.472 232.237" stroke="#000086" stroke-width="1.1533" stroke-miterlimit="10" stroke-linecap="round" stroke-linejoin="round"/>
<path d="M-12.6399 104.431L12.3682 123.575" stroke="#000086" stroke-width="1.1533" stroke-miterlimit="10" stroke-linecap="round" stroke-linejoin="round"/>
<path d="M-44.7134 54.6963L100.236 165.534" stroke="#000086" stroke-width="1.1533" stroke-miterlimit="10" stroke-linecap="round" stroke-linejoin="round"/>
<path d="M5.25366 67.7173L38.1561 92.8556" stroke="#FDC041" stroke-width="1.1533" stroke-miterlimit="10" stroke-linecap="round" stroke-linejoin="round"/>
<path d="M91.552 108.477L183.006 178.409" stroke="#000086" stroke-width="1.1533" stroke-miterlimit="10" stroke-linecap="round" stroke-linejoin="round"/>
<path d="M-1.84497 37.0586L65.7485 88.7449" stroke="#000086" stroke-width="1.1533" stroke-miterlimit="10" stroke-linecap="round" stroke-linejoin="round"/>
<path d="M113.219 74.6279L177.753 123.975" stroke="#000086" stroke-width="1.1533" stroke-miterlimit="10" stroke-linecap="round" stroke-linejoin="round"/>
<path d="M39.6409 18.3643L87.9186 55.2596" stroke="#000086" stroke-width="1.1533" stroke-miterlimit="10" stroke-linecap="round" stroke-linejoin="round"/>
<path d="M166.852 90.4072L191.963 109.609" stroke="#FDC041" stroke-width="1.1533" stroke-miterlimit="10" stroke-linecap="round" stroke-linejoin="round"/>
<path d="M74.5186 19.8042L138.152 68.4832" stroke="#FDC041" stroke-width="1.1533" stroke-miterlimit="10" stroke-linecap="round" stroke-linejoin="round"/>
</svg>
