<svg width="1456" height="177" viewBox="0 0 1456 177" fill="none" xmlns="http://www.w3.org/2000/svg">
<path opacity="0.3" d="M0 121.17L0 177L1440.74 177V77.251C1404.13 87.1762 1319.07 110.153 1271.69 122.659C1212.46 138.291 1138.17 147.224 1028.33 158.39C918.5 169.556 730.062 121.17 718.218 118.937C706.373 116.704 606.232 80.9729 414.564 72.7846C261.229 66.2339 74.2984 102.312 0 121.17Z" fill="white"/>
<path d="M9 84.9166L9 145L1450 145V37.651C1413.38 48.3325 1328.3 73.0602 1280.91 86.5188C1221.68 103.342 1147.37 112.956 1037.52 124.972C927.664 136.989 739.193 84.9166 727.346 82.5133C715.499 80.11 615.34 41.6566 423.638 32.8444C270.276 25.7946 83.3117 64.6218 9 84.9166Z" fill="white"/>
<path opacity="0.6" d="M9.75507 65.1703L9.75507 121L1450.5 121V21.251C1413.89 31.1762 1328.82 54.1533 1281.44 66.6591C1222.22 82.2914 1147.92 91.2242 1038.09 102.39C928.255 113.556 739.817 65.1703 727.973 62.9371C716.128 60.7039 615.987 24.9729 424.319 16.7846C270.984 10.2339 84.0535 46.3123 9.75507 65.1703Z" fill="white"/>
<path opacity="0.15" d="M1454.25 49.1703V105L4.5022 105V5.25095C41.3418 15.1762 126.94 38.1533 174.615 50.6591C234.208 66.2914 308.971 75.2242 419.49 86.3901C530.009 97.556 719.624 49.1703 731.543 46.9371C743.462 44.7039 844.229 8.97294 1037.1 0.784584C1191.39 -5.76611 1379.49 30.3123 1454.25 49.1703Z" fill="white"/>
<path opacity="0.2" d="M1455.75 55.1703V111L6.00012 111V11.251C42.8397 21.1762 128.438 44.1533 176.112 56.6591C235.706 72.2914 310.469 81.2242 420.988 92.3901C531.507 103.556 721.122 55.1703 733.041 52.9371C744.96 50.7039 845.727 14.9729 1038.59 6.78458C1192.89 0.233902 1380.98 36.3123 1455.75 55.1703Z" fill="white"/>
</svg>
