<svg width="1440" height="177" viewBox="0 0 1440 177" fill="none" xmlns="http://www.w3.org/2000/svg">
<path opacity="0.3" d="M-12 121.17L-12 177L1428.74 177V77.251C1392.13 87.1762 1307.07 110.153 1259.69 122.659C1200.46 138.291 1126.17 147.224 1016.33 158.39C906.5 169.556 718.062 121.17 706.218 118.937C694.373 116.704 594.232 80.9729 402.564 72.7846C249.229 66.2339 62.2984 102.312 -12 121.17Z" fill="white"/>
<path d="M-3 84.9166L-3 145L1438 145V37.651C1401.38 48.3325 1316.3 73.0602 1268.91 86.5188C1209.68 103.342 1135.37 112.956 1025.52 124.972C915.664 136.989 727.193 84.9166 715.346 82.5133C703.499 80.11 603.34 41.6566 411.638 32.8444C258.276 25.7946 71.3117 64.6218 -3 84.9166Z" fill="white"/>
<path opacity="0.6" d="M-2.24487 65.1703L-2.24487 121L1438.5 121V21.251C1401.89 31.1762 1316.82 54.1533 1269.44 66.6591C1210.22 82.2914 1135.92 91.2242 1026.09 102.39C916.255 113.556 727.818 65.1703 715.973 62.9371C704.128 60.7039 603.987 24.9729 412.319 16.7846C258.984 10.2339 72.0535 46.3123 -2.24487 65.1703Z" fill="white"/>
<path opacity="0.15" d="M1442.25 49.1703V105L-7.4978 105V5.25095C29.3418 15.1762 114.94 38.1533 162.615 50.6591C222.208 66.2914 296.971 75.2242 407.49 86.3901C518.009 97.556 707.624 49.1703 719.543 46.9371C731.462 44.7039 832.229 8.97294 1025.1 0.784584C1179.39 -5.76611 1367.49 30.3123 1442.25 49.1703Z" fill="white"/>
<path opacity="0.2" d="M1443.75 55.1703V111L-5.99988 111V11.251C30.8397 21.1762 116.438 44.1533 164.112 56.6591C223.706 72.2914 298.469 81.2242 408.988 92.3901C519.507 103.556 709.122 55.1703 721.041 52.9371C732.96 50.7039 833.727 14.9729 1026.59 6.78458C1180.89 0.233902 1368.98 36.3123 1443.75 55.1703Z" fill="white"/>
</svg>
