<svg width="24" height="24" viewBox="0 0 24 24" fill="none" xmlns="http://www.w3.org/2000/svg">
<path d="M22.8707 21.1641H22.6091C22.4925 20.983 22.3902 20.7896 22.3063 20.5869C22.232 20.4074 22.0263 20.3223 21.8469 20.3965C21.6675 20.4708 21.5823 20.6764 21.6566 20.8558C21.7 20.9608 21.7486 21.0633 21.7998 21.1641H8.00878C7.90256 21.1641 7.7999 21.1791 7.70235 21.2067C7.48255 20.834 7.18564 20.1411 7.18564 19.1136C7.18564 18.9603 7.19244 18.8092 7.20566 18.6611H13.9415C14.1357 18.6611 14.293 18.5037 14.293 18.3096C14.293 18.1154 14.1357 17.958 13.9415 17.958H7.50177L8.32786 17.0631H21.798C21.6533 17.3471 21.5399 17.6468 21.4596 17.958H16.8384C16.6442 17.958 16.4868 18.1154 16.4868 18.3096C16.4868 18.5037 16.6442 18.6611 16.8384 18.6611H21.3365C21.3227 18.804 21.3148 18.9482 21.3141 19.0937C21.3133 19.2879 21.4701 19.446 21.6643 19.4468H21.6658C21.8592 19.4468 22.0164 19.2904 22.0173 19.0967C22.0204 18.3585 22.225 17.657 22.6085 17.0631H22.8707C23.4934 17.0631 24.0001 16.5565 24.0001 15.9337C24.0001 15.311 23.4934 14.8043 22.8707 14.8043H18.4759L22.5024 10.7777C22.7311 10.5491 22.8569 10.2452 22.8569 9.92186C22.8569 9.59856 22.731 9.29462 22.5024 9.0661L22.4139 8.97755C22.1853 8.74899 21.8814 8.62303 21.5581 8.62303C21.2632 8.62303 20.9847 8.72808 20.7645 8.91994L20.1422 8.29762L20.354 8.08575C20.6384 7.8014 20.7239 7.37713 20.5717 7.00489L20.2853 6.30438C20.1866 6.06278 19.9752 5.88761 19.7197 5.83506L19.2308 5.3461C19.0934 5.2088 18.8708 5.2088 18.7335 5.3461C18.5962 5.4834 18.5962 5.70601 18.7335 5.84326L18.9741 6.08383L13.4334 11.6245L11.804 9.99508L17.3447 4.45438L17.5604 4.67006C17.629 4.73873 17.719 4.77304 17.809 4.77304C17.8989 4.77304 17.9889 4.73873 18.0576 4.67006C18.1949 4.53276 18.1949 4.31015 18.0576 4.17289L17.5935 3.70883C17.5409 3.45331 17.3658 3.24199 17.1242 3.14318C17.1241 3.14318 17.1241 3.14318 17.1241 3.14318L16.4237 2.85681C16.0516 2.7047 15.6272 2.79002 15.3428 3.07441L15.1309 3.28629L14.5085 2.66397C14.7004 2.44379 14.8054 2.16521 14.8054 1.87036C14.8054 1.54706 14.6795 1.24312 14.4509 1.0146L14.3624 0.926054C14.1338 0.697488 13.8298 0.571533 13.5065 0.571533C13.1832 0.571533 12.8793 0.697441 12.6507 0.926054L8.27555 5.30119C8.04693 5.5298 7.92102 5.83375 7.92102 6.15705C7.92102 6.48035 8.04693 6.78429 8.27555 7.01286L8.36395 7.10131C8.59256 7.32992 8.89651 7.45583 9.21981 7.45583C9.5147 7.45583 9.79324 7.35078 10.0135 7.15892L10.6358 7.78134L10.4239 7.99326C10.1396 8.27761 10.0541 8.70188 10.2063 9.07407L10.4927 9.77453C10.5904 10.0136 10.7983 10.1875 11.0503 10.242L9.28745 12.3448C8.85235 12.1652 8.33231 12.2518 7.97929 12.6048C7.75255 12.8316 7.62768 13.133 7.62768 13.4537C7.62768 13.5972 7.6529 13.7368 7.70085 13.8676L6.90139 14.6056C6.75874 14.7374 6.74984 14.9597 6.88156 15.1024C6.95084 15.1775 7.04525 15.2155 7.13998 15.2155C7.22525 15.2155 7.31075 15.1847 7.37835 15.1223L8.11711 14.4403L8.98806 15.3113L2.44154 22.4029C2.25484 22.6051 2.00044 22.7195 1.72524 22.7251C1.44961 22.7304 1.19128 22.6264 0.996649 22.4318C0.802021 22.2371 0.697863 21.9784 0.703348 21.7032C0.708832 21.428 0.823256 21.1736 1.02552 20.9869L6.16066 16.2464C6.3033 16.1147 6.31221 15.8923 6.18049 15.7496C6.04886 15.607 5.82643 15.598 5.6837 15.7298L0.548564 20.4702C0.204403 20.788 0.00972881 21.2208 0.000353677 21.6891C-0.00902145 22.1574 0.168262 22.5977 0.499439 22.9289C0.822318 23.2518 1.24889 23.4284 1.704 23.4284C1.71572 23.4284 1.72749 23.4283 1.73925 23.428C2.20754 23.4187 2.64044 23.224 2.95811 22.8798L5.06517 20.5973C5.23697 21.1863 5.47937 21.5902 5.6304 21.8026C5.78284 22.017 6.03208 22.1449 6.29711 22.1449H6.88939C6.88296 22.1936 6.87931 22.2431 6.87931 22.2935C6.87931 22.9163 7.38599 23.4229 8.00873 23.4229H22.8707C23.4934 23.4229 24.0001 22.9163 24.0001 22.2935C24 21.6708 23.4934 21.1641 22.8707 21.1641ZM23.2969 15.9337C23.2969 16.1687 23.1057 16.36 22.8706 16.36H8.97695L9.56134 15.7269C9.69456 15.7756 9.83468 15.8002 9.97483 15.8002C10.2554 15.8002 10.5358 15.7024 10.7606 15.5074H22.8707C23.1057 15.5074 23.2969 15.6987 23.2969 15.9337ZM12.6907 11.8763L10.655 13.5829L9.84564 12.7735L11.5522 10.7378L12.6907 11.8763ZM11.157 14.8043C11.195 14.5823 11.1707 14.3518 11.0837 14.141L13.1865 12.3782C13.241 12.6301 13.4149 12.838 13.6539 12.9358L14.3544 13.2221C14.4769 13.2722 14.605 13.2965 14.732 13.2965C14.9907 13.2965 15.2445 13.1953 15.4352 13.0045L15.6472 12.7926L16.2695 13.415C15.9289 13.8066 15.8822 14.3665 16.1296 14.8042H11.157V14.8043ZM21.5581 9.32622C21.6936 9.32622 21.821 9.379 21.9167 9.47472L22.0052 9.56327C22.101 9.65903 22.1538 9.78644 22.1538 9.92186C22.1538 10.0573 22.101 10.1847 22.0052 10.2805L17.63 14.6557C17.5342 14.7515 17.4068 14.8042 17.2714 14.8042C17.136 14.8042 17.0086 14.7515 16.9128 14.6557L16.8244 14.5672C16.6266 14.3695 16.6266 14.0477 16.8244 13.8499L21.1995 9.47476C21.2953 9.37895 21.4227 9.32622 21.5581 9.32622ZM20.265 9.41486L16.7644 12.9154L16.1444 12.2955L19.645 8.79483L20.265 9.41486ZM13.8944 12.1579L19.5074 6.54494C19.5252 6.52713 19.5446 6.52197 19.5611 6.52197C19.5671 6.52197 19.5728 6.52268 19.5777 6.52366C19.5963 6.52741 19.6214 6.53857 19.6344 6.57054L19.9208 7.27105C19.9655 7.38041 19.9404 7.505 19.8568 7.58854L14.938 12.5074C14.8546 12.5909 14.7299 12.616 14.6205 12.5713L13.9201 12.285C13.8881 12.2719 13.877 12.2469 13.8732 12.2283C13.8694 12.2096 13.8701 12.1823 13.8944 12.1579ZM9.2199 6.75279C9.08443 6.75279 8.95707 6.70006 8.8613 6.60424L8.77285 6.51579C8.67704 6.42002 8.6243 6.29266 8.6243 6.15719C8.6243 6.02167 8.67704 5.89436 8.77285 5.79854L13.148 1.42336C13.2438 1.32754 13.3712 1.27481 13.5066 1.27481C13.6421 1.27481 13.7695 1.32759 13.8652 1.42331L13.9537 1.51186C14.0495 1.60763 14.1023 1.73503 14.1023 1.8705C14.1023 2.00597 14.0495 2.13334 13.9537 2.22915L9.57855 6.60433C9.48273 6.70001 9.35537 6.75279 9.2199 6.75279ZM10.513 6.66415L14.0136 3.16352L14.6337 3.78355L11.133 7.28417L10.513 6.66415ZM10.9211 8.49042L15.84 3.57157C15.896 3.51556 15.9705 3.48579 16.0465 3.48579C16.0839 3.48579 16.1215 3.49296 16.1575 3.50768L16.858 3.79405C16.8899 3.80708 16.901 3.83206 16.9048 3.85072C16.9085 3.86938 16.9079 3.8967 16.8835 3.92108L11.2706 9.53402C11.2462 9.55839 11.2189 9.559 11.2002 9.5553C11.1816 9.55155 11.1566 9.54039 11.1436 9.50842L10.8572 8.80791C10.8125 8.6986 10.8376 8.574 10.9211 8.49042ZM8.33086 13.4537C8.33086 13.3209 8.38261 13.1959 8.4765 13.102C8.67043 12.9082 8.98585 12.9082 9.17978 13.102L10.3264 14.2487C10.5203 14.4426 10.5203 14.7581 10.3264 14.9519C10.1325 15.1458 9.817 15.1458 9.62313 14.9519L8.47655 13.8053C8.38261 13.7114 8.33086 13.5865 8.33086 13.4537ZM6.20345 21.3951C6.04745 21.1757 5.77201 20.7039 5.64038 19.9743L6.48311 19.0614C6.48297 19.0788 6.48255 19.0962 6.48255 19.1136C6.48255 20.1977 6.7767 20.9754 7.02786 21.4418H6.29721C6.25928 21.4418 6.22427 21.4243 6.20345 21.3951ZM22.8707 22.7198H8.00878C7.77374 22.7198 7.58249 22.5286 7.58249 22.2935C7.58249 22.0584 7.77374 21.8672 8.00878 21.8672H22.8707C23.1057 21.8672 23.2969 22.0585 23.2969 22.2935C23.2969 22.5286 23.1057 22.7198 22.8707 22.7198Z" fill="#000086"/>
<path d="M9.83594 19.5549C9.64178 19.5549 9.48438 19.7123 9.48438 19.9065C9.48438 20.1007 9.64178 20.2581 9.83594 20.2581H18.0264C18.2206 20.2581 18.3779 20.1007 18.3779 19.9065C18.3779 19.7123 18.2206 19.5549 18.0264 19.5549H9.83594Z" fill="#000086"/>
</svg>
