<svg width="24" height="24" viewBox="0 0 24 24" fill="none" xmlns="http://www.w3.org/2000/svg">
<path d="M22.8559 14.0575H22.4967V10.8224C22.4967 10.3103 22.2418 9.85682 21.8525 9.58128V9.1408C21.8525 8.50185 21.3327 7.98205 20.6938 7.98205H20.4256L21.4517 6.47643C21.7956 5.97177 21.6648 5.28135 21.1601 4.93738L14.1978 0.192691C13.9533 0.0260506 13.6586 -0.0354494 13.3678 0.0197224C13.0772 0.0748006 12.8253 0.239754 12.6587 0.484254L6.64929 9.30252H4.97702L5.38047 5.2183C5.38502 5.17227 5.41493 5.13238 5.45664 5.11668C5.97644 4.92069 6.42691 4.55469 6.72504 4.08613C6.74852 4.04924 6.79282 4.02814 6.83866 4.03278L9.46155 4.29191C9.64961 4.31014 9.81691 4.17318 9.83547 3.98521C9.85404 3.79724 9.71674 3.62985 9.52877 3.61129L6.90588 3.35216C6.60143 3.32235 6.31108 3.46264 6.14796 3.71896C5.92877 4.06349 5.59755 4.33255 5.21538 4.47664C4.92771 4.58511 4.73018 4.84349 4.6998 5.15104L4.28974 9.30247H3.85366L4.49172 2.84291C4.51469 2.61041 4.72221 2.4396 4.95499 2.46289L10.2553 2.98649C10.4433 3.00463 10.6107 2.86775 10.6293 2.67978C10.6478 2.49182 10.5105 2.32443 10.3226 2.30586L5.02221 1.78227C4.41452 1.72232 3.8711 2.16786 3.81105 2.77564L3.29674 7.98205H2.42088C1.78197 7.98205 1.26213 8.50185 1.26213 9.1408V9.44127C0.739426 9.68193 0.375488 10.2103 0.375488 10.8224V22.48C0.375488 23.3181 1.05733 24 1.8955 24H20.9768C21.8149 24 22.4967 23.3181 22.4967 22.48V19.245H22.8559C23.2798 19.245 23.6247 18.9001 23.6247 18.4762V14.8263C23.6247 14.4024 23.2798 14.0575 22.8559 14.0575ZM20.6938 8.66605C20.9556 8.666 21.1686 8.879 21.1686 9.14085V9.31508C21.1057 9.30711 21.0418 9.30257 20.9768 9.30257H19.5258L19.9595 8.66605H20.6938ZM13.2239 0.869379C13.2876 0.775863 13.384 0.712769 13.4951 0.691676C13.5217 0.68666 13.5484 0.684129 13.5749 0.684129C13.6591 0.684129 13.7414 0.709347 13.8126 0.757816L20.775 5.5025C20.968 5.63408 21.0181 5.89818 20.8865 6.09121L18.6981 9.30243H18.1729L19.2459 7.72803C19.4199 7.47271 19.4342 7.14777 19.2832 6.87997C19.0825 6.52419 19.0011 6.10527 19.0541 5.70032C19.0934 5.39905 18.9609 5.10496 18.7081 4.93274L15.0988 2.47311C14.846 2.30085 14.5238 2.28505 14.2578 2.43191C13.9004 2.62925 13.4808 2.70674 13.0762 2.65011C12.7762 2.60802 12.472 2.74349 12.3005 2.99497L8.00214 9.30247H7.47696L13.2239 0.869379ZM13.3745 6.67677C11.8852 6.67677 10.6627 7.838 10.5631 9.30247H8.82972L12.8656 3.38014C12.8657 3.38014 12.8657 3.38014 12.8657 3.38014C12.8886 3.34644 12.9266 3.32638 12.9656 3.32638C12.9708 3.32638 12.9761 3.32675 12.9813 3.32746C13.5315 3.40443 14.1022 3.29914 14.5884 3.03069C14.6266 3.0095 14.6757 3.01255 14.7136 3.03833L18.3229 5.498C18.3607 5.52379 18.3815 5.56841 18.3759 5.61172C18.3038 6.16246 18.4145 6.73218 18.6875 7.21602C18.7094 7.25488 18.7067 7.30466 18.6807 7.34286L17.3454 9.30243H16.186C16.0863 7.838 14.8638 6.67677 13.3745 6.67677ZM15.5002 9.30252H11.2488C11.3468 8.21553 12.2625 7.36077 13.3745 7.36077C14.4866 7.36072 15.4023 8.21553 15.5002 9.30252ZM1.94608 9.1408C1.94608 8.87896 2.15904 8.66596 2.42088 8.66596H3.22919L3.16633 9.30247H1.94608V9.1408ZM1.05944 10.8224C1.05944 10.3615 1.43449 9.98643 1.8955 9.98643H20.9768C21.4378 9.98643 21.8128 10.3615 21.8128 10.8224V11.7714H1.05944V10.8224ZM21.8128 22.48C21.8128 22.941 21.4378 23.316 20.9768 23.316H1.8955C1.43449 23.316 1.05944 22.941 1.05944 22.48V21.5311H2.9036C3.0925 21.5311 3.24555 21.378 3.24555 21.1891C3.24555 21.0003 3.09246 20.8472 2.9036 20.8472H1.05944V12.4553H21.8128V14.0575H18.5613H18.5612C17.5367 14.0575 16.6493 14.6547 16.2281 15.5191C16.2267 15.522 16.2251 15.5248 16.2236 15.5278C16.2201 15.5351 16.217 15.5428 16.2135 15.5502C16.1634 15.6567 16.1198 15.767 16.0843 15.8808C16.0842 15.8811 16.0841 15.8814 16.084 15.8818C16.0083 16.125 15.9675 16.3834 15.9675 16.6513C15.9675 18.0815 17.131 19.245 18.5612 19.245H18.5612H21.8127V20.8472H5.09332C4.90441 20.8472 4.75136 21.0003 4.75136 21.1891C4.75136 21.378 4.90446 21.5311 5.09332 21.5311H21.8128V22.48ZM22.9408 18.4762C22.9408 18.523 22.9027 18.561 22.8559 18.561H18.5613C17.8373 18.561 17.2061 18.1561 16.8823 17.5608C16.8676 17.5338 16.8535 17.5063 16.8401 17.4785C16.8132 17.4229 16.789 17.3657 16.7676 17.3072C16.6925 17.1026 16.6515 16.8816 16.6515 16.6513C16.6515 16.4209 16.6925 16.1999 16.7676 15.9953C16.7891 15.9368 16.8133 15.8797 16.8401 15.824C16.8535 15.7962 16.8676 15.7687 16.8823 15.7417C17.2061 15.1464 17.8373 14.7415 18.5613 14.7415H22.8559C22.9027 14.7415 22.9408 14.7795 22.9408 14.8263V18.4762Z" fill="#041851"/>
<path d="M18.6414 15.2638C17.8763 15.2638 17.2539 15.8862 17.2539 16.6513C17.2539 17.4163 17.8763 18.0387 18.6414 18.0387C19.4065 18.0387 20.0289 17.4163 20.0289 16.6513C20.0289 15.8862 19.4065 15.2638 18.6414 15.2638ZM18.6414 17.3548C18.2535 17.3548 17.9379 17.0392 17.9379 16.6513C17.9379 16.2634 18.2535 15.9477 18.6414 15.9477C19.0293 15.9477 19.345 16.2634 19.345 16.6513C19.345 17.0392 19.0293 17.3548 18.6414 17.3548Z" fill="#041851"/>
</svg>
