<svg width="48" height="48" viewBox="0 0 48 48" fill="none" xmlns="http://www.w3.org/2000/svg">
<g clip-path="url(#clip0_739_1601)">
<path d="M25.8219 38.0898H22.1783C22.0159 38.0898 21.8602 38.0264 21.7454 37.9135C21.6306 37.8007 21.5661 37.6477 21.5661 37.4881V8.42925C21.5661 7.79482 21.8226 7.18636 22.279 6.73775C22.7355 6.28914 23.3546 6.03711 24.0001 6.03711C24.6456 6.03711 25.2647 6.28914 25.7212 6.73775C26.1777 7.18636 26.4341 7.79482 26.4341 8.42925V37.4887C26.4339 37.6482 26.3694 37.8011 26.2546 37.9137C26.1398 38.0265 25.9842 38.0898 25.8219 38.0898ZM22.7905 36.8865H25.2098V8.42925C25.2098 8.11395 25.0823 7.81156 24.8555 7.58861C24.6286 7.36565 24.3209 7.2404 24.0001 7.2404C23.6793 7.2404 23.3716 7.36565 23.1448 7.58861C22.9179 7.81156 22.7905 8.11395 22.7905 8.42925V36.8865Z" fill="#D0A144"/>
<path d="M9.24692 14.103H7.14535C6.64673 14.0942 6.17156 13.8934 5.82211 13.5437C5.47265 13.194 5.27686 12.7235 5.27686 12.2334C5.27686 11.7433 5.47265 11.2727 5.82211 10.9231C6.17156 10.5734 6.64673 10.3726 7.14535 10.3638H8.94879C9.11115 10.3638 9.26686 10.4272 9.38166 10.54C9.49646 10.6528 9.56096 10.8058 9.56096 10.9654C9.56096 11.125 9.49646 11.278 9.38166 11.3908C9.26686 11.5037 9.11115 11.5671 8.94879 11.5671H7.14535C6.96906 11.5723 6.80177 11.6448 6.67895 11.7691C6.55613 11.8935 6.48744 12.06 6.48744 12.2334C6.48744 12.4067 6.55613 12.5732 6.67895 12.6976C6.80177 12.822 6.96906 12.8945 7.14535 12.8997H9.24692C9.40928 12.8997 9.56498 12.9631 9.67979 13.0759C9.79459 13.1888 9.85909 13.3418 9.85909 13.5013C9.85909 13.6609 9.79459 13.8139 9.67979 13.9268C9.56498 14.0396 9.40928 14.103 9.24692 14.103Z" fill="#D0A144"/>
<path d="M22.1782 14.103H12.9498C12.7875 14.103 12.6318 14.0396 12.5169 13.9268C12.4021 13.8139 12.3376 13.6609 12.3376 13.5013C12.3376 13.3418 12.4021 13.1888 12.5169 13.0759C12.6318 12.9631 12.7875 12.8997 12.9498 12.8997H21.5661V11.5671H13.2473C13.085 11.5671 12.9293 11.5037 12.8145 11.3908C12.6997 11.278 12.6352 11.125 12.6352 10.9654C12.6352 10.8058 12.6997 10.6528 12.8145 10.54C12.9293 10.4272 13.085 10.3638 13.2473 10.3638H22.1782C22.3406 10.3638 22.4963 10.4272 22.6111 10.54C22.7259 10.6528 22.7904 10.8058 22.7904 10.9654V13.5013C22.7904 13.6609 22.7259 13.8139 22.6111 13.9268C22.4963 14.0396 22.3406 14.103 22.1782 14.103Z" fill="#D0A144"/>
<path d="M34.9169 14.103H25.8219C25.6595 14.103 25.5038 14.0396 25.389 13.9268C25.2742 13.8139 25.2097 13.6609 25.2097 13.5013V10.9654C25.2097 10.8058 25.2742 10.6528 25.389 10.54C25.5038 10.4272 25.6595 10.3638 25.8219 10.3638H34.6194C34.7817 10.3638 34.9374 10.4272 35.0522 10.54C35.167 10.6528 35.2315 10.8058 35.2315 10.9654C35.2315 11.125 35.167 11.278 35.0522 11.3908C34.9374 11.5037 34.7817 11.5671 34.6194 11.5671H26.4341V12.8997H34.9169C35.0792 12.8997 35.2349 12.9631 35.3497 13.0759C35.4645 13.1888 35.529 13.3418 35.529 13.5013C35.529 13.6609 35.4645 13.8139 35.3497 13.9268C35.2349 14.0396 35.0792 14.103 34.9169 14.103Z" fill="#D0A144"/>
<path d="M40.8487 14.103H38.7533C38.5909 14.103 38.4352 14.0396 38.3204 13.9268C38.2056 13.8139 38.1411 13.6609 38.1411 13.5013C38.1411 13.3418 38.2056 13.1888 38.3204 13.0759C38.4352 12.9631 38.5909 12.8997 38.7533 12.8997H40.8487C41.025 12.8945 41.1923 12.822 41.3151 12.6976C41.4379 12.5732 41.5066 12.4067 41.5066 12.2334C41.5066 12.06 41.4379 11.8935 41.3151 11.7691C41.1923 11.6448 41.025 11.5723 40.8487 11.5671H39.0551C38.8927 11.5671 38.737 11.5037 38.6222 11.3908C38.5074 11.278 38.4429 11.125 38.4429 10.9654C38.4429 10.8058 38.5074 10.6528 38.6222 10.54C38.737 10.4272 38.8927 10.3638 39.0551 10.3638H40.8487C41.3474 10.3726 41.8225 10.5734 42.172 10.9231C42.5214 11.2727 42.7172 11.7433 42.7172 12.2334C42.7172 12.7235 42.5214 13.194 42.172 13.5437C41.8225 13.8934 41.3474 14.0942 40.8487 14.103Z" fill="#D0A144"/>
<path d="M31.7533 41.9618H16.2471C16.1542 41.9617 16.0625 41.9409 15.979 41.9008C15.8955 41.8608 15.8223 41.8026 15.7651 41.7306C15.7079 41.6587 15.6681 41.5749 15.6487 41.4856C15.6293 41.3962 15.6309 41.3038 15.6533 41.2151C15.9057 40.0253 16.5557 38.9526 17.4999 38.1676C18.4441 37.3827 19.6283 36.9306 20.8641 36.8833H27.1363C28.3721 36.9306 29.5563 37.3827 30.5005 38.1676C31.4447 38.9526 32.0947 40.0253 32.3471 41.2151C32.3695 41.3038 32.3711 41.3962 32.3517 41.4856C32.3323 41.5749 32.2925 41.6587 32.2353 41.7306C32.1781 41.8026 32.1049 41.8608 32.0214 41.9008C31.9379 41.9409 31.8462 41.9617 31.7533 41.9618ZM17.0937 40.7585H30.9067C30.6153 39.9983 30.1021 39.3395 29.4314 38.8648C28.7607 38.39 27.9623 38.1203 27.1363 38.0896H20.8641C20.0381 38.1203 19.2397 38.39 18.569 38.8648C17.8983 39.3395 17.3851 39.9983 17.0937 40.7585Z" fill="#D0A144"/>
<path d="M33.4109 41.9621H14.5892C14.4269 41.9621 14.2712 41.8987 14.1563 41.7859C14.0415 41.673 13.9771 41.52 13.9771 41.3604C13.9771 41.2009 14.0415 41.0478 14.1563 40.935C14.2712 40.8222 14.4269 40.7588 14.5892 40.7588H33.4109C33.5733 40.7588 33.729 40.8222 33.8438 40.935C33.9586 41.0478 34.0231 41.2009 34.0231 41.3604C34.0231 41.52 33.9586 41.673 33.8438 41.7859C33.729 41.8987 33.5733 41.9621 33.4109 41.9621Z" fill="#D0A144"/>
<path d="M44.8137 29.1882H28.9947C28.8922 29.1883 28.7914 29.1631 28.7014 29.1149C28.6114 29.0667 28.5351 28.9971 28.4796 28.9124C28.4241 28.8278 28.3911 28.7307 28.3837 28.6303C28.3763 28.5298 28.3946 28.4292 28.437 28.3375L35.1586 13.7933C35.1917 13.7212 35.239 13.6562 35.2977 13.602C35.3564 13.5478 35.4254 13.5055 35.5008 13.4776C35.5761 13.4497 35.6563 13.4367 35.7368 13.4393C35.8173 13.4419 35.8965 13.4601 35.9698 13.4928C36.0431 13.5255 36.1092 13.5722 36.1641 13.63C36.2191 13.6879 36.2619 13.7558 36.2901 13.8299C36.3183 13.9041 36.3313 13.983 36.3285 14.0621C36.3256 14.1412 36.3069 14.2189 36.2734 14.2909L29.9448 27.9849H43.8612L37.5381 14.2909C37.5049 14.2189 37.4865 14.1412 37.4838 14.0622C37.4812 13.9832 37.4944 13.9045 37.5227 13.8305C37.551 13.7566 37.5938 13.6888 37.6488 13.6311C37.7038 13.5734 37.7697 13.5269 37.843 13.4943C37.9162 13.4617 37.9953 13.4435 38.0756 13.4409C38.156 13.4383 38.2361 13.4513 38.3114 13.4791C38.3866 13.507 38.4556 13.5491 38.5143 13.6031C38.573 13.6571 38.6203 13.722 38.6535 13.7939L45.3683 28.3381C45.4105 28.4295 45.4288 28.5299 45.4214 28.63C45.414 28.7301 45.3813 28.8268 45.3262 28.9113C45.271 28.9958 45.1953 29.0654 45.1058 29.1138C45.0163 29.1622 44.9159 29.1877 44.8137 29.1882Z" fill="#D0A144"/>
<path d="M36.967 36.8625H36.8397C31.938 36.8625 28.3801 33.3826 28.3801 28.5875C28.3801 28.4279 28.4446 28.2749 28.5594 28.1621C28.6742 28.0492 28.8299 27.9858 28.9923 27.9858H44.8138C44.9761 27.9858 45.1318 28.0492 45.2466 28.1621C45.3614 28.2749 45.4259 28.4279 45.4259 28.5875C45.4259 33.3856 41.868 36.8625 36.967 36.8625ZM29.6259 29.1891C29.8989 33.0288 32.7877 35.6592 36.8397 35.6592H36.967C41.0183 35.6592 43.9077 33.0288 44.1802 29.1891H29.6259Z" fill="#D0A144"/>
<path d="M36.9033 14.9608C36.3081 14.9609 35.7262 14.7875 35.2312 14.4626C34.7362 14.1376 34.3504 13.6757 34.1225 13.1352C33.8947 12.5948 33.835 12 33.9511 11.4262C34.0672 10.8524 34.3538 10.3254 34.7747 9.9117C35.1957 9.49802 35.7319 9.21632 36.3158 9.10221C36.8996 8.98811 37.5047 9.04673 38.0547 9.27067C38.6046 9.4946 39.0746 9.87379 39.4052 10.3603C39.7358 10.8468 39.9123 11.4187 39.9121 12.0037C39.9112 12.7877 39.5938 13.5393 39.0298 14.0936C38.4658 14.648 37.701 14.9598 36.9033 14.9608ZM36.9033 10.2493C36.5503 10.2492 36.2051 10.352 35.9114 10.5447C35.6178 10.7374 35.3889 11.0113 35.2537 11.3319C35.1185 11.6525 35.0831 12.0052 35.1519 12.3456C35.2207 12.686 35.3906 12.9986 35.6403 13.244C35.8899 13.4895 36.208 13.6566 36.5542 13.7243C36.9005 13.7921 37.2595 13.7574 37.5857 13.6246C37.9119 13.4918 38.1907 13.267 38.3869 12.9785C38.5831 12.6899 38.6878 12.3507 38.6878 12.0037C38.6873 11.5387 38.4992 11.0928 38.1646 10.7639C37.8301 10.435 37.3765 10.2499 36.9033 10.2493Z" fill="#D0A144"/>
<path d="M19.0048 29.1885H3.1864C3.08397 29.1885 2.98319 29.1632 2.89329 29.115C2.80338 29.0667 2.72722 28.9971 2.67179 28.9124C2.61636 28.8278 2.58343 28.7308 2.57601 28.6304C2.56859 28.53 2.58692 28.4294 2.62933 28.3378L9.35215 13.7936C9.41929 13.6482 9.54243 13.535 9.69449 13.4789C9.84654 13.4228 10.0151 13.4283 10.163 13.4943C10.3109 13.5603 10.4261 13.6813 10.4832 13.8307C10.5403 13.9802 10.5347 14.1458 10.4675 14.2912L4.13893 27.9852H18.0553L11.7323 14.2912C11.6971 14.219 11.677 14.1406 11.673 14.0606C11.6691 13.9807 11.6814 13.9008 11.7093 13.8255C11.7371 13.7503 11.78 13.6813 11.8353 13.6226C11.8907 13.5639 11.9574 13.5166 12.0316 13.4835C12.1057 13.4505 12.1859 13.4323 12.2673 13.43C12.3487 13.4278 12.4298 13.4416 12.5057 13.4705C12.5817 13.4994 12.651 13.543 12.7096 13.5985C12.7682 13.6541 12.8149 13.7207 12.847 13.7942L19.5625 28.3384C19.6048 28.43 19.623 28.5306 19.6155 28.631C19.608 28.7314 19.575 28.8283 19.5195 28.9129C19.464 28.9974 19.3878 29.067 19.2979 29.1151C19.208 29.1633 19.1072 29.1885 19.0048 29.1885Z" fill="#D0A144"/>
<path d="M11.1605 36.8625H11.0332C6.13214 36.8625 2.57422 33.3856 2.57422 28.5875C2.57422 28.4279 2.63871 28.2749 2.75352 28.1621C2.86832 28.0492 3.02403 27.9858 3.18639 27.9858H19.0079C19.1702 27.9858 19.3259 28.0492 19.4407 28.1621C19.5555 28.2749 19.62 28.4279 19.62 28.5875C19.62 33.3856 16.0621 36.8625 11.1605 36.8625ZM3.81998 29.1891C4.09239 33.0288 6.98183 35.6592 11.0332 35.6592H11.1605C15.2124 35.6592 18.1012 33.0288 18.3743 29.1891H3.81998Z" fill="#D0A144"/>
<path d="M11.0968 14.9608C10.5016 14.9608 9.91972 14.7873 9.42481 14.4623C8.92991 14.1373 8.54418 13.6753 8.31642 13.1348C8.08867 12.5943 8.0291 11.9996 8.14527 11.4259C8.26144 10.8521 8.54812 10.3251 8.96906 9.91149C9.38999 9.49787 9.92628 9.21622 10.5101 9.10217C11.0939 8.98811 11.699 9.04677 12.2489 9.27072C12.7988 9.49468 13.2688 9.87386 13.5994 10.3603C13.93 10.8468 14.1064 11.4187 14.1062 12.0037C14.1053 12.7878 13.7879 13.5395 13.2237 14.0938C12.6595 14.6482 11.8946 14.96 11.0968 14.9608ZM11.0968 10.2493C10.7438 10.2493 10.3986 10.3522 10.1051 10.545C9.81153 10.7377 9.58273 11.0117 9.44762 11.3323C9.31251 11.6529 9.27716 12.0056 9.34604 12.346C9.41492 12.6863 9.58493 12.9989 9.83458 13.2442C10.0842 13.4896 10.4023 13.6567 10.7486 13.7244C11.0948 13.7921 11.4538 13.7573 11.7799 13.6246C12.1061 13.4918 12.3849 13.2669 12.5811 12.9784C12.7772 12.6899 12.8819 12.3507 12.8819 12.0037C12.8814 11.5386 12.6932 11.0926 12.3585 10.7637C12.0239 10.4348 11.5701 10.2498 11.0968 10.2493Z" fill="#D0A144"/>
</g>
<defs>
<clipPath id="clip0_739_1601">
<rect width="43" height="36" fill="white" transform="translate(2.5 6)"/>
</clipPath>
</defs>
</svg>
