<svg width="72" height="72" viewBox="0 0 72 72" fill="none" xmlns="http://www.w3.org/2000/svg">
<path d="M35.8 34.6002C41.2 34.6002 45.4 30.2002 45.4 24.8002C45.4 19.4002 41 15.2002 35.6 15.2002C30.2 15.2002 26 19.6002 26 24.8002C26 30.2002 30.4 34.6002 35.8 34.6002ZM35.6 19.2002C35.8 19.2002 35.8 19.2002 35.6 19.2002C38.8 19.2002 41.4 21.8002 41.4 25.0002C41.4 28.2002 38.8 30.6002 35.6 30.6002C32.4 30.6002 30 28.0002 30 25.0002C30 21.8002 32.6 19.2002 35.6 19.2002Z" fill="#041851"/>
<path d="M65.4 33.3998C61.6 29.9998 56.6 28.1998 51.4 28.3998H49.8C49.4 29.9998 48.8 31.3998 48 32.5998C49.2 32.3998 50.2 32.3998 51.4 32.3998C55.2 32.1998 59 33.3998 62 35.5998V49.9998H66V33.9998L65.4 33.3998Z" fill="#041851"/>
<path d="M46.8 15.5996C47.8 13.1996 50.6 11.9996 53.2 12.9996C55.6 13.9996 56.8 16.7996 55.8 19.3996C55 21.1996 53.2 22.3996 51.4 22.3996C51 22.3996 50.4 22.3996 50 22.1996C50.2 23.1996 50.2 24.1996 50.2 24.9996V26.1996C50.6 26.1996 51 26.3996 51.4 26.3996C56.4 26.3996 60.4 22.3996 60.4 17.5996C60.4 12.5996 56.4 8.59961 51.6 8.59961C48.4 8.59961 45.6 10.1996 44 12.9996C45 13.5996 46 14.3996 46.8 15.5996Z" fill="#041851"/>
<path d="M24 32.8C23.2 31.6 22.6 30.2 22.2 28.6H20.6C15.4 28.4 10.4 30.2 6.6 33.4L6 34V50H10V35.6C13.2 33.4 16.8 32.2 20.6 32.4C21.8 32.4 23 32.6 24 32.8Z" fill="#041851"/>
<path d="M20.6 26.2003C21 26.2003 21.4 26.2003 21.8 26.0003V24.8003C21.8 23.8003 21.8 22.8003 22 22.0003C21.6 22.2003 21 22.2003 20.6 22.2003C18 22.2003 15.8 20.0003 15.8 17.4003C15.8 14.8003 18 12.6003 20.6 12.6003C22.6 12.6003 24.4 13.8003 25.2 15.6003C26 14.6003 27.2 13.6003 28.2 12.8003C25.6 8.60032 20.2 7.20032 16 9.80032C11.8 12.4003 10.4 17.8003 13 22.0003C14.6 24.6003 17.4 26.2003 20.6 26.2003Z" fill="#041851"/>
<path d="M52.2 45.4L51.8 44.8C47.8 40.4 42.2 37.8 36.2 38C30.2 37.8 24.4 40.4 20.4 44.8L20 45.4V60.6C20 62.4 21.4 64 23.4 64H49C50.8 64 52.4 62.4 52.4 60.6V45.4H52.2ZM48.2 60H24V46.8C27.2 43.6 31.6 42 36.2 42C40.6 41.8 45 43.6 48.2 46.8V60Z" fill="#041851"/>
</svg>
