<svg width="66" height="63" viewBox="0 0 66 63" fill="none" xmlns="http://www.w3.org/2000/svg">
<g opacity="0.3">
<path d="M38.8773 63C53.8568 63 66 51.4259 66 37.1487C66 22.8714 53.8568 11.2974 38.8773 11.2974C23.8979 11.2974 11.7546 22.8714 11.7546 37.1487C11.7546 51.4259 23.8979 63 38.8773 63Z" fill="#FDC041"/>
<path d="M29.1227 53.7026C44.1021 53.7026 56.2454 42.1286 56.2454 27.8513C56.2454 13.574 44.1021 2 29.1227 2C14.1432 2 2 13.574 2 27.8513C2 42.1286 14.1432 53.7026 29.1227 53.7026Z" stroke="#041851" stroke-width="3" stroke-miterlimit="10" stroke-linecap="round" stroke-linejoin="round"/>
<path d="M29.1226 40.3236C36.3495 40.3236 42.2081 34.7397 42.2081 27.8515C42.2081 20.9634 36.3495 15.3794 29.1226 15.3794C21.8957 15.3794 16.0371 20.9634 16.0371 27.8515C16.0371 34.7397 21.8957 40.3236 29.1226 40.3236Z" stroke="#041851" stroke-width="3" stroke-miterlimit="10" stroke-linecap="round" stroke-linejoin="round"/>
</g>
</svg>
