<svg width="72" height="73" viewBox="0 0 72 73" fill="none" xmlns="http://www.w3.org/2000/svg">
<path d="M35.8 34.9986C41.2 34.9986 45.4 30.5986 45.4 25.1986C45.4 19.7986 41 15.5986 35.6 15.5986C30.2 15.5986 26 19.9986 26 25.1986C26 30.5986 30.4 34.9986 35.8 34.9986ZM35.6 19.5986C35.8 19.5986 35.8 19.5986 35.6 19.5986C38.8 19.5986 41.4 22.1986 41.4 25.3986C41.4 28.5986 38.8 30.9986 35.6 30.9986C32.4 30.9986 30 28.3986 30 25.3986C30 22.1986 32.6 19.5986 35.6 19.5986Z" fill="#000086"/>
<path d="M65.4 33.7983C61.6 30.3983 56.6 28.5983 51.4 28.7983H49.8C49.4 30.3983 48.8 31.7983 48 32.9983C49.2 32.7983 50.2 32.7983 51.4 32.7983C55.2 32.5983 59 33.7983 62 35.9983V50.3983H66V34.3983L65.4 33.7983Z" fill="#000086"/>
<path d="M46.8 15.998C47.8 13.598 50.6 12.398 53.2 13.398C55.6 14.398 56.8 17.198 55.8 19.798C55 21.598 53.2 22.798 51.4 22.798C51 22.798 50.4 22.7981 50 22.5981C50.2 23.5981 50.2 24.5981 50.2 25.3981V26.5981C50.6 26.5981 51 26.798 51.4 26.798C56.4 26.798 60.4 22.798 60.4 17.998C60.4 12.998 56.4 8.99805 51.6 8.99805C48.4 8.99805 45.6 10.598 44 13.398C45 13.998 46 14.798 46.8 15.998Z" fill="#000086"/>
<path d="M24 33.1985C23.2 31.9985 22.6 30.5985 22.2 28.9985H20.6C15.4 28.7985 10.4 30.5985 6.6 33.7985L6 34.3985V50.3985H10V35.9985C13.2 33.7985 16.8 32.5985 20.6 32.7985C21.8 32.7985 23 32.9985 24 33.1985Z" fill="#000086"/>
<path d="M20.6 26.5988C21 26.5988 21.4 26.5988 21.8 26.3988V25.1988C21.8 24.1988 21.8 23.1988 22 22.3988C21.6 22.5988 21 22.5988 20.6 22.5988C18 22.5988 15.8 20.3988 15.8 17.7988C15.8 15.1988 18 12.9988 20.6 12.9988C22.6 12.9988 24.4 14.1988 25.2 15.9988C26 14.9988 27.2 13.9988 28.2 13.1988C25.6 8.99876 20.2 7.59876 16 10.1988C11.8 12.7988 10.4 18.1988 13 22.3988C14.6 24.9988 17.4 26.5988 20.6 26.5988Z" fill="#000086"/>
<path d="M52.2 45.7985L51.8 45.1985C47.8 40.7985 42.2 38.1985 36.2 38.3985C30.2 38.1985 24.4 40.7985 20.4 45.1985L20 45.7985V60.9985C20 62.7985 21.4 64.3985 23.4 64.3985H49C50.8 64.3985 52.4 62.7985 52.4 60.9985V45.7985H52.2ZM48.2 60.3985H24V47.1985C27.2 43.9985 31.6 42.3985 36.2 42.3985C40.6 42.1985 45 43.9985 48.2 47.1985V60.3985Z" fill="#000086"/>
</svg>
