<svg width="20" height="24" viewBox="0 0 20 24" fill="none" xmlns="http://www.w3.org/2000/svg">
<path d="M16.9513 12.8736H4.7314C4.53724 12.8736 4.37988 13.031 4.37988 13.2251C4.37988 13.4192 4.53729 13.5766 4.7314 13.5766H16.9513C17.1455 13.5766 17.3029 13.4192 17.3029 13.2251C17.3029 13.031 17.1454 12.8736 16.9513 12.8736Z" fill="#000086"/>
<path d="M16.9513 15.1388H4.7314C4.53724 15.1388 4.37988 15.2962 4.37988 15.4903C4.37988 15.6844 4.53729 15.8418 4.7314 15.8418H16.9513C17.1455 15.8418 17.3029 15.6844 17.3029 15.4903C17.3029 15.2962 17.1454 15.1388 16.9513 15.1388Z" fill="#000086"/>
<path d="M16.9513 17.404H4.7314C4.53724 17.404 4.37988 17.5614 4.37988 17.7556C4.37988 17.9497 4.53729 18.1071 4.7314 18.1071H16.9513C17.1455 18.1071 17.3029 17.9497 17.3029 17.7556C17.3029 17.5614 17.1454 17.404 16.9513 17.404Z" fill="#000086"/>
<path d="M16.9513 19.6693H4.7314C4.53724 19.6693 4.37988 19.8267 4.37988 20.0208C4.37988 20.2149 4.53729 20.3723 4.7314 20.3723H16.9513C17.1455 20.3723 17.3029 20.2149 17.3029 20.0208C17.3029 19.8267 17.1454 19.6693 16.9513 19.6693Z" fill="#000086"/>
<path d="M16.9512 8.23602H12.4609C12.2667 8.23602 12.1094 8.39343 12.1094 8.58754C12.1094 8.78165 12.2668 8.93905 12.4609 8.93905H16.9512C17.1453 8.93905 17.3027 8.78165 17.3027 8.58754C17.3027 8.39343 17.1453 8.23602 16.9512 8.23602Z" fill="#000086"/>
<path d="M16.9512 6.37781H12.4609C12.2667 6.37781 12.1094 6.53521 12.1094 6.72932C12.1094 6.92343 12.2668 7.08084 12.4609 7.08084H16.9512C17.1453 7.08084 17.3027 6.92343 17.3027 6.72932C17.3027 6.53521 17.1453 6.37781 16.9512 6.37781Z" fill="#000086"/>
<path d="M19.3857 19.5506C19.5798 19.5506 19.7372 19.3932 19.7372 19.1991V3.4335C19.7372 2.67122 19.117 2.05106 18.3548 2.05106H17.6861V1.38244C17.6862 0.620156 17.066 0 16.3037 0H1.64513C0.882852 0 0.262695 0.620156 0.262695 1.38244V20.5665C0.262695 21.3288 0.882852 21.9489 1.64513 21.9489H2.31371V22.6175C2.31371 23.3798 2.93387 24 3.69615 24H18.3547C19.117 24 19.7371 23.3798 19.7371 22.6175V20.8425C19.7371 20.6483 19.5797 20.491 19.3856 20.491C19.1915 20.491 19.0341 20.6484 19.0341 20.8425V22.6176C19.0341 22.9922 18.7293 23.2969 18.3548 23.2969H3.6962C3.32157 23.2969 3.01684 22.9922 3.01684 22.6176V3.4335C3.01684 3.05888 3.32162 2.75414 3.6962 2.75414H18.3548C18.7294 2.75414 19.0341 3.05892 19.0341 3.4335V19.1991C19.0341 19.3932 19.1915 19.5506 19.3857 19.5506ZM2.31371 3.4335V21.2459H1.64513C1.27051 21.2459 0.965773 20.9411 0.965773 20.5665V1.38244C0.965773 1.00781 1.27055 0.703078 1.64513 0.703078H16.3037C16.6784 0.703078 16.9831 1.00786 16.9831 1.38244V2.05102H3.6962C2.93391 2.05106 2.31371 2.67122 2.31371 3.4335Z" fill="#000086"/>
<path d="M4.70312 6.94458C4.50897 6.94458 4.35161 7.10198 4.35161 7.29609V9.95095C4.35161 10.5023 4.76378 10.9616 5.31095 11.0209C5.44356 11.0354 9.23242 11.0214 9.23805 11.0214C9.23931 11.0213 9.24062 11.0211 9.24189 11.021C9.78934 10.9619 10.2017 10.5024 10.2017 9.95095V5.36597C10.2017 4.77249 9.71894 4.28967 9.12545 4.28967H5.42786C4.83437 4.28967 4.35156 4.77249 4.35156 5.36597V5.64117C4.35156 5.83533 4.50897 5.99269 4.70308 5.99269C4.89719 5.99269 5.05459 5.83528 5.05459 5.64117V5.36597C5.05459 5.16019 5.22203 4.99275 5.42781 4.99275H9.12541C9.33119 4.99275 9.49862 5.16014 9.49862 5.36597V8.96499C9.23003 8.6805 8.90795 8.44894 8.548 8.28488C8.69889 8.04717 8.78256 7.76869 8.78256 7.47825C8.78256 6.64791 8.107 5.97234 7.27661 5.97234C6.44627 5.97234 5.7707 6.64791 5.7707 7.47825C5.7707 7.76874 5.85437 8.04717 6.00527 8.28488C5.64527 8.44894 5.32319 8.6805 5.05459 8.96503V7.29609C5.05464 7.10194 4.89728 6.94458 4.70312 6.94458ZM7.27666 6.67538C7.71939 6.67538 8.07953 7.03552 8.07953 7.47825C8.07953 7.74642 7.94631 7.99589 7.72323 8.14561C7.59109 8.23425 7.43669 8.28113 7.27666 8.28113C7.11662 8.28113 6.96222 8.2343 6.83012 8.14561C6.607 7.99589 6.47383 7.74642 6.47383 7.47825C6.47383 7.03552 6.83397 6.67538 7.27666 6.67538ZM6.58577 8.81545C6.79848 8.92561 7.03403 8.98416 7.27666 8.98416C7.51923 8.98416 7.75478 8.92561 7.96755 8.81545C8.63303 9.01889 9.17158 9.50484 9.44336 10.1471C9.38472 10.2425 9.28417 10.3095 9.16539 10.322C9.1427 10.3234 5.44942 10.3272 5.39598 10.3228L5.3883 10.3221C5.38811 10.3221 5.38792 10.322 5.38773 10.322C5.269 10.3095 5.16855 10.2424 5.10991 10.1471C5.38173 9.50484 5.92028 9.01889 6.58577 8.81545Z" fill="#000086"/>
</svg>
