<svg width="48" height="48" viewBox="0 0 48 48" fill="none" xmlns="http://www.w3.org/2000/svg">
<g clip-path="url(#clip0_739_1581)">
<path d="M12.6214 16.9828C12.2862 16.6477 11.7414 16.6477 11.4063 16.9828C11.0703 17.3188 11.0703 17.8628 11.4063 18.198C11.7415 18.534 12.2863 18.534 12.6214 18.198C12.9573 17.8628 12.9573 17.3188 12.6214 16.9828Z" fill="#D0A144"/>
<path d="M24.2593 40.4759C24.6382 39.9627 24.843 39.3444 24.843 38.6942C24.843 37.0358 23.4938 35.6865 21.8353 35.6865H7.22639C6.42262 35.6865 5.66731 35.9993 5.09952 36.5673C4.53148 37.1352 4.21866 37.8905 4.21866 38.6942C4.21866 39.3602 4.4366 39.976 4.80433 40.4749C3.43595 41.1943 2.5 42.6295 2.5 44.2799V45.1393C2.5 45.6139 2.88483 45.9987 3.35938 45.9987H25.7023C26.1768 45.9987 26.5616 45.6139 26.5616 45.1393V44.2799C26.5616 42.6303 25.6266 41.1957 24.2593 40.4759ZM6.31477 37.7825C6.55805 37.5391 6.88187 37.4051 7.22639 37.4051H21.8353C22.546 37.4051 23.1242 37.9834 23.1242 38.6941C23.1242 39.0387 22.9902 39.3624 22.7468 39.6058C22.5035 39.8492 22.1797 39.9831 21.8352 39.9831H7.22639C6.5156 39.9831 5.93741 39.4049 5.93741 38.6942C5.93741 38.3496 6.07139 38.0258 6.31477 37.7825ZM4.21866 44.2799C4.21866 42.8584 5.37521 41.7019 6.7967 41.7019H7.22639H21.8353H22.2649C23.6864 41.7019 24.843 42.8584 24.843 44.2799H4.21866Z" fill="#D0A144"/>
<path d="M45.7001 38.1043C45.4082 37.652 45.06 37.2521 44.665 36.9155L40.6495 33.4133C40.6183 33.3662 40.582 33.3216 40.5405 33.28C40.4707 33.2104 40.3916 33.156 40.3076 33.1152L37.8793 30.9973L26.6395 21.1926C27.0996 20.7116 27.3529 20.0826 27.3529 19.4138C27.3529 18.7247 27.0847 18.0772 26.5972 17.5897C26.3846 17.3774 26.1429 17.2104 25.8847 17.0881L26.9245 16.0483C27.2152 16.1255 27.5138 16.1651 27.8127 16.1651C28.6928 16.165 29.573 15.83 30.2429 15.16C30.8925 14.5106 31.2501 13.6474 31.2501 12.7293C31.2501 11.8112 30.8925 10.948 30.243 10.2986L22.9514 3.0071C22.302 2.35767 21.4386 2 20.5203 2C19.6024 2 18.7393 2.35767 18.09 3.0071C17.1925 3.90463 16.897 5.179 17.2017 6.32558L6.82694 16.7003C6.54026 16.6241 6.24197 16.5839 5.93723 16.5839C5.01873 16.5839 4.15583 16.9413 3.50692 17.5901C2.16664 18.9304 2.16664 21.1112 3.50692 22.4516L10.7985 29.7432C11.4687 30.4133 12.3489 30.7484 13.2292 30.7484C14.1095 30.7484 14.9898 30.4133 15.66 29.7432C16.5576 28.8456 16.853 27.5713 16.5483 26.4247L17.586 25.3869C17.7107 25.6473 17.8799 25.8876 18.0901 26.0977C18.577 26.5847 19.2244 26.8529 19.9132 26.8529C20.5814 26.8529 21.2101 26.6 21.6918 26.1404L33.6634 39.895C33.6964 39.9466 33.7349 39.9956 33.78 40.0407C33.7953 40.056 33.8117 40.0701 33.8279 40.084L37.3953 44.1827C37.4839 44.2873 37.5787 44.3903 37.6771 44.4887C38.6569 45.4681 39.951 45.9997 41.3097 45.9997C41.5492 45.9997 41.791 45.9832 42.033 45.9496C43.6512 45.7257 45.0496 44.7577 45.8696 43.2935C46.7679 41.6888 46.7011 39.6515 45.7001 38.1043ZM19.3054 4.22243C19.6302 3.89767 20.0617 3.71875 20.5204 3.71875C20.9796 3.71875 21.4115 3.89767 21.7362 4.22243L29.0278 11.514C29.3525 11.8387 29.5314 12.2704 29.5314 12.7294C29.5314 13.1884 29.3525 13.62 29.0277 13.9448C28.3578 14.6149 27.2676 14.6149 26.5977 13.9448L19.3058 6.65291C19.3057 6.65274 19.3056 6.65266 19.3054 6.65248C18.6354 5.98252 18.6354 4.8924 19.3054 4.22243ZM14.4447 28.5279C13.7746 29.198 12.6839 29.1981 12.0138 28.5279L4.72225 21.2363C4.05202 20.5661 4.05202 19.4757 4.72225 18.8054C5.0464 18.4812 5.47798 18.3026 5.93723 18.3026C6.3964 18.3026 6.82772 18.4811 7.15179 18.8051L14.4446 26.0979C15.1148 26.7678 15.1148 27.858 14.4447 28.5279ZM18.0628 22.4796L15.6599 24.8826L8.36763 17.5903L18.09 7.86773L25.3822 15.16L22.9749 17.5674C22.9671 17.5748 22.9595 17.582 22.9512 17.5902L18.0925 22.449C18.0824 22.4589 18.0727 22.4692 18.0628 22.4796ZM21.1313 24.2723C21.1296 24.2741 21.128 24.2757 21.1263 24.2774L20.5211 24.8826C20.3587 25.0448 20.143 25.1342 19.9132 25.1342C19.6835 25.1342 19.4676 25.0448 19.3053 24.8825C19.1428 24.7201 19.0534 24.504 19.0534 24.2741C19.0534 24.0492 19.1392 23.8375 19.295 23.6778L24.1763 18.7965C24.5109 18.4711 25.0518 18.4752 25.3824 18.8054C25.5448 18.9678 25.6343 19.1839 25.6343 19.4138C25.6343 19.6435 25.5451 19.8589 25.3823 20.0213L24.7807 20.6229C24.7765 20.627 24.7724 20.6311 24.7684 20.6352L21.1313 24.2723ZM22.9109 24.9233L25.4225 22.4117L36.0566 31.6874L32.1762 35.5679L22.9109 24.9233ZM33.3072 36.8674L37.3548 32.8198L38.653 33.9522L34.4382 38.1671L33.3072 36.8674ZM44.3701 42.4539C43.8155 43.4441 42.8778 44.0977 41.7975 44.2472C40.7197 44.3964 39.6607 44.0414 38.8922 43.2733C38.8261 43.2073 38.7629 43.1385 38.7039 43.0687C38.7012 43.0654 38.6984 43.0621 38.6956 43.059L35.5692 39.4666L39.9512 35.0845L43.5391 38.2141C43.5418 38.2165 43.5445 38.2188 43.5474 38.2212C43.8159 38.4495 44.0542 38.7238 44.2564 39.0371C44.9063 40.0413 44.9518 41.4145 44.3701 42.4539Z" fill="#D0A144"/>
<path d="M18.6979 10.906C18.3622 10.5704 17.8182 10.5704 17.4826 10.906L13.8364 14.5521C13.5008 14.8877 13.5008 15.4319 13.8364 15.7674C14.0042 15.9352 14.2242 16.0191 14.4441 16.0191C14.664 16.0191 14.8839 15.9351 15.0517 15.7674L18.6979 12.1212C19.0335 11.7857 19.0335 11.2417 18.6979 10.906Z" fill="#D0A144"/>
</g>
<defs>
<clipPath id="clip0_739_1581">
<rect width="44" height="44" fill="white" transform="translate(2.5 2)"/>
</clipPath>
</defs>
</svg>
