<svg width="148" height="90" viewBox="0 0 148 90" fill="none" xmlns="http://www.w3.org/2000/svg">
<g clip-path="url(#clip0_447_2073)">
<path d="M145.376 90.0001C146.825 90.0001 148 88.83 148 87.3865C148 85.9431 146.825 84.7729 145.376 84.7729C143.926 84.7729 142.751 85.9431 142.751 87.3865C142.751 88.83 143.926 90.0001 145.376 90.0001Z" fill="#000086"/>
<path d="M121.579 90.0001C123.028 90.0001 124.203 88.83 124.203 87.3865C124.203 85.9431 123.028 84.7729 121.579 84.7729C120.129 84.7729 118.955 85.9431 118.955 87.3865C118.955 88.83 120.129 90.0001 121.579 90.0001Z" fill="#000086"/>
<path d="M97.792 89.9999C98.3134 90.0018 98.8236 89.8497 99.2581 89.5626C99.6926 89.2755 100.032 88.8664 100.233 88.3872C100.434 87.908 100.487 87.3803 100.387 86.8707C100.286 86.3611 100.036 85.8928 99.6681 85.5249C99.3001 85.157 98.8308 84.9061 98.3195 84.8041C97.8083 84.702 97.2781 84.7534 96.7962 84.9517C96.3143 85.15 95.9023 85.4862 95.6124 85.9179C95.3226 86.3495 95.1677 86.8571 95.1677 87.3764C95.1677 88.0705 95.444 88.7363 95.9358 89.228C96.4277 89.7197 97.0951 89.9973 97.792 89.9999Z" fill="#000086"/>
<path d="M74.005 89.9999C74.526 89.9999 75.0353 89.846 75.4685 89.5578C75.9017 89.2695 76.2393 88.8598 76.4386 88.3804C76.638 87.901 76.6901 87.3735 76.5885 86.8646C76.4869 86.3557 76.236 85.8883 75.8676 85.5214C75.4992 85.1545 75.0299 84.9046 74.5189 84.8033C74.0079 84.7021 73.4783 84.7541 72.9969 84.9526C72.5156 85.1512 72.1043 85.4875 71.8148 85.9189C71.5254 86.3503 71.3708 86.8575 71.3708 87.3764C71.3708 87.7209 71.4389 88.0621 71.5713 88.3804C71.7037 88.6987 71.8977 88.9879 72.1423 89.2315C72.3869 89.4751 72.6773 89.6684 72.9969 89.8002C73.3165 89.9321 73.6591 89.9999 74.005 89.9999Z" fill="#000086"/>
<path d="M50.208 90.0001C51.6573 90.0001 52.8322 88.83 52.8322 87.3865C52.8322 85.9431 51.6573 84.7729 50.208 84.7729C48.7586 84.7729 47.5837 85.9431 47.5837 87.3865C47.5837 88.83 48.7586 90.0001 50.208 90.0001Z" fill="#000086"/>
<path d="M27.4253 89.6887C28.7658 89.1399 29.4056 87.6126 28.8545 86.2776C28.3034 84.9426 26.77 84.3054 25.4295 84.8543C24.0891 85.4032 23.4492 86.9303 24.0003 88.2653C24.5514 89.6003 26.0849 90.2376 27.4253 89.6887Z" fill="#000086"/>
<path d="M2.63402 84.8028C2.11219 84.8008 1.6016 84.9533 1.16689 85.2408C0.732188 85.5283 0.393011 85.9379 0.192406 86.4177C-0.00819797 86.8975 -0.0611987 87.4258 0.0401238 87.9356C0.141446 88.4455 0.392503 88.9138 0.761494 89.2813C1.13049 89.6488 1.60072 89.8988 2.11262 89.9997C2.62452 90.1006 3.15505 90.0478 3.63678 89.8481C4.11852 89.6483 4.52983 89.3105 4.81852 88.8776C5.10721 88.4446 5.26022 87.9361 5.25826 87.4163C5.25564 86.724 4.97834 86.0607 4.48677 85.5711C3.9952 85.0815 3.3292 84.8054 2.63402 84.8028Z" fill="#000086"/>
<path d="M145.376 68.8043C146.825 68.8043 148 67.6342 148 66.1907C148 64.7473 146.825 63.5771 145.376 63.5771C143.926 63.5771 142.751 64.7473 142.751 66.1907C142.751 67.6342 143.926 68.8043 145.376 68.8043Z" fill="#000086"/>
<path d="M121.579 68.8043C123.028 68.8043 124.203 67.6342 124.203 66.1907C124.203 64.7473 123.028 63.5771 121.579 63.5771C120.129 63.5771 118.955 64.7473 118.955 66.1907C118.955 67.6342 120.129 68.8043 121.579 68.8043Z" fill="#000086"/>
<path d="M97.792 68.8046C98.3138 68.8065 98.8245 68.6541 99.2592 68.3666C99.6939 68.079 100.033 67.6694 100.234 67.1896C100.434 66.7098 100.487 66.1815 100.386 65.6717C100.285 65.1619 100.034 64.6935 99.6646 64.326C99.2956 63.9585 98.8253 63.7085 98.3134 63.6075C97.8015 63.5066 97.2711 63.5594 96.7893 63.7592C96.3076 63.959 95.8963 64.2968 95.6076 64.7297C95.3189 65.1627 95.1658 65.6713 95.1677 66.191C95.1704 66.8833 95.4478 67.5466 95.9393 68.0362C96.4309 68.5257 97.0968 68.802 97.792 68.8046Z" fill="#000086"/>
<path d="M74.0051 68.8046C74.5265 68.8046 75.0361 68.6504 75.4695 68.3617C75.9029 68.073 76.2406 67.6627 76.4396 67.1827C76.6387 66.7028 76.6902 66.1748 76.5878 65.6656C76.4853 65.1564 76.2335 64.689 75.8641 64.3225C75.4947 63.956 75.0244 63.7069 74.5127 63.6068C74.0011 63.5067 73.4712 63.5601 72.99 63.7602C72.5089 63.9603 72.0982 64.298 71.81 64.7308C71.5218 65.1635 71.3689 65.6717 71.3709 66.191C71.3709 66.535 71.4391 66.8757 71.5716 67.1934C71.7041 67.5112 71.8982 67.7997 72.143 68.0426C72.3877 68.2854 72.6781 68.4777 72.9977 68.6084C73.3172 68.7392 73.6596 68.8059 74.0051 68.8046Z" fill="#000086"/>
<path d="M50.208 68.8043C51.6573 68.8043 52.8322 67.6342 52.8322 66.1907C52.8322 64.7473 51.6573 63.5771 50.208 63.5771C48.7586 63.5771 47.5837 64.7473 47.5837 66.1907C47.5837 67.6342 48.7586 68.8043 50.208 68.8043Z" fill="#000086"/>
<path d="M27.4278 68.5003C28.7682 67.9514 29.4081 66.4242 28.857 65.0892C28.3059 63.7542 26.7724 63.1169 25.432 63.6658C24.0915 64.2147 23.4517 65.7419 24.0028 67.0769C24.5539 68.4119 26.0873 69.0492 27.4278 68.5003Z" fill="#000086"/>
<path d="M2.6342 68.8046C3.15561 68.8046 3.66527 68.6504 4.09866 68.3617C4.53206 68.073 4.8697 67.6627 5.06878 67.1827C5.26786 66.7028 5.31951 66.1748 5.21706 65.6656C5.11461 65.1564 4.86265 64.689 4.49326 64.3225C4.12387 63.956 3.65364 63.7069 3.14201 63.6068C2.63038 63.5067 2.10046 63.5601 1.61931 63.7602C1.13816 63.9603 0.727397 64.298 0.439151 64.7308C0.150904 65.1635 -0.00194883 65.6717 1.87593e-05 66.191C1.62809e-05 66.535 0.0682157 66.8757 0.200716 67.1934C0.333217 67.5112 0.527495 67.7997 0.772231 68.0426C1.01697 68.2854 1.30742 68.4777 1.62695 68.6084C1.94649 68.7392 2.28875 68.8059 2.6342 68.8046Z" fill="#000086"/>
<path d="M145.376 47.6085C146.825 47.6085 148 46.4384 148 44.9949C148 43.5515 146.825 42.3813 145.376 42.3813C143.926 42.3813 142.751 43.5515 142.751 44.9949C142.751 46.4384 143.926 47.6085 145.376 47.6085Z" fill="#000086"/>
<path d="M121.579 47.6085C123.028 47.6085 124.203 46.4384 124.203 44.9949C124.203 43.5515 123.028 42.3813 121.579 42.3813C120.129 42.3813 118.955 43.5515 118.955 44.9949C118.955 46.4384 120.129 47.6085 121.579 47.6085Z" fill="#000086"/>
<path d="M97.792 47.6185C98.3134 47.6205 98.8236 47.4683 99.2581 47.1812C99.6926 46.8942 100.032 46.4851 100.233 46.0059C100.434 45.5267 100.487 44.9989 100.387 44.4893C100.286 43.9798 100.036 43.5114 99.6681 43.1435C99.3001 42.7756 98.8308 42.5248 98.3195 42.4227C97.8083 42.3207 97.2781 42.3721 96.7962 42.5703C96.3143 42.7686 95.9023 43.1049 95.6124 43.5365C95.3226 43.9682 95.1677 44.4757 95.1677 44.995C95.1677 45.6891 95.444 46.3549 95.9358 46.8466C96.4277 47.3383 97.0951 47.6159 97.792 47.6185Z" fill="#000086"/>
<path d="M74.005 47.6185C74.526 47.6185 75.0353 47.4647 75.4685 47.1764C75.9017 46.8881 76.2393 46.4784 76.4386 45.999C76.638 45.5197 76.6901 44.9921 76.5885 44.4832C76.4869 43.9743 76.236 43.5068 75.8676 43.1399C75.4992 42.773 75.0299 42.5232 74.5189 42.422C74.0079 42.3208 73.4783 42.3727 72.9969 42.5713C72.5156 42.7699 72.1043 43.1061 71.8148 43.5375C71.5254 43.969 71.3708 44.4762 71.3708 44.995C71.3708 45.3396 71.4389 45.6807 71.5713 45.999C71.7037 46.3173 71.8977 46.6065 72.1423 46.8501C72.3869 47.0937 72.6773 47.287 72.9969 47.4188C73.3165 47.5507 73.6591 47.6185 74.005 47.6185Z" fill="#000086"/>
<path d="M50.208 47.6085C51.6573 47.6085 52.8322 46.4384 52.8322 44.9949C52.8322 43.5515 51.6573 42.3813 50.208 42.3813C48.7586 42.3813 47.5837 43.5515 47.5837 44.9949C47.5837 46.4384 48.7586 47.6085 50.208 47.6085Z" fill="#000086"/>
<path d="M27.4263 47.3133C28.7667 46.7644 29.4066 45.2372 28.8555 43.9021C28.3044 42.5671 26.771 41.9299 25.4305 42.4788C24.0901 43.0277 23.4502 44.5548 24.0013 45.8899C24.5524 47.2249 26.0859 47.8621 27.4263 47.3133Z" fill="#000086"/>
<path d="M2.63418 47.6185C3.15517 47.6185 3.66449 47.4647 4.09767 47.1764C4.53086 46.8881 4.86842 46.4784 5.06779 45.999C5.26717 45.5197 5.31941 44.9921 5.21777 44.4832C5.11613 43.9743 4.86528 43.5068 4.49688 43.1399C4.12849 42.773 3.65904 42.5232 3.14806 42.422C2.63708 42.3208 2.10754 42.3727 1.62621 42.5713C1.14488 42.7699 0.733431 43.1061 0.443985 43.5375C0.15454 43.969 0 44.4762 0 44.995C0 45.6908 0.277604 46.3581 0.771605 46.8501C1.26561 47.3421 1.93556 47.6185 2.63418 47.6185Z" fill="#000086"/>
<path d="M145.376 26.4229C146.825 26.4229 148 25.2528 148 23.8094C148 22.3659 146.825 21.1958 145.376 21.1958C143.926 21.1958 142.751 22.3659 142.751 23.8094C142.751 25.2528 143.926 26.4229 145.376 26.4229Z" fill="#000086"/>
<path d="M121.579 26.4229C123.028 26.4229 124.203 25.2528 124.203 23.8094C124.203 22.3659 123.028 21.1958 121.579 21.1958C120.129 21.1958 118.955 22.3659 118.955 23.8094C118.955 25.2528 120.129 26.4229 121.579 26.4229Z" fill="#000086"/>
<path d="M97.792 26.393C98.3138 26.3949 98.8245 26.2425 99.2592 25.9549C99.6939 25.6674 100.033 25.2578 100.234 24.778C100.434 24.2982 100.487 23.7699 100.386 23.2601C100.285 22.7503 100.034 22.2819 99.6646 21.9144C99.2956 21.5469 98.8253 21.2968 98.3134 21.1959C97.8015 21.095 97.2711 21.1478 96.7893 21.3476C96.3076 21.5474 95.8963 21.8852 95.6076 22.3181C95.3189 22.7511 95.1658 23.2597 95.1677 23.7794C95.1704 24.4717 95.4478 25.135 95.9393 25.6246C96.4309 26.1142 97.0968 26.3903 97.792 26.393Z" fill="#000086"/>
<path d="M74.0051 26.393C74.5265 26.3929 75.0361 26.2388 75.4695 25.9501C75.9029 25.6614 76.2406 25.2511 76.4396 24.7712C76.6387 24.2912 76.6902 23.7632 76.5878 23.254C76.4853 22.7449 76.2335 22.2774 75.8641 21.9109C75.4947 21.5444 75.0244 21.2953 74.5127 21.1952C74.0011 21.0951 73.4712 21.1485 72.99 21.3486C72.5089 21.5486 72.0982 21.8864 71.81 22.3192C71.5218 22.7519 71.3689 23.2601 71.3709 23.7794C71.3709 24.1234 71.4391 24.4641 71.5716 24.7819C71.7041 25.0996 71.8982 25.3881 72.143 25.6309C72.3877 25.8738 72.6781 26.0661 72.9977 26.1969C73.3172 26.3276 73.6596 26.3943 74.0051 26.393Z" fill="#000086"/>
<path d="M50.208 26.4229C51.6573 26.4229 52.8322 25.2528 52.8322 23.8094C52.8322 22.3659 51.6573 21.1958 50.208 21.1958C48.7586 21.1958 47.5837 22.3659 47.5837 23.8094C47.5837 25.2528 48.7586 26.4229 50.208 26.4229Z" fill="#000086"/>
<path d="M27.4288 26.1248C28.7692 25.5759 29.4091 24.0487 28.858 22.7137C28.3068 21.3787 26.7734 20.7414 25.433 21.2903C24.0925 21.8392 23.4526 23.3664 24.0038 24.7014C24.5549 26.0364 26.0883 26.6737 27.4288 26.1248Z" fill="#000086"/>
<path d="M2.6342 26.393C3.15561 26.3929 3.66527 26.2388 4.09866 25.9501C4.53206 25.6614 4.8697 25.2511 5.06878 24.7712C5.26786 24.2912 5.31951 23.7632 5.21706 23.254C5.11461 22.7449 4.86265 22.2774 4.49326 21.9109C4.12387 21.5444 3.65364 21.2953 3.14201 21.1952C2.63038 21.0951 2.10046 21.1485 1.61931 21.3486C1.13816 21.5486 0.727397 21.8864 0.439151 22.3192C0.150904 22.7519 -0.00194883 23.2601 1.87593e-05 23.7794C1.62809e-05 24.1234 0.0682157 24.4641 0.200716 24.7819C0.333217 25.0996 0.527495 25.3881 0.772231 25.6309C1.01697 25.8738 1.30742 26.0661 1.62695 26.1969C1.94649 26.3276 2.28875 26.3943 2.6342 26.393Z" fill="#000086"/>
<path d="M145.376 5.22715C146.825 5.22715 148 4.05701 148 2.61357C148 1.17014 146.825 0 145.376 0C143.926 0 142.751 1.17014 142.751 2.61357C142.751 4.05701 143.926 5.22715 145.376 5.22715Z" fill="#000086"/>
<path d="M121.579 5.22715C123.028 5.22715 124.203 4.05701 124.203 2.61357C124.203 1.17014 123.028 0 121.579 0C120.129 0 118.955 1.17014 118.955 2.61357C118.955 4.05701 120.129 5.22715 121.579 5.22715Z" fill="#000086"/>
<path d="M97.792 5.23719C98.3134 5.23915 98.8236 5.08698 99.2581 4.7999C99.6926 4.51282 100.032 4.10373 100.233 3.62453C100.434 3.14533 100.487 2.61756 100.387 2.108C100.286 1.59845 100.036 1.13006 99.6681 0.762173C99.3001 0.394282 98.8308 0.143405 98.3195 0.0413724C97.8083 -0.0606599 97.2781 -0.00928158 96.7962 0.188989C96.3143 0.387259 95.9023 0.723532 95.6124 1.15517C95.3226 1.58681 95.1677 2.0944 95.1677 2.61369C95.1677 3.30777 95.444 3.97356 95.9358 4.46527C96.4277 4.95698 97.0951 5.23457 97.792 5.23719Z" fill="#000086"/>
<path d="M74.005 5.23718C74.526 5.23718 75.0353 5.08333 75.4685 4.79506C75.9017 4.50679 76.2393 4.09707 76.4386 3.61769C76.638 3.13832 76.6901 2.6108 76.5885 2.10189C76.4869 1.59299 76.236 1.1255 75.8676 0.758601C75.4992 0.391701 75.0299 0.141868 74.5189 0.0406404C74.0079 -0.060587 73.4783 -0.00861596 72.9969 0.189949C72.5156 0.388513 72.1043 0.724764 71.8148 1.15619C71.5254 1.58762 71.3708 2.09481 71.3708 2.61368C71.3708 2.9582 71.4389 3.2994 71.5713 3.61769C71.7037 3.93599 71.8977 4.22515 72.1423 4.46877C72.3869 4.71238 72.6773 4.90564 72.9969 5.03748C73.3165 5.16932 73.6591 5.23718 74.005 5.23718Z" fill="#000086"/>
<path d="M50.208 5.22715C51.6573 5.22715 52.8322 4.05701 52.8322 2.61357C52.8322 1.17014 51.6573 0 50.208 0C48.7586 0 47.5837 1.17014 47.5837 2.61357C47.5837 4.05701 48.7586 5.22715 50.208 5.22715Z" fill="#000086"/>
<path d="M27.4273 4.92751C28.7677 4.37862 29.4076 2.85141 28.8565 1.5164C28.3053 0.181402 26.7719 -0.455824 25.4315 0.0930621C24.0911 0.641948 23.4511 2.16911 24.0023 3.50411C24.5534 4.83911 26.0868 5.47639 27.4273 4.92751Z" fill="#000086"/>
<path d="M2.63418 5.23718C3.15517 5.23718 3.66449 5.08333 4.09767 4.79506C4.53086 4.50679 4.86842 4.09707 5.06779 3.61769C5.26717 3.13832 5.31941 2.6108 5.21777 2.10189C5.11613 1.59299 4.86528 1.1255 4.49688 0.758601C4.12849 0.391701 3.65904 0.141868 3.14806 0.0406404C2.63708 -0.060587 2.10754 -0.00861596 1.62621 0.189949C1.14488 0.388513 0.733431 0.724764 0.443985 1.15619C0.15454 1.58762 0 2.09481 0 2.61368C0 3.30947 0.277604 3.97677 0.771605 4.46877C1.26561 4.96076 1.93556 5.23718 2.63418 5.23718Z" fill="#000086"/>
</g>
<defs>
<clipPath id="clip0_447_2073">
<rect width="148" height="90" fill="white"/>
</clipPath>
</defs>
</svg>
