<svg width="51" height="48" viewBox="0 0 51 48" fill="none" xmlns="http://www.w3.org/2000/svg">
<g opacity="0.5">
<path d="M40.8712 42.4962C40.1772 43.0563 39.1656 42.956 38.6054 42.2621C38.0453 41.5765 38.1456 40.5649 38.8312 39.9963C39.5251 39.4362 40.5368 39.5365 41.0969 40.2304C41.5317 40.7655 41.5651 41.4929 41.239 42.0614C41.1471 42.2203 41.0217 42.3708 40.8712 42.4962Z" fill="#000086"/>
<path d="M48.605 22.6734C47.7188 22.7402 46.9412 22.0798 46.866 21.1935C46.7991 20.3073 47.4596 19.5298 48.3458 19.4629C49.2321 19.3876 50.0096 20.0481 50.0849 20.9344C50.11 21.2771 50.0263 21.5948 49.8675 21.8707C49.6083 22.3222 49.1485 22.6316 48.605 22.6734Z" fill="#000086"/>
<path d="M29.9604 47.6549C29.0825 47.8388 28.2381 47.2703 28.0542 46.4008C27.8786 45.5313 28.4388 44.6785 29.3083 44.5029C30.1778 44.3273 31.0306 44.8875 31.2061 45.757C31.2897 46.1583 31.2145 46.5596 31.0222 46.8857C30.8049 47.2703 30.4286 47.5545 29.9604 47.6549Z" fill="#000086"/>
<path d="M45.7709 11.7122C45.01 12.1804 44.0235 11.9546 43.547 11.2022C43.0788 10.4497 43.2961 9.4548 44.0486 8.98661C44.801 8.51005 45.796 8.74415 46.2642 9.48825C46.5986 10.015 46.5902 10.6587 46.2976 11.1604C46.1805 11.3778 45.9966 11.5701 45.7709 11.7122Z" fill="#000086"/>
<path d="M9.72778 41.0828C9.10909 41.7266 8.09748 41.7517 7.45371 41.133C6.80994 40.5143 6.79322 39.4943 7.40355 38.8505C8.02224 38.2068 9.04221 38.19 9.67762 38.8087C10.2211 39.3271 10.3214 40.1464 9.95354 40.7735C9.89501 40.8822 9.81975 40.9825 9.72778 41.0828Z" fill="#000086"/>
<path d="M3.03942 31.9451C2.195 32.221 1.28369 31.7696 1.00779 30.9251C0.72353 30.0807 1.18338 29.1694 2.01945 28.8851C2.86388 28.6092 3.77519 29.0607 4.05945 29.9051C4.20994 30.365 4.14302 30.8332 3.91728 31.2261C3.73335 31.5522 3.42401 31.8114 3.03942 31.9451Z" fill="#000086"/>
<path d="M15.4632 3.059C14.6606 3.44359 13.6991 3.1008 13.3145 2.29818C12.9383 1.49555 13.2811 0.534082 14.0837 0.157853C14.8864 -0.226737 15.8478 0.116052 16.2324 0.918675C16.4749 1.42031 16.4247 1.97212 16.1655 2.42359C16.015 2.69113 15.7725 2.91687 15.4632 3.059Z" fill="#000086"/>
<path d="M1.35033 20.7413C0.472466 20.5992 -0.121111 19.7715 0.0210197 18.8936C0.163151 18.0158 0.990822 17.4221 1.86869 17.5559C2.74656 17.6981 3.34019 18.5258 3.19806 19.4036C3.16461 19.6043 3.09774 19.7882 2.99741 19.9554C2.6797 20.5239 2.03591 20.8584 1.35033 20.7413Z" fill="#000086"/>
<path d="M42.1752 31.7362C41.5064 31.4519 41.197 30.6744 41.4813 30.0055C41.7656 29.3367 42.5431 29.0274 43.212 29.3116C43.8808 29.6042 44.1902 30.3734 43.9059 31.0423C43.8892 31.0924 43.8641 31.1426 43.8306 31.1844C43.5046 31.7613 42.7939 32.0038 42.1752 31.7362Z" fill="#000086"/>
<path d="M37.97 38.9343C37.4015 39.3942 36.5738 39.3105 36.1223 38.742C35.6625 38.1819 35.746 37.3542 36.3062 36.886C36.8747 36.4261 37.7025 36.5097 38.1623 37.0699C38.5218 37.513 38.5469 38.1066 38.2794 38.5665C38.1958 38.7086 38.0954 38.834 37.97 38.9343Z" fill="#000086"/>
<path d="M44.2991 22.7234C43.5717 22.7819 42.9364 22.2385 42.8779 21.5111C42.8193 20.7837 43.3627 20.1567 44.0901 20.0898C44.8091 20.0312 45.4529 20.5747 45.5114 21.3021C45.5281 21.578 45.4613 21.8455 45.3359 22.0712C45.1185 22.4308 44.7422 22.6816 44.2991 22.7234Z" fill="#000086"/>
<path d="M29.041 43.1566C28.3303 43.2987 27.6364 42.8389 27.4943 42.1282C27.3522 41.4176 27.812 40.7236 28.5226 40.5731C29.2333 40.431 29.9273 40.8909 30.0777 41.6015C30.1446 41.9276 30.0861 42.2536 29.9273 42.5212C29.735 42.8472 29.4256 43.0813 29.041 43.1566Z" fill="#000086"/>
<path d="M19.175 42.7637C18.4727 42.563 18.0714 41.8272 18.2804 41.1333C18.4811 40.431 19.2085 40.0297 19.9108 40.2304C20.6047 40.431 21.0144 41.1668 20.8054 41.8691C20.7719 41.9777 20.7301 42.0697 20.6799 42.1617C20.3873 42.6633 19.7686 42.9309 19.175 42.7637Z" fill="#000086"/>
<path d="M33.9653 7.36429C33.9653 7.35593 33.957 7.35594 33.9486 7.34758C33.9319 7.33922 33.9151 7.33921 33.9068 7.33085C33.2713 6.96298 33.0624 6.16036 33.4219 5.52495C33.7897 4.88954 34.5923 4.68052 35.2194 5.04003C35.2361 5.04839 35.2445 5.05675 35.2529 5.06511C35.2612 5.07347 35.2779 5.08184 35.2863 5.08184C35.9217 5.4497 36.1307 6.25232 35.7712 6.87937C35.4033 7.51478 34.5923 7.73216 33.9653 7.36429Z" fill="#000086"/>
<path d="M12.4868 37.7807C11.9852 38.3075 11.1491 38.3242 10.6224 37.8142C10.6224 37.8142 10.6224 37.8142 10.6224 37.8225C10.104 37.3125 10.079 36.4848 10.589 35.9581C11.0906 35.4314 11.9266 35.4147 12.4534 35.9163C12.8965 36.3511 12.9801 37.0116 12.6791 37.5299C12.629 37.6219 12.562 37.7055 12.4868 37.7807Z" fill="#000086"/>
<path d="M25.6298 4.94018C24.9025 4.90674 24.3339 4.30477 24.3674 3.56903C24.4008 2.84166 25.0028 2.27314 25.7385 2.30658C26.4659 2.33166 27.0344 2.95035 27.001 3.67772C26.9926 3.8951 26.9341 4.11248 26.8254 4.28805C26.5829 4.68936 26.1315 4.9569 25.6298 4.94018Z" fill="#000086"/>
<path d="M17.1936 6.67923C16.5331 6.98858 15.7472 6.71268 15.4379 6.05219C15.1285 5.39169 15.4045 4.61415 16.0649 4.29644C16.7171 3.97874 17.503 4.26301 17.8207 4.91514C18.013 5.32481 17.9795 5.78465 17.7705 6.14415C17.6367 6.36989 17.4361 6.55382 17.1936 6.67923Z" fill="#000086"/>
<path d="M5.63951 21.143C4.92049 21.0344 4.43558 20.3488 4.54427 19.6381C4.66132 18.9191 5.33853 18.4258 6.05754 18.5512C6.77656 18.6599 7.26147 19.3455 7.15279 20.0562C7.1277 20.2234 7.06918 20.3739 6.99393 20.5076C6.72639 20.9675 6.19131 21.235 5.63951 21.143Z" fill="#000086"/>
<path d="M10.5223 12.1222C10.0875 12.7074 9.26815 12.8245 8.67454 12.3897C8.0893 11.9549 7.97225 11.1272 8.41536 10.542C8.85012 9.96511 9.67783 9.8397 10.2547 10.2745C10.7982 10.6841 10.9403 11.4199 10.6059 11.9884C10.5808 12.0385 10.5557 12.0887 10.5223 12.1222Z" fill="#000086"/>
<path d="M38.8978 30.0636C38.3544 29.8295 38.1036 29.2025 38.3377 28.6674C38.5718 28.1239 39.1988 27.8731 39.7423 28.1072C40.2773 28.3413 40.5365 28.9684 40.3024 29.5118C40.2857 29.5536 40.2606 29.587 40.2439 29.6289C39.9763 30.0803 39.3995 30.281 38.8978 30.0636Z" fill="#000086"/>
<path d="M35.4955 35.8998C35.0356 36.276 34.3668 36.2008 33.9989 35.7409C33.6227 35.2811 33.6896 34.6122 34.1494 34.236C34.6093 33.8598 35.2781 33.935 35.6543 34.3865C35.947 34.7377 35.9637 35.2226 35.7547 35.5988C35.6794 35.7158 35.5958 35.8162 35.4955 35.8998Z" fill="#000086"/>
<path d="M40.6207 22.7646C40.0271 22.8148 39.5171 22.3717 39.4669 21.7864C39.4251 21.2012 39.8598 20.6828 40.4451 20.6327C41.0387 20.5909 41.5487 21.0256 41.5988 21.6109C41.6156 21.8366 41.5654 22.0456 41.4567 22.2379C41.2895 22.5222 40.9802 22.7395 40.6207 22.7646Z" fill="#000086"/>
<path d="M38.7473 15.4913C38.2457 15.8006 37.5935 15.6585 37.2758 15.1485C36.9665 14.6469 37.117 13.9947 37.6102 13.677C38.1119 13.3677 38.764 13.5098 39.0817 14.0115C39.2991 14.3626 39.2991 14.789 39.0985 15.1234C39.0149 15.2739 38.8978 15.391 38.7473 15.4913Z" fill="#000086"/>
<path d="M20.2707 38.9929C19.7022 38.834 19.3761 38.2404 19.5433 37.6719C19.7105 37.1117 20.3042 36.7857 20.8643 36.9445C21.4329 37.1117 21.7589 37.7053 21.5917 38.2738C21.5666 38.3575 21.5332 38.4411 21.4914 38.5079C21.2489 38.926 20.7473 39.135 20.2707 38.9929Z" fill="#000086"/>
<path d="M46.0125 33.6927C45.2015 33.3415 44.8169 32.3968 45.1681 31.5774C45.5192 30.7581 46.464 30.3819 47.2833 30.733C48.1027 31.0842 48.4789 32.0289 48.1277 32.8483C48.0943 32.9151 48.0692 32.9737 48.0358 33.0238C47.6345 33.7178 46.765 34.0187 46.0125 33.6927Z" fill="#FDC041"/>
<path d="M17.896 47.1701C17.0432 46.9192 16.5499 46.0246 16.8007 45.1719C17.0432 44.3191 17.9377 43.8258 18.7989 44.0766C19.6517 44.3191 20.1366 45.222 19.8942 46.0748C19.8607 46.2002 19.8022 46.3256 19.7353 46.4343C19.3758 47.053 18.6234 47.3791 17.896 47.1701Z" fill="#FDC041"/>
<path d="M35.1547 4.96277C35.138 4.95441 35.1296 4.94605 35.1212 4.93769C35.1045 4.92933 35.0962 4.92097 35.0878 4.91261C34.3103 4.46949 34.0511 3.48293 34.4942 2.71375C34.9373 1.93621 35.9239 1.67704 36.6847 2.12015C36.7014 2.12851 36.7181 2.13687 36.7349 2.14523C36.7516 2.15359 36.7599 2.16195 36.7767 2.17031C37.5458 2.61343 37.805 3.59999 37.3619 4.36917C36.9104 5.14671 35.9239 5.40588 35.1547 4.96277Z" fill="#FDC041"/>
<path d="M20.7767 5.12431C19.8904 5.09087 19.2048 4.33841 19.2299 3.45218C19.2634 2.56595 20.0075 1.87201 20.8937 1.90546C21.7883 1.9389 22.4739 2.683 22.4404 3.57759C22.4321 3.85349 22.3485 4.10431 22.223 4.32168C21.9471 4.81496 21.3954 5.14103 20.7767 5.12431Z" fill="#FDC041"/>
<path d="M7.31939 6.98748C6.79267 7.69813 5.78102 7.84026 5.06201 7.31354C4.35135 6.78682 4.20926 5.76683 4.73598 5.05617C5.27106 4.34552 6.2743 4.20338 6.99331 4.73011C7.6538 5.22338 7.82939 6.12633 7.41971 6.82027C7.39463 6.87879 7.36119 6.92895 7.31939 6.98748Z" fill="#FDC041"/>
<path d="M41.9831 13.7526C41.3644 14.1372 40.5451 13.9533 40.1605 13.3346C39.7759 12.7159 39.9598 11.9049 40.5701 11.5203C41.1888 11.1357 41.9998 11.3197 42.3844 11.93C42.6519 12.3648 42.652 12.8831 42.4095 13.2928C42.3175 13.4767 42.167 13.6356 41.9831 13.7526Z" fill="#FDC041"/>
<path d="M7.01864 30.3067C6.33307 30.5408 5.58062 30.1646 5.35488 29.4706C5.12078 28.7851 5.48864 28.0326 6.18258 27.8069C6.87651 27.5728 7.62061 27.949 7.85471 28.6429C7.98012 29.0192 7.92158 29.4121 7.73765 29.7215C7.58715 29.989 7.33635 30.198 7.01864 30.3067Z" fill="#FDC041"/>
<path d="M28.2631 39.3194C27.6862 39.4364 27.1261 39.0686 27.009 38.4917C26.892 37.9148 27.2599 37.3463 27.8368 37.2292C28.4136 37.1122 28.9821 37.48 29.0992 38.0569C29.1493 38.3245 29.0992 38.5837 28.9738 38.801C28.8233 39.0602 28.5724 39.2609 28.2631 39.3194Z" fill="#FDC041"/>
<path d="M32.2511 10.3162C32.2428 10.3078 32.2345 10.3078 32.2261 10.2994C32.2177 10.2994 32.2093 10.2911 32.201 10.2827C31.691 9.99009 31.5154 9.33796 31.8081 8.82796C32.1007 8.31796 32.7528 8.14238 33.2628 8.43501C33.2712 8.44337 33.2795 8.45173 33.2879 8.45173C33.2962 8.46009 33.313 8.46009 33.3213 8.46009C33.8313 8.75271 33.9985 9.4132 33.7059 9.9232C33.4133 10.4416 32.7611 10.6088 32.2511 10.3162Z" fill="#FDC041"/>
<path d="M14.8525 34.9637C14.4429 35.3901 13.7657 35.3985 13.3476 34.9972C12.9212 34.5875 12.9045 33.9187 13.3142 33.4839C13.7238 33.0575 14.401 33.0492 14.8274 33.4588C15.1869 33.81 15.2539 34.3451 15.0114 34.7631C14.9612 34.83 14.9111 34.8969 14.8525 34.9637Z" fill="#FDC041"/>
<path d="M25.4958 8.35117C24.9022 8.33445 24.4508 7.8328 24.4758 7.24756C24.4926 6.65395 24.9942 6.20248 25.5795 6.2192C26.1647 6.24428 26.6245 6.73757 26.6078 7.32281C26.5994 7.50675 26.5493 7.67395 26.4573 7.82444C26.265 8.15051 25.9055 8.36789 25.4958 8.35117Z" fill="#000086"/>
<path d="M10.4216 28.9015C9.86148 29.0938 9.25953 28.7928 9.07559 28.2326C8.8833 27.6725 9.18428 27.0705 9.75281 26.8782C10.313 26.6943 10.9149 26.9952 11.0989 27.5554C11.1992 27.8564 11.1574 28.1741 11.0069 28.4249C10.8731 28.6506 10.6725 28.8262 10.4216 28.9015Z" fill="#000086"/>
<path d="M18.6569 9.76398C18.1302 10.0148 17.4864 9.78906 17.2356 9.25398C16.9848 8.72726 17.2105 8.08348 17.7456 7.83266C18.2807 7.57348 18.9161 7.80758 19.1669 8.33431C19.3257 8.66873 19.3007 9.0366 19.1251 9.32923C19.0164 9.51316 18.8576 9.66365 18.6569 9.76398Z" fill="#000086"/>
<path d="M9.30142 21.486C8.71618 21.3857 8.32323 20.8422 8.4152 20.257C8.51553 19.6717 9.05899 19.2788 9.64424 19.3708C10.2211 19.4627 10.6224 20.0145 10.5305 20.5998C10.5137 20.7336 10.4636 20.8506 10.3967 20.9677C10.1793 21.3355 9.7529 21.5529 9.30142 21.486Z" fill="#000086"/>
<path d="M13.2642 14.1785C12.9131 14.6467 12.2443 14.747 11.7677 14.3959C11.2995 14.0447 11.1992 13.3759 11.5587 12.8993C11.9098 12.4228 12.5787 12.3308 13.0552 12.6903C13.4983 13.0164 13.6071 13.61 13.3395 14.0782C13.3061 14.1116 13.2893 14.1451 13.2642 14.1785Z" fill="#000086"/>
</g>
</svg>
