<svg width="72" height="72" viewBox="0 0 72 72" fill="none" xmlns="http://www.w3.org/2000/svg">
<path d="M63 13.5H9C7.80653 13.5 6.66193 13.9741 5.81802 14.818C4.97411 15.6619 4.5 16.8065 4.5 18V54C4.5 55.1935 4.97411 56.3381 5.81802 57.182C6.66193 58.0259 7.80653 58.5 9 58.5H63C64.1935 58.5 65.3381 58.0259 66.182 57.182C67.0259 56.3381 67.5 55.1935 67.5 54V18C67.5 16.8065 67.0259 15.6619 66.182 14.818C65.3381 13.9741 64.1935 13.5 63 13.5ZM58.05 18L36 33.255L13.95 18H58.05ZM9 54V20.0475L34.7175 37.845C35.0941 38.1063 35.5416 38.2463 36 38.2463C36.4584 38.2463 36.9059 38.1063 37.2825 37.845L63 20.0475V54H9Z" fill="#F6F9FF"/>
</svg>
