<svg width="32" height="32" viewBox="0 0 32 32" fill="none" xmlns="http://www.w3.org/2000/svg">
<path d="M20.7343 17.3281L18.0542 20.0173C16.9674 21.1079 15.0552 21.1314 13.9449 20.0173L11.2647 17.3281L1.63867 26.9854C1.99698 27.1511 2.39205 27.2499 2.81205 27.2499H29.1871C29.6071 27.2499 30.002 27.1512 30.3602 26.9854L20.7343 17.3281Z" fill="black"/>
<path d="M29.1879 4.75H2.8129C2.3929 4.75 1.99784 4.84888 1.63965 5.01456L11.9257 15.3348C11.9264 15.3354 11.9272 15.3356 11.9279 15.3363C11.9286 15.3369 11.9287 15.3379 11.9287 15.3379L15.2733 18.6935C15.6285 19.0488 16.3724 19.0488 16.7276 18.6935L20.0715 15.3384C20.0715 15.3384 20.0723 15.3369 20.073 15.3363C20.073 15.3363 20.0745 15.3354 20.0752 15.3348L30.361 5.0145C30.0028 4.84875 29.6079 4.75 29.1879 4.75Z" fill="black"/>
<path d="M0.299125 6.32568C0.11375 6.70056 0 7.11668 0 7.56243V24.4374C0 24.8832 0.113625 25.2993 0.299062 25.6742L9.94175 16.0002L0.299125 6.32568Z" fill="black"/>
<path d="M31.7012 6.32568L22.0586 16.0004L31.7012 25.6744C31.8865 25.2996 32.0003 24.8834 32.0003 24.4376V7.56256C32.0003 7.11668 31.8865 6.70056 31.7012 6.32568Z" fill="black"/>
</svg>
