<svg width="72" height="72" viewBox="0 0 72 72" fill="none" xmlns="http://www.w3.org/2000/svg">
<path d="M72 36C72 53.9691 58.8347 68.8627 41.625 71.5627V46.4062H50.0133L51.6094 36H41.625V29.2472C41.625 26.3995 43.02 23.625 47.4919 23.625H52.0312V14.7656C52.0312 14.7656 47.9109 14.0625 43.972 14.0625C35.7497 14.0625 30.375 19.0462 30.375 28.0688V36H21.2344V46.4062H30.375V71.5627C13.1653 68.8627 0 53.9691 0 36C0 16.1184 16.1184 0 36 0C55.8816 0 72 16.1184 72 36Z" fill="#1877F2"/>
<path d="M50.0133 46.4062L51.6094 36H41.625V29.247C41.625 26.4001 43.0197 23.625 47.4917 23.625H52.0312V14.7656C52.0312 14.7656 47.9115 14.0625 43.9727 14.0625C35.7495 14.0625 30.375 19.0463 30.375 28.0688V36H21.2344V46.4062H30.375V71.5625C32.2079 71.8501 34.0864 72 36 72C37.9136 72 39.7921 71.8501 41.625 71.5625V46.4062H50.0133Z" fill="white"/>
</svg>
