<svg width="24" height="24" viewBox="0 0 24 24" fill="none" xmlns="http://www.w3.org/2000/svg">
<path d="M19.3602 3.36035H4.63571C3.93155 3.36035 3.36011 3.91835 3.36011 4.60547V19.3936C3.36011 20.0816 3.93155 20.6404 4.63571 20.6404H19.3602C20.0648 20.6404 20.6401 20.0816 20.6401 19.3936V4.60547C20.6401 3.91835 20.0648 3.36035 19.3602 3.36035ZM8.48507 18.0853H5.92091V9.83915H8.48507V18.0853ZM7.20299 8.71163C7.00781 8.71163 6.81455 8.67317 6.63425 8.59845C6.45395 8.52374 6.29013 8.41422 6.15217 8.27617C6.01421 8.13812 5.9048 7.97423 5.8302 7.79388C5.75559 7.61353 5.71726 7.42024 5.71739 7.22507C5.71739 6.8311 5.87389 6.45326 6.15247 6.17468C6.43106 5.8961 6.80889 5.73959 7.20287 5.73959C7.59684 5.73959 7.97468 5.8961 8.25326 6.17468C8.53184 6.45326 8.68835 6.8311 8.68835 7.22507C8.68835 7.61912 8.53189 7.99705 8.25337 8.2758C7.97484 8.55455 7.59704 8.71131 7.20299 8.71163ZM18.0841 18.0853H15.524V14.0754C15.524 13.1188 15.5053 11.8888 14.1918 11.8888C12.8579 11.8888 12.6546 12.9306 12.6546 14.006V18.0856H10.0926V9.83915H12.5514V10.9652H12.5864C12.9287 10.3172 13.7648 9.63347 15.0119 9.63347C17.6053 9.63347 18.0843 11.3408 18.0843 13.562V18.0853H18.0841Z" fill="#F6F9FF"/>
</svg>
