<svg width="25" height="24" viewBox="0 0 25 24" fill="none" xmlns="http://www.w3.org/2000/svg">
<path d="M21.4807 5.77792C20.7888 6.08447 20.0548 6.28558 19.3032 6.37456C20.0948 5.9009 20.6872 5.15556 20.97 4.27744C20.2259 4.71917 19.4117 5.03023 18.5626 5.19712C18.2078 4.81874 17.7791 4.51725 17.3031 4.31133C16.827 4.10541 16.3138 3.99944 15.7951 4C13.7014 4 12.0036 5.69728 12.0036 7.79152C12.0036 8.0884 12.0372 8.37808 12.102 8.65576C8.9508 8.4976 6.1572 6.988 4.28712 4.69384C3.94994 5.2725 3.77276 5.93044 3.77376 6.60016C3.77326 7.22441 3.92697 7.8391 4.22123 8.38964C4.51548 8.94018 4.94118 9.40951 5.46048 9.75592C4.85849 9.7368 4.26976 9.57421 3.74328 9.28168C3.7428 9.29752 3.7428 9.31312 3.7428 9.32944C3.7428 11.1659 5.0496 12.6983 6.78384 13.047C6.22542 13.1982 5.63993 13.2204 5.07168 13.1118C5.55408 14.6178 6.95424 15.7144 8.61336 15.7451C7.2703 16.7991 5.6118 17.3708 3.90456 17.3682C3.59856 17.3682 3.29688 17.3505 3 17.3152C4.7336 18.4291 6.75123 19.0203 8.81184 19.0182C15.7858 19.0182 19.5994 13.2412 19.5994 8.23144C19.5994 8.06728 19.5955 7.90336 19.5883 7.7404C20.331 7.20422 20.9719 6.53961 21.4807 5.77792Z" fill="#F6F9FF"/>
</svg>
