<svg width="24" height="24" viewBox="0 0 24 24" fill="none" xmlns="http://www.w3.org/2000/svg">
<g clip-path="url(#clip0_568_153)">
<path d="M15.6326 24.0002C13.2214 24.0002 10.8097 24.0002 8.39851 24.0002C8.25144 23.9875 8.10436 23.9668 7.95728 23.963C7.00222 23.9372 6.04905 23.9 5.11426 23.6745C3.12306 23.1944 1.64428 22.068 0.764171 20.2077C0.218289 19.055 0.0547128 17.8156 0.0415136 16.5574C0.0146437 13.9709 -0.00892632 11.3838 0.00333011 8.7973C0.00898692 7.55745 0.0170007 6.3096 0.318697 5.09235C0.843838 2.97181 2.08221 1.4519 4.12762 0.622978C5.22551 0.178159 6.38422 0.0529503 7.55423 0.0402412C9.99656 0.0138816 12.4389 -0.00682961 14.8812 0.00211385C16.163 0.00682093 17.4527 -0.000710388 18.7151 0.273713C21.0462 0.781136 22.6796 2.11418 23.5003 4.37923C23.8944 5.46704 23.9882 6.6038 23.9915 7.74762C24.0005 10.5144 24.008 13.2813 23.9859 16.0481C23.9797 16.8342 23.917 17.6268 23.7959 18.4035C23.547 19.9936 22.8309 21.3478 21.5728 22.3843C20.3462 23.3949 18.8957 23.8002 17.3405 23.9051C16.7715 23.9437 16.2016 23.9692 15.6326 24.0002ZM12.0146 21.8783C12.0151 21.866 12.0151 21.8538 12.0156 21.8411C12.6496 21.8411 13.2846 21.8599 13.9177 21.8373C15.2852 21.7879 16.6631 21.8053 18.0165 21.634C19.8663 21.3996 21.1141 20.3311 21.5652 18.4934C21.7458 17.7577 21.8061 16.9801 21.8207 16.2194C21.8646 13.9925 21.8792 11.7646 21.8622 9.53772C21.8532 8.37554 21.8155 7.2063 21.6793 6.05354C21.4507 4.12458 20.2321 2.8113 18.3328 2.43473C17.5027 2.26999 16.6405 2.21821 15.791 2.20597C13.5368 2.17302 11.2821 2.16925 9.02783 2.19514C7.98179 2.20738 6.9268 2.24551 5.89396 2.39567C4.05927 2.66303 2.81099 3.85439 2.44 5.66285C2.27973 6.44517 2.22504 7.25808 2.20807 8.05876C2.16706 9.99619 2.15198 11.9355 2.17319 13.8734C2.1878 15.2159 2.22221 16.563 2.35374 17.8975C2.4895 19.2715 3.14475 20.389 4.3784 21.0993C5.13312 21.5337 5.96891 21.7149 6.8278 21.7451C8.55596 21.8058 10.2855 21.8354 12.0146 21.8783Z" fill="#F6F9FF"/>
<path d="M5.83301 11.995C5.83254 8.59272 8.6138 5.82166 12.0201 5.83108C15.4331 5.84049 18.1757 8.57719 18.1889 11.9865C18.2021 15.386 15.4274 18.1636 12.0168 18.1655C8.60862 18.1674 5.83348 15.3982 5.83301 11.995ZM12.0126 15.9922C14.231 15.9922 16.0115 14.2172 16.0157 12.0025C16.02 9.7902 14.2419 8.00669 12.0249 8.0001C9.7989 7.99351 8.00711 9.77938 8.00994 12.0021C8.01229 14.2149 9.7956 15.9922 12.0126 15.9922Z" fill="#F6F9FF"/>
<path d="M18.4691 4.15071C19.2762 4.16719 19.8932 4.81818 19.872 5.62968C19.8513 6.42047 19.2017 7.03616 18.4022 7.02251C17.6083 7.00933 16.9771 6.34375 16.9955 5.53883C17.013 4.75416 17.671 4.13424 18.4691 4.15071Z" fill="#F6F9FF"/>
</g>
<defs>
<clipPath id="clip0_568_153">
<rect width="24" height="24" fill="white"/>
</clipPath>
</defs>
</svg>
