<svg width="56" height="57" viewBox="0 0 56 57" fill="none" xmlns="http://www.w3.org/2000/svg">
<g clip-path="url(#clip0_1097_24)">
<path d="M47.6 0.332825C45.7979 0.348173 44.0481 0.938709 42.6068 2.01797C41.1654 3.09722 40.1083 4.60851 39.5901 6.33053C38.2688 5.73804 36.8997 5.25802 35.4974 4.89559C35.4881 4.89559 35.4788 4.88907 35.4694 4.88814C30.1011 3.50306 24.4298 3.86187 19.2798 5.91243C19.2546 5.92174 19.2313 5.93012 19.207 5.9413C18.3212 6.29215 17.4553 6.6913 16.6133 7.13693C16.236 5.23408 15.2135 3.51886 13.7177 2.27972C12.2219 1.04057 10.3441 0.353071 8.39997 0.332825C6.14681 0.361797 3.99714 1.28114 2.42244 2.88921C0.847733 4.49728 -0.0234456 6.6628 -2.81075e-05 8.91082C-2.81075e-05 12.2631 2.82984 16.4673 5.14731 19.3474C3.73419 22.4246 2.94561 25.7505 2.82704 29.1332C2.82704 29.1565 2.81491 29.176 2.81491 29.1993C2.81491 29.2226 2.82331 29.23 2.82424 29.2458C2.81491 29.541 2.79997 29.8344 2.79997 30.1305C2.79997 37.0454 5.5533 43.6772 10.4542 48.5668C15.3552 53.4564 22.0023 56.2034 28.9333 56.2034C35.8643 56.2034 42.5114 53.4564 47.4124 48.5668C52.3133 43.6772 55.0666 37.0454 55.0666 30.1305C55.0407 25.8595 53.9843 21.6575 51.9866 17.8799C54.0008 15.1497 56 11.7341 56 8.91082C56.0234 6.6628 55.1522 4.49728 53.5775 2.88921C52.0028 1.28114 49.8531 0.361797 47.6 0.332825V0.332825ZM20.5333 7.41815C22.9295 6.54093 25.4493 6.04599 28 5.95154V6.58102C28.0007 6.75692 27.9515 6.92944 27.858 7.07858C27.7645 7.22772 27.6306 7.34739 27.4717 7.42373L21.84 9.56916C21.6971 9.63079 21.5411 9.65558 21.3861 9.64126C21.2312 9.62694 21.0824 9.57397 20.9533 9.48722C20.8238 9.40376 20.7175 9.28914 20.6441 9.15391C20.5707 9.01868 20.5326 8.86719 20.5333 8.71341V7.41815ZM8.39997 2.19518C10.1581 2.22386 11.8332 2.94689 13.0579 4.20576C14.2826 5.46464 14.957 7.15663 14.9333 8.91082C14.9333 12.4186 10.7912 17.5559 9.00944 19.6026C8.9334 19.6892 8.83969 19.7586 8.73458 19.8062C8.62947 19.8537 8.51539 19.8784 8.39997 19.8784C8.28456 19.8784 8.17048 19.8537 8.06536 19.8062C7.96025 19.7586 7.86654 19.6892 7.79051 19.6026C6.00877 17.5596 1.86664 12.4186 1.86664 8.91082C1.84293 7.15663 2.51735 5.46464 3.74205 4.20576C4.96675 2.94689 6.6418 2.22386 8.39997 2.19518ZM8.39997 21.7499C8.78374 21.7483 9.16267 21.6643 9.51101 21.5036C9.85936 21.343 10.169 21.1094 10.4188 20.8187C11.4596 19.6285 12.4378 18.3853 13.3494 17.094H17.4813C17.6273 17.0934 17.772 17.1216 17.9071 17.1771C18.0421 17.2326 18.1648 17.3142 18.268 17.4172C18.3713 17.5202 18.4531 17.6426 18.5087 17.7773C18.5643 17.912 18.5926 18.0564 18.592 18.2021C18.5909 18.4681 18.4953 18.7251 18.3222 18.9275L13.8665 24.1076C13.3029 24.7704 12.993 25.6111 12.992 26.4803C12.9915 26.9543 12.8025 27.4087 12.4666 27.7439C12.1306 28.0791 11.6751 28.2676 11.2 28.2681H4.74504C4.92929 25.7421 5.51725 23.2618 6.48664 20.9211C6.73317 21.1807 7.02973 21.3879 7.35852 21.5303C7.68731 21.6728 8.04154 21.7474 8.39997 21.7499ZM7.43677 41.3437L9.26331 37.24C9.46472 36.7867 9.79377 36.4014 10.2105 36.1312C10.6272 35.8609 11.1136 35.7172 11.6106 35.7175C12.2937 35.7189 12.9487 35.9889 13.4334 36.469L13.6854 36.7204C14.1711 37.2097 14.766 37.5772 15.4214 37.7931L19.8464 39.2644C20.5899 39.5104 21.2367 39.9839 21.6951 40.6176C22.1536 41.2513 22.4002 42.013 22.4 42.7945V46.1467C22.4015 46.5089 22.3126 46.8659 22.1414 47.1853C21.9701 47.5047 21.7219 47.7766 21.419 47.9765C20.8582 48.3458 20.3983 48.8486 20.0807 49.4395C19.7632 50.0304 19.598 50.6908 19.6 51.3613V52.4787C14.3724 50.289 10.072 46.352 7.43677 41.3437ZM28.9333 54.341C26.3979 54.3418 23.8781 53.9443 21.4666 53.1631V51.3613C21.4651 50.999 21.554 50.6421 21.7252 50.3227C21.8965 50.0032 22.1447 49.7313 22.4476 49.5315C23.0084 49.1621 23.4683 48.6594 23.7859 48.0685C24.1034 47.4776 24.2687 46.8172 24.2666 46.1467V42.7945C24.2676 41.6224 23.8983 40.4799 23.2114 39.5291C22.5245 38.5783 21.5548 37.8676 20.44 37.4979L16.0085 36.0248C15.6295 35.9 15.2856 35.6871 15.0052 35.4037L14.7532 35.1523C14.2436 34.6449 13.618 34.2687 12.9303 34.0562C12.2426 33.8436 11.5134 33.8011 10.8055 33.9322C10.0977 34.0633 9.43238 34.3642 8.86698 34.8089C8.30159 35.2536 7.85303 35.8287 7.55997 36.4848L6.39984 39.0921C5.25458 36.2425 4.66627 33.2006 4.66664 30.1305H11.2C12.1699 30.1292 13.0998 29.7443 13.7857 29.06C14.4715 28.3757 14.8574 27.448 14.8586 26.4803C14.8591 26.0542 15.0108 25.6421 15.287 25.3172L19.7409 20.138C20.2024 19.5979 20.4567 18.9118 20.4586 18.2021C20.4593 17.8118 20.3827 17.4253 20.2333 17.0646C20.0838 16.704 19.8646 16.3763 19.588 16.1003C19.3114 15.8243 18.9829 15.6056 18.6214 15.4565C18.2599 15.3074 17.8725 15.231 17.4813 15.2316H14.56C15.7702 13.4181 16.5313 11.3436 16.7804 9.179C17.397 8.82391 18.0257 8.49738 18.6666 8.1994V8.71341C18.6663 9.1749 18.781 9.62924 19.0003 10.0356C19.2195 10.4419 19.5366 10.7875 19.9229 11.0414C20.3851 11.345 20.9263 11.5069 21.4797 11.5069C21.8427 11.5076 22.202 11.435 22.5362 11.2937L28.1782 9.14455C28.6787 8.92689 29.1049 8.56859 29.4047 8.11337C29.7045 7.65816 29.865 7.12571 29.8666 6.58102V5.94595C31.2172 5.99558 32.5612 6.15786 33.8846 6.4311L30.4313 12.1839C29.9235 12.9998 29.7475 13.9786 29.9394 14.9197C30.1245 15.8087 30.6147 16.6054 31.3256 17.1723C32.0365 17.7393 32.9234 18.0409 33.8333 18.0252H37.3333C37.4577 18.0249 37.5808 18.05 37.6951 18.099C37.8094 18.148 37.9124 18.2199 37.9978 18.3101C38.0951 18.4043 38.1695 18.5195 38.2151 18.6469C38.2607 18.7743 38.2765 18.9104 38.261 19.0448C38.2215 19.2856 38.0956 19.5039 37.9067 19.659C37.7178 19.814 37.4789 19.8953 37.2344 19.8875H34.8077C32.8322 19.8644 30.9241 20.6035 29.4817 21.9504C28.0393 23.2974 27.1741 25.1481 27.0666 27.1162C27.037 28.1129 27.2083 29.1054 27.5702 30.0348C27.9322 30.9643 28.4775 31.8117 29.1738 32.527C29.8701 33.2423 30.7033 33.8109 31.6239 34.1989C32.5445 34.587 33.5339 34.7868 34.5333 34.7863C35.2737 34.7865 35.9842 35.0783 36.5101 35.5983C36.7758 35.8665 36.9855 36.1848 37.1268 36.5346C37.2681 36.8843 37.3383 37.2587 37.3333 37.6357V43.586C37.3323 44.3128 37.5717 45.0196 38.0143 45.5968C38.4569 46.1741 39.0781 46.5895 39.7815 46.7787C40.4848 46.9679 41.2311 46.9202 41.9046 46.6432C42.5781 46.3661 43.1411 45.8751 43.5064 45.2463C43.6716 44.9669 43.861 44.6466 44.071 44.2937C46.795 39.9095 49.0231 35.2375 50.7145 30.3633C50.8333 30.0215 50.8689 29.6565 50.8183 29.2983C50.7677 28.9401 50.6324 28.5991 50.4236 28.3034C50.2147 28.0077 49.9384 27.7658 49.6173 27.5978C49.2962 27.4297 48.9397 27.3403 48.5772 27.3369C48.3246 27.34 48.0809 27.2442 47.8982 27.0702C47.7156 26.8961 47.6085 26.6576 47.6 26.4058C47.6043 26.1601 47.704 25.9258 47.8781 25.7521C48.0522 25.5784 48.2871 25.4789 48.5333 25.4746H49.4666C49.9239 25.4785 50.3719 25.3454 50.7526 25.0926C51.1333 24.8397 51.4292 24.4788 51.6021 24.0564L52.0921 22.926C53.2294 26.5496 53.4956 30.3894 52.8692 34.1347C52.2428 37.88 50.7414 41.4256 48.4864 44.4845C46.2315 47.5433 43.2863 50.0296 39.8894 51.7419C36.4925 53.4543 32.7392 54.3447 28.9333 54.341ZM51.1466 20.4127L49.8773 23.3413C49.8434 23.4219 49.7862 23.4906 49.7131 23.5389C49.64 23.5871 49.5543 23.6126 49.4666 23.6122H48.5333C48.1656 23.6196 47.803 23.6992 47.4661 23.8464C47.1292 23.9937 46.8247 24.2056 46.5699 24.4703C46.3152 24.7349 46.1152 25.047 45.9813 25.3888C45.8474 25.7305 45.7824 26.0952 45.7898 26.4621C45.7972 26.8289 45.877 27.1908 46.0245 27.5268C46.1721 27.8629 46.3846 28.1667 46.6498 28.4209C46.915 28.6751 47.2279 28.8746 47.5704 29.0082C47.913 29.1418 48.2785 29.2067 48.6462 29.1993C48.916 29.1993 49.0196 29.5597 48.9458 29.7682C47.2948 34.5175 45.1219 39.0698 42.4666 43.342C42.2529 43.6996 42.0597 44.0236 41.8898 44.3169C41.7637 44.5342 41.5823 44.7145 41.364 44.8395C41.1458 44.9646 40.8983 45.03 40.6466 45.0293C40.263 45.029 39.8952 44.8769 39.624 44.6063C39.3527 44.3357 39.2002 43.9687 39.2 43.586V37.5799C39.2006 36.9683 39.0803 36.3626 38.846 35.7974C38.6117 35.2323 38.268 34.7188 37.8345 34.2863C37.401 33.8538 36.8864 33.5109 36.3199 33.2772C35.7534 33.0434 35.1463 32.9234 34.5333 32.924C33.7834 32.9243 33.041 32.7744 32.3503 32.4831C31.6596 32.1918 31.0345 31.765 30.5122 31.2281C29.9899 30.6912 29.581 30.0552 29.3098 29.3576C29.0386 28.6601 28.9106 27.9153 28.9333 27.1675C29.0249 25.6842 29.6862 24.2932 30.7797 23.2841C31.8732 22.275 33.3146 21.7255 34.804 21.7499H37.2306C37.9418 21.7597 38.6313 21.5055 39.1651 21.0366C39.699 20.5676 40.039 19.9175 40.1193 19.2124C40.1537 18.8261 40.1073 18.4368 39.983 18.0693C39.8588 17.7017 39.6594 17.3639 39.3975 17.0773C39.1356 16.7906 38.8169 16.5613 38.4616 16.4039C38.1063 16.2465 37.7221 16.1644 37.3333 16.1628H33.8333C33.3588 16.1733 32.8951 16.0208 32.5198 15.731C32.1445 15.4411 31.8803 15.0314 31.7716 14.5705C31.6723 14.0852 31.7614 13.5803 32.0208 13.1579L35.7793 6.89669C36.9628 7.24862 38.1173 7.69099 39.2326 8.21989C39.2149 8.44896 39.1981 8.67803 39.1981 8.91082C39.1981 12.8972 43.1956 18.0857 45.5793 20.8234C45.8289 21.1139 46.1386 21.3471 46.4871 21.507C46.8355 21.6669 47.2146 21.7496 47.5981 21.7496C47.9817 21.7496 48.3607 21.6669 48.7091 21.507C49.0576 21.3471 49.3673 21.1139 49.6169 20.8234C49.9594 20.4304 50.3365 19.9853 50.7285 19.4992C50.8778 19.8 51.0122 20.1064 51.1466 20.4127ZM48.2085 19.6026C48.1325 19.6892 48.0388 19.7586 47.9336 19.8062C47.8285 19.8537 47.7145 19.8784 47.599 19.8784C47.4836 19.8784 47.3695 19.8537 47.2644 19.8062C47.1593 19.7586 47.0656 19.6892 46.9896 19.6026C45.2088 17.5596 41.0666 12.4186 41.0666 8.91082C41.0666 8.05483 41.2356 7.20723 41.564 6.4164C41.8923 5.62557 42.3735 4.90701 42.9802 4.30173C43.5869 3.69646 44.3071 3.21633 45.0998 2.88876C45.8924 2.56119 46.742 2.39259 47.6 2.39259C48.4579 2.39259 49.3075 2.56119 50.1002 2.88876C50.8928 3.21633 51.6131 3.69646 52.2197 4.30173C52.8264 4.90701 53.3077 5.62557 53.636 6.4164C53.9643 7.20723 54.1333 8.05483 54.1333 8.91082C54.1333 12.4186 49.9912 17.5596 48.2094 19.6026H48.2085Z" fill="#000086"/>
<path d="M9.3333 14.3005V14.1292C9.95553 13.9105 10.4801 13.4792 10.8142 12.9116C11.1482 12.344 11.2701 11.6768 11.1583 11.0282C11.0465 10.3795 10.7083 9.79125 10.2034 9.36759C9.69853 8.94392 9.05967 8.71219 8.39996 8.71344C8.23617 8.71328 8.0753 8.67011 7.93352 8.58829C7.79173 8.50646 7.67403 8.38884 7.59224 8.24726C7.51045 8.10568 7.46744 7.94511 7.46754 7.78169C7.46764 7.61828 7.51084 7.45776 7.59281 7.31628C7.67478 7.1748 7.79262 7.05733 7.9345 6.97567C8.07638 6.89401 8.2373 6.85105 8.4011 6.85109C8.56489 6.85113 8.7258 6.89417 8.86764 6.9759C9.00948 7.05762 9.12726 7.17515 9.20916 7.31667C9.33683 7.52256 9.53985 7.67074 9.77518 7.7298C10.0105 7.78887 10.2596 7.75417 10.4698 7.63306C10.6799 7.51196 10.8345 7.31397 10.9007 7.08107C10.967 6.84818 10.9398 6.59869 10.8248 6.3855C10.4868 5.81863 9.95836 5.38969 9.3333 5.17497V4.98873C9.3333 4.74177 9.23496 4.50492 9.05993 4.33029C8.88489 4.15566 8.6475 4.05756 8.39996 4.05756C8.15243 4.05756 7.91503 4.15566 7.74 4.33029C7.56496 4.50492 7.46663 4.74177 7.46663 4.98873V5.16007C6.84439 5.37873 6.3198 5.81004 5.98577 6.37761C5.65173 6.94518 5.52981 7.61239 5.6416 8.26105C5.75339 8.90971 6.09167 9.49797 6.59654 9.92164C7.1014 10.3453 7.74026 10.577 8.39996 10.5758C8.56376 10.5759 8.72463 10.6191 8.86641 10.7009C9.00819 10.7828 9.12589 10.9004 9.20768 11.042C9.28948 11.1835 9.33249 11.3441 9.33239 11.5075C9.33229 11.6709 9.28908 11.8315 9.20712 11.9729C9.12515 12.1144 9.0073 12.2319 8.86542 12.3136C8.72354 12.3952 8.56262 12.4382 8.39883 12.4381C8.23503 12.4381 8.07413 12.3951 7.93229 12.3133C7.79045 12.2316 7.67266 12.1141 7.59076 11.9726C7.46309 11.7667 7.26007 11.6185 7.02475 11.5594C6.78942 11.5004 6.54028 11.5351 6.33016 11.6562C6.12005 11.7773 5.96546 11.9753 5.89919 12.2082C5.83292 12.441 5.86017 12.6905 5.97516 12.9037C6.31355 13.4709 6.84274 13.8999 7.4685 14.1143V14.3005C7.4685 14.5475 7.56683 14.7843 7.74186 14.9589C7.9169 15.1336 8.15429 15.2317 8.40183 15.2317C8.64936 15.2317 8.88676 15.1336 9.06179 14.9589C9.23683 14.7843 9.33516 14.5475 9.33516 14.3005H9.3333Z" fill="#000086"/>
<path d="M47.6 8.71344C47.4362 8.71328 47.2754 8.67011 47.1336 8.58829C46.9918 8.50646 46.8741 8.38884 46.7923 8.24726C46.7105 8.10568 46.6675 7.94511 46.6676 7.78169C46.6677 7.61828 46.7109 7.45776 46.7929 7.31628C46.8748 7.1748 46.9927 7.05733 47.1346 6.97567C47.2765 6.89401 47.4374 6.85105 47.6012 6.85109C47.765 6.85113 47.9259 6.89417 48.0677 6.9759C48.2095 7.05762 48.3273 7.17515 48.4092 7.31667C48.5369 7.52256 48.7399 7.67074 48.9752 7.7298C49.2106 7.78887 49.4597 7.75417 49.6698 7.63306C49.8799 7.51196 50.0345 7.31397 50.1008 7.08107C50.1671 6.84818 50.1398 6.59869 50.0248 6.3855C49.6869 5.81863 49.1584 5.38969 48.5334 5.17497V4.98873C48.5334 4.74177 48.435 4.50492 48.26 4.33029C48.085 4.15566 47.8476 4.05756 47.6 4.05756C47.3525 4.05756 47.1151 4.15566 46.9401 4.33029C46.765 4.50492 46.6667 4.74177 46.6667 4.98873V5.16007C46.0445 5.37873 45.5199 5.81004 45.1858 6.37761C44.8518 6.94518 44.7299 7.61239 44.8417 8.26105C44.9535 8.90971 45.2917 9.49797 45.7966 9.92164C46.3015 10.3453 46.9403 10.577 47.6 10.5758C47.7638 10.5759 47.9247 10.6191 48.0665 10.7009C48.2083 10.7828 48.326 10.9004 48.4078 11.042C48.4896 11.1835 48.5326 11.3441 48.5325 11.5075C48.5324 11.6709 48.4892 11.8315 48.4072 11.9729C48.3252 12.1144 48.2074 12.2319 48.0655 12.3136C47.9236 12.3952 47.7627 12.4382 47.5989 12.4381C47.4351 12.4381 47.2742 12.3951 47.1324 12.3133C46.9905 12.2316 46.8727 12.1141 46.7908 11.9726C46.6632 11.7667 46.4601 11.6185 46.2248 11.5594C45.9895 11.5004 45.7404 11.5351 45.5302 11.6562C45.3201 11.7773 45.1655 11.9753 45.0993 12.2082C45.033 12.441 45.0602 12.6905 45.1752 12.9037C45.5136 13.4709 46.0428 13.8999 46.6686 14.1143V14.3005C46.6686 14.5475 46.7669 14.7843 46.9419 14.9589C47.117 15.1336 47.3544 15.2317 47.6019 15.2317C47.8494 15.2317 48.0868 15.1336 48.2619 14.9589C48.4369 14.7843 48.5352 14.5475 48.5352 14.3005V14.1292C49.1576 13.9104 49.6823 13.479 50.0163 12.9112C50.3504 12.3434 50.4721 11.676 50.3601 11.0273C50.2481 10.3785 49.9095 9.7902 49.4043 9.36668C48.8991 8.94316 48.2599 8.71175 47.6 8.71344Z" fill="#000086"/>
</g>
<defs>
<clipPath id="clip0_1097_24">
<rect width="56" height="55.8706" fill="white" transform="translate(0 0.332825)"/>
</clipPath>
</defs>
</svg>
