<svg width="56" height="57" viewBox="0 0 56 57" fill="none" xmlns="http://www.w3.org/2000/svg">
<path d="M25.5568 10.6583C27.4347 10.6565 28.9565 9.13814 28.9584 7.26462V6.16958C28.9283 4.29552 27.3811 2.80065 25.5027 2.83077C23.6667 2.86012 22.1855 4.33797 22.1561 6.16958V7.26495C22.1582 9.13793 23.6795 10.6559 25.5568 10.6583ZM23.4678 7.26495V6.16958C23.4914 5.01878 24.4456 4.10488 25.5991 4.12845C26.7194 4.15137 27.622 5.05195 27.645 6.16958V7.26495C27.6686 8.41575 26.7526 9.36785 25.5991 9.39142C24.4457 9.41499 23.4914 8.50109 23.4678 7.35028C23.4672 7.3218 23.4672 7.29343 23.4678 7.26495Z" fill="#000086"/>
<path d="M40.2268 8.48428C41.9149 8.48243 43.2829 7.11764 43.2849 5.43344V4.47502C43.2845 2.79007 41.9151 1.42429 40.2263 1.42462C38.5379 1.42495 37.1692 2.7904 37.1688 4.47502V5.43355C37.1708 7.11764 38.5389 8.48243 40.2268 8.48428ZM38.4813 4.47502C38.4813 3.51322 39.2628 2.73354 40.2268 2.73354C41.1909 2.73354 41.9724 3.51322 41.9724 4.47502V5.43355C41.9724 6.39536 41.1909 7.17503 40.2268 7.17503C39.2628 7.17503 38.4813 6.39536 38.4813 5.43355V4.47502Z" fill="#000086"/>
<path d="M10.9108 8.48428C12.5989 8.48243 13.9668 7.11764 13.9688 5.43344V4.47502C13.9685 2.79007 12.5991 1.42429 10.9103 1.42462C9.22183 1.42495 7.85311 2.7905 7.85278 4.47502V5.43355C7.85475 7.11764 9.22281 8.48243 10.9108 8.48428ZM9.16561 4.47502C9.16561 3.51322 9.9471 2.73354 10.9111 2.73354C11.8752 2.73354 12.6566 3.51322 12.6566 4.47502V5.43355C12.6566 6.39536 11.8752 7.17503 10.9111 7.17503C9.9471 7.17503 9.16561 6.39536 9.16561 5.43355V4.47502Z" fill="#000086"/>
<path d="M17.6036 17.5948V11.749C17.7565 10.0337 16.4995 8.51419 14.7824 8.33861C14.7449 8.33479 14.6667 8.32694 12.5547 8.32257H12.5532C12.3183 8.32268 12.1014 8.44817 11.9845 8.65147L11.0098 10.3466L10.0911 8.66401C9.97614 8.45352 9.75509 8.32257 9.51479 8.32257H7.52504C5.78445 8.32246 4.3734 9.73003 4.37329 11.4666V11.4667C4.37329 11.5506 4.38609 17.5954 4.38609 17.5958C4.38751 18.6866 5.27356 19.5705 6.36687 19.5718H6.36753H6.3894C6.62718 19.5691 6.86245 19.5228 7.08328 19.4349L7.39937 30.1085C7.39937 30.1234 7.40079 30.1383 7.40221 30.153C7.47024 30.8704 8.07531 31.4177 8.79751 31.4153H13.2286C13.9519 31.4179 14.5575 30.869 14.6242 30.1504C14.6257 30.1354 14.6265 30.1207 14.627 30.1058L14.9217 19.4454C15.9462 19.8308 17.0897 19.3149 17.4761 18.2928C17.5604 18.0697 17.6036 17.8332 17.6036 17.5948ZM16.2946 11.6519C16.2923 11.6738 16.2912 11.6959 16.2912 11.7179V17.5946C16.2928 17.9636 15.9941 18.264 15.6242 18.2656C15.2626 18.2671 14.9649 17.9819 14.952 17.6213L14.9514 17.5838C14.9454 17.2264 14.6533 16.94 14.2951 16.94H14.2897C13.9293 16.9429 13.6388 17.2351 13.6388 17.5947C13.6388 17.6148 13.6388 17.6347 13.6397 17.6547L13.6467 18.0707L13.316 30.0359C13.3067 30.0766 13.2704 30.1054 13.2285 30.1052H8.79762C8.75584 30.1055 8.71942 30.0767 8.71012 30.0361L8.35629 18.0641L8.34831 17.5483C8.34284 17.1906 8.05059 16.9036 7.69206 16.9036H7.68692C7.32642 16.9063 7.0357 17.1987 7.0357 17.5583C7.04357 17.9358 6.74585 18.2495 6.36763 18.2623C5.99828 18.2618 5.69913 17.9628 5.69903 17.5942C5.69903 17.5942 5.68623 11.5506 5.68623 11.4668C5.6847 10.9799 5.87851 10.5128 6.22446 10.1694H6.22468C6.56888 9.8242 7.03701 9.63073 7.52504 9.63204H9.12443L10.4186 12.0012C10.5919 12.3187 10.9906 12.4358 11.3088 12.2629C11.4153 12.2049 11.5037 12.1187 11.564 12.0137L12.933 9.63302C13.6457 9.63498 14.52 9.63869 14.6662 9.64306C15.669 9.75447 16.3951 10.6503 16.2946 11.6519Z" fill="#000086"/>
<path d="M31.9907 24.0109C25.6485 24.0109 20.5071 29.1404 20.5071 35.4679C20.5071 41.7955 25.6485 46.925 31.9907 46.925C38.3329 46.925 43.4743 41.7955 43.4743 35.4679C43.4672 29.1433 38.33 24.018 31.9907 24.0109ZM31.9907 45.6155C26.3733 45.6155 21.8196 41.0723 21.8196 35.4679C21.8196 29.8635 26.3733 25.3203 31.9907 25.3203C37.6081 25.3203 42.1618 29.8635 42.1618 35.4679C42.1553 41.0696 37.6053 45.6091 31.9907 45.6155Z" fill="#000086"/>
<path d="M50.8307 50.4822L46.4557 46.1173C46.1994 45.8616 45.7839 45.8615 45.5276 46.1172C45.5276 46.1172 45.5276 46.1172 45.5275 46.1173L44.5601 47.0825L42.9017 45.4281C45.3134 42.8006 46.7871 39.3029 46.7871 35.468C46.7871 32.2709 45.7627 29.3081 44.0246 26.8885L44.2366 19.4446C45.2607 19.8307 46.4047 19.3153 46.7917 18.2935C46.8762 18.0701 46.9196 17.8333 46.9196 17.5945V11.7492C47.0747 10.0333 45.8167 8.51235 44.0985 8.33873C44.0609 8.33491 43.9827 8.32706 41.8707 8.32269H41.8698C41.6345 8.32258 41.4172 8.44807 41.3002 8.6517L40.3255 10.3467L39.4068 8.66414C39.2918 8.45364 39.0708 8.32269 38.8306 8.32269H36.8409C35.1013 8.32477 33.6915 9.73124 33.6893 11.4668C33.6893 11.5507 33.702 17.5956 33.702 17.5959C33.7023 18.6872 34.589 19.5717 35.6829 19.5719H35.7048C35.9353 19.5694 36.1636 19.5257 36.3787 19.4428L36.4075 21.3777C35.3542 21.0484 34.2505 20.8336 33.1114 20.748V14.4787C33.2864 12.5672 31.8856 10.8718 29.9715 10.6783C29.9334 10.6745 29.8437 10.6654 27.4347 10.6605H27.4337C27.1984 10.6604 26.9811 10.7859 26.8641 10.9895L25.6668 13.0717L24.5369 11.0018C24.422 10.7913 24.2009 10.6603 23.9606 10.6603H21.6873C19.7498 10.6603 18.1792 12.2272 18.1791 14.1602C18.1791 14.2556 18.1929 20.8839 18.1936 21.1647C18.1939 22.3604 19.1654 23.3294 20.3638 23.3295H20.3645H20.3885C20.6886 23.3262 20.9844 23.2593 21.2565 23.1331L21.2959 25.2767C18.7563 27.9284 17.1945 31.5195 17.1945 35.4679C17.1945 43.6078 23.8321 50.23 31.9907 50.23C35.8345 50.23 39.3403 48.7597 41.9738 46.3537L43.6321 48.0083L42.611 49.027C42.3548 49.2827 42.3548 49.6973 42.611 49.9529L46.986 54.3178C48.0544 55.3704 49.7756 55.3596 50.8307 54.2937C51.8763 53.2374 51.8763 51.5386 50.8307 50.4822ZM37.6649 17.5489C37.6595 17.1911 37.3673 16.904 37.0086 16.904H37.0037C36.6431 16.9066 36.3523 17.1989 36.3523 17.5587C36.3601 17.9363 36.0623 18.25 35.6841 18.2626C35.3147 18.2625 35.0154 17.9636 35.0155 17.5951C35.0155 17.5949 35.0155 17.5948 35.0155 17.5946C35.0155 17.5946 35.0028 11.551 35.0028 11.4672C35.0041 10.4543 35.8268 9.63347 36.842 9.63238H38.4415L39.7357 12.0015C39.9091 12.3191 40.3077 12.4362 40.626 12.2631C40.7325 12.2052 40.8209 12.1189 40.8811 12.014L42.25 9.63336C42.9627 9.63532 43.837 9.63903 43.9831 9.6434C44.9866 9.7535 45.7136 10.6502 45.6116 11.6522C45.6093 11.6742 45.6082 11.6962 45.6082 11.7182V17.5949C45.6079 17.964 45.3078 18.263 44.9379 18.2626C44.5787 18.2623 44.2837 17.9795 44.2691 17.6213L44.2685 17.5843C44.2625 17.227 43.9704 16.9405 43.6122 16.9405H43.6069C43.2465 16.9433 42.9559 17.2357 42.9559 17.5952C42.9559 17.615 42.9559 17.6347 42.9568 17.6544L42.9636 18.0708L42.7555 25.3511C41.351 23.8644 39.6418 22.6672 37.7281 21.8609L37.6649 17.5489ZM21.2225 21.1223C21.2312 21.6052 20.8492 22.0054 20.3654 22.0204C19.8915 22.0204 19.5074 21.6371 19.5074 21.1644C19.5074 21.1641 19.5074 21.1639 19.5074 21.1635C19.5074 21.0945 19.4929 14.2546 19.4929 14.1605C19.4931 12.9508 20.4761 11.9701 21.6887 11.9701H23.5722L25.0779 14.7265C25.1915 14.9346 25.4091 15.0652 25.6466 15.068H25.6537C25.8887 15.0678 26.1056 14.9424 26.2225 14.7391L27.8141 11.9708C28.6454 11.973 29.6954 11.9774 29.8555 11.9827C31.0551 12.1123 31.9251 13.1834 31.8035 14.3812C31.8012 14.4029 31.8001 14.4248 31.8001 14.4466V20.7083C28.306 20.7526 25.0996 22.0101 22.587 24.0788L22.5433 21.7009L22.5344 21.1116C22.5316 20.75 22.2356 20.459 21.8732 20.4618C21.5108 20.4645 21.2191 20.7599 21.2219 21.1215L21.2225 21.1223ZM31.9907 48.8115C24.616 48.8115 18.6163 42.8257 18.6163 35.468C18.6163 28.1104 24.616 22.1245 31.9907 22.1245C39.3654 22.1245 45.3652 28.1104 45.3652 35.468C45.3652 42.8257 39.3653 48.8115 31.9907 48.8115ZM49.9031 53.3922C49.3539 53.9401 48.4636 53.94 47.9145 53.3922L44.0037 49.4905L45.9922 47.5064L49.9032 51.4083C50.4523 51.9562 50.4522 52.8444 49.9031 53.3922Z" fill="#000086"/>
<path d="M36.4893 40.1527H38.6807C39.0432 40.1527 39.3369 39.8596 39.3369 39.498V30.7567C39.3369 30.395 39.0432 30.1019 38.6807 30.1019H36.4893C36.1268 30.1019 35.833 30.395 35.833 30.7567V39.498C35.833 39.8596 36.1268 40.1527 36.4893 40.1527ZM37.1455 31.4114H38.0244V38.8433H37.1455V31.4114Z" fill="#000086"/>
<path d="M27.6829 40.1528H29.8742C30.2367 40.1528 30.5304 39.8597 30.5304 39.498V36.9337C30.5304 36.572 30.2367 36.2789 29.8742 36.2789H27.6829C27.3204 36.2789 27.0266 36.572 27.0266 36.9337V39.498C27.0266 39.8597 27.3204 40.1528 27.6829 40.1528ZM28.3391 37.5884H29.2179V38.8433H28.3391V37.5884Z" fill="#000086"/>
<path d="M32.0862 40.1527C32.0862 40.1527 32.0863 40.1527 32.0862 40.1527H34.2782C34.6407 40.1527 34.9344 39.8596 34.9344 39.498V33.6697C34.9344 33.3081 34.6407 33.015 34.2782 33.015H32.0863C31.7238 33.015 31.4301 33.3081 31.4301 33.6697V39.4979C31.4299 39.8595 31.7237 40.1526 32.0862 40.1527ZM32.7426 34.3245H33.6219V38.8433H32.7426V34.3245Z" fill="#000086"/>
<path d="M38.7407 40.9859H26.3345V31.484C26.3345 31.1223 26.0407 30.8292 25.6782 30.8292C25.3158 30.8292 25.022 31.1223 25.022 31.484V41.6406C25.022 42.0022 25.3158 42.2953 25.6782 42.2953H38.7407C39.1031 42.2953 39.3969 42.0022 39.3969 41.6406C39.3969 41.279 39.1031 40.9859 38.7407 40.9859Z" fill="#000086"/>
</svg>
