<svg width="24" height="24" viewBox="0 0 24 24" fill="none" xmlns="http://www.w3.org/2000/svg">
<path d="M6.78255 9.3913H4.69558C4.40758 9.3913 4.17383 9.62505 4.17383 9.91305V14.0869C4.17383 14.3749 4.40758 14.6087 4.69558 14.6087C4.98358 14.6087 5.21734 14.3749 5.21734 14.0869V10.4348H6.78255C7.07055 10.4348 7.30431 10.201 7.30431 9.913C7.30431 9.625 7.07055 9.3913 6.78255 9.3913Z" fill="#041851"/>
<path d="M5.73904 11.4783H4.69558C4.40758 11.4783 4.17383 11.712 4.17383 12C4.17383 12.288 4.40758 12.5217 4.69558 12.5217H5.73904C6.02704 12.5217 6.2608 12.288 6.2608 12C6.2608 11.712 6.02704 11.4783 5.73904 11.4783Z" fill="#041851"/>
<path d="M12 0C5.38332 0 0 5.38332 0 12C0 18.6166 5.38332 24 12 24C18.6166 24 24 18.6166 24 12C24 5.38332 18.6167 0 12 0ZM12 22.9565C5.95824 22.9565 1.04346 18.0417 1.04346 12C1.04346 5.95824 5.95824 1.04346 12 1.04346C18.0417 1.04346 22.9565 5.95824 22.9565 12C22.9565 18.0417 18.0417 22.9565 12 22.9565Z" fill="#041851"/>
<path d="M18.9174 6.45598C17.2217 4.34294 14.7007 3.13043 12.0001 3.13043C9.2996 3.13043 6.77857 4.34294 5.08291 6.45598C4.90237 6.68034 4.93788 7.00904 5.16327 7.18953C5.38763 7.37006 5.71633 7.33455 5.89579 7.10916C7.39317 5.24343 9.61788 4.17384 12.0001 4.17384C14.3824 4.17384 16.6071 5.24343 18.1035 7.10916C18.2068 7.23751 18.358 7.30428 18.5104 7.30428C18.6262 7.30428 18.741 7.26671 18.837 7.18948C19.0624 7.00904 19.0979 6.68034 18.9174 6.45598Z" fill="#041851"/>
<path d="M18.4114 17.3603C18.2048 17.1631 17.873 17.1715 17.6747 17.3802C16.1774 18.9569 14.1624 19.8261 12.0003 19.8261C9.83818 19.8261 7.82325 18.9568 6.32691 17.3802C6.12969 17.1694 5.79786 17.1631 5.59023 17.3603C5.37946 17.5586 5.37213 17.8894 5.57042 18.0981C7.26609 19.8856 9.5492 20.8696 12.0003 20.8696C14.4515 20.8696 16.7346 19.8856 18.4313 18.0981C18.6295 17.8894 18.6211 17.5586 18.4114 17.3603Z" fill="#041851"/>
<path d="M10.1153 12.5082C10.8833 12.409 11.4781 11.7506 11.4781 10.9565C11.4781 10.0935 10.7758 9.3913 9.91287 9.3913H8.86941C8.58141 9.3913 8.34766 9.62505 8.34766 9.91305V11.9958C8.34766 11.9979 8.34766 12.0011 8.34766 12.0031V14.0869C8.34766 14.3749 8.58141 14.6087 8.86941 14.6087C9.15741 14.6087 9.39117 14.3749 9.39117 14.0869V13.2595L10.587 14.4563C10.6893 14.5575 10.8228 14.6087 10.9564 14.6087C11.09 14.6087 11.2235 14.5576 11.3247 14.4553C11.5282 14.2518 11.5282 13.921 11.3247 13.7176L10.1153 12.5082ZM9.39117 11.4783V10.4348H9.91292C10.1999 10.4348 10.4347 10.6686 10.4347 10.9566C10.4347 11.2446 10.1999 11.4783 9.91292 11.4783H9.39117V11.4783Z" fill="#041851"/>
<path d="M15.1302 13.5652H13.565V10.4348H15.1302C15.4182 10.4348 15.652 10.201 15.652 9.913C15.652 9.625 15.4182 9.3913 15.1302 9.3913H13.0432C12.7552 9.3913 12.5215 9.62505 12.5215 9.91305V14.0869C12.5215 14.3749 12.7552 14.6087 13.0432 14.6087H15.1302C15.4182 14.6087 15.652 14.3749 15.652 14.0869C15.652 13.7989 15.4182 13.5652 15.1302 13.5652Z" fill="#041851"/>
<path d="M14.0867 11.4783H13.0432C12.7552 11.4783 12.5215 11.712 12.5215 12C12.5215 12.288 12.7552 12.5217 13.0432 12.5217H14.0867C14.3747 12.5217 14.6085 12.288 14.6085 12C14.6085 11.712 14.3747 11.4783 14.0867 11.4783Z" fill="#041851"/>
<path d="M19.304 13.5652H17.7388V10.4348H19.304C19.592 10.4348 19.8258 10.201 19.8258 9.913C19.8258 9.625 19.592 9.3913 19.304 9.3913H17.2171C16.9291 9.3913 16.6953 9.62505 16.6953 9.91305V14.0869C16.6953 14.3749 16.9291 14.6087 17.2171 14.6087H19.304C19.592 14.6087 19.8258 14.3749 19.8258 14.0869C19.8258 13.7989 19.592 13.5652 19.304 13.5652Z" fill="#041851"/>
<path d="M18.2605 11.4783H17.2171C16.9291 11.4783 16.6953 11.712 16.6953 12C16.6953 12.288 16.9291 12.5217 17.2171 12.5217H18.2605C18.5485 12.5217 18.7823 12.288 18.7823 12C18.7823 11.712 18.5485 11.4783 18.2605 11.4783Z" fill="#041851"/>
</svg>
