<svg width="152" height="26" viewBox="0 0 152 26" fill="none" xmlns="http://www.w3.org/2000/svg">
<path d="M5.35434 4.12C6.65034 4.12 7.73834 4.448 8.61834 5.104C9.49834 5.76 9.93834 6.728 9.93834 8.008C9.93834 8.6 9.75434 9.216 9.38634 9.856C9.01834 10.48 8.53834 11.032 7.94634 11.512C7.37034 11.992 6.76234 12.32 6.12234 12.496C7.14634 12.48 8.02634 12.648 8.76234 13C9.49834 13.352 10.0583 13.84 10.4423 14.464C10.8263 15.072 11.0183 15.768 11.0183 16.552C11.0183 17.688 10.6663 18.736 9.96234 19.696C9.25834 20.672 8.29034 21.448 7.05834 22.024C5.82634 22.6 4.46634 22.888 2.97834 22.888C2.22634 22.888 1.50634 22.824 0.818344 22.696V21.112C1.31434 21.224 1.85034 21.28 2.42634 21.28C3.43434 21.28 4.36234 21.088 5.21034 20.704C6.07434 20.336 6.75434 19.816 7.25034 19.144C7.74634 18.472 7.99434 17.72 7.99434 16.888C7.99434 15.784 7.70634 14.952 7.13034 14.392C6.57034 13.832 5.65034 13.528 4.37034 13.48C3.98634 13.576 3.69834 13.64 3.50634 13.672L2.35434 13.912V12.136C3.61834 11.944 4.70634 11.512 5.61834 10.84C6.53034 10.168 6.98634 9.384 6.98634 8.488C6.98634 7.64 6.74634 7.016 6.26634 6.616C5.80234 6.2 5.21034 5.992 4.49034 5.992C3.72234 5.992 3.07434 6.096 2.54634 6.304C2.03434 6.512 1.46634 6.824 0.842344 7.24L0.0743438 6.04C0.634344 5.512 1.37834 5.064 2.30634 4.696C3.23434 4.312 4.25034 4.12 5.35434 4.12ZM24.6363 2.224C23.1163 2.672 21.7643 3.376 20.5803 4.336C19.3963 5.296 18.4603 6.4 17.7723 7.648C17.1003 8.88 16.7563 10.112 16.7403 11.344C16.6923 13.296 16.9163 14.872 17.4123 16.072C17.9083 17.256 18.8363 17.848 20.1963 17.848C21.1883 17.848 21.9403 17.432 22.4523 16.6C22.9803 15.768 23.2443 14.784 23.2443 13.648C23.2443 12.416 22.9883 11.424 22.4763 10.672C21.9643 9.92 21.3003 9.544 20.4843 9.544C20.0043 9.544 19.6203 9.592 19.3323 9.688C19.0443 9.784 18.7563 9.92 18.4683 10.096L17.9163 9.112C18.1403 8.728 18.6123 8.392 19.3323 8.104C20.0523 7.8 20.7723 7.648 21.4923 7.648C22.4683 7.648 23.3003 7.888 23.9883 8.368C24.6763 8.832 25.1963 9.456 25.5483 10.24C25.9003 11.024 26.0763 11.872 26.0763 12.784C26.0763 13.904 25.8123 14.968 25.2843 15.976C24.7723 16.968 24.0363 17.768 23.0763 18.376C22.1323 18.968 21.0363 19.264 19.7883 19.264C18.5723 19.264 17.5003 18.96 16.5723 18.352C15.6603 17.744 14.9483 16.928 14.4363 15.904C13.9403 14.864 13.6923 13.712 13.6923 12.448C13.6923 10.544 14.1803 8.776 15.1563 7.144C16.1483 5.496 17.4363 4.128 19.0203 3.04C20.6203 1.952 22.2763 1.256 23.9883 0.951999L24.6363 2.224ZM28.9107 21.616C29.0707 21.632 29.3107 21.64 29.6307 21.64C30.7187 21.64 31.7427 21.416 32.7027 20.968C33.6787 20.52 34.4627 19.888 35.0547 19.072C35.6467 18.272 35.9427 17.344 35.9427 16.288C35.9427 14.96 35.6147 13.984 34.9587 13.36C34.3187 12.736 33.4387 12.424 32.3187 12.424C31.5027 12.424 30.6387 12.568 29.7267 12.856L28.9347 12.472L29.7747 4.504H36.5187L36.8547 4.216H38.2707L37.5507 6.88H31.8387L31.0227 11.32C31.9347 10.936 32.8627 10.744 33.8067 10.744C34.7507 10.744 35.6227 10.944 36.4227 11.344C37.2227 11.744 37.8547 12.336 38.3187 13.12C38.7987 13.904 39.0387 14.84 39.0387 15.928C39.0387 17.176 38.6387 18.352 37.8387 19.456C37.0387 20.56 35.9587 21.44 34.5987 22.096C33.2387 22.768 31.7667 23.104 30.1827 23.104C29.6387 23.104 29.2067 23.056 28.8867 22.96L28.9107 21.616ZM48.905 17.368V2.632L46.961 2.368V0.808H50.417C50.849 0.808 51.361 0.783999 51.953 0.735999C53.009 0.671999 53.873 0.639999 54.545 0.639999C56.625 0.639999 58.217 1.048 59.321 1.864C60.441 2.68 61.001 4.064 61.001 6.016C61.001 7.232 60.697 8.296 60.089 9.208C59.481 10.104 58.665 10.792 57.641 11.272C56.617 11.752 55.497 11.992 54.281 11.992H53.081C52.489 11.992 52.081 12.008 51.857 12.04V17.368L54.881 17.752V19H46.745V17.752L48.905 17.368ZM51.857 10.384C52.369 10.464 53.129 10.504 54.137 10.504C55.321 10.504 56.265 10.152 56.969 9.448C57.673 8.744 58.025 7.592 58.025 5.992C58.025 4.712 57.649 3.744 56.897 3.088C56.161 2.432 55.121 2.12 53.777 2.152C52.865 2.216 52.225 2.288 51.857 2.368V10.384ZM64.4258 17.512V8.656L62.7698 7.672V6.664L66.3218 5.608L66.9938 5.824V7.816C67.2498 7.288 67.7698 6.792 68.5538 6.328C69.3538 5.848 70.0898 5.608 70.7618 5.608C71.3698 5.608 71.7618 5.64 71.9378 5.704V8.584C71.3618 8.296 70.6738 8.152 69.8738 8.152C68.8818 8.152 68.0578 8.368 67.4018 8.8V17.464L70.4978 17.776V19H62.6978V17.776L64.4258 17.512ZM80.222 5.488C82.206 5.488 83.718 6.096 84.758 7.312C85.798 8.512 86.318 10.12 86.318 12.136C86.318 13.544 86.038 14.792 85.478 15.88C84.918 16.952 84.15 17.792 83.174 18.4C82.198 18.992 81.094 19.288 79.862 19.288C77.798 19.288 76.238 18.656 75.182 17.392C74.126 16.112 73.598 14.448 73.598 12.4C73.598 10.992 73.894 9.768 74.486 8.728C75.078 7.688 75.87 6.888 76.862 6.328C77.87 5.768 78.99 5.488 80.222 5.488ZM79.982 6.928C77.822 6.928 76.742 8.64 76.742 12.064C76.742 13.632 77.014 14.976 77.558 16.096C78.102 17.216 78.91 17.784 79.982 17.8C81.15 17.816 81.974 17.352 82.454 16.408C82.95 15.464 83.198 14.112 83.198 12.352C83.198 10.736 82.934 9.432 82.406 8.44C81.894 7.432 81.086 6.928 79.982 6.928ZM94.7013 5.44C96.1893 5.44 97.3813 5.768 98.2773 6.424C98.5973 5.912 99.3093 5.656 100.413 5.656H101.685V7.816H99.3573C99.6293 8.36 99.7653 9.008 99.7653 9.76C99.7653 10.768 99.5173 11.632 99.0213 12.352C98.5253 13.072 97.8613 13.616 97.0293 13.984C96.1973 14.336 95.2693 14.512 94.2453 14.512C93.4133 14.512 92.6373 14.4 91.9173 14.176C91.8213 14.432 91.7733 14.696 91.7733 14.968C91.7733 15.24 91.7733 15.392 91.7733 15.424C91.7733 15.872 91.8933 16.208 92.1333 16.432C92.3893 16.656 92.7893 16.776 93.3333 16.792C93.8613 16.824 94.8373 16.84 96.2613 16.84C98.1813 16.84 99.4933 17.168 100.197 17.824C100.901 18.48 101.253 19.4 101.253 20.584C101.253 21.544 100.965 22.368 100.389 23.056C99.8133 23.76 99.0133 24.296 97.9893 24.664C96.9813 25.032 95.8213 25.216 94.5093 25.216C92.8293 25.216 91.4453 24.944 90.3573 24.4C89.2693 23.856 88.7253 22.968 88.7253 21.736C88.7253 21.08 88.9173 20.464 89.3013 19.888C89.7013 19.328 90.1733 18.888 90.7173 18.568C90.3013 18.424 89.9973 18.248 89.8053 18.04C89.6133 17.816 89.4933 17.592 89.4453 17.368C89.4133 17.128 89.3973 16.824 89.3973 16.456C89.3973 16.12 89.5413 15.68 89.8293 15.136C90.1173 14.576 90.4693 14.112 90.8853 13.744C89.5413 12.976 88.8693 11.784 88.8693 10.168C88.8693 9.128 89.1413 8.256 89.6853 7.552C90.2293 6.848 90.9413 6.32 91.8213 5.968C92.7013 5.616 93.6613 5.44 94.7013 5.44ZM94.2453 6.808C93.4933 6.808 92.8933 7.032 92.4453 7.48C91.9973 7.928 91.7733 8.616 91.7733 9.544C91.7733 10.584 91.9973 11.424 92.4453 12.064C92.8933 12.704 93.5973 13.024 94.5573 13.024C95.4053 13.024 96.0133 12.768 96.3813 12.256C96.7493 11.744 96.9333 10.992 96.9333 10C96.9333 7.872 96.0373 6.808 94.2453 6.808ZM91.9653 18.856C91.5973 19.384 91.4133 20.048 91.4133 20.848C91.4133 21.808 91.7493 22.52 92.4213 22.984C93.0933 23.464 93.9493 23.704 94.9893 23.704C96.2053 23.704 97.1253 23.512 97.7493 23.128C98.3893 22.744 98.7093 22.136 98.7093 21.304C98.7093 20.744 98.6213 20.296 98.4453 19.96C98.2693 19.624 97.9573 19.376 97.5093 19.216C97.0613 19.056 96.4213 18.976 95.5893 18.976L93.9093 18.952C93.0773 18.952 92.4293 18.92 91.9653 18.856ZM104.968 17.512V8.656L103.312 7.672V6.664L106.864 5.608L107.536 5.824V7.816C107.792 7.288 108.312 6.792 109.096 6.328C109.896 5.848 110.632 5.608 111.304 5.608C111.912 5.608 112.304 5.64 112.48 5.704V8.584C111.904 8.296 111.216 8.152 110.416 8.152C109.424 8.152 108.6 8.368 107.944 8.8V17.464L111.04 17.776V19H103.24V17.776L104.968 17.512ZM119.948 5.608C121.5 5.608 122.7 5.952 123.548 6.64C124.396 7.328 124.82 8.48 124.82 10.096V17.776H126.308V18.736C126.02 18.912 125.644 19.048 125.18 19.144C124.716 19.256 124.26 19.312 123.812 19.312C123.236 19.312 122.82 19.2 122.564 18.976C122.308 18.736 122.172 18.352 122.156 17.824C121.276 18.816 120.036 19.312 118.436 19.312C117.62 19.312 116.892 19.16 116.252 18.856C115.612 18.536 115.116 18.096 114.764 17.536C114.412 16.976 114.236 16.344 114.236 15.64C114.236 14.584 114.628 13.712 115.412 13.024C116.196 12.336 117.172 11.84 118.34 11.536C119.508 11.216 120.684 11.056 121.868 11.056V10.336C121.868 9.248 121.62 8.488 121.124 8.056C120.628 7.624 119.892 7.408 118.916 7.408C118.388 7.408 117.788 7.496 117.116 7.672C116.444 7.848 115.86 8.072 115.364 8.344L114.812 7.024C115.356 6.576 116.132 6.232 117.14 5.992C118.164 5.736 119.1 5.608 119.948 5.608ZM121.868 12.496C120.668 12.496 119.588 12.712 118.628 13.144C117.684 13.576 117.212 14.264 117.212 15.208C117.212 16.76 118.036 17.536 119.684 17.536C120.068 17.536 120.46 17.456 120.86 17.296C121.276 17.136 121.604 16.944 121.844 16.72L121.868 12.496ZM129.894 17.512V8.656L128.262 7.672V6.664L131.838 5.608L132.486 5.824V7.528C133.014 7.016 133.71 6.576 134.574 6.208C135.438 5.824 136.246 5.624 136.998 5.608C137.894 5.56 138.63 5.672 139.206 5.944C139.798 6.2 140.238 6.656 140.526 7.312C141.134 6.816 141.878 6.408 142.758 6.088C143.638 5.768 144.47 5.608 145.254 5.608C146.662 5.608 147.662 6.064 148.254 6.976C148.862 7.872 149.166 9.28 149.166 11.2V17.512L151.014 17.776V19H144.702V17.776L146.214 17.512V11.656C146.214 10.664 146.15 9.888 146.022 9.328C145.894 8.768 145.646 8.352 145.278 8.08C144.926 7.808 144.406 7.672 143.718 7.672C143.254 7.672 142.782 7.752 142.302 7.912C141.822 8.056 141.366 8.264 140.934 8.536C141.078 9.128 141.15 9.944 141.15 10.984V17.512L142.902 17.776V19H136.47V17.776L138.198 17.488V11.512C138.198 10.584 138.126 9.848 137.982 9.304C137.854 8.744 137.614 8.336 137.262 8.08C136.91 7.808 136.406 7.672 135.75 7.672C135.302 7.672 134.822 7.752 134.31 7.912C133.798 8.072 133.318 8.32 132.87 8.656V17.512L134.526 17.776V19H128.358V17.776L129.894 17.512Z" fill="#000086"/>
</svg>
