<svg width="57" height="48" viewBox="0 0 57 48" fill="none" xmlns="http://www.w3.org/2000/svg">
<path d="M56.0016 19.707C55.5384 20.2062 55.1044 20.7391 54.6033 21.1959C53.9195 21.8196 53.1816 22.3832 52.4218 23.0113C53.8669 24.0581 54.6603 25.427 54.6661 27.1677C54.6734 28.8938 53.9107 30.2612 52.53 31.2729C54.6121 34.8627 52.1369 38.9825 48.1145 38.9561C47.9362 40.4451 47.3109 41.7056 46.0675 42.5987C44.8299 43.4873 43.4462 43.7113 42.0246 43.4185C41.7674 44.0407 41.5921 44.6454 41.2867 45.1724C39.9761 47.4314 37.1211 48.2703 34.8228 47.0288C32.8678 45.9733 30.9654 44.8181 29.0397 43.7084C28.8673 43.6088 28.6919 43.5107 28.4669 43.3848C28.3369 43.5869 28.2156 43.7845 28.0856 43.9734C26.9561 45.6029 25.3913 46.3598 23.4363 46.1577C21.6099 45.9689 20.2935 44.9689 19.5118 43.3043C19.3467 42.953 19.202 42.8344 18.7988 42.8636C16.4844 43.0379 14.7456 41.994 13.7682 39.8697C13.6483 39.6076 13.5168 39.5476 13.2363 39.5666C10.7568 39.7291 9.14228 38.7863 8.07275 36.5331C7.91203 36.195 7.69871 36.2725 7.45616 36.2872C5.11692 36.438 3.16634 35.2668 2.36273 33.2039C1.81481 31.7984 1.87472 30.4047 2.59212 29.0724C3.19702 27.948 3.84868 26.85 4.50764 25.6919C3.536 25.1254 2.5819 24.5676 1.62779 24.0112C1.37648 23.8648 1.11786 23.7272 0.872397 23.572C0.00303662 23.0201 -0.239508 22.1665 0.248503 21.2515C3.31537 15.4993 6.38663 9.75004 9.46519 4.00516C9.98534 3.0345 10.9102 2.78269 11.8775 3.33609C14.1232 4.62298 16.3631 5.91719 18.5942 7.2275C18.9069 7.41051 19.1246 7.40612 19.4329 7.22458C21.9635 5.74004 24.5073 4.27747 27.0438 2.80465C28.7402 1.81935 30.5037 1.64952 32.3462 2.33323C33.9666 2.93495 35.5869 3.53959 37.219 4.10764C37.4513 4.18816 37.799 4.15595 38.0153 4.03444C39.7935 3.03304 41.5526 1.99796 43.3191 0.976064C44.469 0.309927 45.3033 0.526605 45.974 1.67295C49.1913 7.17334 52.4072 12.6752 55.6231 18.177C55.7488 18.3937 55.8759 18.6089 56.0016 18.8256C56.0016 19.1213 56.0016 19.4142 56.0016 19.707ZM30.0858 40.5124C32.1942 41.7305 34.2675 42.9471 36.3672 44.1183C36.6565 44.2794 37.0831 44.3043 37.4192 44.2413C38.1307 44.1095 38.5544 43.6191 38.6889 42.9017C38.8101 42.2502 38.4858 41.587 37.8327 41.202C36.6243 40.4875 35.4058 39.7921 34.193 39.0864C33.5501 38.7116 33.2068 38.1538 33.3047 37.4042C33.4639 36.1788 34.719 35.6035 35.8382 36.2447C37.9583 37.457 40.055 38.7102 42.1897 39.8946C42.5871 40.1156 43.1277 40.2137 43.5807 40.1669C44.2557 40.0951 44.7408 39.4934 44.8153 38.8068C44.8971 38.0572 44.5684 37.4979 43.924 37.1232C41.8273 35.9065 39.7306 34.6914 37.6354 33.4733C36.6316 32.8892 36.297 31.9536 36.7792 31.0957C37.2716 30.2217 38.2637 30.0387 39.2952 30.6345C40.4159 31.2816 41.5351 31.9317 42.6543 32.5802C44.2615 33.5128 45.8688 34.4484 47.4789 35.378C48.0823 35.7265 48.6945 35.7411 49.2848 35.3473C49.8371 34.9769 50.0607 34.4366 49.9862 33.7837C49.9131 33.1468 49.5172 32.7501 48.9795 32.4397C46.2633 30.8746 43.5544 29.2979 40.844 27.724C40.1091 27.2965 39.7569 26.6641 39.8636 25.9818C40.0565 24.7594 41.2867 24.1957 42.4103 24.8399C44.5611 26.0711 46.6987 27.3273 48.848 28.56C49.7305 29.0666 50.7153 28.8177 51.177 28.0051C51.6431 27.1882 51.3625 26.2234 50.4756 25.7081C43.3834 21.5897 36.2897 17.4758 29.1858 13.3779C29.0134 13.2784 28.689 13.2901 28.5093 13.3867C27.6429 13.8508 26.8013 14.3632 25.9494 14.8551C24.1362 15.9049 22.339 16.9868 20.5039 17.9955C18.169 19.278 15.333 18.4977 13.9552 16.2518C12.5788 14.0089 13.191 11.135 15.3725 9.59632C15.4718 9.52604 15.558 9.43967 15.6822 9.33426C14.3088 8.53928 12.9762 7.76773 11.6057 6.97569C9.01224 11.8304 6.44361 16.6398 3.8516 21.4916C4.56755 21.9089 5.25281 22.2837 5.91031 22.6995C6.23467 22.9044 6.45092 22.8942 6.7709 22.657C8.88513 21.0905 11.7591 21.4565 13.4526 23.4769C13.5548 23.5998 13.6571 23.7228 13.7667 23.8546C15.466 22.8971 17.1813 22.7683 18.8806 23.7418C20.6003 24.7271 21.3572 26.2966 21.3791 28.2408C21.458 28.2672 21.5091 28.2891 21.5617 28.3009C24.3875 28.9099 25.6338 30.3037 25.9597 33.1732C25.9743 33.3079 26.2066 33.4953 26.3615 33.5245C28.4202 33.9169 29.7615 35.1116 30.3605 37.1188C30.6951 38.2607 30.5534 39.3939 30.0858 40.5124ZM43.8188 4.49561C42.1108 5.48676 40.467 6.42668 38.8364 7.39001C38.2257 7.75017 37.6383 7.81166 36.9648 7.55399C35.0799 6.83075 33.1761 6.1529 31.2854 5.44431C30.3927 5.10904 29.5482 5.15589 28.7168 5.64049C24.953 7.82922 21.1833 10.0077 17.4209 12.1979C17.2062 12.3238 16.9943 12.4893 16.8438 12.6854C16.3631 13.312 16.404 14.1831 16.9066 14.7585C17.4355 15.3632 18.2801 15.4905 19.0472 15.0469C21.9343 13.3809 24.8258 11.7221 27.6955 10.0238C28.4918 9.5524 29.1858 9.54361 29.988 10.0136C34.4531 12.6283 38.9343 15.2124 43.4112 17.8066C45.3954 18.9559 47.381 20.1037 49.3798 21.2618C50.3368 20.4683 51.2749 19.6923 52.2348 18.8959C49.4251 14.0865 46.6358 9.31522 43.8188 4.49561ZM18.1252 28.0637C18.0697 27.2907 17.5904 26.6348 16.8935 26.4401C16.1468 26.2322 15.4104 26.5308 14.9882 27.257C13.7346 29.4179 12.4897 31.5818 11.2536 33.7515C10.7466 34.6401 10.9789 35.6152 11.7825 36.0895C12.608 36.5771 13.5724 36.2872 14.1042 35.3692C15.3374 33.2391 16.5647 31.1074 17.7818 28.967C17.9382 28.6903 18.0127 28.3653 18.1252 28.0637ZM22.7131 33.2449C22.6561 32.469 22.1929 31.8497 21.4697 31.6418C20.7201 31.4266 20.0086 31.7179 19.5746 32.4602C18.6833 33.9872 17.8023 35.5186 16.93 37.0558C16.4274 37.9415 16.667 38.921 17.4721 39.3895C18.283 39.8609 19.2502 39.5842 19.7631 38.7043C20.6544 37.1788 21.5354 35.6445 22.4019 34.1058C22.5509 33.8437 22.6123 33.5333 22.7131 33.2449ZM6.93162 33.0121C7.50438 33.018 7.98655 32.7867 8.27146 32.3065C9.24748 30.6609 10.2089 29.008 11.1309 27.3317C11.5356 26.5953 11.2141 25.648 10.5172 25.2235C9.78517 24.7769 8.796 24.9336 8.3416 25.6832C7.34073 27.3346 6.36325 29.0021 5.45882 30.7077C4.89045 31.7765 5.73059 33.0121 6.93162 33.0121ZM23.9886 42.8959C24.5818 42.8959 25.0567 42.6382 25.3577 42.1404C25.9509 41.158 26.531 40.1684 27.0687 39.1552C27.4895 38.3632 27.1724 37.4013 26.417 36.9753C25.6762 36.5595 24.7177 36.7689 24.2575 37.5155C23.6467 38.5067 23.0506 39.511 22.5202 40.5475C21.9562 41.6543 22.7657 42.9017 23.9886 42.8959Z" fill="#000086"/>
</svg>
