<svg width="73" height="73" viewBox="0 0 73 73" fill="none" xmlns="http://www.w3.org/2000/svg">
<g clip-path="url(#clip0_1098_789)">
<path d="M56.9295 39.3931C56.578 39.041 56.1605 38.7617 55.7009 38.5711C55.2413 38.3805 54.7487 38.2824 54.2511 38.2824C53.7536 38.2824 53.2609 38.3805 52.8013 38.5711C52.3417 38.7617 51.9242 39.041 51.5727 39.3931L45.534 45.4318C42.7344 44.5984 37.5102 42.7042 34.1992 39.3931C30.8881 36.0821 28.9939 30.8579 28.1605 28.0583L34.1992 22.0196C34.5513 21.668 34.8306 21.2505 35.0212 20.791C35.2118 20.3314 35.3099 19.8387 35.3099 19.3412C35.3099 18.8436 35.2118 18.351 35.0212 17.8914C34.8306 17.4318 34.5513 17.0143 34.1992 16.6628L19.0456 1.5092C18.6941 1.15708 18.2766 0.877736 17.817 0.687139C17.3574 0.496542 16.8647 0.398438 16.3672 0.398438C15.8696 0.398438 15.377 0.496542 14.9174 0.687139C14.4578 0.877736 14.0403 1.15708 13.6888 1.5092L3.41467 11.7833C1.97508 13.2229 1.16436 15.2005 1.19467 17.2197C1.2818 22.6143 2.71003 41.3517 17.4772 56.1189C32.2443 70.886 50.9817 72.3105 56.3802 72.4014H56.4863C58.4865 72.4014 60.377 71.6134 61.809 70.1814L72.0831 59.9073C72.4352 59.5558 72.7146 59.1383 72.9052 58.6787C73.0957 58.2191 73.1938 57.7264 73.1938 57.2289C73.1938 56.7313 73.0957 56.2387 72.9052 55.7791C72.7146 55.3195 72.4352 54.902 72.0831 54.5505L56.9295 39.3931ZM56.4484 64.8208C51.7205 64.7413 35.544 63.4722 22.834 50.7583C10.0822 38.0066 8.84722 21.7733 8.77146 17.1401L16.3672 9.54438L26.164 19.3412L21.2656 24.2396C20.8203 24.6845 20.4929 25.2334 20.313 25.8366C20.1331 26.4399 20.1063 27.0784 20.2351 27.6946C20.3261 28.1302 22.5498 38.4612 28.8386 44.7499C35.1273 51.0386 45.4583 53.2624 45.8939 53.3534C46.5097 53.4858 47.1489 53.4612 47.7527 53.2818C48.3565 53.1024 48.9054 52.7739 49.3489 52.3267L54.2511 47.4283L64.0479 57.2251L56.4484 64.8208Z" fill="#000086"/>
</g>
<defs>
<clipPath id="clip0_1098_789">
<rect width="72" height="72" fill="white" transform="translate(0.5 0.398438)"/>
</clipPath>
</defs>
</svg>
