<svg width="72" height="72" viewBox="0 0 72 72" fill="none" xmlns="http://www.w3.org/2000/svg">
<path d="M70.7673 12.8782C70.1119 6.73791 65.2626 1.88745 59.1218 1.23267C43.7223 -0.410888 28.2777 -0.410888 12.8787 1.23267C6.73791 1.888 1.888 6.73791 1.23267 12.8782C-0.410888 28.2771 -0.410888 43.7223 1.23267 59.1212C1.888 65.262 6.73791 70.1119 12.8782 70.7673C28.2771 72.4108 43.7223 72.4108 59.1218 70.7673C65.2626 70.1119 70.1119 65.262 70.7673 59.1212C72.4108 43.7223 72.4108 28.2777 70.7673 12.8782Z" fill="url(#paint0_radial_981_901)"/>
<path d="M66.8511 15.4824C66.2699 10.0337 61.9666 5.72983 56.5174 5.1481C42.8526 3.69022 29.1472 3.69022 15.4824 5.1481C10.0337 5.72983 5.72983 10.0337 5.1481 15.4824C3.69022 29.1472 3.69022 42.8526 5.1481 56.5168C5.72983 61.9661 10.0337 66.2699 15.4824 66.8511C29.1472 68.3096 42.8526 68.3096 56.5168 66.8511C61.9661 66.2699 66.2699 61.9661 66.8511 56.5168C68.3096 42.8526 68.3096 29.1472 66.8511 15.4824Z" fill="url(#paint1_linear_981_901)"/>
<path d="M1.0791 57.6289C1.12854 58.1266 1.17963 58.6243 1.23291 59.1219C1.88824 65.2622 6.73815 70.1121 12.879 70.7674C28.2779 72.411 43.7231 72.411 59.122 70.7674C65.2628 70.1121 70.1122 65.2622 70.7675 59.1219C70.8208 58.6243 70.8719 58.1266 70.9219 57.6289H1.0791Z" fill="url(#paint2_linear_981_901)"/>
<path d="M70.7674 59.1211C71.6507 50.8467 72.0582 42.5592 71.9923 34.2728L55.5348 17.8153C53.4787 15.468 50.4756 14.003 46.9468 13.8761C39.6898 13.6146 32.4097 13.6278 25.1516 13.8772C19.1234 14.0849 14.908 18.1366 13.8269 24.0918C13.6363 25.1431 13.522 26.2083 13.3721 27.2673V44.7257C13.455 45.2915 13.577 45.8545 13.6149 46.4236C13.8566 50.0458 15.3452 53.1484 17.7287 55.2473L34.4762 71.9943C42.6951 72.052 50.9145 71.6433 59.1219 70.7671C65.2627 70.1118 70.112 65.2619 70.7674 59.1211Z" fill="url(#paint3_linear_981_901)"/>
<path d="M70.7677 59.1216C70.1129 65.2613 65.2619 70.1123 59.1222 70.7671C50.916 71.6427 42.6949 72.0519 34.4772 71.9942L17.7549 55.2719C19.6934 56.9688 22.2203 58.002 25.1525 58.1125C32.409 58.3849 39.6907 58.3778 46.9472 58.1163C53.5104 57.879 58.2598 53.0214 58.4647 46.4582C58.6833 39.4895 58.6833 32.5028 58.4647 25.5342C58.3713 22.5063 57.3084 19.8422 55.5462 17.8262L71.9932 34.2732C72.0581 42.5586 71.6505 50.8472 70.7677 59.1216Z" fill="url(#paint4_linear_981_901)"/>
<path d="M44.4958 28.2037C42.3876 25.9081 39.3625 24.4678 36.0001 24.4678C29.6313 24.4678 24.4678 29.6313 24.4678 36.0001C24.4678 39.3625 25.9081 42.3876 28.2037 44.4958L54.8856 71.1778C56.2979 71.0547 57.7102 70.9179 59.1214 70.7674C65.2622 70.1121 70.1121 65.2622 70.7674 59.1214C70.9179 57.7102 71.0547 56.2979 71.1778 54.8856L44.4958 28.2037Z" fill="url(#paint5_linear_981_901)"/>
<path d="M71.8604 43.7559L50.3865 22.2826C49.8856 21.6251 49.0962 21.1982 48.2057 21.1982C46.6907 21.1982 45.4619 22.4265 45.4619 23.9421C45.4619 24.8325 45.8887 25.6219 46.5463 26.1229L71.4764 51.0536C71.6456 48.6217 71.7736 46.1888 71.8604 43.7559Z" fill="url(#paint6_linear_981_901)"/>
<path d="M13.3721 27.2673C13.522 26.2083 13.6363 25.1431 13.8269 24.0918C14.9074 18.1366 19.1234 14.0849 25.1516 13.8772C32.4097 13.6278 39.6898 13.6146 46.9468 13.8761C53.5078 14.1123 58.2594 18.9705 58.4643 25.5337C58.6824 32.5029 58.6824 39.4891 58.4643 46.4582C58.2594 53.0215 53.5095 57.8791 46.9474 58.1158C39.6903 58.3779 32.4086 58.3844 25.1522 58.112C18.59 57.8653 14.0538 52.9962 13.6149 46.4231C13.577 45.8545 13.455 45.291 13.3721 44.7252C13.3721 38.9057 13.3721 33.0863 13.3721 27.2673ZM36.0061 54.2261C39.3273 54.2261 42.6517 54.3256 45.9685 54.2031C51.1689 54.0102 54.3675 50.9066 54.4889 45.7112C54.6394 39.2375 54.6394 32.755 54.4889 26.2808C54.3675 21.0864 51.1667 17.9103 45.9685 17.7999C39.3706 17.6604 32.7657 17.6615 26.1678 17.7999C21.0092 17.9081 17.8012 21.02 17.6611 26.1572C17.4832 32.7127 17.4832 39.2798 17.6611 45.8353C17.8012 50.972 21.0092 54.0119 26.1684 54.2031C29.4434 54.325 32.7267 54.2261 36.0061 54.2261Z" fill="url(#paint7_linear_981_901)"/>
<path d="M13.3721 27.2673C13.522 26.2083 13.6363 25.1431 13.8269 24.0918C14.9074 18.1366 19.1234 14.0849 25.1516 13.8772C32.4097 13.6278 39.6898 13.6146 46.9468 13.8761C53.5078 14.1123 58.2594 18.9705 58.4643 25.5337C58.6824 32.5029 58.6824 39.4891 58.4643 46.4582C58.2594 53.0215 53.5095 57.8791 46.9474 58.1158C39.6903 58.3779 32.4086 58.3844 25.1522 58.112C18.59 57.8653 14.0538 52.9962 13.6149 46.4231C13.577 45.8545 13.455 45.291 13.3721 44.7252C13.3721 38.9057 13.3721 33.0863 13.3721 27.2673ZM36.0061 54.2261C39.3273 54.2261 42.6517 54.3256 45.9685 54.2031C51.1689 54.0102 54.3675 50.9066 54.4889 45.7112C54.6394 39.2375 54.6394 32.755 54.4889 26.2808C54.3675 21.0864 51.1667 17.9103 45.9685 17.7999C39.3706 17.6604 32.7657 17.6615 26.1678 17.7999C21.0092 17.9081 17.8012 21.02 17.6611 26.1572C17.4832 32.7127 17.4832 39.2798 17.6611 45.8353C17.8012 50.972 21.0092 54.0119 26.1684 54.2031C29.4434 54.325 32.7267 54.2261 36.0061 54.2261Z" fill="white"/>
<path d="M36.0001 24.4683C29.6313 24.4683 24.4678 29.6313 24.4678 36.0001C24.4678 42.3694 29.6313 47.5324 36.0001 47.5324C42.3694 47.5324 47.5325 42.3694 47.5325 36.0001C47.5325 29.6313 42.3694 24.4683 36.0001 24.4683ZM36.0001 43.5619C31.8237 43.5619 28.4382 40.1765 28.4382 36.0001C28.4382 31.8236 31.8237 28.4382 36.0001 28.4382C40.1766 28.4382 43.562 31.8236 43.562 36.0001C43.562 40.1765 40.1766 43.5619 36.0001 43.5619Z" fill="white"/>
<path d="M50.949 23.9416C50.949 25.4566 49.7208 26.6849 48.2057 26.6849C46.6907 26.6849 45.4619 25.4566 45.4619 23.9416C45.4619 22.426 46.6907 21.1978 48.2057 21.1978C49.7208 21.1978 50.949 22.426 50.949 23.9416Z" fill="white"/>
<defs>
<radialGradient id="paint0_radial_981_901" cx="0" cy="0" r="1" gradientUnits="userSpaceOnUse" gradientTransform="translate(14.7596 62.9222) scale(79.4033)">
<stop stop-color="#FAE100"/>
<stop offset="0.0544" stop-color="#FADC04"/>
<stop offset="0.1167" stop-color="#FBCE0E"/>
<stop offset="0.1829" stop-color="#FCB720"/>
<stop offset="0.2514" stop-color="#FE9838"/>
<stop offset="0.3054" stop-color="#FF7950"/>
<stop offset="0.4922" stop-color="#FF1C74"/>
<stop offset="1" stop-color="#6C1CD1"/>
</radialGradient>
<linearGradient id="paint1_linear_981_901" x1="27.6148" y1="31.2833" x2="-94.3616" y2="-37.3285" gradientUnits="userSpaceOnUse">
<stop stop-color="#A1B5D8" stop-opacity="0"/>
<stop offset="0.3094" stop-color="#90A2BD" stop-opacity="0.309804"/>
<stop offset="0.7554" stop-color="#7C8B9C" stop-opacity="0.756863"/>
<stop offset="1" stop-color="#748290"/>
</linearGradient>
<linearGradient id="paint2_linear_981_901" x1="36.0003" y1="63.5578" x2="36.0003" y2="74.7808" gradientUnits="userSpaceOnUse">
<stop stop-color="#FAE100" stop-opacity="0"/>
<stop offset="0.3068" stop-color="#FCA800" stop-opacity="0.305882"/>
<stop offset="0.6275" stop-color="#FE7300" stop-opacity="0.627451"/>
<stop offset="0.8685" stop-color="#FF5200" stop-opacity="0.866667"/>
<stop offset="1" stop-color="#FF4500"/>
</linearGradient>
<linearGradient id="paint3_linear_981_901" x1="31.904" y1="31.8019" x2="14.0852" y2="13.983" gradientUnits="userSpaceOnUse">
<stop stop-color="#833AB4" stop-opacity="0"/>
<stop offset="1" stop-color="#833AB4"/>
</linearGradient>
<linearGradient id="paint4_linear_981_901" x1="49.3457" y1="65.8526" x2="40.452" y2="23.9253" gradientUnits="userSpaceOnUse">
<stop stop-color="#833AB4" stop-opacity="0"/>
<stop offset="1" stop-color="#833AB4"/>
</linearGradient>
<linearGradient id="paint5_linear_981_901" x1="52.7296" y1="52.7296" x2="17.0075" y2="17.0074" gradientUnits="userSpaceOnUse">
<stop stop-color="#833AB4" stop-opacity="0"/>
<stop offset="1" stop-color="#833AB4"/>
</linearGradient>
<linearGradient id="paint6_linear_981_901" x1="55.379" y1="31.1152" x2="43.5664" y2="19.3026" gradientUnits="userSpaceOnUse">
<stop stop-color="#833AB4" stop-opacity="0"/>
<stop offset="1" stop-color="#833AB4"/>
</linearGradient>
<linearGradient id="paint7_linear_981_901" x1="50.2957" y1="21.8037" x2="21.1701" y2="50.9293" gradientUnits="userSpaceOnUse">
<stop stop-color="#833AB4"/>
<stop offset="0.0922" stop-color="#9C3495"/>
<stop offset="0.2927" stop-color="#DC2546"/>
<stop offset="0.392" stop-color="#FD1D1D"/>
<stop offset="0.5589" stop-color="#FC6831"/>
<stop offset="0.6887" stop-color="#FC9B40"/>
<stop offset="0.7521" stop-color="#FCAF45"/>
<stop offset="0.7806" stop-color="#FDB750"/>
<stop offset="0.8656" stop-color="#FECB6A"/>
<stop offset="0.9415" stop-color="#FFD87A"/>
<stop offset="1" stop-color="#FFDC80"/>
</linearGradient>
</defs>
</svg>
