<svg width="24" height="24" viewBox="0 0 24 24" fill="none" xmlns="http://www.w3.org/2000/svg">
<path d="M3.69043 9.95152C3.88463 9.95152 4.04199 9.79411 4.04199 9.59996V8.35407L5.00612 9.75024C5.10732 9.89644 5.27696 9.95832 5.43816 9.90788C5.60232 9.8566 5.7084 9.7043 5.7084 9.51638L5.68618 7.21843C5.6843 7.0254 5.52727 6.87024 5.33471 6.87024C5.33359 6.87024 5.33237 6.87024 5.33124 6.87024C5.13704 6.87211 4.98118 7.03102 4.98305 7.22518L4.99538 8.49722L3.97974 7.02657C3.89232 6.89996 3.73285 6.84497 3.5858 6.89072C3.43895 6.93652 3.33887 7.0725 3.33887 7.22635V9.6C3.33887 9.79411 3.49627 9.95152 3.69043 9.95152Z" fill="#041851"/>
<path d="M12.2026 9.95155C12.3968 9.95155 12.5542 9.79414 12.5542 9.59999V7.22192C12.5542 7.02777 12.3968 6.87036 12.2026 6.87036C12.0084 6.87036 11.8511 7.02777 11.8511 7.22192V9.59999C11.8511 9.79414 12.0084 9.95155 12.2026 9.95155Z" fill="#041851"/>
<path d="M2.40625 9.95155C2.60045 9.95155 2.75781 9.79414 2.75781 9.59999V7.22192C2.75781 7.02777 2.60045 6.87036 2.40625 6.87036C2.21205 6.87036 2.05469 7.02777 2.05469 7.22192V9.59999C2.05469 9.79414 2.21205 9.95155 2.40625 9.95155Z" fill="#041851"/>
<path d="M15.9819 7.24365V9.60006C15.9819 9.79421 16.1393 9.95162 16.3335 9.95162H17.3264C17.5206 9.95162 17.678 9.79421 17.678 9.60006C17.678 9.4059 17.5206 9.2485 17.3264 9.2485H16.6851V8.77342H17.2531C17.4473 8.77342 17.6047 8.61601 17.6047 8.42186C17.6047 8.2277 17.4473 8.07029 17.2531 8.07029H16.6851V7.59521H17.3264C17.5206 7.59521 17.678 7.43781 17.678 7.24365C17.678 7.0495 17.5206 6.89209 17.3264 6.89209H16.3335C16.1393 6.89209 15.9819 7.0495 15.9819 7.24365Z" fill="#041851"/>
<path d="M14.4186 9.95155C14.7596 9.95155 15.0661 9.83914 15.3052 9.62633C15.3519 9.58466 15.3962 9.53886 15.437 9.49025C15.5618 9.34152 15.5424 9.11975 15.3936 8.99497C15.2448 8.87019 15.0231 8.8896 14.8983 9.03838C14.8793 9.06106 14.8587 9.08235 14.8374 9.10133C14.7278 9.19897 14.5869 9.24842 14.4186 9.24842C13.9568 9.24842 13.5811 8.87272 13.5811 8.41095C13.5811 7.94919 13.9568 7.57349 14.4186 7.57349C14.5864 7.57349 14.7483 7.62289 14.8866 7.71631C15.0475 7.82502 15.266 7.78269 15.3747 7.62181C15.4833 7.46089 15.4411 7.24236 15.2801 7.13366C15.0252 6.96139 14.7272 6.87036 14.4185 6.87036C13.5691 6.87036 12.8779 7.56149 12.8779 8.41095C12.8779 9.26042 13.5691 9.95155 14.4186 9.95155Z" fill="#041851"/>
<path d="M6.81433 9.68191C6.8717 9.84348 7.02489 9.95153 7.19617 9.95153H7.19894C7.3713 9.95036 7.52435 9.83997 7.58069 9.67441L8.35713 7.33708C8.41839 7.15281 8.31859 6.95383 8.13433 6.89261C7.95025 6.83144 7.75108 6.93114 7.68991 7.11541L7.19008 8.62005L6.6647 7.10659C6.6011 6.92317 6.40066 6.82614 6.21733 6.88975C6.03391 6.95341 5.93683 7.15375 6.00049 7.33717L6.81433 9.68191Z" fill="#041851"/>
<path d="M9.88727 9.95155C10.7368 9.95155 11.4279 9.26042 11.4279 8.41095C11.4279 7.56149 10.7368 6.87036 9.88727 6.87036C9.0378 6.87036 8.34668 7.56149 8.34668 8.41095C8.34668 9.26042 9.0378 9.95155 9.88727 9.95155ZM9.88727 7.57349C10.3491 7.57349 10.7248 7.94919 10.7248 8.41095C10.7248 8.87272 10.349 9.24842 9.88727 9.24842C9.42551 9.24842 9.0498 8.87272 9.0498 8.41095C9.0498 7.94919 9.42551 7.57349 9.88727 7.57349Z" fill="#041851"/>
<path d="M18.0095 10.8699H5.4043C5.21009 10.8699 5.05273 11.0273 5.05273 11.2214C5.05273 11.4156 5.21009 11.573 5.4043 11.573H18.0095C18.2037 11.573 18.361 11.4156 18.361 11.2214C18.361 11.0273 18.2037 10.8699 18.0095 10.8699Z" fill="#041851"/>
<path d="M4.35143 11.2214C4.35143 11.0273 4.19407 10.8699 3.99986 10.8699H1.72314C1.52894 10.8699 1.37158 11.0273 1.37158 11.2214C1.37158 11.4156 1.52894 11.573 1.72314 11.573H3.99986C4.19402 11.573 4.35143 11.4156 4.35143 11.2214Z" fill="#041851"/>
<path d="M11.7295 12.8152H4.27686C4.08265 12.8152 3.92529 12.9726 3.92529 13.1667C3.92529 13.3609 4.08265 13.5183 4.27686 13.5183H11.7295C11.9237 13.5183 12.0811 13.3609 12.0811 13.1667C12.0811 12.9726 11.9237 12.8152 11.7295 12.8152Z" fill="#041851"/>
<path d="M15.4555 12.8152H14.4404C14.2462 12.8152 14.0889 12.9726 14.0889 13.1667C14.0889 13.3609 14.2462 13.5183 14.4404 13.5183H15.4555C15.6497 13.5183 15.8071 13.3609 15.8071 13.1667C15.8071 12.9726 15.6497 12.8152 15.4555 12.8152Z" fill="#041851"/>
<path d="M11.7295 14.6331H4.27686C4.08265 14.6331 3.92529 14.7905 3.92529 14.9846C3.92529 15.1788 4.08265 15.3362 4.27686 15.3362H11.7295C11.9237 15.3362 12.0811 15.1788 12.0811 14.9846C12.0811 14.7905 11.9237 14.6331 11.7295 14.6331Z" fill="#041851"/>
<path d="M15.4555 14.6331H14.4404C14.2462 14.6331 14.0889 14.7905 14.0889 14.9846C14.0889 15.1788 14.2462 15.3362 14.4404 15.3362H15.4555C15.6497 15.3362 15.8071 15.1788 15.8071 14.9846C15.8071 14.7905 15.6497 14.6331 15.4555 14.6331Z" fill="#041851"/>
<path d="M11.7295 16.451H4.27686C4.08265 16.451 3.92529 16.6085 3.92529 16.8026C3.92529 16.9968 4.08265 17.1542 4.27686 17.1542H11.7295C11.9237 17.1542 12.0811 16.9968 12.0811 16.8026C12.0811 16.6085 11.9237 16.451 11.7295 16.451Z" fill="#041851"/>
<path d="M15.4555 16.451H14.4404C14.2462 16.451 14.0889 16.6085 14.0889 16.8026C14.0889 16.9968 14.2462 17.1542 14.4404 17.1542H15.4555C15.6497 17.1542 15.8071 16.9968 15.8071 16.8026C15.8071 16.6085 15.6497 16.451 15.4555 16.451Z" fill="#041851"/>
<path d="M11.7295 18.2689H4.27686C4.08265 18.2689 3.92529 18.4263 3.92529 18.6205C3.92529 18.8146 4.08265 18.972 4.27686 18.972H11.7295C11.9237 18.972 12.0811 18.8146 12.0811 18.6205C12.0811 18.4263 11.9237 18.2689 11.7295 18.2689Z" fill="#041851"/>
<path d="M23.6519 16.3476C23.5269 15.8984 23.2345 15.5249 22.8285 15.2957C22.4228 15.0666 21.952 15.0091 21.503 15.1341C21.0537 15.259 20.6802 15.5514 20.4512 15.9573L19.4495 17.7308V2.22609C19.4495 0.998625 18.4507 0 17.223 0H6.79705C6.08755 0 5.39295 0.287672 4.89139 0.789234L1.07248 4.60814C0.570969 5.1097 0.283297 5.80425 0.283297 6.51375V6.91045C0.283297 6.91167 0.283203 6.91284 0.283203 6.91406C0.283203 6.91467 0.283297 6.91528 0.283297 6.91589V19.6514C0.283297 20.8789 1.28216 21.8775 2.50986 21.8775H16.3978L17.5194 23.3245C17.8478 23.7475 18.3633 24 18.8982 24C18.9382 24 18.9793 23.9985 19.0254 23.9953C19.6093 23.9529 20.1301 23.6232 20.4184 23.113L21.7145 20.818C21.8099 20.649 21.7503 20.4345 21.5812 20.339C21.412 20.2435 21.1976 20.3032 21.1022 20.4723L19.8062 22.7672C19.634 23.0718 19.3231 23.2687 18.9757 23.294C18.9472 23.2959 18.9219 23.2969 18.8982 23.2969C18.5788 23.2969 18.271 23.146 18.075 22.8936L15.7448 19.8874C15.5742 19.6675 15.4996 19.3944 15.5345 19.1182C15.5695 18.8421 15.7099 18.5961 15.9299 18.4256C16.384 18.0736 17.0398 18.1567 17.3918 18.6106L18.4381 19.9601C18.5102 20.0532 18.624 20.1041 18.7415 20.0954C18.8589 20.0868 18.9642 20.0201 19.022 19.9176L21.0635 16.303C21.2003 16.0607 21.4233 15.8861 21.6914 15.8115C21.9596 15.7369 22.2407 15.7712 22.483 15.9081C22.7254 16.0449 22.9 16.2679 22.9746 16.5361C23.0492 16.8043 23.0149 17.0855 22.8779 17.328L21.7895 19.255C21.694 19.424 21.7536 19.6385 21.9227 19.734C22.0918 19.8295 22.3062 19.7699 22.4017 19.6008L23.4901 17.6738C23.7193 17.2677 23.7769 16.7968 23.6519 16.3476ZM5.38855 1.28639C5.45038 1.22456 5.51647 1.16756 5.58566 1.11478C5.51408 1.30392 5.47456 1.50872 5.47456 1.72266V3.66844C5.47456 4.50825 4.79131 5.19145 3.9515 5.19145H2.00577C1.79188 5.19145 1.58708 5.23097 1.39794 5.30255C1.45072 5.23331 1.50777 5.16717 1.56964 5.1053L5.38855 1.28639ZM18.6697 19.1114L17.9474 18.1797C17.3578 17.4195 16.2596 17.2804 15.4991 17.8697C15.3515 17.9841 15.2257 18.119 15.1237 18.2691H14.4404C14.2462 18.2691 14.0889 18.4265 14.0889 18.6206C14.0889 18.8148 14.2462 18.9722 14.4404 18.9722H14.8457C14.8426 18.9914 14.8394 19.0106 14.8369 19.0299C14.7784 19.4924 14.9035 19.95 15.1891 20.3182L15.8527 21.1744H2.50981C1.66977 21.1744 0.986375 20.4912 0.986375 19.6514V6.91045C0.988344 6.34997 1.44486 5.89458 2.00577 5.89458H3.9515C5.17906 5.89458 6.17769 4.89591 6.17769 3.66844V1.72266C6.17769 1.16053 6.635 0.703219 7.19713 0.703219C7.19773 0.703219 7.19834 0.703125 7.19895 0.703125H17.2229C18.063 0.703125 18.7464 1.38633 18.7464 2.22609V18.9757L18.6697 19.1114Z" fill="#041851"/>
<path d="M14.7046 5.10938C14.9101 5.24382 15.0672 5.30696 15.245 5.33494V5.39011C15.245 5.58427 15.4024 5.74167 15.5966 5.74167C15.7908 5.74167 15.9481 5.58427 15.9481 5.39011V5.29599C16.3496 5.15883 16.6067 4.8008 16.6662 4.44661C16.7488 3.95527 16.4828 3.5115 16.0041 3.34228C15.7634 3.25721 15.498 3.15502 15.354 3.04205C15.333 3.02555 15.3186 2.96935 15.331 2.90377C15.3375 2.8695 15.3672 2.75513 15.4796 2.72124C15.7294 2.64596 15.8896 2.77088 15.907 2.78536C16.0562 2.90953 16.2778 2.88928 16.4021 2.74003C16.5262 2.59078 16.506 2.36911 16.3567 2.24494C16.2543 2.15967 16.1139 2.08252 15.9481 2.03696V1.98816C15.9481 1.794 15.7907 1.6366 15.5965 1.6366C15.4023 1.6366 15.2449 1.794 15.2449 1.98816V2.05885C14.9341 2.16544 14.7036 2.43605 14.64 2.77355C14.579 3.09713 14.6863 3.41199 14.92 3.59527C15.1435 3.77058 15.4605 3.89592 15.7698 4.00524C15.9708 4.0763 15.9911 4.22105 15.9728 4.33003C15.9471 4.48336 15.8184 4.64888 15.5968 4.65178C15.5967 4.65178 15.5966 4.65178 15.5966 4.65178C15.5955 4.65178 15.5944 4.65192 15.5933 4.65192C15.3416 4.65356 15.2763 4.64316 15.0895 4.521C14.9269 4.41469 14.7091 4.46025 14.6028 4.62272C14.4965 4.78519 14.5421 5.00307 14.7046 5.10938Z" fill="#041851"/>
</svg>
