<svg width="24" height="22" viewBox="0 0 24 22" fill="none" xmlns="http://www.w3.org/2000/svg">
<path d="M20.2331 14.1455L16.1531 15.8691C16.1604 15.8182 16.1677 15.7673 16.1677 15.7127C16.1677 14.92 15.524 14.2764 14.7313 14.2764H11.7931C11.6731 14.2764 11.5568 14.2509 11.4477 14.2L8.95676 13.0727C8.56767 12.8982 8.13494 12.8036 7.70949 12.8036H5.68039V13.5309H7.70949C8.03312 13.5309 8.36039 13.6 8.65858 13.7346L11.1495 14.8618C11.3531 14.9527 11.5713 15 11.7968 15H14.7349C15.1277 15 15.444 15.32 15.444 15.7091C15.444 16.0982 15.124 16.4182 14.7349 16.4182H10.9277V17.1455H14.7313C14.9822 17.1455 15.2149 17.0764 15.4186 16.9637V16.9673L20.5131 14.8109C20.9349 14.6327 21.3968 14.6364 21.8149 14.8182C22.1349 14.96 22.3968 15.1891 22.5713 15.4873L13.5786 20.2582C12.8913 20.6218 12.0731 20.6946 11.3313 20.4582L6.9313 19.0437L5.67676 19.0255V19.7527H6.76403L11.1095 21.1491C11.4695 21.2655 11.8404 21.32 12.2149 21.32C12.804 21.32 13.3931 21.1782 13.9168 20.8982L23.4986 15.8218L23.3931 15.5236C23.1713 14.9055 22.7131 14.4182 22.1095 14.1527C21.5058 13.8946 20.8404 13.8873 20.2331 14.1455Z" fill="#000086"/>
<path d="M4.89104 20.3237V12.6037C4.89104 12.2037 4.56377 11.8764 4.16377 11.8764H0.501953V12.6037H4.16377V20.3273H0.501953V21.0546H4.16377C4.56377 21.051 4.89104 20.7237 4.89104 20.3237Z" fill="#000086"/>
<path d="M3.20736 19.1927C3.20736 19.4727 2.97827 19.7018 2.69827 19.7018C2.41464 19.7018 2.18555 19.4727 2.18555 19.1927C2.18555 18.9091 2.41464 18.68 2.69827 18.68C2.97827 18.68 3.20736 18.9091 3.20736 19.1927Z" fill="#000086"/>
<path d="M9.10519 9.3382L9.49792 9.62911L12.2034 8.13093L14.6506 9.60365L14.8616 9.72729L15.2543 9.44366L14.6652 6.41093L16.8288 4.53456L17.0034 4.36729L16.8506 3.91638L13.7888 3.5382L12.6761 0.905473L12.5743 0.687291L12.3416 0.683655H12.0943L10.7888 3.48729L7.93792 3.72729L7.69428 3.75638L7.54883 4.21093L9.80701 6.31638L9.10519 9.3382ZM8.7961 4.38547L11.0579 4.18911L11.2725 4.16365L12.3161 1.92365L13.1997 4.00729L13.2906 4.20729L15.7488 4.50911L14.047 5.98547L13.8761 6.13093L14.3488 8.56729L12.3997 7.39275L12.2143 7.29456L10.0579 8.49093L10.5634 6.30911L10.6252 6.08365L8.7961 4.38547Z" fill="#000086"/>
<path d="M4.32369 7.99635L3.79642 10.2618L3.72369 10.5236L4.1346 10.8254L6.40006 9.5709L8.40006 10.7709L8.62551 10.9127L9.02915 10.6182L8.5346 8.07635L9.06188 7.62181L8.58551 7.07272L7.88369 7.67999L7.77824 7.80363V7.94908L8.12006 9.75635L6.64369 8.86544L6.56733 8.79272L6.25824 8.78544L6.18551 8.85817L4.67642 9.69453L5.08369 7.92726V7.71272L3.66915 6.39635L5.40006 6.24363L5.56733 6.23999L5.72006 6.08726L6.4946 4.42181L7.19278 6.06908L7.30551 6.28363H7.50915L8.38551 6.39272L8.47642 5.66908L7.7746 5.58544L6.85097 3.40363L6.72733 3.1709L6.22551 3.2109L6.15642 3.42544L5.1746 5.53817L2.86188 5.73817L2.5746 5.75272L2.42188 6.28363L2.62188 6.41453L4.32369 7.99635Z" fill="#000086"/>
<path d="M16.2767 5.58549L16.3422 6.30912L17.044 6.24367L17.2076 6.23639L17.3604 6.08367L18.1349 4.41821L18.8004 5.98549L18.8076 6.28003H19.1495L20.884 6.49458L19.5349 7.66549L19.4149 7.79276V7.94912L19.7604 9.75276L18.2804 8.86549L18.204 8.78912L17.884 8.79276L17.8186 8.86185L16.3167 9.69458L16.7276 7.9273L16.724 7.71276L15.7931 6.84367L15.2949 7.37458L15.9604 7.9964L15.4367 10.2618L15.364 10.5055L15.7604 10.8328L18.0404 9.57094L20.044 10.7746L20.2695 10.9128L20.6658 10.6146L20.1713 8.07639L21.9204 6.56003C22.0404 6.46549 22.0913 6.30549 22.0513 6.16003L21.9676 5.90185L19.4149 5.58912L18.484 3.40003L18.3749 3.20003L17.9422 3.18549L17.8295 3.36367L16.8113 5.53821L16.2767 5.58549Z" fill="#000086"/>
</svg>
