<svg width="165" height="279" viewBox="0 0 165 279" fill="none" xmlns="http://www.w3.org/2000/svg">
<path d="M89.3154 221.938L100.328 230.359" stroke="#000086" stroke-width="1.1533" stroke-miterlimit="10" stroke-linecap="round" stroke-linejoin="round"/>
<path d="M51.5684 193.074L71.7851 208.533" stroke="#000086" stroke-width="1.1533" stroke-miterlimit="10" stroke-linecap="round" stroke-linejoin="round"/>
<path d="M82.0872 191.201L158.219 249.417" stroke="#000086" stroke-width="1.1533" stroke-miterlimit="10" stroke-linecap="round" stroke-linejoin="round"/>
<path d="M43.2732 161.501L58.7049 173.322" stroke="#000086" stroke-width="1.1533" stroke-miterlimit="10" stroke-linecap="round" stroke-linejoin="round"/>
<path d="M133.062 204.971L200.044 256.189" stroke="#FDC041" stroke-width="1.1533" stroke-miterlimit="10" stroke-linecap="round" stroke-linejoin="round"/>
<path d="M31.9775 127.676L103.401 182.291" stroke="#FDC041" stroke-width="1.1533" stroke-miterlimit="10" stroke-linecap="round" stroke-linejoin="round"/>
<path d="M84.2532 142.42L202.472 232.839" stroke="#000086" stroke-width="1.1533" stroke-miterlimit="10" stroke-linecap="round" stroke-linejoin="round"/>
<path d="M35.3601 105.033L60.3682 124.177" stroke="#000086" stroke-width="1.1533" stroke-miterlimit="10" stroke-linecap="round" stroke-linejoin="round"/>
<path d="M3.28662 55.2979L148.236 166.136" stroke="#000086" stroke-width="1.1533" stroke-miterlimit="10" stroke-linecap="round" stroke-linejoin="round"/>
<path d="M53.2537 68.3188L86.1561 93.4571" stroke="#FDC041" stroke-width="1.1533" stroke-miterlimit="10" stroke-linecap="round" stroke-linejoin="round"/>
<path d="M139.552 109.078L231.006 179.01" stroke="#000086" stroke-width="1.1533" stroke-miterlimit="10" stroke-linecap="round" stroke-linejoin="round"/>
<path d="M46.155 37.6602L113.748 89.3465" stroke="#000086" stroke-width="1.1533" stroke-miterlimit="10" stroke-linecap="round" stroke-linejoin="round"/>
<path d="M161.219 75.2295L225.753 124.577" stroke="#000086" stroke-width="1.1533" stroke-miterlimit="10" stroke-linecap="round" stroke-linejoin="round"/>
<path d="M87.6409 18.9658L135.919 55.8612" stroke="#000086" stroke-width="1.1533" stroke-miterlimit="10" stroke-linecap="round" stroke-linejoin="round"/>
<path d="M122.519 20.4058L186.152 69.0847" stroke="#FDC041" stroke-width="1.1533" stroke-miterlimit="10" stroke-linecap="round" stroke-linejoin="round"/>
</svg>
