<svg width="72" height="72" viewBox="0 0 72 72" fill="none" xmlns="http://www.w3.org/2000/svg">
<g clip-path="url(#clip0_981_895)">
<path d="M36 71.9995C55.8823 71.9995 72 55.8818 72 35.9995C72 16.1173 55.8823 -0.000488281 36 -0.000488281C16.1178 -0.000488281 0 16.1173 0 35.9995C0 55.8818 16.1178 71.9995 36 71.9995Z" fill="#007AB9"/>
<path d="M57.5103 38.8963V53.7383H48.9053V39.8909C48.9053 36.414 47.6629 34.0396 44.5473 34.0396C42.1696 34.0396 40.7572 35.6382 40.1334 37.186C39.9069 37.7392 39.8485 38.5074 39.8485 39.2832V53.7376H31.2428C31.2428 53.7376 31.3583 30.2848 31.2428 27.8571H39.8491V31.5247C39.8318 31.5535 39.8074 31.5818 39.792 31.6094H39.8491V31.5247C40.9927 29.765 43.0321 27.2494 47.6045 27.2494C53.2659 27.2494 57.5103 30.9484 57.5103 38.8963ZM22.2406 15.3818C19.2969 15.3818 17.3711 17.3141 17.3711 19.8528C17.3711 22.3376 19.2411 24.3257 22.1276 24.3257H22.1835C25.1848 24.3257 27.051 22.3376 27.051 19.8528C26.9939 17.3141 25.1848 15.3818 22.2406 15.3818ZM17.8826 53.7383H26.485V27.8571H17.8826V53.7383Z" fill="#F1F2F2"/>
</g>
<defs>
<clipPath id="clip0_981_895">
<rect width="72" height="72" fill="white"/>
</clipPath>
</defs>
</svg>
