<svg width="50" height="64" viewBox="0 0 50 64" fill="none" xmlns="http://www.w3.org/2000/svg">
<path d="M25 0.5C18.4383 0.507741 12.1475 3.11781 7.50768 7.75766C2.86783 12.3975 0.257767 18.6883 0.250026 25.25C0.242167 30.6123 1.99373 35.829 5.23603 40.1C5.23603 40.1 5.91103 40.9888 6.02128 41.117L25 63.5L43.9878 41.1058C44.0868 40.9865 44.764 40.1 44.764 40.1L44.7663 40.0933C48.007 35.8241 49.7577 30.6098 49.75 25.25C49.7423 18.6883 47.1322 12.3975 42.4924 7.75766C37.8525 3.11781 31.5618 0.507741 25 0.5ZM25 34.25C23.22 34.25 21.4799 33.7222 19.9999 32.7332C18.5199 31.7443 17.3663 30.3387 16.6851 28.6942C16.0039 27.0496 15.8257 25.24 16.173 23.4942C16.5202 21.7484 17.3774 20.1447 18.6361 18.886C19.8947 17.6274 21.4984 16.7702 23.2442 16.4229C24.99 16.0757 26.7996 16.2539 28.4442 16.9351C30.0887 17.6163 31.4943 18.7698 32.4833 20.2499C33.4722 21.7299 34 23.47 34 25.25C33.997 27.636 33.0479 29.9235 31.3607 31.6107C29.6735 33.2979 27.3861 34.247 25 34.25Z" fill="#000086"/>
</svg>
