<svg width="71" height="71" viewBox="0 0 71 71" fill="none" xmlns="http://www.w3.org/2000/svg">
<path d="M60.2208 12.9048H0.37207V0H70.8919V2.23367C70.8919 8.12578 66.1129 12.9048 60.2208 12.9048Z" fill="#FDC041"/>
<path d="M70.8919 70.9649H0.37207V20.5332H13.2768V58.0676H57.9871C65.1111 58.0602 70.8919 63.841 70.8919 70.9649Z" fill="#000086"/>
<path d="M35.1909 35.4789C35.1909 36.6143 36.1111 37.5345 37.2465 37.5345H65.2451C67.0113 37.5345 68.4435 38.9667 68.4435 40.7328V47.2483C68.4435 49.0144 67.0113 50.4466 65.2451 50.4466H22.301V50.2389H22.2861V20.5334H22.301V20.5186H65.2451C67.0113 20.5186 68.4435 21.9508 68.4435 23.7169V30.225C68.4435 31.9911 67.0113 33.4233 65.2451 33.4233H37.2465C36.1185 33.4159 35.1909 34.3361 35.1909 35.4789Z" fill="#FDC041"/>
</svg>
