<svg width="197" height="32" viewBox="0 0 197 32" fill="none" xmlns="http://www.w3.org/2000/svg">
<g clip-path="url(#clip0_418_27)">
<path d="M53.7243 31.9919C52.8723 31.9942 52.0495 31.6795 51.4131 31.108L52.1223 30.2661C52.5767 30.6913 53.1713 30.9313 53.791 30.9396C54.2833 30.9396 54.5753 30.7375 54.5753 30.4176C54.5753 30.1145 54.3917 29.9546 53.4739 29.7188C52.3809 29.441 51.6717 29.1295 51.6717 28.0351C51.6692 27.7918 51.7189 27.5509 51.8175 27.3289C51.916 27.1069 52.0611 26.9091 52.2427 26.7491C52.4243 26.5891 52.638 26.4706 52.8693 26.402C53.1006 26.3333 53.3439 26.316 53.5824 26.3513C54.3156 26.3396 55.0298 26.5868 55.6016 27.0501L54.9841 27.9593C54.5758 27.6399 54.0815 27.4521 53.5657 27.4205C53.1068 27.4205 52.8649 27.631 52.8649 27.9004C52.8649 28.2624 53.0985 28.3802 54.0413 28.6244C55.1427 28.9191 55.7684 29.3147 55.7684 30.3082C55.7684 31.4026 54.9341 31.9919 53.766 31.9919" fill="#FDC041"/>
<path d="M59.0392 31.9915C58.7158 32.0233 58.3895 31.9811 58.0845 31.8681C57.7795 31.7551 57.5037 31.5742 57.2776 31.3387C57.0515 31.1033 56.8809 30.8194 56.7785 30.5083C56.6761 30.1972 56.6446 29.8667 56.6863 29.5416V26.4014H57.8794V29.5163C57.8794 30.4087 58.33 30.8718 59.0559 30.8718C59.7818 30.8718 60.2323 30.4256 60.2323 29.55V26.4014H61.4338V29.5079C61.4809 29.8412 61.4523 30.1808 61.3503 30.5013C61.2482 30.8218 61.0754 31.1147 60.8448 31.3579C60.6142 31.6011 60.3318 31.7883 60.019 31.9054C59.7063 32.0224 59.3712 32.0663 59.0392 32.0336" fill="#FDC041"/>
<path d="M65.205 31.9916C64.8357 31.9973 64.469 31.928 64.1268 31.7877C63.7845 31.6475 63.4738 31.4392 63.213 31.1753C62.9522 30.9114 62.7467 30.5972 62.6087 30.2514C62.4708 29.9057 62.4031 29.5355 62.4099 29.1629C62.403 28.7851 62.472 28.4099 62.6129 28.0598C62.7538 27.7098 62.9635 27.3922 63.2294 27.1262C63.4954 26.8602 63.812 26.6514 64.1601 26.5124C64.5083 26.3734 64.8808 26.307 65.255 26.3173C65.6524 26.2965 66.0497 26.3607 66.4207 26.5058C66.7917 26.6509 67.128 26.8736 67.4077 27.1592L66.6401 28.0432C66.2752 27.6583 65.7744 27.4344 65.2467 27.4202C65.0334 27.4256 64.8233 27.4736 64.6284 27.5613C64.4335 27.6489 64.2577 27.7747 64.1112 27.9311C63.9646 28.0876 63.8502 28.2718 63.7744 28.4731C63.6987 28.6743 63.6631 28.8888 63.6698 29.1039C63.662 29.3194 63.6968 29.5343 63.7721 29.7361C63.8475 29.9379 63.9618 30.1225 64.1086 30.2792C64.2554 30.4359 64.4316 30.5616 64.627 30.6489C64.8224 30.7362 65.0331 30.7834 65.2467 30.7877C65.5172 30.7849 65.7842 30.7259 66.0312 30.6144C66.2781 30.5029 66.4996 30.3412 66.6818 30.1395L67.4411 30.9224C67.1751 31.2624 66.8349 31.5357 66.4471 31.7212C66.0592 31.9066 65.6341 31.9992 65.205 31.9916Z" fill="#FDC041"/>
<path d="M70.8036 31.9916C70.4343 31.9973 70.0676 31.928 69.7254 31.7877C69.3832 31.6475 69.0724 31.4392 68.8116 31.1753C68.5508 30.9114 68.3453 30.5972 68.2073 30.2514C68.0694 29.9057 68.0018 29.5355 68.0085 29.1629C68.0017 28.7859 68.0705 28.4113 68.2108 28.0619C68.3512 27.7124 68.5601 27.3952 68.8252 27.1293C69.0902 26.8635 69.4058 26.6545 69.753 26.5149C70.1002 26.3754 70.4717 26.3082 70.8453 26.3173C71.2427 26.2965 71.6399 26.3607 72.011 26.5058C72.382 26.6509 72.7183 26.8736 72.998 27.1592L72.2304 28.0432C72.0502 27.8519 71.8344 27.6983 71.5953 27.5914C71.3562 27.4845 71.0985 27.4263 70.837 27.4202C70.6237 27.4256 70.4135 27.4736 70.2187 27.5613C70.0238 27.649 69.848 27.7747 69.7015 27.9311C69.5549 28.0876 69.4405 28.2718 69.3647 28.4731C69.289 28.6743 69.2534 28.8888 69.2601 29.1039C69.2523 29.3194 69.287 29.5343 69.3624 29.7361C69.4377 29.9379 69.5521 30.1225 69.6989 30.2792C69.8457 30.4359 70.0219 30.5616 70.2173 30.6489C70.4127 30.7362 70.6233 30.7834 70.837 30.7877C71.1077 30.7859 71.375 30.7274 71.6221 30.6158C71.8691 30.5042 72.0905 30.342 72.2721 30.1395L73.0313 30.9224C72.7671 31.2622 72.4285 31.5355 72.042 31.7211C71.6554 31.9066 71.2316 31.9992 70.8036 31.9916Z" fill="#FDC041"/>
<path d="M73.9907 31.8989V26.4014H78.1041V27.479H75.1839V28.5903H77.7537V29.6679H75.1839V30.8297H78.1458V31.8989H73.9907Z" fill="#FDC041"/>
<path d="M81.1496 31.9917C80.2976 31.9939 79.4748 31.6792 78.8384 31.1077L79.5476 30.2658C80.002 30.691 80.5966 30.931 81.2163 30.9393C81.7002 30.9393 82.0006 30.7373 82.0006 30.4174C82.0006 30.1143 81.817 29.9543 80.8992 29.7186C79.8062 29.4408 79.097 29.1293 79.097 28.0348C79.0947 27.7924 79.1442 27.5523 79.2423 27.331C79.3403 27.1097 79.4846 26.9123 79.6653 26.7525C79.8459 26.5926 80.0586 26.474 80.2888 26.4047C80.5191 26.3354 80.7615 26.3171 80.9994 26.3511C81.7353 26.3381 82.4525 26.5853 83.0269 27.0498L82.4011 27.9591C81.9843 27.6169 81.4694 27.4191 80.9326 27.395C80.4737 27.395 80.2318 27.6055 80.2318 27.8749C80.2318 28.2369 80.4654 28.3548 81.4082 28.5989C82.5096 28.8936 83.1353 29.2892 83.1353 30.2827C83.1353 31.3771 82.301 31.9664 81.1329 31.9664" fill="#FDC041"/>
<path d="M86.0555 31.9917C85.2036 31.9939 84.3808 31.6792 83.7444 31.1077L84.4536 30.2658C84.908 30.691 85.5026 30.931 86.1223 30.9393C86.6062 30.9393 86.9066 30.7373 86.9066 30.4174C86.9066 30.1143 86.723 29.9543 85.8052 29.7186C84.7122 29.4408 84.003 29.1293 84.003 28.0348C84.0007 27.7924 84.0502 27.5523 84.1483 27.331C84.2463 27.1097 84.3906 26.9123 84.5713 26.7525C84.7519 26.5926 84.9646 26.474 85.1948 26.4047C85.4251 26.3354 85.6675 26.3171 85.9054 26.3511C86.6413 26.3381 87.3585 26.5853 87.9328 27.0498L87.3071 27.9591C86.9031 27.6375 86.4108 27.4494 85.897 27.4203C85.4381 27.4203 85.1962 27.6307 85.1962 27.9001C85.1962 28.2621 85.4298 28.38 86.3726 28.6242C87.4739 28.9188 88.0997 29.3145 88.0997 30.3079C88.0997 31.4024 87.2654 31.9917 86.0973 31.9917" fill="#FDC041"/>
<path d="M93.3729 31.9919C92.521 31.9942 91.6981 31.6795 91.0618 31.108L91.771 30.2661C92.2254 30.6913 92.82 30.9313 93.4397 30.9396C93.9319 30.9396 94.224 30.7375 94.224 30.4176C94.224 30.1145 94.0404 29.9546 93.131 29.7188C92.0296 29.441 91.3204 29.1295 91.3204 28.0351C91.3179 27.7918 91.3676 27.5509 91.4661 27.3289C91.5647 27.1069 91.7098 26.9091 91.8913 26.7491C92.0729 26.5891 92.2867 26.4706 92.518 26.402C92.7493 26.3333 92.9926 26.316 93.2311 26.3513C93.9643 26.3396 94.6785 26.5868 95.2502 27.0501L94.6328 27.9593C94.2244 27.6399 93.7301 27.4521 93.2144 27.4205C92.7555 27.4205 92.5135 27.631 92.5135 27.9004C92.5135 28.2624 92.7472 28.3802 93.69 28.6244C94.7913 28.9191 95.4171 29.3147 95.4171 30.3082C95.4171 31.4026 94.5827 31.9919 93.4146 31.9919" fill="#FDC041"/>
<path d="M98.7713 27.5211V31.8989H97.5698V27.5211H95.9094V26.4014H100.432V27.5211H98.7713Z" fill="#FDC041"/>
<path d="M104.703 31.899L104.203 30.6698H101.9L101.399 31.899H100.181L102.517 26.3594H103.619L105.955 31.899H104.703ZM103.035 27.8158L102.309 29.6006H103.761L103.035 27.8158Z" fill="#FDC041"/>
<path d="M110.135 31.8989L108.967 30.1393H108.024V31.8989H106.798V26.4014H109.301C110.586 26.4014 111.353 27.0833 111.353 28.2198C111.37 28.5912 111.265 28.9578 111.053 29.2624C110.842 29.567 110.537 29.7925 110.185 29.9036L111.52 31.8652L110.135 31.8989ZM110.135 28.2788C110.135 27.7568 109.776 27.4958 109.192 27.4958H107.999V29.0701H109.209C109.801 29.0701 110.135 28.7586 110.135 28.2956V28.2788Z" fill="#FDC041"/>
<path d="M114.899 27.5211V31.8989H113.698V27.5211H112.037V26.4014H116.551V27.5211H114.899Z" fill="#FDC041"/>
<path d="M119.313 31.9919C118.461 31.9942 117.638 31.6795 117.002 31.108L117.711 30.2661C118.155 30.6817 118.733 30.921 119.338 30.9396C119.83 30.9396 120.122 30.7375 120.122 30.4176C120.122 30.1145 119.939 29.9546 119.029 29.7188C117.928 29.441 117.219 29.1295 117.219 28.0351C117.216 27.7918 117.266 27.5509 117.365 27.3289C117.463 27.1069 117.608 26.9091 117.79 26.7491C117.971 26.5891 118.185 26.4706 118.416 26.402C118.648 26.3333 118.891 26.316 119.13 26.3513C119.863 26.3396 120.577 26.5868 121.149 27.0501L120.531 27.9593C120.123 27.6399 119.629 27.4521 119.113 27.4205C118.654 27.4205 118.412 27.631 118.412 27.9004C118.412 28.2624 118.646 28.3802 119.588 28.6244C120.69 28.9191 121.316 29.3147 121.316 30.3082C121.316 31.4026 120.481 31.9919 119.313 31.9919Z" fill="#FDC041"/>
<path d="M128.091 31.8989V29.6931H125.879V31.8989H124.678V26.4014H125.879V28.5818H128.091V26.4014H129.284V31.8989H128.091Z" fill="#FDC041"/>
<path d="M130.594 31.8989V26.4014H134.707V27.479H131.787V28.5903H134.356V29.6679H131.787V30.8297H134.749V31.8989H130.594Z" fill="#FDC041"/>
<path d="M139.121 31.8989L137.953 30.1393H137.01V31.8989H135.817V26.4014H138.32C139.605 26.4014 140.381 27.0833 140.381 28.2198C140.397 28.5912 140.292 28.9578 140.081 29.2624C139.869 29.567 139.564 29.7925 139.212 29.9036L140.539 31.8652L139.121 31.8989ZM139.121 28.2788C139.121 27.7568 138.762 27.4958 138.178 27.4958H136.985V29.0701H138.203C138.787 29.0701 139.121 28.7586 139.121 28.2956V28.2788Z" fill="#FDC041"/>
<path d="M141.44 31.8989V26.4014H145.554V27.479H142.633V28.5903H145.203V29.6679H142.633V30.8297H145.595V31.8989H141.44Z" fill="#FDC041"/>
<path d="M4.38872 3.87293H0V0.294922H12.8241V0.842146C12.8175 1.64973 12.4943 2.42185 11.9252 2.98975C11.3561 3.55766 10.5874 3.87518 9.78701 3.87293H8.43535V15.0447H4.38872V3.87293Z" fill="#000086"/>
<path d="M14.6013 0.294922H18.6479V5.81768H23.846V0.294922H27.901V15.0447H23.846V9.43778H18.6479V15.0447H14.6013V0.294922Z" fill="#000086"/>
<path d="M30.4873 0.294922H42.2434V3.7719H34.5006V6.00289H41.5175V9.22731H34.5006V11.5677H42.3519V15.0447H30.4873V0.294922Z" fill="#000086"/>
<path d="M50.1948 0.303223H54.2331V11.475H57.7624C58.2288 11.4739 58.6908 11.5656 59.122 11.745C59.5532 11.9243 59.9451 12.1877 60.2753 12.52C60.6054 12.8524 60.8674 13.2472 61.0461 13.6818C61.2248 14.1165 61.3168 14.5824 61.3168 15.053H50.1948V0.303223Z" fill="#000086"/>
<path d="M63.0522 0.303223H74.8083V3.7802H67.0655V6.01119H74.0824V9.23561H67.0655V11.576H74.9168V15.053H63.0522V0.303223Z" fill="#000086"/>
<path d="M76.377 7.72021V7.67812C76.3739 6.64461 76.5782 5.62116 76.9774 4.66937C77.3766 3.71759 77.9625 2.85714 78.6999 2.13983C79.4373 1.42252 80.3109 0.863168 81.2682 0.49545C82.2254 0.127733 83.2465 -0.0407513 84.27 0.000139597C86.4463 -0.0731885 88.5682 0.694705 90.2023 2.14694L87.7993 5.05144C86.8415 4.15026 85.5796 3.6506 84.27 3.65391C83.7594 3.66682 83.2564 3.78243 82.7907 3.99398C82.3249 4.20554 81.9057 4.50877 81.5575 4.88592C81.2094 5.26306 80.9394 5.70653 80.7633 6.19033C80.5872 6.67413 80.5086 7.18853 80.5321 7.70337C80.5066 8.23997 80.5912 8.7761 80.7808 9.2781C80.9704 9.78011 81.2607 10.2372 81.6336 10.6206C82.0066 11.004 82.454 11.3055 82.9479 11.5061C83.4418 11.7067 83.9714 11.8022 84.5036 11.7865C85.3245 11.821 86.1372 11.6101 86.8398 11.1804V9.42924H83.9613V6.43213H90.6862V13.0746C88.8991 14.5596 86.6518 15.3641 84.3367 15.3477C79.7812 15.3477 76.377 12.1906 76.377 7.72021Z" fill="#000086"/>
<path d="M97.9953 0.193848H101.9L108.116 15.0531H103.777L102.709 12.418H97.0691L96.0262 15.0531H91.7793L97.9953 0.193848ZM101.541 9.26094L99.8726 5.05152L98.2038 9.26094H101.541Z" fill="#000086"/>
<path d="M109.543 0.303223H113.589V11.475H120.673V15.053H109.543V0.303223Z" fill="#000086"/>
<path d="M126.288 7.70328V7.66119C126.277 6.6426 126.469 5.63212 126.853 4.69017C127.237 3.74821 127.806 2.89411 128.525 2.17894C129.244 1.46377 130.098 0.902207 131.037 0.527831C131.976 0.153455 132.98 -0.0260495 133.989 4.94379e-05C134.976 -0.0384598 135.96 0.128543 136.881 0.49065C137.801 0.852758 138.637 1.40221 139.338 2.10476C139.447 2.21931 139.531 2.35578 139.585 2.50531C139.639 2.65485 139.661 2.81413 139.65 2.97285C139.639 3.13157 139.595 3.28618 139.521 3.42669C139.447 3.5672 139.345 3.69047 139.221 3.78853L137.919 4.79879C137.709 4.96187 137.448 5.04529 137.183 5.03452C136.917 5.02375 136.664 4.91948 136.467 4.73985C135.948 4.22813 135.287 3.88855 134.571 3.76657C133.856 3.64459 133.12 3.74602 132.463 4.05729C131.806 4.36855 131.259 4.87481 130.895 5.50833C130.531 6.14184 130.368 6.8724 130.427 7.60226C130.427 9.81641 131.87 11.5423 133.914 11.5423C134.413 11.554 134.908 11.4612 135.369 11.27C135.83 11.0787 136.247 10.793 136.593 10.431C136.782 10.2499 137.029 10.1414 137.289 10.1245C137.55 10.1076 137.808 10.1833 138.019 10.3384L139.271 11.2308C139.398 11.3252 139.504 11.4454 139.583 11.5836C139.662 11.7218 139.711 11.8751 139.727 12.0336C139.744 12.1921 139.727 12.3523 139.679 12.504C139.63 12.6557 139.551 12.7955 139.446 12.9145C138.728 13.6944 137.849 14.3069 136.872 14.7097C135.895 15.1124 134.843 15.2956 133.789 15.2466C132.795 15.2592 131.809 15.0701 130.889 14.6906C129.969 14.3111 129.134 13.7489 128.434 13.0374C127.733 12.3259 127.182 11.4797 126.812 10.5489C126.442 9.6181 126.261 8.62178 126.28 7.6191" fill="#000086"/>
<path d="M142.041 0.294922H146.079V11.4499H153.154V15.0195H142.032V0.303341" fill="#000086"/>
<path d="M154.982 0.294922H159.037V15.0279H154.973V0.303341" fill="#000086"/>
<path d="M161.715 0.294922H165.486L171.485 8.06551V0.303341H175.482V15.0279H171.927L165.703 6.96264V15.0195H161.69V0.303341" fill="#000086"/>
<path d="M178.177 0.294922H182.232V15.0279H178.16V0.303341" fill="#000086"/>
<path d="M183.509 7.70334V7.66125C183.497 6.64266 183.689 5.63218 184.073 4.69022C184.458 3.74826 185.026 2.89417 185.745 2.17899C186.464 1.46382 187.319 0.902264 188.257 0.527888C189.196 0.153512 190.2 -0.0259929 191.21 0.000105991C192.203 -0.0437579 193.195 0.120615 194.123 0.48286C195.051 0.845105 195.894 1.39736 196.6 2.10482C196.707 2.22054 196.79 2.35761 196.843 2.50733C196.895 2.65705 196.916 2.81614 196.904 2.97449C196.892 3.13284 196.848 3.28698 196.774 3.42713C196.7 3.56729 196.598 3.69038 196.474 3.78858L195.173 4.79884C194.964 4.96129 194.704 5.04438 194.441 5.03361C194.177 5.02284 193.925 4.91889 193.729 4.73991C193.207 4.24223 192.548 3.91551 191.838 3.80261C191.129 3.68971 190.402 3.79591 189.753 4.10727C189.104 4.41863 188.564 4.92062 188.203 5.54734C187.842 6.17407 187.677 6.89626 187.73 7.61915C187.73 9.83331 189.165 11.5592 191.21 11.5592C191.709 11.5715 192.206 11.4791 192.668 11.2879C193.131 11.0966 193.549 10.8106 193.896 10.4479C194.086 10.2667 194.332 10.1583 194.593 10.1414C194.854 10.1245 195.112 10.2002 195.323 10.3553L196.566 11.2477C196.693 11.3421 196.8 11.4623 196.878 11.6005C196.957 11.7387 197.006 11.892 197.022 12.0505C197.039 12.209 197.022 12.3692 196.974 12.5209C196.926 12.6726 196.846 12.8124 196.741 12.9314C196.028 13.7262 195.149 14.353 194.169 14.7676C193.189 15.1822 192.13 15.3744 191.068 15.3308C190.074 15.3422 189.089 15.1524 188.169 14.7725C187.25 14.3926 186.415 13.8303 185.715 13.1191C185.015 12.4078 184.463 11.562 184.093 10.6318C183.722 9.70151 183.541 8.70571 183.559 7.70334" fill="#000086"/>
</g>
<defs>
<clipPath id="clip0_418_27">
<rect width="197" height="32" fill="white"/>
</clipPath>
</defs>
</svg>
