<svg width="457" height="179" viewBox="0 0 457 179" fill="none" xmlns="http://www.w3.org/2000/svg">
<path d="M254.284 12.1334H241.104V1.50195H279.639V3.04351C279.637 5.45145 278.678 7.76047 276.972 9.46439C275.265 11.1683 272.951 12.1281 270.536 12.1334H266.472V45.2968H254.284V12.1334Z" fill="#FDC041"/>
<path d="M284.97 1.49512H297.144V17.8874H312.77V1.49512H324.944V45.2966H312.77V28.6518H297.144V45.2966H284.97V1.49512Z" fill="#FDC041"/>
<path d="M332.72 1.49512H368.036V11.8209H344.767V18.4655H365.857V28.0272H344.767V34.9708H368.363V45.2966H332.72V1.49512Z" fill="#FDC041"/>
<path d="M245.215 66.8389H257.389V100.009H267.998C270.825 100.009 273.537 101.129 275.537 103.123C277.536 105.117 278.659 107.821 278.659 110.64H245.215V66.8389Z" fill="#000086"/>
<path d="M283.863 66.8389H319.18V77.1646H295.917V83.8093H317.001V93.3842H295.917V100.335H319.513V110.66H283.863V66.8389Z" fill="#000086"/>
<path d="M323.904 88.8719V88.7456C323.904 75.9746 333.946 65.9678 347.56 65.9678C355.283 65.9678 360.74 68.3466 365.384 72.3466L358.228 80.9182C355.096 78.2604 351.957 76.7919 347.626 76.7919C341.289 76.7919 336.392 82.1076 336.392 88.8054V88.9317C336.392 96.0016 341.349 101.071 348.313 101.071C350.785 101.179 353.233 100.548 355.343 99.2574V93.9417H346.68V85.0512H366.89V104.766C361.526 109.171 354.782 111.562 347.833 111.523C334.133 111.523 323.904 102.135 323.904 88.8719Z" fill="#000086"/>
<path d="M388.853 66.5264H400.587L419.285 110.647H406.231L403.033 102.826H386.087L382.949 110.647H370.148L388.853 66.5264ZM399.514 93.3774L394.617 80.9187L389.659 93.3774H399.514Z" fill="#000086"/>
<path d="M423.549 66.8389H435.723V100.009H457V110.64H423.549V66.8389Z" fill="#000086"/>
<path d="M241.057 156.329V156.209C241.057 143.431 250.919 133.411 264.233 133.411C271.503 133.411 276.674 135.876 280.445 139.67C280.78 140.013 281.039 140.422 281.204 140.872C281.369 141.321 281.436 141.8 281.401 142.278C281.367 142.755 281.231 143.219 281.003 143.641C280.775 144.062 280.46 144.43 280.079 144.72L276.167 147.744C275.532 148.23 274.746 148.477 273.946 148.442C273.147 148.407 272.385 148.091 271.796 147.551C269.739 145.559 266.974 144.46 264.106 144.494C257.956 144.494 253.618 149.691 253.618 156.083V156.209C253.618 162.78 257.956 167.917 264.106 167.917C265.608 167.948 267.101 167.669 268.49 167.097C269.878 166.526 271.133 165.673 272.176 164.594C272.746 164.057 273.486 163.735 274.269 163.681C275.052 163.628 275.829 163.847 276.467 164.302L280.232 166.96C280.626 167.24 280.956 167.601 281.2 168.018C281.444 168.436 281.595 168.9 281.644 169.381C281.693 169.861 281.639 170.347 281.485 170.805C281.331 171.263 281.081 171.683 280.752 172.036C276.86 176.163 271.676 178.96 263.733 178.96C251.173 179 241.057 169.438 241.057 156.329Z" fill="#FDC041"/>
<path d="M288.475 134.288H300.615V167.445H321.858V178.076H288.475V134.308V134.288Z" fill="#FDC041"/>
<path d="M327.409 134.288H339.617V178.076H327.409V134.308V134.288Z" fill="#FDC041"/>
<path d="M347.692 134.288H359.02L377.085 157.411H377.125V134.308H389.119V178.076H378.484L359.767 154.156V178.076H347.772V134.308L347.692 134.288Z" fill="#FDC041"/>
<path d="M397.242 134.288H409.443V178.076H397.242V134.308V134.288Z" fill="#FDC041"/>
<path d="M413.288 156.329V156.209C413.288 143.431 423.15 133.411 436.463 133.411C443.733 133.411 448.904 135.876 452.675 139.67C453.01 140.013 453.267 140.423 453.432 140.872C453.596 141.321 453.663 141.8 453.628 142.277C453.594 142.754 453.458 143.219 453.231 143.64C453.003 144.061 452.689 144.429 452.309 144.72L448.391 147.744C447.757 148.23 446.972 148.477 446.173 148.441C445.375 148.406 444.614 148.091 444.026 147.551C441.968 145.56 439.204 144.461 436.337 144.494C430.179 144.494 425.848 149.691 425.848 156.083V156.209C425.848 162.78 430.179 167.917 436.337 167.917C437.839 167.948 439.331 167.669 440.72 167.097C442.109 166.526 443.364 165.673 444.406 164.594C444.976 164.057 445.716 163.735 446.499 163.681C447.282 163.628 448.059 163.847 448.697 164.302L452.462 166.96C452.857 167.24 453.187 167.601 453.43 168.018C453.674 168.436 453.825 168.9 453.874 169.381C453.924 169.861 453.869 170.347 453.715 170.805C453.562 171.263 453.311 171.683 452.982 172.036C449.09 176.163 443.906 178.96 435.957 178.96C423.396 179 413.288 169.438 413.288 156.329Z" fill="#FDC041"/>
<path d="M212.644 0H205.734V178.136H212.644V0Z" fill="#000086"/>
<path d="M0 0.412109H177.095V6.01354C177.095 13.1014 174.271 19.8989 169.245 24.9108C164.219 29.9227 157.402 32.7383 150.294 32.7383H0V0.412109Z" fill="#FDC041"/>
<path d="M177.101 178.136H0V51.8281H32.4177V145.823H144.697C153.291 145.823 161.533 149.228 167.61 155.287C173.687 161.347 177.101 169.566 177.101 178.136Z" fill="#000086"/>
<path d="M87.4513 89.2641C87.453 90.6305 87.9986 91.9403 88.9681 92.9058C89.9377 93.8714 91.2519 94.4137 92.6221 94.4137H162.928C165.052 94.4137 167.089 95.2527 168.594 96.7471C170.099 98.2415 170.949 100.27 170.958 102.387V118.7C170.958 120.823 170.112 122.86 168.606 124.362C167.1 125.863 165.058 126.707 162.928 126.707H55.0935V126.248H55.0469V51.8282H55.0935H162.928C163.981 51.8238 165.025 52.0268 165.999 52.4256C166.972 52.8243 167.858 53.411 168.604 54.1518C169.35 54.8927 169.942 55.7731 170.346 56.7427C170.75 57.7123 170.958 58.7519 170.958 59.8018V76.1011C170.949 78.2188 170.099 80.2469 168.594 81.7413C167.089 83.2357 165.052 84.0747 162.928 84.0746H92.6221C91.9403 84.0746 91.2651 84.2091 90.6356 84.4703C90.0061 84.7315 89.4346 85.1143 88.954 85.5966C88.4734 86.0789 88.0932 86.6513 87.8353 87.2807C87.5774 87.9101 87.4469 88.5842 87.4513 89.2641Z" fill="#FDC041"/>
</svg>
