<svg width="222" height="36" viewBox="0 0 222 36" fill="none" xmlns="http://www.w3.org/2000/svg">
<path d="M60.3435 35.9405C59.3866 35.9431 58.4623 35.5896 57.7476 34.9477L58.5441 34.002C59.0546 34.4796 59.7224 34.7492 60.4185 34.7585C60.9714 34.7585 61.2994 34.5316 61.2994 34.1723C61.2994 33.8318 61.0932 33.6522 60.0623 33.3874C58.8347 33.0753 58.0381 32.7255 58.0381 31.4962C58.0352 31.223 58.0911 30.9524 58.2018 30.703C58.3125 30.4537 58.4754 30.2315 58.6794 30.0517C58.8833 29.872 59.1234 29.739 59.3832 29.6619C59.643 29.5847 59.9162 29.5653 60.1842 29.605C61.0077 29.5919 61.8099 29.8695 62.4521 30.3898L61.7586 31.4111C61.2999 31.0523 60.7447 30.8414 60.1654 30.8059C59.65 30.8059 59.3782 31.0423 59.3782 31.3449C59.3782 31.7515 59.6406 31.8839 60.6996 32.1581C61.9366 32.4891 62.6395 32.9335 62.6395 34.0493C62.6395 35.2786 61.7024 35.9405 60.3903 35.9405" fill="#F6F9FF"/>
<path d="M66.3132 35.941C65.95 35.9767 65.5835 35.9293 65.2409 35.8024C64.8983 35.6755 64.5885 35.4722 64.3346 35.2078C64.0806 34.9433 63.889 34.6245 63.774 34.275C63.659 33.9256 63.6236 33.5544 63.6704 33.1892V29.6621H65.0106V33.1609C65.0106 34.1632 65.5166 34.6833 66.332 34.6833C67.1473 34.6833 67.6533 34.1821 67.6533 33.1987V29.6621H69.0028V33.1514C69.0557 33.5257 69.0236 33.9072 68.909 34.2672C68.7944 34.6271 68.6003 34.9561 68.3413 35.2293C68.0822 35.5025 67.7651 35.7128 67.4138 35.8443C67.0625 35.9757 66.6861 36.025 66.3132 35.9882" fill="#F6F9FF"/>
<path d="M73.2386 35.9412C72.8238 35.9476 72.4119 35.8697 72.0275 35.7122C71.6432 35.5547 71.2941 35.3207 71.0012 35.0243C70.7083 34.7278 70.4774 34.3749 70.3225 33.9866C70.1675 33.5983 70.0916 33.1825 70.0992 32.7639C70.0914 32.3397 70.169 31.9182 70.3272 31.525C70.4854 31.1318 70.721 30.7751 71.0197 30.4763C71.3184 30.1776 71.674 29.9431 72.065 29.7869C72.4561 29.6308 72.8744 29.5562 73.2949 29.5678C73.7412 29.5444 74.1874 29.6165 74.6041 29.7795C75.0208 29.9425 75.3986 30.1926 75.7127 30.5134L74.8505 31.5063C74.4406 31.074 73.8782 30.8225 73.2855 30.8065C73.0459 30.8126 72.8099 30.8665 72.591 30.965C72.3721 31.0635 72.1747 31.2047 72.01 31.3804C71.8454 31.5562 71.7169 31.7631 71.6318 31.9891C71.5467 32.2152 71.5068 32.456 71.5143 32.6977C71.5055 32.9398 71.5446 33.1811 71.6292 33.4078C71.7138 33.6344 71.8423 33.8418 72.0072 34.0178C72.172 34.1938 72.37 34.335 72.5894 34.433C72.8089 34.5311 73.0455 34.5841 73.2855 34.589C73.5893 34.5858 73.8893 34.5196 74.1666 34.3943C74.4439 34.269 74.6927 34.0874 74.8974 33.8608L75.7502 34.7403C75.4515 35.1221 75.0694 35.4291 74.6338 35.6374C74.1981 35.8457 73.7206 35.9497 73.2386 35.9412Z" fill="#F6F9FF"/>
<path d="M79.527 35.9412C79.1121 35.9476 78.7003 35.8697 78.3159 35.7122C77.9315 35.5547 77.5824 35.3207 77.2895 35.0243C76.9966 34.7278 76.7658 34.3749 76.6108 33.9866C76.4558 33.5983 76.3799 33.1825 76.3875 32.7639C76.3798 32.3405 76.4571 31.9198 76.6147 31.5273C76.7723 31.1347 77.0071 30.7784 77.3048 30.4798C77.6024 30.1812 77.9569 29.9465 78.3469 29.7898C78.7368 29.633 79.1542 29.5575 79.5738 29.5678C80.0201 29.5444 80.4663 29.6165 80.883 29.7795C81.2998 29.9425 81.6776 30.1926 81.9917 30.5134L81.1295 31.5063C80.9271 31.2914 80.6847 31.119 80.4161 30.9989C80.1476 30.8788 79.8581 30.8134 79.5644 30.8065C79.3248 30.8126 79.0888 30.8665 78.8699 30.965C78.651 31.0635 78.4536 31.2047 78.289 31.3804C78.1244 31.5562 77.9959 31.7631 77.9108 31.9891C77.8257 32.2152 77.7857 32.456 77.7932 32.6978C77.7845 32.9398 77.8235 33.1811 77.9082 33.4078C77.9928 33.6344 78.1213 33.8418 78.2861 34.0178C78.451 34.1938 78.6489 34.335 78.8684 34.433C79.0878 34.5311 79.3245 34.5841 79.5644 34.589C79.8685 34.587 80.1688 34.5212 80.4462 34.3959C80.7237 34.2705 80.9724 34.0883 81.1763 33.8608L82.0292 34.7403C81.7324 35.1219 81.352 35.4289 80.9179 35.6373C80.4837 35.8457 80.0076 35.9497 79.527 35.9412Z" fill="#F6F9FF"/>
<path d="M83.1067 35.8369V29.6621H87.7269V30.8725H84.4468V32.1207H87.3333V33.3311H84.4468V34.636H87.7737V35.8369H83.1067Z" fill="#F6F9FF"/>
<path d="M91.1477 35.9411C90.1908 35.9437 89.2665 35.5902 88.5518 34.9482L89.3483 34.0026C89.8588 34.4802 90.5266 34.7498 91.2226 34.7591C91.7662 34.7591 92.1036 34.5322 92.1036 34.1728C92.1036 33.8324 91.8974 33.6528 90.8665 33.388C89.6389 33.0759 88.8423 32.7261 88.8423 31.4968C88.8396 31.2245 88.8953 30.9548 89.0054 30.7062C89.1156 30.4576 89.2776 30.236 89.4805 30.0564C89.6834 29.8768 89.9223 29.7436 90.1809 29.6658C90.4395 29.588 90.7118 29.5674 90.979 29.6056C91.8056 29.591 92.6112 29.8687 93.2563 30.3904L92.5534 31.4117C92.0853 31.0273 91.507 30.8052 90.904 30.7781C90.3886 30.7781 90.1168 31.0145 90.1168 31.3171C90.1168 31.7237 90.3792 31.8561 91.4382 32.1303C92.6752 32.4613 93.3781 32.9057 93.3781 34.0215C93.3781 35.2508 92.441 35.9128 91.1289 35.9128" fill="#F6F9FF"/>
<path d="M96.6582 35.9411C95.7013 35.9437 94.777 35.5902 94.0623 34.9482L94.8588 34.0026C95.3692 34.4802 96.0371 34.7498 96.7331 34.7591C97.2767 34.7591 97.6141 34.5322 97.6141 34.1728C97.6141 33.8324 97.4079 33.6528 96.377 33.388C95.1493 33.0759 94.3528 32.7261 94.3528 31.4968C94.3501 31.2245 94.4058 30.9548 94.5159 30.7062C94.6261 30.4576 94.7881 30.236 94.991 30.0564C95.1939 29.8768 95.4328 29.7436 95.6914 29.6658C95.95 29.588 96.2223 29.5674 96.4895 29.6056C97.3161 29.591 98.1217 29.8687 98.7668 30.3904L98.0639 31.4117C97.6102 31.0505 97.0571 30.8392 96.4801 30.8065C95.9647 30.8065 95.6929 31.0429 95.6929 31.3455C95.6929 31.7521 95.9553 31.8845 97.0143 32.1587C98.2513 32.4897 98.9542 32.9341 98.9542 34.0499C98.9542 35.2792 98.017 35.9411 96.705 35.9411" fill="#F6F9FF"/>
<path d="M104.877 35.9405C103.92 35.9431 102.996 35.5896 102.281 34.9477L103.078 34.002C103.588 34.4796 104.256 34.7492 104.952 34.7585C105.505 34.7585 105.833 34.5316 105.833 34.1723C105.833 33.8318 105.627 33.6522 104.605 33.3874C103.368 33.0753 102.572 32.7255 102.572 31.4962C102.569 31.223 102.625 30.9524 102.735 30.703C102.846 30.4537 103.009 30.2315 103.213 30.0517C103.417 29.872 103.657 29.739 103.917 29.6619C104.176 29.5847 104.45 29.5653 104.718 29.605C105.541 29.5919 106.343 29.8695 106.986 30.3898L106.292 31.4111C105.833 31.0523 105.278 30.8414 104.699 30.8059C104.183 30.8059 103.912 31.0423 103.912 31.3449C103.912 31.7515 104.174 31.8839 105.233 32.1581C106.47 32.4891 107.173 32.9335 107.173 34.0493C107.173 35.2786 106.236 35.9405 104.924 35.9405" fill="#F6F9FF"/>
<path d="M110.941 30.9198V35.8369H109.591V30.9198H107.726V29.6621H112.805V30.9198H110.941Z" fill="#F6F9FF"/>
<path d="M117.603 35.8364L117.041 34.4558H114.454L113.892 35.8364H112.524L115.148 29.6143H116.385L119.009 35.8364H117.603ZM115.729 31.2502L114.914 33.2549H116.544L115.729 31.2502Z" fill="#F6F9FF"/>
<path d="M123.704 35.8369L122.392 33.8606H121.333V35.8369H119.956V29.6621H122.767C124.21 29.6621 125.072 30.4281 125.072 31.7046C125.091 32.1218 124.973 32.5335 124.736 32.8757C124.498 33.2178 124.155 33.471 123.76 33.5958L125.26 35.7991L123.704 35.8369ZM123.704 31.7708C123.704 31.1845 123.301 30.8914 122.645 30.8914H121.305V32.6597H122.664C123.329 32.6597 123.704 32.3098 123.704 31.7897V31.7708Z" fill="#F6F9FF"/>
<path d="M129.056 30.9198V35.8369H127.706V30.9198H125.841V29.6621H130.911V30.9198H129.056Z" fill="#F6F9FF"/>
<path d="M134.013 35.9405C133.056 35.9431 132.132 35.5896 131.417 34.9477L132.214 34.002C132.712 34.4689 133.361 34.7377 134.041 34.7585C134.594 34.7585 134.922 34.5316 134.922 34.1723C134.922 33.8318 134.716 33.6522 133.695 33.3874C132.457 33.0753 131.661 32.7255 131.661 31.4962C131.658 31.223 131.714 30.9524 131.825 30.703C131.935 30.4537 132.098 30.2315 132.302 30.0517C132.506 29.872 132.746 29.739 133.006 29.6619C133.266 29.5847 133.539 29.5653 133.807 29.605C134.631 29.5919 135.433 29.8695 136.075 30.3898L135.381 31.4111C134.923 31.0523 134.368 30.8414 133.788 30.8059C133.273 30.8059 133.001 31.0423 133.001 31.3449C133.001 31.7515 133.263 31.8839 134.322 32.1581C135.559 32.4891 136.262 32.9335 136.262 34.0493C136.262 35.2786 135.325 35.9405 134.013 35.9405Z" fill="#F6F9FF"/>
<path d="M143.872 35.8369V33.3594H141.389V35.8369H140.039V29.6621H141.389V32.1112H143.872V29.6621H145.212V35.8369H143.872Z" fill="#F6F9FF"/>
<path d="M146.683 35.8369V29.6621H151.304V30.8725H148.023V32.1207H150.91V33.3311H148.023V34.636H151.35V35.8369H146.683Z" fill="#F6F9FF"/>
<path d="M156.261 35.8369L154.949 33.8606H153.89V35.8369H152.55V29.6621H155.362C156.805 29.6621 157.676 30.4281 157.676 31.7046C157.695 32.1218 157.577 32.5335 157.339 32.8757C157.102 33.2178 156.759 33.471 156.364 33.5958L157.854 35.7991L156.261 35.8369ZM156.261 31.7708C156.261 31.1845 155.858 30.8914 155.202 30.8914H153.862V32.6597H155.23C155.886 32.6597 156.261 32.3098 156.261 31.7897V31.7708Z" fill="#F6F9FF"/>
<path d="M158.866 35.8369V29.6621H163.487V30.8725H160.207V32.1207H163.093V33.3311H160.207V34.636H163.533V35.8369H158.866Z" fill="#F6F9FF"/>
<path d="M4.92943 4.3577H0V0.338867H14.4041V0.953513C14.3966 1.8606 14.0337 2.72784 13.3945 3.36572C12.7553 4.00359 11.8918 4.36023 10.9928 4.3577H9.47463V16.9059H4.92943V4.3577Z" fill="#F6F9FF"/>
<path d="M16.4004 0.338867H20.9456V6.54206H26.7841V0.338867H31.3386V16.9059H26.7841V10.6082H20.9456V16.9059H16.4004V0.338867Z" fill="#F6F9FF"/>
<path d="M34.2435 0.338867H47.448V4.24423H38.7512V6.75009H46.6327V10.3718H38.7512V13.0006H47.5699V16.9059H34.2435V0.338867Z" fill="#F6F9FF"/>
<path d="M56.3792 0.347656H60.915V12.8959H64.8791C65.403 12.8946 65.9219 12.9977 66.4062 13.1991C66.8905 13.4005 67.3307 13.6963 67.7015 14.0696C68.0724 14.4429 68.3666 14.8864 68.5673 15.3746C68.7681 15.8628 68.8714 16.3862 68.8714 16.9147H56.3792V0.347656Z" fill="#F6F9FF"/>
<path d="M70.8207 0.347656H84.0252V4.25302H75.3284V6.75888H83.2099V10.3806H75.3284V13.0094H84.147V16.9147H70.8207V0.347656Z" fill="#F6F9FF"/>
<path d="M85.7871 8.67894V8.63166C85.7837 7.47082 86.0131 6.32127 86.4615 5.25222C86.9099 4.18317 87.568 3.21671 88.3963 2.41103C89.2245 1.60534 90.2058 0.977073 91.281 0.564051C92.3562 0.151028 93.5031 -0.0382142 94.6526 0.00771464C97.0971 -0.0746479 99.4804 0.787855 101.316 2.41902L98.6168 5.68136C97.5409 4.66915 96.1236 4.10794 94.6526 4.11166C94.0791 4.12614 93.5142 4.256 92.991 4.49362C92.4679 4.73124 91.997 5.07183 91.606 5.49545C91.2149 5.91906 90.9116 6.41716 90.7139 6.96057C90.5161 7.50398 90.4278 8.08175 90.4542 8.66003C90.4255 9.26274 90.5206 9.86492 90.7335 10.4288C90.9464 10.9926 91.2726 11.506 91.6915 11.9366C92.1103 12.3673 92.6129 12.7059 93.1676 12.9313C93.7224 13.1566 94.3173 13.2639 94.915 13.2462C95.8371 13.285 96.7499 13.0481 97.5391 12.5654V10.5985H94.3059V7.23216H101.859V14.693C99.852 16.361 97.3279 17.2646 94.7276 17.2462C89.6107 17.2462 85.7871 13.7001 85.7871 8.67894Z" fill="#F6F9FF"/>
<path d="M110.069 0.224609H114.455L121.436 16.9146H116.563L115.364 13.9548H109.028L107.857 16.9146H103.087L110.069 0.224609ZM114.052 10.4088L112.177 5.68077L110.303 10.4088H114.052Z" fill="#F6F9FF"/>
<path d="M123.039 0.347656H127.584V12.8959H135.541V16.9147H123.039V0.347656Z" fill="#F6F9FF"/>
<path d="M141.848 8.66036V8.61308C141.835 7.46899 142.05 6.33402 142.482 5.276C142.914 4.21799 143.552 3.25866 144.36 2.45538C145.167 1.6521 146.127 1.02135 147.182 0.600849C148.236 0.180347 149.364 -0.021273 150.497 0.0080415C151.606 -0.0352123 152.711 0.152366 153.745 0.559087C154.778 0.965808 155.718 1.58295 156.505 2.37206C156.628 2.50073 156.722 2.65401 156.783 2.82197C156.843 2.98993 156.868 3.16884 156.856 3.34711C156.843 3.52538 156.794 3.69904 156.711 3.85686C156.628 4.01468 156.513 4.15314 156.373 4.26328L154.912 5.39801C154.675 5.58119 154.382 5.67488 154.084 5.66279C153.786 5.65069 153.502 5.53358 153.281 5.33182C152.698 4.75704 151.955 4.37563 151.151 4.23862C150.347 4.10161 149.521 4.21554 148.783 4.56515C148.046 4.91477 147.431 5.4834 147.022 6.19497C146.614 6.90654 146.43 7.7271 146.496 8.54688C146.496 11.0338 148.117 12.9723 150.413 12.9723C150.973 12.9855 151.529 12.8813 152.047 12.6665C152.565 12.4516 153.033 12.1308 153.421 11.7241C153.634 11.5207 153.911 11.3989 154.204 11.3799C154.497 11.3609 154.787 11.4459 155.024 11.6201L156.43 12.6225C156.573 12.7285 156.692 12.8635 156.78 13.0188C156.868 13.174 156.924 13.3462 156.942 13.5242C156.961 13.7022 156.942 13.8822 156.888 14.0525C156.833 14.2229 156.744 14.38 156.626 14.5137C155.819 15.3896 154.833 16.0776 153.736 16.53C152.638 16.9823 151.457 17.1881 150.273 17.133C149.156 17.1472 148.049 16.9348 147.015 16.5085C145.982 16.0823 145.044 15.4508 144.257 14.6517C143.471 13.8526 142.851 12.902 142.435 11.8566C142.02 10.8111 141.817 9.69201 141.838 8.5658" fill="#F6F9FF"/>
<path d="M159.541 0.338867H164.077V12.8682H172.024V16.8776H159.532V0.348323" fill="#F6F9FF"/>
<path d="M174.076 0.338867H178.631V16.887H174.067V0.348323" fill="#F6F9FF"/>
<path d="M181.639 0.338867H185.875L192.613 9.06683V0.348323H197.102V16.887H193.11L186.119 7.82809V16.8776H181.611V0.348323" fill="#F6F9FF"/>
<path d="M200.129 0.338867H204.684V16.887H200.11V0.348323" fill="#F6F9FF"/>
<path d="M206.118 8.66011V8.61283C206.105 7.46875 206.321 6.33377 206.752 5.27576C207.184 4.21775 207.823 3.25842 208.63 2.45514C209.437 1.65185 210.397 1.02111 211.452 0.600604C212.506 0.180103 213.634 -0.0215173 214.768 0.00779721C215.884 -0.041471 216.998 0.143154 218.04 0.550029C219.082 0.956905 220.029 1.57721 220.822 2.37182C220.943 2.5018 221.036 2.65576 221.095 2.82393C221.153 2.99209 221.177 3.17078 221.164 3.34864C221.151 3.5265 221.101 3.69964 221.018 3.85705C220.935 4.01447 220.82 4.15273 220.681 4.26304L219.219 5.39777C218.984 5.58023 218.693 5.67356 218.397 5.66146C218.1 5.64936 217.818 5.5326 217.598 5.33157C217.011 4.77258 216.271 4.4056 215.474 4.27879C214.677 4.15198 213.86 4.27126 213.132 4.62099C212.403 4.97071 211.796 5.53454 211.391 6.23848C210.985 6.94243 210.8 7.7536 210.86 8.56555C210.86 11.0525 212.472 12.991 214.768 12.991C215.329 13.0049 215.887 12.9011 216.406 12.6863C216.926 12.4714 217.395 12.1501 217.785 11.7428C217.998 11.5393 218.275 11.4176 218.568 11.3986C218.861 11.3796 219.151 11.4645 219.388 11.6388L220.784 12.6411C220.927 12.7472 221.046 12.8821 221.135 13.0374C221.223 13.1927 221.278 13.3649 221.297 13.5429C221.315 13.7209 221.297 13.9008 221.242 14.0712C221.188 14.2416 221.099 14.3987 220.981 14.5323C220.179 15.425 219.193 16.129 218.092 16.5947C216.99 17.0604 215.801 17.2763 214.608 17.2273C213.492 17.2402 212.385 17.0269 211.353 16.6002C210.32 16.1735 209.382 15.542 208.596 14.7431C207.809 13.9442 207.19 12.9942 206.774 11.9493C206.358 10.9045 206.154 9.78598 206.174 8.66011" fill="#F6F9FF"/>
</svg>
