<svg width="18" height="24" viewBox="0 0 18 24" fill="none" xmlns="http://www.w3.org/2000/svg">
<path d="M17.8535 5.1465L12.8535 0.146484C12.7598 0.0527344 12.6328 0 12.5 0H1.99997C0.897469 0 0 0.896953 0 2.00002V22C0 23.103 0.897469 24 2.00002 24H16C17.1025 24 18 23.103 18 22V5.49998C18 5.36719 17.9473 5.24025 17.8535 5.1465ZM13 1.70705L16.293 5.00002H14C13.4482 5.00002 13 4.55128 13 4.00003V1.70705ZM17 22C17 22.5512 16.5518 23 16 23H2.00002C1.44825 23 1.00003 22.5512 1.00003 22V2.00002C1.00003 1.44877 1.4483 1.00003 2.00002 1.00003H12V4.00003C12 5.10305 12.8975 6 14 6H17V22Z" fill="#000086"/>
<path d="M14.5 14H7.50002C7.22364 14 7 14.2236 7 14.5C7 14.7764 7.22364 15 7.50002 15H14.5C14.7764 15 15 14.7764 15 14.5C15 14.2236 14.7764 14 14.5 14Z" fill="#000086"/>
<path d="M3.50002 6H9.50002C9.77639 6 10 5.77636 10 5.49999C10 5.22361 9.77639 4.99997 9.50002 4.99997H3.50002C3.22364 4.99997 3 5.22361 3 5.49999C3 5.77636 3.22364 6 3.50002 6Z" fill="#000086"/>
<path d="M14.5 11H3.50002C3.22364 11 3 11.2237 3 11.5C3 11.7764 3.22364 12.0001 3.50002 12.0001H14.5C14.7764 12.0001 15 11.7764 15 11.5C15 11.2237 14.7764 11 14.5 11Z" fill="#000086"/>
<path d="M3 8.49998C3 8.77636 3.22364 9 3.50002 9H14.5C14.7764 9 15 8.77636 15 8.49998C15 8.22361 14.7764 7.99997 14.5 7.99997H3.50002C3.22364 8.00002 3 8.22366 3 8.49998Z" fill="#000086"/>
<path d="M10.1494 18.1436C9.41405 18.8672 8.48733 19.6826 8.12011 19.9307C8.0332 19.7339 7.93458 19.4048 7.875 19.2051C7.67189 18.5318 7.5127 18 6.99998 18C6.56152 18 6.36422 18.4009 6.06539 19.0074C5.91891 19.3042 5.6152 19.9224 5.50486 20C5.39644 19.9888 5.21091 19.8623 5.00681 19.6719C5.55764 18.9605 6 18.1367 6 17.5C6 16.4072 5.08008 16 4.5 16C3.91017 16 3 16.8589 3 18C3 18.5059 3.28027 19.1309 3.67772 19.6792C3.51952 19.8374 3.35836 19.981 3.20016 20.1001C2.97947 20.2656 2.93452 20.5791 3.09956 20.7998C3.19819 20.9312 3.34861 21 3.49997 21C3.60445 21 3.70992 20.9673 3.79978 20.8999C3.97266 20.7706 4.15819 20.608 4.3447 20.4224C4.7363 20.771 5.15231 21 5.49998 21C6.17578 21 6.57712 20.231 6.92578 19.5235C7.15627 20.2871 7.37892 21 8.00002 21C8.16703 21 8.67384 21 10.8506 18.8565C11.0479 18.6626 11.0498 18.3462 10.8565 18.1495C10.6631 17.9517 10.3467 17.9507 10.1494 18.1436ZM4.34766 18.8867C4.14455 18.5772 3.99998 18.2559 3.99998 18C3.99998 17.3902 4.44727 17.0332 4.5 17C4.58302 17 5.00002 17.0239 5.00002 17.5C5.00002 17.8188 4.73048 18.357 4.34766 18.8867Z" fill="#000086"/>
</svg>
