<svg width="24" height="24" viewBox="0 0 24 24" fill="none" xmlns="http://www.w3.org/2000/svg">
<g clip-path="url(#clip0_1117_70)">
<path d="M17.8617 21.6789C16.3082 22.7029 14.5037 23.261 12.6434 23.2932C10.8888 23.3232 9.15629 22.8807 7.63157 22.0129C7.46238 21.9164 7.24705 21.9756 7.15074 22.145C7.05442 22.3141 7.11338 22.5295 7.28276 22.6258C8.86479 23.5265 10.6561 24 12.4747 24C12.535 24 12.5954 23.9994 12.6554 23.9983C14.6498 23.9639 16.5845 23.3655 18.2499 22.2678C18.4127 22.1607 18.4575 21.9419 18.3504 21.7793C18.2431 21.6167 18.0243 21.5718 17.8617 21.6789Z" fill="#041851"/>
<path d="M21.2963 9.26354C21.9293 10.5799 22.2639 12.0466 22.2639 13.5054C22.2639 13.5788 22.2629 13.6522 22.2613 13.7256C22.2569 13.9205 22.4111 14.082 22.6059 14.0864H22.614C22.8051 14.0864 22.962 13.9338 22.9664 13.7418C22.9683 13.663 22.9692 13.5841 22.9692 13.5054C22.9692 11.9415 22.6107 10.3689 21.9321 8.95793C21.2537 7.54692 20.2495 6.28477 19.028 5.30827C18.8758 5.18669 18.6539 5.21141 18.5323 5.36357C18.4108 5.51573 18.4353 5.73765 18.5875 5.85923C19.7267 6.77 20.6635 7.94737 21.2963 9.26354Z" fill="#041851"/>
<path d="M2.34967 14.4519C2.35663 14.4519 2.36359 14.4517 2.37073 14.4513C2.56519 14.44 2.7135 14.2732 2.70215 14.0785C2.69098 13.8881 2.6853 13.6953 2.6853 13.5052C2.6853 12.0376 3.02387 10.5627 3.66419 9.23994C4.30451 7.91719 5.25153 6.73689 6.40272 5.82648C6.55543 5.70563 6.58143 5.48389 6.46058 5.33118C6.33973 5.17847 6.11799 5.15247 5.9651 5.27332C4.73096 6.24928 3.71582 7.51472 3.02918 8.93269C2.34271 10.3507 1.97998 11.9318 1.97998 13.5052C1.97998 13.7088 1.98602 13.9157 1.99792 14.1199C2.00891 14.3072 2.16437 14.4519 2.34967 14.4519Z" fill="#041851"/>
<path d="M22.1196 15.7676C21.98 15.5471 21.7411 15.4153 21.4802 15.4153C21.2194 15.4153 20.9803 15.5469 20.8409 15.7676C19.4078 18.0331 19.1069 19.0712 19.1069 19.543C19.1069 20.8517 20.1717 21.9163 21.4802 21.9163C22.7888 21.9163 23.8534 20.8517 23.8534 19.543C23.8534 19.0712 23.5526 18.0331 22.1196 15.7676ZM21.4802 21.2109C20.5606 21.2109 19.8124 20.4626 19.8124 19.543C19.8124 19.0234 20.4196 17.7528 21.4371 16.1446C21.4408 16.1387 21.4522 16.1208 21.4802 16.1208C21.5084 16.1208 21.5197 16.1387 21.5234 16.1446C22.5407 17.7528 23.1481 19.0234 23.1481 19.543C23.1481 20.4626 22.3999 21.2109 21.4802 21.2109Z" fill="#041851"/>
<path d="M5.61549 15.2878H0.979067C0.465089 15.2878 0.046875 15.7061 0.046875 16.22V20.8565C0.046875 21.3704 0.465089 21.7886 0.979067 21.7886H5.61549C6.12947 21.7886 6.54768 21.3704 6.54768 20.8565V16.22C6.54768 15.7061 6.12947 15.2878 5.61549 15.2878ZM5.84236 20.8565C5.84236 20.9815 5.74055 21.0833 5.61549 21.0833H0.979067C0.854006 21.0833 0.752199 20.9815 0.752199 20.8565V16.22C0.752199 16.095 0.854006 15.9932 0.979067 15.9932H5.61549C5.74055 15.9932 5.84236 16.095 5.84236 16.22V20.8565Z" fill="#041851"/>
<path d="M9.68366 6.50081H11.1273C11.3221 6.50081 11.4799 6.34297 11.4799 6.14814C11.4799 5.9535 11.3219 5.79548 11.1273 5.79548H9.68366C8.74359 5.79548 7.97894 5.03083 7.97894 4.09077C7.97894 3.15089 8.74359 2.38605 9.68366 2.38605C10.0455 2.38605 10.3914 2.49848 10.6838 2.71088C10.7914 2.78907 10.9341 2.80005 11.0526 2.73908C11.171 2.67792 11.245 2.55542 11.2437 2.42231L11.2434 2.40766C11.2446 1.46887 12.0089 0.705507 12.9481 0.705507C13.8881 0.705507 14.6528 1.47016 14.6528 2.41022C14.6528 2.60505 14.8106 2.76288 15.0054 2.76288H15.4541C16.2903 2.76288 16.9704 3.44312 16.9704 4.27918C16.9704 5.11543 16.2901 5.79567 15.4541 5.79567H12.773C12.5782 5.79567 12.4204 5.9535 12.4204 6.14833C12.4204 6.34297 12.5782 6.50099 12.773 6.50099H15.4541C16.6792 6.50099 17.6759 5.50416 17.6759 4.27918C17.6759 3.05402 16.6792 2.05738 15.4541 2.05738H15.3323C15.1613 0.895021 14.1571 0 12.9481 0C11.8079 0 10.8499 0.795961 10.601 1.86145C10.3124 1.74225 10.0023 1.68073 9.68348 1.68073C8.35468 1.68073 7.27344 2.76179 7.27344 4.09077C7.27344 5.41975 8.35468 6.50081 9.68366 6.50081Z" fill="#041851"/>
</g>
<defs>
<clipPath id="clip0_1117_70">
<rect width="24" height="24" fill="white"/>
</clipPath>
</defs>
</svg>
