<svg width="24" height="24" viewBox="0 0 24 24" fill="none" xmlns="http://www.w3.org/2000/svg">
<path d="M23.25 21.375H22.875V0.75C22.875 0.543 22.7074 0.375 22.5 0.375H13.5C13.2926 0.375 13.125 0.543 13.125 0.75V7.125H9.74887C9.99037 6.5475 10.125 5.91412 10.125 5.25C10.125 2.562 7.938 0.375 5.25 0.375C2.562 0.375 0.375 2.562 0.375 5.25C0.375 7.55025 1.9785 9.47887 4.125 9.98887V21.375H0.75C0.542625 21.375 0.375 21.543 0.375 21.75V23.25C0.375 23.457 0.542625 23.625 0.75 23.625H23.25C23.4574 23.625 23.625 23.457 23.625 23.25V21.75C23.625 21.543 23.4574 21.375 23.25 21.375ZM19.875 21.375V20.25C19.875 19.2161 19.0339 18.375 18 18.375C16.9661 18.375 16.125 19.2161 16.125 20.25V21.375H13.875V17.625H22.125V21.375H19.875ZM19.125 21.375H16.875V20.25C16.875 19.6297 17.3797 19.125 18 19.125C18.6203 19.125 19.125 19.6297 19.125 20.25V21.375ZM22.125 1.125V16.875H13.875V1.125H22.125ZM13.125 7.875V8.625H8.75962C8.9805 8.3955 9.1785 8.14425 9.35138 7.875H13.125ZM1.125 5.25C1.125 2.97563 2.97563 1.125 5.25 1.125C7.52437 1.125 9.375 2.97563 9.375 5.25C9.375 7.52437 7.52437 9.375 5.25 9.375C2.97563 9.375 1.125 7.52437 1.125 5.25ZM4.875 10.1059C4.99913 10.1156 5.12325 10.125 5.25 10.125C6.20062 10.125 7.08563 9.8475 7.836 9.375H13.125V21.375H10.875V20.25C10.875 19.2161 10.0339 18.375 9 18.375C7.96613 18.375 7.125 19.2161 7.125 20.25V21.375H4.875V10.1059ZM10.125 21.375H7.875V20.25C7.875 19.6297 8.37975 19.125 9 19.125C9.62025 19.125 10.125 19.6297 10.125 20.25V21.375ZM22.875 22.875H1.125V22.125H22.875V22.875Z" fill="#000086"/>
<path d="M15 4.875H17.25C17.4574 4.875 17.625 4.707 17.625 4.5V2.25C17.625 2.043 17.4574 1.875 17.25 1.875H15C14.7926 1.875 14.625 2.043 14.625 2.25V4.5C14.625 4.707 14.7926 4.875 15 4.875ZM15.375 2.625H16.875V4.125H15.375V2.625Z" fill="#000086"/>
<path d="M18.75 4.875H21C21.2074 4.875 21.375 4.707 21.375 4.5V2.25C21.375 2.043 21.2074 1.875 21 1.875H18.75C18.5426 1.875 18.375 2.043 18.375 2.25V4.5C18.375 4.707 18.5426 4.875 18.75 4.875ZM19.125 2.625H20.625V4.125H19.125V2.625Z" fill="#000086"/>
<path d="M15 8.625H17.25C17.4574 8.625 17.625 8.457 17.625 8.25V6C17.625 5.793 17.4574 5.625 17.25 5.625H15C14.7926 5.625 14.625 5.793 14.625 6V8.25C14.625 8.457 14.7926 8.625 15 8.625ZM15.375 6.375H16.875V7.875H15.375V6.375Z" fill="#000086"/>
<path d="M18.75 8.625H21C21.2074 8.625 21.375 8.457 21.375 8.25V6C21.375 5.793 21.2074 5.625 21 5.625H18.75C18.5426 5.625 18.375 5.793 18.375 6V8.25C18.375 8.457 18.5426 8.625 18.75 8.625ZM19.125 6.375H20.625V7.875H19.125V6.375Z" fill="#000086"/>
<path d="M15 12.375H17.25C17.4574 12.375 17.625 12.207 17.625 12V9.75C17.625 9.543 17.4574 9.375 17.25 9.375H15C14.7926 9.375 14.625 9.543 14.625 9.75V12C14.625 12.207 14.7926 12.375 15 12.375ZM15.375 10.125H16.875V11.625H15.375V10.125Z" fill="#000086"/>
<path d="M18.75 12.375H21C21.2074 12.375 21.375 12.207 21.375 12V9.75C21.375 9.543 21.2074 9.375 21 9.375H18.75C18.5426 9.375 18.375 9.543 18.375 9.75V12C18.375 12.207 18.5426 12.375 18.75 12.375ZM19.125 10.125H20.625V11.625H19.125V10.125Z" fill="#000086"/>
<path d="M6 13.875H8.25C8.45738 13.875 8.625 13.707 8.625 13.5V11.25C8.625 11.043 8.45738 10.875 8.25 10.875H6C5.79263 10.875 5.625 11.043 5.625 11.25V13.5C5.625 13.707 5.79263 13.875 6 13.875ZM6.375 11.625H7.875V13.125H6.375V11.625Z" fill="#000086"/>
<path d="M9.75 13.875H12C12.2074 13.875 12.375 13.707 12.375 13.5V11.25C12.375 11.043 12.2074 10.875 12 10.875H9.75C9.54263 10.875 9.375 11.043 9.375 11.25V13.5C9.375 13.707 9.54263 13.875 9.75 13.875ZM10.125 11.625H11.625V13.125H10.125V11.625Z" fill="#000086"/>
<path d="M8.25 17.625C8.45738 17.625 8.625 17.457 8.625 17.25V15C8.625 14.793 8.45738 14.625 8.25 14.625H6C5.79263 14.625 5.625 14.793 5.625 15V17.25C5.625 17.457 5.79263 17.625 6 17.625H8.25ZM6.375 15.375H7.875V16.875H6.375V15.375Z" fill="#000086"/>
<path d="M9.75 17.625H12C12.2074 17.625 12.375 17.457 12.375 17.25V15C12.375 14.793 12.2074 14.625 12 14.625H9.75C9.54263 14.625 9.375 14.793 9.375 15V17.25C9.375 17.457 9.54263 17.625 9.75 17.625ZM10.125 15.375H11.625V16.875H10.125V15.375Z" fill="#000086"/>
<path d="M15 16.125H17.25C17.4574 16.125 17.625 15.957 17.625 15.75V13.5C17.625 13.293 17.4574 13.125 17.25 13.125H15C14.7926 13.125 14.625 13.293 14.625 13.5V15.75C14.625 15.957 14.7926 16.125 15 16.125ZM15.375 13.875H16.875V15.375H15.375V13.875Z" fill="#000086"/>
<path d="M18.75 16.125H21C21.2074 16.125 21.375 15.957 21.375 15.75V13.5C21.375 13.293 21.2074 13.125 21 13.125H18.75C18.5426 13.125 18.375 13.293 18.375 13.5V15.75C18.375 15.957 18.5426 16.125 18.75 16.125ZM19.125 13.875H20.625V15.375H19.125V13.875Z" fill="#000086"/>
<path d="M5.625 8.625V7.82175C6.27038 7.65412 6.75 7.07175 6.75 6.375C6.75 5.54775 6.07725 4.875 5.25 4.875C4.83637 4.875 4.5 4.53863 4.5 4.125C4.5 3.71137 4.83637 3.375 5.25 3.375C5.66363 3.375 6 3.71137 6 4.125H6.75C6.75 3.42825 6.27038 2.84588 5.625 2.67825V1.875H4.875V2.67825C4.22963 2.84588 3.75 3.42825 3.75 4.125C3.75 4.95225 4.42275 5.625 5.25 5.625C5.66363 5.625 6 5.96137 6 6.375C6 6.78863 5.66363 7.125 5.25 7.125C4.83637 7.125 4.5 6.78863 4.5 6.375H3.75C3.75 7.07175 4.22963 7.65412 4.875 7.82175V8.625H5.625Z" fill="#000086"/>
</svg>
