<svg width="58" height="57" viewBox="0 0 58 57" fill="none" xmlns="http://www.w3.org/2000/svg">
<path d="M51.3102 27.7433L37.6301 14.0949L41.6955 10.0389L40.3691 8.71552L18.7581 30.2765C18.671 30.3634 18.6019 30.4665 18.5548 30.5801C18.5077 30.6936 18.4834 30.8153 18.4834 30.9382C18.4834 31.061 18.5077 31.1827 18.5548 31.2963C18.6019 31.4098 18.671 31.5129 18.7581 31.5998C19.93 32.7662 21.5177 33.4213 23.173 33.4213C24.8283 33.4213 26.416 32.7662 27.5878 31.5998L28.9669 30.224C30.1374 30.8023 31.4135 31.1374 32.7177 31.2089C34.0219 31.2804 35.3271 31.0868 36.5541 30.6399L46.118 40.1817C46.3986 40.4615 46.5733 40.8297 46.6124 41.2235C46.6515 41.6174 46.5525 42.0125 46.3324 42.3418C46.1123 42.671 45.7846 42.914 45.4051 43.0293C45.0256 43.1446 44.6178 43.1251 44.2511 42.9741C44.0424 42.8877 43.8527 42.7612 43.6928 42.6018L36.9669 35.8914L35.6404 37.2147L42.3664 43.9252C42.6467 44.205 42.8211 44.5731 42.86 44.9668C42.899 45.3604 42.8 45.7554 42.5799 46.0845C42.3599 46.4136 42.0323 46.6565 41.653 46.7718C41.2737 46.8871 40.8661 46.8678 40.4995 46.717C40.2907 46.6307 40.101 46.5042 39.9412 46.3447L33.2153 39.6343L31.8888 40.9577L38.6148 47.6681C38.8951 47.948 39.0695 48.316 39.1084 48.7097C39.1473 49.1034 39.0483 49.4984 38.8283 49.8275C38.6082 50.1566 38.2807 50.3994 37.9014 50.5147C37.5221 50.6301 37.1145 50.6107 36.7479 50.46C36.5391 50.3737 36.3494 50.2471 36.1896 50.0877L29.4636 43.3773L28.1372 44.7007L34.8632 51.4111C35.1434 51.6909 35.3179 52.059 35.3568 52.4527C35.3957 52.8464 35.2967 53.2413 35.0767 53.5704C34.8566 53.8995 34.5291 54.1424 34.1498 54.2577C33.7705 54.373 33.3629 54.3537 32.9963 54.203C32.7875 54.1166 32.5978 53.9901 32.438 53.8307L11.3687 32.8096L25.0488 19.1612L26.0855 20.1955L27.412 18.8722L8.82969 0.332825L7.50325 1.65619L19.9707 14.0949L6.29066 27.7433L1.32643 22.7906L0 24.1139L16.2191 40.2955L13.908 42.6013C13.7488 42.7605 13.5597 42.8868 13.3515 42.9729C13.1434 43.0591 12.9202 43.1034 12.6948 43.1033C12.4694 43.1032 12.2463 43.0588 12.0382 42.9725C11.83 42.8862 11.641 42.7598 11.482 42.6005C11.1658 42.2769 10.989 41.8428 10.9892 41.391C10.9893 40.9391 11.1664 40.5051 11.4828 40.1817L12.5813 39.0858L11.2549 37.7624L10.1564 38.8584C9.65422 39.3594 9.31228 39.9978 9.17375 40.6927C9.03522 41.3876 9.10633 42.1079 9.3781 42.7625C9.64986 43.4171 10.1101 43.9766 10.7005 44.3703C11.291 44.764 11.9852 44.9742 12.6954 44.9742C12.7504 44.9742 12.8052 44.9727 12.8595 44.9703C12.8571 45.0248 12.8555 45.0795 12.8555 45.134C12.8556 46.0843 13.234 46.9957 13.9075 47.6676C14.581 48.3396 15.4945 48.7171 16.447 48.7172C16.502 48.7172 16.5569 48.7157 16.6111 48.7132C16.6087 48.7677 16.6072 48.8225 16.6072 48.877C16.6072 49.8273 16.9856 50.7386 17.6591 51.4106C18.3327 52.0826 19.2461 52.4601 20.1986 52.4601C20.2536 52.4601 20.3085 52.4586 20.3628 52.4562C20.3603 52.5107 20.3588 52.5654 20.3588 52.6199C20.3585 53.3286 20.5689 54.0215 20.9634 54.6109C21.3579 55.2002 21.9188 55.6596 22.5751 55.9308C23.2314 56.202 23.9536 56.2728 24.6502 56.1344C25.3469 55.996 25.9868 55.6545 26.4888 55.1531L28.8004 52.8478L31.1115 55.1536C31.6137 55.6545 32.2536 55.9957 32.9501 56.1339C33.6466 56.2721 34.3686 56.2011 35.0247 55.93C35.6809 55.6589 36.2417 55.1997 36.6363 54.6106C37.0308 54.0215 37.2415 53.3289 37.2416 52.6204C37.2416 52.5654 37.2401 52.5107 37.2376 52.4566C37.2923 52.4591 37.3472 52.4606 37.4017 52.4606C38.3542 52.4606 39.2677 52.083 39.9412 51.4111C40.6147 50.7391 40.9931 49.8277 40.9932 48.8774C40.9932 48.8225 40.9917 48.7677 40.9892 48.7137C41.044 48.7161 41.0988 48.7177 41.1533 48.7177C42.1059 48.7176 43.0193 48.3401 43.6928 47.6681C44.3664 46.9961 44.7448 46.0848 44.7448 45.1345C44.7448 45.0795 44.7433 45.0248 44.7408 44.9707C44.7956 44.9732 44.8505 44.9747 44.905 44.9747C45.6152 44.9747 46.3095 44.7646 46.9 44.371C47.4906 43.9773 47.9508 43.4178 48.2226 42.7631C48.4944 42.1085 48.5655 41.3881 48.4269 40.6932C48.2883 39.9982 47.9463 39.3598 47.444 38.8588L38.3346 29.7705C38.4101 29.7237 38.4854 29.6756 38.5598 29.626L39.6369 28.9096L38.5963 27.3525L37.5192 28.0689C36.3041 28.8723 34.8862 29.3169 33.4289 29.3515C31.9716 29.386 30.5342 29.0092 29.2821 28.2644C29.1028 28.157 28.8927 28.1124 28.6851 28.1379C28.4775 28.1633 28.2843 28.2572 28.1364 28.4048L26.2606 30.2762C25.5559 30.9773 24.6328 31.4178 23.6435 31.5251C22.6542 31.6324 21.6578 31.4001 20.8186 30.8665L32.552 19.1612L46.2321 32.8096L45.0195 34.0194L46.346 35.3428L57.6008 24.1139L56.2744 22.7906L51.3102 27.7433ZM7.61709 29.0667L21.2972 15.4182L23.7224 17.8378L10.0423 31.4864L7.61709 29.0667ZM17.6596 46.3443C17.4993 46.5004 17.3101 46.6241 17.1026 46.7085C16.7367 46.8616 16.3288 46.8829 15.9489 46.769C15.5689 46.6551 15.2404 46.4129 15.0197 46.084C14.7989 45.7551 14.6996 45.3598 14.7388 44.9659C14.778 44.572 14.9532 44.2039 15.2344 43.9247L17.5455 41.6189L19.9707 44.0385L17.6596 46.3443ZM21.4112 50.0872C21.2522 50.2451 21.0625 50.3688 20.8538 50.4509C20.4878 50.6043 20.0798 50.626 19.6996 50.5122C19.3194 50.3983 18.9907 50.1561 18.7699 49.827C18.5491 49.4979 18.4499 49.1024 18.4893 48.7083C18.5288 48.3142 18.7044 47.9461 18.986 47.6671L21.2972 45.3619L23.7224 47.7815L21.4112 50.0872ZM25.1629 53.8302C25.0036 53.9891 24.8146 54.1151 24.6065 54.2011C24.3985 54.287 24.1755 54.3313 23.9503 54.3313C23.7251 54.3313 23.5021 54.287 23.294 54.2011C23.086 54.1151 22.8969 53.9891 22.7377 53.8302C22.5784 53.6713 22.4521 53.4827 22.3659 53.2751C22.2798 53.0676 22.2354 52.8451 22.2354 52.6204C22.2354 52.3957 22.2798 52.1732 22.3659 51.9657C22.4521 51.7581 22.5784 51.5695 22.7377 51.4106L25.0488 49.1048L27.474 51.5244L25.1629 53.8302ZM47.5585 31.4864L33.8785 17.8378L36.3037 15.4182L49.9837 29.0667L47.5585 31.4864ZM48.7711 0.332825L50.0976 1.65619L42.9851 8.75225L41.6588 7.42888L48.7711 0.332825ZM51.3102 23.4522C51.8667 23.4522 52.4107 23.2876 52.8734 22.9791C53.3361 22.6707 53.6967 22.2323 53.9097 21.7193C54.1227 21.2063 54.1784 20.6419 54.0698 20.0974C53.9613 19.5528 53.6933 19.0526 53.2998 18.66C52.9063 18.2674 52.4049 18.0001 51.8591 17.8917C51.3133 17.7834 50.7476 17.839 50.2334 18.0515C49.7193 18.264 49.2798 18.6238 48.9707 19.0854C48.6615 19.5471 48.4965 20.0898 48.4965 20.645C48.4973 21.3893 48.794 22.1028 49.3215 22.6291C49.849 23.1554 50.5642 23.4514 51.3102 23.4522ZM51.3102 19.7093C51.4957 19.7093 51.677 19.7642 51.8312 19.867C51.9855 19.9698 52.1057 20.1159 52.1767 20.2869C52.2477 20.4579 52.2662 20.6461 52.2301 20.8276C52.1939 21.0091 52.1045 21.1758 51.9734 21.3067C51.8422 21.4376 51.6751 21.5267 51.4931 21.5628C51.3112 21.5989 51.1226 21.5804 50.9513 21.5095C50.7799 21.4387 50.6334 21.3188 50.5303 21.1649C50.4273 21.011 50.3723 20.8301 50.3723 20.645C50.3725 20.3969 50.4715 20.1591 50.6473 19.9837C50.8231 19.8082 51.0615 19.7096 51.3102 19.7093ZM9.10438 20.645C9.10438 20.0898 8.93935 19.5471 8.63018 19.0854C8.321 18.6238 7.88156 18.264 7.36742 18.0515C6.85328 17.839 6.28754 17.7834 5.74173 17.8917C5.19592 18.0001 4.69456 18.2674 4.30106 18.66C3.90755 19.0526 3.63957 19.5528 3.531 20.0974C3.42243 20.6419 3.47815 21.2063 3.69112 21.7193C3.90408 22.2323 4.26472 22.6707 4.72744 22.9791C5.19015 23.2876 5.73416 23.4522 6.29066 23.4522C7.03664 23.4514 7.75184 23.1554 8.27933 22.6291C8.80682 22.1028 9.10354 21.3893 9.10438 20.645ZM5.35275 20.645C5.35275 20.46 5.40776 20.279 5.51082 20.1252C5.61387 19.9713 5.76036 19.8513 5.93174 19.7805C6.10312 19.7097 6.2917 19.6912 6.47363 19.7273C6.65557 19.7634 6.82269 19.8525 6.95386 19.9834C7.08503 20.1142 7.17435 20.281 7.21054 20.4625C7.24673 20.644 7.22816 20.8321 7.15717 21.0031C7.08618 21.1741 6.96597 21.3202 6.81173 21.4231C6.65749 21.5259 6.47616 21.5808 6.29066 21.5808C6.04199 21.5805 5.8036 21.4818 5.62777 21.3064C5.45193 21.131 5.35303 20.8931 5.35275 20.645ZM10.9802 47.7815V49.6529C9.23955 49.651 7.57077 48.9602 6.33995 47.7323C5.10913 46.5043 4.4168 44.8394 4.41484 43.1028H6.29066C6.29205 44.3432 6.78658 45.5324 7.66573 46.4096C8.54489 47.2867 9.73688 47.7801 10.9802 47.7815ZM51.3102 43.1028H53.186C53.184 44.8394 52.4917 46.5043 51.2609 47.7323C50.0301 48.9602 48.3613 49.651 46.6206 49.6529V47.7815C47.864 47.7801 49.0559 47.2867 49.9351 46.4096C50.8143 45.5324 51.3088 44.3432 51.3102 43.1028Z" fill="#000086"/>
</svg>
