<svg width="98" height="98" viewBox="0 0 98 98" fill="none" xmlns="http://www.w3.org/2000/svg">
<path d="M16.3293 70.1621H2.69165C1.20451 70.1621 0 71.3666 0 72.8538V89.1831C0 90.6702 1.20451 91.8748 2.69165 91.8748H16.3293C17.8165 91.8748 19.021 90.6702 19.021 89.1831V72.8538C19.021 71.3666 17.8165 70.1621 16.3293 70.1621Z" fill="#000086"/>
<path d="M40.5542 54.0127H27.0959C25.6088 54.0127 24.4043 55.2172 24.4043 56.7043V89.1836C24.4043 90.6707 25.6088 91.8752 27.0959 91.8752H40.5542C42.0413 91.8752 43.2459 90.6707 43.2459 89.1836V56.7043C43.2459 55.2172 42.0413 54.0127 40.5542 54.0127Z" fill="#000086"/>
<path d="M64.7788 43.2461H51.3206C49.8334 43.2461 48.6289 44.4506 48.6289 45.9377V89.1836C48.6289 90.6707 49.8334 91.8752 51.3206 91.8752H64.7788C66.2659 91.8752 67.4705 90.6707 67.4705 89.1836V45.9377C67.4705 44.4506 66.2659 43.2461 64.7788 43.2461Z" fill="#000086"/>
<path d="M89.1836 32.4792H85.2358V2.69165C85.2358 1.20507 83.7616 0 82.275 0H71.5084C70.0218 0 69.0859 1.20507 69.0859 2.69165V21.7126H79.8525V32.4792H75.5459C74.0588 32.4792 72.8542 33.6838 72.8542 35.1709V89.1833C72.8542 90.6705 74.0588 91.875 75.5459 91.875H89.1836C90.6707 91.875 91.8752 90.6705 91.8752 89.1833V35.1709C91.8752 33.6838 90.6707 32.4792 89.1836 32.4792Z" fill="#000086"/>
<path d="M63.7026 24.4041V5.5625H44.5919C43.5988 5.5625 42.6858 6.10924 42.2187 6.98459C41.7499 7.8605 41.8026 8.92202 42.3522 9.74689L46.7396 16.3291L42.3522 22.9113C41.8026 23.7367 41.7499 24.7988 42.2187 25.6736C42.6858 26.549 43.5988 27.0957 44.5919 27.0957H60.7418C62.2283 27.0957 63.7026 25.8906 63.7026 24.4041Z" fill="#000086"/>
</svg>
