<svg width="22" height="24" viewBox="0 0 22 24" fill="none" xmlns="http://www.w3.org/2000/svg">
<path d="M10.8858 13.0982C10.8414 13.0885 10.7958 13.0868 10.7508 13.0935C10.3001 13.0411 9.96002 12.6597 9.95925 12.2061C9.95925 11.9887 9.78299 11.8124 9.56559 11.8124C9.34818 11.8124 9.17192 11.9887 9.17192 12.2061C9.17307 12.9636 9.67976 13.6271 10.4102 13.8276V14.2213C10.4102 14.4387 10.5865 14.615 10.8039 14.615C11.0213 14.615 11.1975 14.4387 11.1975 14.2213V13.8515C12.0406 13.675 12.6136 12.8898 12.525 12.0331C12.4362 11.1763 11.7144 10.5253 10.8531 10.5251C10.3595 10.5251 9.95925 10.1249 9.95925 9.63125C9.95925 9.13763 10.3595 8.73742 10.8531 8.73742C11.3467 8.73742 11.7469 9.13763 11.7469 9.63125C11.7469 9.84865 11.9232 10.0249 12.1406 10.0249C12.358 10.0249 12.5343 9.84865 12.5343 9.63125C12.5331 8.83584 11.9758 8.1498 11.1975 7.98564V7.62734C11.1975 7.40994 11.0213 7.23367 10.8039 7.23367C10.5865 7.23367 10.4102 7.40994 10.4102 7.62734V8.00967C9.59788 8.23149 9.07504 9.02018 9.18691 9.8548C9.29878 10.6894 10.011 11.3124 10.8531 11.3122C11.3402 11.3122 11.7375 11.7022 11.7463 12.1891C11.7554 12.676 11.3725 13.0805 10.8858 13.0982Z" fill="#041851"/>
<path d="M5.14453 10.9489C5.14453 14.1017 7.70031 16.6575 10.8531 16.6575C14.0059 16.6575 16.5617 14.1017 16.5617 10.9489C16.5617 7.7961 14.0059 5.24033 10.8531 5.24033C7.70184 5.24379 5.14818 7.79764 5.14453 10.9489ZM10.8531 6.02766C13.5711 6.02766 15.7744 8.23091 15.7744 10.9489C15.7744 13.6669 13.5711 15.8702 10.8531 15.8702C8.13511 15.8702 5.93187 13.6669 5.93187 10.9489C5.93495 8.23225 8.13646 6.03074 10.8531 6.02766Z" fill="#041851"/>
<path d="M18.5026 17.6281L15.4188 19.0851C14.993 18.2931 14.1763 17.7891 13.2774 17.7638L10.4306 17.6855C9.97988 17.6727 9.53758 17.5585 9.1368 17.3514L8.84712 17.2013C7.36394 16.4282 5.59608 16.4301 4.11444 17.2063L4.1325 16.5501C4.13846 16.3327 3.96719 16.1516 3.74979 16.1456L0.628118 16.0597C0.410715 16.0538 0.229835 16.225 0.223876 16.4424L0.0353071 23.2928C0.0293483 23.5102 0.200617 23.6913 0.41802 23.6973L3.53969 23.7832H3.55046C3.76382 23.7832 3.93836 23.6134 3.94413 23.4003L3.95316 23.0725L4.76414 22.6383C5.08246 22.467 5.4546 22.4263 5.80233 22.5247L10.6452 23.8839C10.6536 23.8864 10.6621 23.8883 10.6707 23.8902C11.0208 23.9635 11.3775 24.0002 11.7351 24C12.4924 24.0004 13.2409 23.8372 13.9293 23.5212C13.9462 23.5135 13.9625 23.5045 13.9781 23.4943L20.9997 18.9525C21.1747 18.8392 21.2312 18.6095 21.1287 18.4281C20.6074 17.5031 19.4512 17.1508 18.5026 17.6281ZM0.833218 22.9211L1.00007 16.8576L3.33459 16.9218L3.16775 22.9855L0.833218 22.9211ZM13.5746 22.818C12.7194 23.204 11.7643 23.3105 10.8451 23.1227L6.01531 21.767C5.47171 21.6134 4.88986 21.677 4.39258 21.9444L3.97815 22.1664L4.08906 18.1349C5.40232 17.2615 7.08656 17.1717 8.48516 17.9004L8.77484 18.0506C9.28115 18.312 9.83956 18.4561 10.4091 18.4727L13.2561 18.5509C14.0557 18.574 14.7349 19.1433 14.8971 19.9268L10.6565 19.8098C10.4391 19.8038 10.2582 19.9753 10.2521 20.1925C10.2461 20.4099 10.4176 20.591 10.6348 20.5969L15.3146 20.7257H15.3256C15.5387 20.7255 15.7131 20.5558 15.7188 20.3428C15.7236 20.1717 15.711 20.0005 15.6808 19.8321L18.8438 18.3375C18.8469 18.3362 18.8499 18.3347 18.853 18.3331C19.3017 18.1061 19.8441 18.182 20.2132 18.5236L13.5746 22.818Z" fill="#041851"/>
<path d="M11.2473 4.13353V0.393669C11.2473 0.176267 11.071 0 10.8536 0C10.6362 0 10.46 0.176267 10.46 0.393669V4.13353C10.46 4.35093 10.6362 4.5272 10.8536 4.5272C11.071 4.5272 11.2473 4.35093 11.2473 4.13353Z" fill="#041851"/>
<path d="M14.1994 4.13353V2.36202C14.1994 2.14462 14.0232 1.96835 13.8058 1.96835C13.5884 1.96835 13.4121 2.14462 13.4121 2.36202V4.13353C13.4121 4.35094 13.5884 4.5272 13.8058 4.5272C14.0232 4.5272 14.1994 4.35094 14.1994 4.13353Z" fill="#041851"/>
<path d="M8.29417 4.13353V2.36202C8.29417 2.14462 8.11791 1.96835 7.90051 1.96835C7.6831 1.96835 7.50684 2.14462 7.50684 2.36202V4.13353C7.50684 4.35094 7.6831 4.5272 7.90051 4.5272C8.11791 4.5272 8.29417 4.35094 8.29417 4.13353Z" fill="#041851"/>
</svg>
