<svg width="53" height="54" viewBox="0 0 53 54" fill="none" xmlns="http://www.w3.org/2000/svg">
<g clip-path="url(#clip0_441_1772)">
<path d="M19.2899 13.0781H11.5964C10.8844 13.0781 10.3074 13.6552 10.3074 14.3672C10.3074 15.0792 10.8844 15.6562 11.5964 15.6562H19.2899C20.0015 15.6562 20.5789 15.0792 20.5789 14.3672C20.5789 13.6552 20.0015 13.0781 19.2899 13.0781Z" fill="#000086"/>
<path d="M19.2899 18.2349H11.5964C10.8844 18.2349 10.3074 18.8119 10.3074 19.5239C10.3074 20.2359 10.8844 20.813 11.5964 20.813H19.2899C20.0015 20.813 20.5789 20.2359 20.5789 19.5239C20.5789 18.8119 20.0015 18.2349 19.2899 18.2349Z" fill="#000086"/>
<path d="M19.2899 23.3911H11.5964C10.8844 23.3911 10.3074 23.9682 10.3074 24.6802C10.3074 25.3922 10.8844 25.9692 11.5964 25.9692H19.2899C20.0015 25.9692 20.5789 25.3922 20.5789 24.6802C20.5789 23.9682 20.0015 23.3911 19.2899 23.3911Z" fill="#000086"/>
<path d="M19.2899 28.5479H11.5964C10.8844 28.5479 10.3074 29.1249 10.3074 29.8369C10.3074 30.5489 10.8844 31.126 11.5964 31.126H19.2899C20.0015 31.126 20.5789 30.5489 20.5789 29.8369C20.5789 29.1249 20.0015 28.5479 19.2899 28.5479Z" fill="#000086"/>
<path d="M19.2899 33.7905H11.5964C10.8844 33.7905 10.3074 34.3679 10.3074 35.0796C10.3074 35.7916 10.8844 36.3687 11.5964 36.3687H19.2899C20.0015 36.3687 20.5789 35.7916 20.5789 35.0796C20.5789 34.3679 20.0015 33.7905 19.2899 33.7905Z" fill="#000086"/>
<path d="M23.6189 15.6562H31.3123C32.0243 15.6562 32.6014 15.0792 32.6014 14.3672C32.6014 13.6552 32.0243 13.0781 31.3123 13.0781H23.6189C22.9072 13.0781 22.3298 13.6552 22.3298 14.3672C22.3298 15.0792 22.9072 15.6562 23.6189 15.6562Z" fill="#000086"/>
<path d="M23.6189 20.813H31.3123C32.0243 20.813 32.6014 20.2359 32.6014 19.5239C32.6014 18.8119 32.0243 18.2349 31.3123 18.2349H23.6189C22.9072 18.2349 22.3298 18.8119 22.3298 19.5239C22.3298 20.2359 22.9072 20.813 23.6189 20.813Z" fill="#000086"/>
<path d="M28.6133 24.6802C28.6133 23.9682 28.0363 23.3911 27.3243 23.3911H23.6189C22.9072 23.3911 22.3298 23.9682 22.3298 24.6802C22.3298 25.3922 22.9072 25.9692 23.6189 25.9692H27.3243C28.0363 25.9692 28.6133 25.3922 28.6133 24.6802Z" fill="#000086"/>
<path d="M40.8248 34.3349C40.2696 33.8894 39.4586 33.9784 39.0127 34.5336L35.6927 38.6727L33.6373 37.1836C33.0609 36.7657 32.2546 36.8946 31.837 37.4709C31.4194 38.0477 31.5483 38.8537 32.1246 39.2713L35.1738 41.4805C35.402 41.6456 35.6666 41.7259 35.9294 41.7259C36.3077 41.7259 36.6817 41.5597 36.9355 41.2431L41.0239 36.147C41.4694 35.5917 41.3804 34.7804 40.8248 34.3349Z" fill="#000086"/>
<path d="M44.0831 30.3778C42.404 28.6691 40.2465 27.5922 37.9087 27.275V9.79306C37.9087 6.9306 35.5797 4.60156 32.7172 4.60156H10.1918C7.32904 4.60156 5 6.9306 5 9.79306V39.654C5 42.5168 7.32904 44.8458 10.1915 44.8458H28.3085C30.3472 47.2407 33.2785 48.6016 36.4498 48.6016C42.3529 48.6016 47.1554 43.7958 47.1554 37.8886C47.1554 35.0607 46.0644 32.3933 44.0831 30.3778ZM7.57812 39.654V9.79306C7.57812 8.35226 8.7507 7.17969 10.1918 7.17969H32.7172C34.1583 7.17969 35.3306 8.35226 35.3306 9.79306V27.234C29.9514 27.7956 25.7442 32.3594 25.7442 37.8886C25.7442 39.421 26.0638 40.9028 26.6767 42.2674H10.1918C8.7507 42.2674 7.57812 41.0951 7.57812 39.654ZM36.4498 46.0234C33.8753 46.0234 31.5087 44.8415 29.9561 42.781C28.8873 41.362 28.322 39.6704 28.322 37.8886C28.322 33.403 31.9683 29.7537 36.4498 29.7537C36.4921 29.7537 36.5347 29.7544 36.577 29.7551L36.5968 29.7554C38.7362 29.7933 40.7419 30.6561 42.2445 32.1848C43.7487 33.7152 44.5772 35.7411 44.5772 37.8886C44.5772 42.3741 40.9313 46.0234 36.4498 46.0234Z" fill="#000086"/>
</g>
<defs>
<clipPath id="clip0_441_1772">
<rect width="42.1953" height="44" fill="white" transform="translate(5 4.60156)"/>
</clipPath>
</defs>
</svg>
