<svg width="48" height="48" viewBox="0 0 48 48" fill="none" xmlns="http://www.w3.org/2000/svg">
<g clip-path="url(#clip0_739_1545)">
<g clip-path="url(#clip1_739_1545)">
<path d="M16.7558 9.43994H8.00399C7.19404 9.43994 6.5376 10.0826 6.5376 10.8755C6.5376 11.6684 7.19404 12.311 8.00399 12.311H16.7558C17.5653 12.311 18.2222 11.6684 18.2222 10.8755C18.2222 10.0826 17.5653 9.43994 16.7558 9.43994Z" fill="#D0A144"/>
<path d="M16.7558 15.1826H8.00399C7.19404 15.1826 6.5376 15.8252 6.5376 16.6182C6.5376 17.4111 7.19404 18.0537 8.00399 18.0537H16.7558C17.5653 18.0537 18.2222 17.4111 18.2222 16.6182C18.2222 15.8252 17.5653 15.1826 16.7558 15.1826Z" fill="#D0A144"/>
<path d="M16.7558 20.9248H8.00399C7.19404 20.9248 6.5376 21.5674 6.5376 22.3604C6.5376 23.1533 7.19404 23.7959 8.00399 23.7959H16.7558C17.5653 23.7959 18.2222 23.1533 18.2222 22.3604C18.2222 21.5674 17.5653 20.9248 16.7558 20.9248Z" fill="#D0A144"/>
<path d="M16.7558 26.6675H8.00399C7.19404 26.6675 6.5376 27.3101 6.5376 28.103C6.5376 28.8959 7.19404 29.5386 8.00399 29.5386H16.7558C17.5653 29.5386 18.2222 28.8959 18.2222 28.103C18.2222 27.3101 17.5653 26.6675 16.7558 26.6675Z" fill="#D0A144"/>
<path d="M16.7558 32.5063H8.00399C7.19404 32.5063 6.5376 33.1494 6.5376 33.9419C6.5376 34.7348 7.19404 35.3774 8.00399 35.3774H16.7558C17.5653 35.3774 18.2222 34.7348 18.2222 33.9419C18.2222 33.1494 17.5653 32.5063 16.7558 32.5063Z" fill="#D0A144"/>
<path d="M21.6803 12.311H30.432C31.242 12.311 31.8984 11.6684 31.8984 10.8755C31.8984 10.0826 31.242 9.43994 30.432 9.43994H21.6803C20.8707 9.43994 20.2139 10.0826 20.2139 10.8755C20.2139 11.6684 20.8707 12.311 21.6803 12.311Z" fill="#D0A144"/>
<path d="M21.6803 18.0537H30.432C31.242 18.0537 31.8984 17.4111 31.8984 16.6182C31.8984 15.8252 31.242 15.1826 30.432 15.1826H21.6803C20.8707 15.1826 20.2139 15.8252 20.2139 16.6182C20.2139 17.4111 20.8707 18.0537 21.6803 18.0537Z" fill="#D0A144"/>
<path d="M27.3618 22.3604C27.3618 21.5674 26.7053 20.9248 25.8954 20.9248H21.6803C20.8707 20.9248 20.2139 21.5674 20.2139 22.3604C20.2139 23.1533 20.8707 23.7959 21.6803 23.7959H25.8954C26.7053 23.7959 27.3618 23.1533 27.3618 22.3604Z" fill="#D0A144"/>
<path d="M41.2529 33.1118C40.6213 32.6157 39.6987 32.7147 39.1916 33.3331L35.4148 37.9425L33.0766 36.2842C32.421 35.8187 31.5037 35.9623 31.0286 36.6042C30.5536 37.2464 30.7002 38.144 31.3559 38.6091L34.8245 41.0693C35.0841 41.2533 35.3851 41.3426 35.6841 41.3426C36.1144 41.3426 36.5398 41.1575 36.8285 40.805L41.4794 35.1297C41.9861 34.5114 41.8849 33.6078 41.2529 33.1118Z" fill="#D0A144"/>
<path d="M44.9596 28.7053C43.0495 26.8025 40.5952 25.6032 37.9358 25.2499V5.78144C37.9358 2.5937 35.2864 0 32.0302 0H6.40606C3.14944 0 0.5 2.5937 0.5 5.78144V39.0357C0.5 42.2238 3.14944 44.8175 6.40568 44.8175H27.015C29.3341 47.4845 32.6687 49 36.2762 49C42.9915 49 48.4546 43.6481 48.4546 37.0696C48.4546 33.9204 47.2135 30.9499 44.9596 28.7053ZM3.43279 39.0357V5.78144C3.43279 4.17692 4.76667 2.87109 6.40606 2.87109H32.0302C33.6696 2.87109 35.0031 4.17692 35.0031 5.78144V25.2043C28.8839 25.8298 24.0979 30.9121 24.0979 37.0696C24.0979 38.7762 24.4614 40.4263 25.1587 41.946H6.40606C4.76667 41.946 3.43279 40.6406 3.43279 39.0357ZM36.2762 46.1289C33.3476 46.1289 30.6554 44.8126 28.8893 42.518C27.6734 40.9378 27.0303 39.054 27.0303 37.0696C27.0303 32.0744 31.1782 28.0104 36.2762 28.0104C36.3243 28.0104 36.3728 28.0111 36.421 28.0119L36.4435 28.0122C38.8772 28.0545 41.1589 29.0152 42.8681 30.7177C44.5793 32.4221 45.5218 34.6782 45.5218 37.0696C45.5218 42.0649 41.3742 46.1289 36.2762 46.1289Z" fill="#D0A144"/>
</g>
</g>
<defs>
<clipPath id="clip0_739_1545">
<rect width="48" height="48" fill="white"/>
</clipPath>
<clipPath id="clip1_739_1545">
<rect width="48" height="49" fill="white" transform="translate(0.5)"/>
</clipPath>
</defs>
</svg>
