<svg width="98" height="98" viewBox="0 0 98 98" fill="none" xmlns="http://www.w3.org/2000/svg">
<path d="M23.6833 24.9082C20.4165 21.6415 6.53327 20.825 2.04154 20.4165C1.63327 20.4165 1.22481 20.4165 0.816539 20.8248C0.40827 21.2332 0 22.05 0 22.4582V59.2082C0 60.4332 0.81673 61.25 2.04173 61.25H14.2917C15.1085 61.25 15.925 60.8417 16.3335 60.025C16.3335 58.8 23.6835 37.1582 24.5002 26.5417C24.5 26.1332 24.5 25.3167 23.6833 24.9082Z" fill="black"/>
<path d="M67.375 34.7083C63.2917 33.4833 59.6167 31.85 56.35 30.625C49 27.3583 45.7333 28.9918 39.2 35.525C36.3417 38.3833 34.3 42.4668 34.7083 44.1C34.7083 44.5083 34.7083 44.5083 35.525 44.9168C37.5667 45.7335 40.425 46.1418 43.2833 41.65C43.6915 41.2418 44.1 40.8333 44.9165 40.8333C46.1415 40.8333 46.5498 40.425 47.7748 40.0166C48.5915 39.6083 49.4081 39.1999 50.6331 38.7916C51.0413 38.7916 51.0413 38.7916 51.4498 38.7916C51.8581 38.7916 52.6748 39.1999 53.0831 39.1999C55.125 41.2418 58.8 44.1 62.475 47.3668C68.1917 51.8585 73.9083 56.7585 76.7667 60.4335H77.175C74.3167 52.2668 69.4167 38.3833 67.375 34.7083Z" fill="black"/>
<path d="M95.9582 24.5C80.0332 24.5 71.05 28.5833 70.6415 28.5833C70.2332 28.9915 69.8248 29.4 69.4165 29.8083C69.4165 30.2165 69.4165 31.0333 69.8248 31.4415C72.2748 35.5248 80.4415 57.9833 81.6665 63.6998C82.0748 64.5165 82.8915 65.3331 83.7082 65.3331H95.9582C97.1832 65.3331 98 64.5163 98 63.2913V26.5413C98 25.3167 97.1832 24.5 95.9582 24.5Z" fill="black"/>
<path d="M73.9082 64.5165C72.2749 60.8415 65.3332 55.5332 59.2082 50.6332C55.9417 47.7748 52.6749 45.3248 50.2249 43.283C49.8167 43.6913 48.9999 43.6913 48.9999 44.0998C47.7749 44.508 47.3667 44.9165 45.7332 44.9165C42.4667 48.9998 38.3832 50.633 33.8917 48.9998C31.8499 48.5915 30.6249 46.958 30.2167 45.3248C29.3999 41.2415 33.0749 35.5248 35.9334 32.6665H27.7667C26.1334 40.8332 23.2749 51.4498 21.2334 57.1665C22.8667 58.7998 24.5001 60.8415 25.7251 61.6582C33.4834 68.1915 42.4669 74.725 44.1001 75.95C45.3251 76.7667 47.7751 77.5832 49.0001 77.5832C49.4084 77.5832 49.8169 77.5832 50.2251 77.5832L43.6917 71.0498C42.8749 70.233 42.8749 69.008 43.6917 68.1915C44.5084 67.375 45.7334 67.3748 46.5499 68.1915L54.7167 76.3582C55.5334 77.175 56.3499 76.7665 57.1667 76.7665C58.3917 76.3582 58.7999 75.5415 59.2084 74.3165L49.8167 64.9248C48.9999 64.108 48.9999 62.883 49.8167 62.0665C50.6334 61.25 51.8584 61.2498 52.6749 62.0665L62.8832 72.2748C63.2915 72.683 64.9249 72.683 66.1499 72.2748C66.5582 71.8665 67.3749 71.458 67.7832 70.6415L56.3499 59.208C55.5332 58.3913 55.5332 57.1663 56.3499 56.3498C57.1667 55.5332 58.3917 55.533 59.2082 56.3498L71.0499 68.1915C71.8667 68.5998 72.6832 68.1915 73.4999 67.7832C73.9082 67.3748 74.7249 66.1498 73.9082 64.5165Z" fill="black"/>
</svg>
