<svg width="32" height="32" viewBox="0 0 32 32" fill="none" xmlns="http://www.w3.org/2000/svg">
<path d="M31.3777 25.4451L27.8302 23.0799L24.6766 20.9779C24.0679 20.5729 23.25 20.7057 22.8007 21.2824L20.8493 23.7911C20.4301 24.3355 19.6761 24.4919 19.0749 24.1591C17.7508 23.4225 16.185 22.729 12.7302 19.2698C9.27536 15.8105 8.57743 14.2491 7.84088 12.925C7.50807 12.3239 7.6645 11.5699 8.20887 11.1507L10.7175 9.19933C11.2942 8.75008 11.427 7.93216 11.0221 7.32348L8.98461 4.26695L6.55483 0.622244C6.14127 0.00187627 5.31341 -0.184372 4.67404 0.199061L1.87182 1.88017C1.11452 2.32635 0.557838 3.04684 0.317091 3.89227C-0.449213 6.68617 -0.603711 12.8494 9.27367 22.7268C19.1511 32.6042 25.3137 32.4492 28.1076 31.6828C28.9531 31.4421 29.6736 30.8855 30.1197 30.1281L31.8008 27.3259C32.1843 26.6865 31.9981 25.8587 31.3777 25.4451Z" fill="#041851"/>
<path d="M18.206 4.96524C23.3835 4.97099 27.5794 9.16682 27.5852 14.3444C27.5852 14.6491 27.8322 14.8962 28.1369 14.8962C28.4416 14.8962 28.6887 14.6492 28.6887 14.3444C28.6823 8.5577 23.9928 3.86819 18.206 3.86182C17.9014 3.86182 17.6543 4.10881 17.6543 4.41356C17.6542 4.71818 17.9012 4.96524 18.206 4.96524Z" fill="#041851"/>
<path d="M18.207 8.27585C21.5572 8.27979 24.2719 10.9946 24.2759 14.3447C24.2759 14.6494 24.5229 14.8965 24.8276 14.8965C25.1323 14.8965 25.3794 14.6495 25.3794 14.3447C25.3748 10.3855 22.1663 7.17693 18.207 7.17236C17.9023 7.17236 17.6553 7.41936 17.6553 7.72411C17.6553 8.02885 17.9023 8.27585 18.207 8.27585Z" fill="#041851"/>
<path d="M18.206 11.5858C19.7288 11.5877 20.9628 12.8216 20.9646 14.3444C20.9646 14.6491 21.2116 14.8962 21.5163 14.8962C21.821 14.8962 22.0681 14.6492 22.0681 14.3444C22.0656 12.2125 20.338 10.4849 18.206 10.4824C17.9014 10.4824 17.6543 10.7294 17.6543 11.0342C17.6542 11.3388 17.9012 11.5858 18.206 11.5858Z" fill="#041851"/>
</svg>
