<svg width="30" height="30" viewBox="0 0 30 30" fill="none" xmlns="http://www.w3.org/2000/svg">
<path d="M15.0001 1.6665C7.63608 1.6665 1.66675 7.63584 1.66675 14.9998C1.66675 22.3638 7.63608 28.3332 15.0001 28.3332C22.3641 28.3332 28.3334 22.3638 28.3334 14.9998C28.3334 7.63584 22.3641 1.6665 15.0001 1.6665Z" stroke="#000086" stroke-width="1.5" stroke-linecap="round" stroke-linejoin="round"/>
<path d="M4.69482 23.4613C4.69482 23.4613 7.66682 19.6667 15.0002 19.6667C22.3335 19.6667 25.3068 23.4613 25.3068 23.4613H4.69482ZM15.0002 15C16.061 15 17.0784 14.5786 17.8286 13.8284C18.5787 13.0783 19.0002 12.0609 19.0002 11C19.0002 9.93913 18.5787 8.92172 17.8286 8.17157C17.0784 7.42143 16.061 7 15.0002 7C13.9393 7 12.9219 7.42143 12.1717 8.17157C11.4216 8.92172 11.0002 9.93913 11.0002 11C11.0002 12.0609 11.4216 13.0783 12.1717 13.8284C12.9219 14.5786 13.9393 15 15.0002 15V15Z" stroke="#000086" stroke-width="1.5" stroke-linecap="round" stroke-linejoin="round"/>
</svg>
