<svg width="176" height="149" viewBox="0 0 176 149" fill="none" xmlns="http://www.w3.org/2000/svg">
<path fill-rule="evenodd" clip-rule="evenodd" d="M1.52588e-05 125.729C26.2453 112.8 39.3677 97.6096 39.3677 80.1562C28.1812 78.8633 18.9309 74.2846 11.6167 66.4197C4.30244 58.5549 0.645401 49.4512 0.645401 39.1085C0.645401 28.1193 4.1949 18.854 11.294 11.3124C18.3931 3.77075 27.3207 0 38.0769 0C50.1239 0 60.5573 4.90198 69.3774 14.7061C78.1976 24.5102 82.6076 36.415 82.6076 50.4208C82.6076 92.4384 59.1593 125.298 12.2621 149L1.52588e-05 125.729ZM92.6206 125.729C119.081 112.8 132.311 97.6096 132.311 80.1562C120.909 78.8633 111.552 74.2846 104.237 66.4197C96.923 58.5549 93.266 49.4512 93.266 39.1085C93.266 28.1193 96.8693 18.854 104.076 11.3124C111.283 3.77075 120.264 0 131.02 0C143.067 0 153.447 4.90198 162.159 14.7061C170.872 24.5102 175.228 36.415 175.228 50.4208C175.228 92.4384 151.887 125.298 105.205 149L92.6206 125.729Z" fill="#F6F9FF"/>
</svg>
