<svg width="22" height="22" viewBox="0 0 22 22" fill="none" xmlns="http://www.w3.org/2000/svg">
<path d="M19.3951 12.9782L19.2839 13.0382C18.8348 12.4931 18.0566 12.2819 17.4637 12.5823C17.4616 12.5834 17.4595 12.5845 17.4575 12.5856L17.195 12.7269C16.8819 12.4618 16.4947 12.2998 16.0862 12.2629C15.6776 12.226 15.2676 12.316 14.9122 12.5207L13.4986 13.2894H11.6177C11.2105 13.2889 10.8085 13.1968 10.4416 13.0199L10.1829 12.8948C9.44623 12.5363 8.62475 12.3888 7.8094 12.4684C6.99405 12.548 6.21665 12.8518 5.56326 13.3459C5.55712 13.3506 5.55112 13.3553 5.5454 13.3606L4.9207 13.9167C4.68462 14.1264 4.40556 14.282 4.10306 14.3725L3.74826 13.2078C3.73068 13.1502 3.69505 13.0997 3.64662 13.0639C3.59819 13.028 3.53951 13.0086 3.47925 13.0086H0.458012C0.418205 13.0086 0.378851 13.0171 0.342552 13.0334C0.306253 13.0498 0.273837 13.0736 0.247447 13.1034C0.221057 13.1332 0.201293 13.1683 0.189464 13.2063C0.177634 13.2443 0.174008 13.2844 0.178824 13.3239L1.18589 21.5814C1.1942 21.6496 1.22718 21.7124 1.27862 21.7579C1.33005 21.8035 1.39637 21.8286 1.46507 21.8286H5.99667C6.04062 21.8286 6.08396 21.8183 6.12321 21.7985C6.16246 21.7788 6.19653 21.7501 6.22269 21.7148C6.24884 21.6794 6.26636 21.6385 6.27382 21.5952C6.28129 21.5518 6.2785 21.5074 6.26568 21.4653L5.67037 19.5119L7.52446 18.34C7.77255 18.2027 8.06359 18.1651 8.33845 18.2347C8.34426 18.2361 8.35012 18.2374 8.35603 18.2385L12.1275 18.933C13.1525 19.1164 14.2092 18.9672 15.1433 18.5072C15.1553 18.5013 15.1668 18.4945 15.1777 18.487L21.7011 14.008C21.7602 13.9674 21.8015 13.9058 21.8167 13.8358C21.8319 13.7657 21.8198 13.6925 21.7828 13.6311C21.5454 13.2358 21.1647 12.9472 20.72 12.8256C20.2752 12.704 19.8006 12.7586 19.3951 12.9782ZM17.7209 13.0826C18.0638 12.9109 18.4955 13.0517 18.7712 13.3148L16.2975 14.6493L16.1522 14.7258C16.0739 14.5034 15.9594 14.2955 15.8134 14.1103L17.7209 13.0826ZM15.1844 13.013C15.1866 13.0117 15.189 13.0105 15.191 13.0092C15.4126 12.8811 15.6644 12.8148 15.9203 12.8173C16.1762 12.8197 16.4268 12.8907 16.6459 13.0229L15.3882 13.7C15.1484 13.525 14.8748 13.4019 14.5848 13.3385L15.1844 13.013ZM1.71389 21.2661L0.775684 13.5711H3.27079L5.61689 21.2661H1.71389ZM14.8756 18.0116C14.0543 18.4113 13.1274 18.5402 12.2282 18.3794L8.46595 17.6866C8.05212 17.5845 7.61492 17.6437 7.24321 17.8523C7.23886 17.8547 7.2345 17.8573 7.23023 17.8601L5.49984 18.954L4.26703 14.911C4.64717 14.7964 4.99777 14.6003 5.29439 14.3364L5.91028 13.788C6.48089 13.359 7.15885 13.0958 7.86946 13.0274C8.58006 12.9591 9.29575 13.0882 9.93768 13.4006L10.1964 13.5257C10.6397 13.7394 11.1253 13.8506 11.6174 13.8513H14.1264C14.4951 13.8518 14.8521 13.9807 15.1361 14.2159C15.4201 14.451 15.6134 14.7777 15.6826 15.1399L13.8641 15.0576C13.203 15.0279 12.5406 15.0585 11.8851 15.1491C11.8117 15.16 11.7457 15.1993 11.7013 15.2587C11.6568 15.318 11.6376 15.3924 11.6478 15.4659C11.6579 15.5393 11.6967 15.6057 11.7555 15.6507C11.8144 15.6957 11.8887 15.7157 11.9622 15.7062C12.5838 15.6203 13.2119 15.5913 13.8387 15.6196L15.9788 15.7164C15.9831 15.7164 15.9873 15.7167 15.9915 15.7167C16.0661 15.7167 16.1377 15.6871 16.1904 15.6343C16.2432 15.5816 16.2728 15.51 16.2728 15.4354C16.2728 15.3899 16.2709 15.3448 16.2681 15.3L16.5616 15.1453L19.6623 13.473C19.9005 13.344 20.1745 13.2973 20.4419 13.3402C20.7093 13.3831 20.955 13.5131 21.1409 13.71L14.8756 18.0116Z" fill="#000086"/>
<path d="M2.6084 20.1026C2.6084 20.2777 2.66033 20.4489 2.75763 20.5945C2.85492 20.7402 2.99321 20.8536 3.15501 20.9207C3.31681 20.9877 3.49485 21.0052 3.66661 20.9711C3.83838 20.9369 3.99615 20.8526 4.11999 20.7287C4.24382 20.6049 4.32816 20.4471 4.36232 20.2753C4.39649 20.1036 4.37895 19.9255 4.31193 19.7637C4.24491 19.6019 4.13142 19.4637 3.98581 19.3664C3.84019 19.2691 3.669 19.2171 3.49387 19.2171C3.25911 19.2174 3.03404 19.3108 2.86803 19.4768C2.70203 19.6428 2.60866 19.8678 2.6084 20.1026ZM3.49387 19.7796C3.55774 19.7796 3.62019 19.7986 3.6733 19.8341C3.72641 19.8696 3.76781 19.92 3.79225 19.979C3.8167 20.038 3.82309 20.103 3.81063 20.1656C3.79817 20.2283 3.76741 20.2858 3.72224 20.331C3.67707 20.3761 3.61953 20.4069 3.55688 20.4194C3.49423 20.4318 3.42929 20.4254 3.37027 20.401C3.31126 20.3765 3.26082 20.3351 3.22533 20.282C3.18984 20.2289 3.1709 20.1665 3.1709 20.1026C3.17105 20.017 3.20512 19.9349 3.26566 19.8744C3.3262 19.8139 3.40826 19.7798 3.49387 19.7797V19.7796Z" fill="#000086"/>
<path d="M13.1388 3.23308V2.30627C13.1362 1.7418 12.9101 1.20136 12.51 0.803154C12.11 0.404949 11.5685 0.181396 11.004 0.181396C10.4395 0.181396 9.89802 0.404949 9.49795 0.803154C9.09787 1.20136 8.87179 1.7418 8.86914 2.30627V3.23308C8.87179 3.79755 9.09787 4.33799 9.49795 4.73619C9.89802 5.1344 10.4395 5.35795 11.004 5.35795C11.5685 5.35795 12.11 5.1344 12.51 4.73619C12.9101 4.33799 13.1362 3.79755 13.1388 3.23308ZM9.43164 3.23308V2.30627C9.43391 1.89074 9.60057 1.49301 9.89519 1.19998C10.1898 0.906962 10.5885 0.742478 11.004 0.742478C11.4195 0.742478 11.8182 0.906962 12.1128 1.19998C12.4074 1.49301 12.5741 1.89074 12.5763 2.30627V3.23308C12.5741 3.64861 12.4074 4.04634 12.1128 4.33936C11.8182 4.63239 11.4195 4.79687 11.004 4.79687C10.5885 4.79687 10.1898 4.63239 9.89519 4.33936C9.60057 4.04634 9.43391 3.64861 9.43164 3.23308Z" fill="#000086"/>
<path d="M7.56256 11.1606H14.4448C14.5194 11.1606 14.591 11.131 14.6437 11.0783C14.6965 11.0255 14.7261 10.954 14.7261 10.8794V10.2338H19.4375C19.5121 10.2338 19.5836 10.2042 19.6364 10.1514C19.6891 10.0987 19.7188 10.0272 19.7188 9.95257V8.12707C19.7184 7.59142 19.5142 7.07597 19.1476 6.68544C18.781 6.2949 18.2795 6.05857 17.7449 6.02444C17.5949 6.01343 17.5178 6.1084 17.4553 6.18466C17.3309 6.33669 17.1734 6.45831 16.9948 6.54025C16.8163 6.62219 16.6214 6.66229 16.425 6.65749C16.2286 6.6527 16.0359 6.60313 15.8615 6.51257C15.6872 6.42201 15.5358 6.29285 15.419 6.13493C15.3921 6.09858 15.3569 6.06924 15.3163 6.04939C15.2757 6.02954 15.2309 6.01976 15.1857 6.02088C14.8204 6.02909 14.4636 6.13317 14.1512 6.32271C13.9449 6.08284 13.6926 5.88681 13.4091 5.74623C13.1257 5.60566 12.817 5.52339 12.5012 5.50432C12.3559 5.49841 12.2824 5.58663 12.2112 5.67307C12.0652 5.85149 11.8804 5.99423 11.6708 6.0904C11.4613 6.18656 11.2326 6.23363 11.0021 6.228C10.7716 6.22237 10.5455 6.1642 10.3409 6.05791C10.1363 5.95163 9.95872 5.80005 9.82161 5.61471C9.7948 5.57832 9.7596 5.54895 9.71899 5.5291C9.67839 5.50925 9.63359 5.49951 9.58841 5.50071C8.97162 5.51497 8.38509 5.77083 7.95505 6.21321C7.91952 6.24954 7.88581 6.28718 7.85295 6.32538C7.56254 6.14857 7.23339 6.04525 6.89403 6.02435C6.74455 6.01333 6.66688 6.1083 6.60439 6.18457C6.47997 6.3366 6.32248 6.45821 6.14393 6.54016C5.96538 6.6221 5.77048 6.6622 5.57409 6.6574C5.37769 6.6526 5.18498 6.60304 5.01065 6.51248C4.83631 6.42192 4.68495 6.29276 4.56809 6.13483C4.5412 6.09853 4.50598 6.06922 4.4654 6.04938C4.42481 6.02953 4.38006 6.01972 4.33489 6.02079C3.78553 6.03477 3.26336 6.26281 2.87972 6.65628C2.49608 7.04975 2.28133 7.57753 2.28125 8.12707V9.95257C2.28125 10.0272 2.31088 10.0987 2.36363 10.1514C2.41637 10.2042 2.48791 10.2338 2.5625 10.2338H7.28131V10.8794C7.28131 10.954 7.31094 11.0255 7.36369 11.0783C7.41643 11.131 7.48797 11.1606 7.56256 11.1606ZM15.0657 6.59229C15.2391 6.7891 15.4523 6.94686 15.6912 7.05516C15.9301 7.16345 16.1892 7.2198 16.4515 7.22049C16.7138 7.22117 16.9733 7.16618 17.2127 7.05914C17.4522 6.9521 17.6662 6.79545 17.8407 6.59955C18.2064 6.65473 18.5402 6.83918 18.7816 7.11944C19.023 7.3997 19.1559 7.75719 19.1562 8.12707V9.67132H14.7261V7.86705C14.7264 7.49251 14.6373 7.12331 14.4662 6.79015C14.65 6.68297 14.8542 6.61557 15.0657 6.59229ZM9.46719 6.07174C9.66165 6.29687 9.9022 6.4776 10.1726 6.60171C10.4429 6.72582 10.7368 6.79041 11.0343 6.79112C11.3317 6.79182 11.6259 6.72863 11.8968 6.6058C12.1678 6.48298 12.4092 6.30339 12.6047 6.07919C13.0366 6.13892 13.4323 6.3528 13.7188 6.68139C14.0053 7.00997 14.1634 7.43109 14.1638 7.86705V10.5981H7.84381V7.86705C7.8466 7.42064 8.01364 6.99087 8.31305 6.65975C8.61247 6.32862 9.02331 6.11931 9.46719 6.07174ZM2.84375 9.67132V8.12707C2.84613 7.74813 2.98677 7.38309 3.23927 7.10053C3.49177 6.81796 3.83874 6.6373 4.21503 6.59247C4.38843 6.78922 4.60161 6.94693 4.84048 7.05518C5.07935 7.16343 5.33847 7.21974 5.60073 7.22041C5.86298 7.22108 6.12239 7.16609 6.36181 7.05906C6.60123 6.95203 6.81521 6.79541 6.98961 6.59955C7.18326 6.6285 7.36958 6.69425 7.53852 6.79324C7.36895 7.12576 7.28079 7.4938 7.28131 7.86705V9.67132H2.84375Z" fill="#000086"/>
<path d="M18.3289 4.07091V3.25964C18.3289 2.75476 18.1283 2.27054 17.7713 1.91353C17.4143 1.55652 16.9301 1.35596 16.4252 1.35596C15.9203 1.35596 15.4361 1.55652 15.0791 1.91353C14.7221 2.27054 14.5215 2.75476 14.5215 3.25964V4.07091C14.5215 4.5758 14.7221 5.06001 15.0791 5.41702C15.4361 5.77403 15.9203 5.9746 16.4252 5.9746C16.9301 5.9746 17.4143 5.77403 17.7713 5.41702C18.1283 5.06001 18.3289 4.5758 18.3289 4.07091ZM15.084 4.07091V3.25964C15.084 2.90394 15.2253 2.5628 15.4768 2.31128C15.7283 2.05976 16.0695 1.91846 16.4252 1.91846C16.7809 1.91846 17.122 2.05976 17.3735 2.31128C17.6251 2.5628 17.7664 2.90394 17.7664 3.25964V4.07091C17.7664 4.42662 17.6251 4.76775 17.3735 5.01927C17.122 5.27079 16.7809 5.4121 16.4252 5.4121C16.0695 5.4121 15.7283 5.27079 15.4768 5.01927C15.2253 4.76775 15.084 4.42662 15.084 4.07091Z" fill="#000086"/>
<path d="M7.47827 4.07091V3.25964C7.47827 3.00965 7.42903 2.7621 7.33336 2.53113C7.23769 2.30017 7.09747 2.09031 6.9207 1.91353C6.74392 1.73676 6.53406 1.59654 6.3031 1.50087C6.07213 1.4052 5.82458 1.35596 5.57459 1.35596C5.32459 1.35596 5.07704 1.4052 4.84608 1.50087C4.61511 1.59654 4.40525 1.73676 4.22848 1.91353C4.0517 2.09031 3.91148 2.30017 3.81581 2.53113C3.72014 2.7621 3.6709 3.00965 3.6709 3.25964V4.07091C3.6709 4.32091 3.72014 4.56845 3.81581 4.79942C3.91148 5.03039 4.0517 5.24025 4.22848 5.41702C4.40525 5.59379 4.61511 5.73402 4.84608 5.82969C5.07704 5.92536 5.32459 5.9746 5.57459 5.9746C5.82458 5.9746 6.07213 5.92536 6.3031 5.82969C6.53406 5.73402 6.74392 5.59379 6.9207 5.41702C7.09747 5.24025 7.23769 5.03039 7.33336 4.79942C7.42903 4.56845 7.47827 4.32091 7.47827 4.07091ZM4.2334 4.07091V3.25964C4.2334 2.90394 4.3747 2.5628 4.62622 2.31128C4.87774 2.05976 5.21888 1.91846 5.57459 1.91846C5.93029 1.91846 6.27143 2.05976 6.52295 2.31128C6.77447 2.5628 6.91577 2.90394 6.91577 3.25964V4.07091C6.91577 4.24704 6.88108 4.42144 6.81368 4.58416C6.74628 4.74688 6.64749 4.89473 6.52295 5.01927C6.39841 5.14381 6.25056 5.2426 6.08784 5.31001C5.92512 5.37741 5.75071 5.4121 5.57459 5.4121C5.39846 5.4121 5.22406 5.37741 5.06134 5.31001C4.89861 5.2426 4.75076 5.14381 4.62622 5.01927C4.50168 4.89473 4.40289 4.74688 4.33549 4.58416C4.26809 4.42144 4.2334 4.24704 4.2334 4.07091Z" fill="#000086"/>
</svg>
