<svg width="62" height="66" viewBox="0 0 62 66" fill="none" xmlns="http://www.w3.org/2000/svg">
<path d="M2.47003 1H53.79C54.6 1 55.26 1.66 55.26 2.47V53.79C55.26 54.6 54.6 55.26 53.79 55.26H2.47003C1.66003 55.26 1 54.6 1 53.79V2.47C1 1.66 1.66003 1 2.47003 1Z" stroke="#FDC041" stroke-width="2" stroke-miterlimit="10"/>
<path d="M59.9299 64.3403C59.9299 63.8703 60.31 63.4902 60.78 63.4902C61.25 63.4902 61.6299 63.8703 61.6299 64.3403C61.6299 64.8103 61.25 65.1902 60.78 65.1902C60.31 65.1802 59.9299 64.8003 59.9299 64.3403Z" fill="#000086"/>
<path d="M46.6199 64.3403C46.6199 63.8703 46.9999 63.4902 47.4699 63.4902C47.9399 63.4902 48.3199 63.8703 48.3199 64.3403C48.3199 64.8103 47.9399 65.1902 47.4699 65.1902C46.9999 65.1902 46.6199 64.8003 46.6199 64.3403Z" fill="#000086"/>
<path d="M33.3101 64.3403C33.3101 63.8703 33.6901 63.4902 34.1601 63.4902C34.6301 63.4902 35.0101 63.8703 35.0101 64.3403C35.0101 64.8103 34.6301 65.1902 34.1601 65.1902C33.6901 65.1802 33.3101 64.8003 33.3101 64.3403Z" fill="#000086"/>
<path d="M20 64.3403C20 63.8703 20.38 63.4902 20.85 63.4902C21.32 63.4902 21.7 63.8703 21.7 64.3403C21.7 64.8103 21.32 65.1902 20.85 65.1902C20.38 65.1802 20 64.8003 20 64.3403Z" fill="#000086"/>
<path d="M6.68994 64.3403C6.68994 63.8703 7.06998 63.4902 7.53998 63.4902C8.00998 63.4902 8.38995 63.8703 8.38995 64.3403C8.38995 64.8103 8.00998 65.1902 7.53998 65.1902C7.06998 65.1802 6.68994 64.8003 6.68994 64.3403Z" fill="#000086"/>
<path d="M59.9299 52.4398C59.9299 51.9698 60.31 51.5898 60.78 51.5898C61.25 51.5898 61.6299 51.9698 61.6299 52.4398C61.6299 52.9098 61.25 53.2898 60.78 53.2898C60.31 53.2898 59.9299 52.9098 59.9299 52.4398Z" fill="#000086"/>
<path d="M46.6199 52.4398C46.6199 51.9698 46.9999 51.5898 47.4699 51.5898C47.9399 51.5898 48.3199 51.9698 48.3199 52.4398C48.3199 52.9098 47.9399 53.2898 47.4699 53.2898C46.9999 53.2898 46.6199 52.9098 46.6199 52.4398Z" fill="#000086"/>
<path d="M33.3101 52.4398C33.3101 51.9698 33.6901 51.5898 34.1601 51.5898C34.6301 51.5898 35.0101 51.9698 35.0101 52.4398C35.0101 52.9098 34.6301 53.2898 34.1601 53.2898C33.6901 53.2898 33.3101 52.9098 33.3101 52.4398Z" fill="#000086"/>
<path d="M20 52.4398C20 51.9698 20.38 51.5898 20.85 51.5898C21.32 51.5898 21.7 51.9698 21.7 52.4398C21.7 52.9098 21.32 53.2898 20.85 53.2898C20.38 53.2898 20 52.9098 20 52.4398Z" fill="#000086"/>
<path d="M6.68994 52.4398C6.68994 51.9698 7.06998 51.5898 7.53998 51.5898C8.00998 51.5898 8.38995 51.9698 8.38995 52.4398C8.38995 52.9098 8.00998 53.2898 7.53998 53.2898C7.06998 53.2898 6.68994 52.9098 6.68994 52.4398Z" fill="#000086"/>
<path d="M59.9299 40.5502C59.9299 40.0802 60.31 39.7002 60.78 39.7002C61.25 39.7002 61.6299 40.0802 61.6299 40.5502C61.6299 41.0202 61.25 41.4002 60.78 41.4002C60.31 41.4002 59.9299 41.0202 59.9299 40.5502Z" fill="#000086"/>
<path d="M47.4699 41.4002C47.9394 41.4002 48.3199 41.0196 48.3199 40.5502C48.3199 40.0807 47.9394 39.7002 47.4699 39.7002C47.0005 39.7002 46.6199 40.0807 46.6199 40.5502C46.6199 41.0196 47.0005 41.4002 47.4699 41.4002Z" fill="#000086"/>
<path d="M34.1601 41.4002C34.6295 41.4002 35.0101 41.0196 35.0101 40.5502C35.0101 40.0807 34.6295 39.7002 34.1601 39.7002C33.6907 39.7002 33.3101 40.0807 33.3101 40.5502C33.3101 41.0196 33.6907 41.4002 34.1601 41.4002Z" fill="#000086"/>
<path d="M20 40.5502C20 40.0802 20.38 39.7002 20.85 39.7002C21.32 39.7002 21.7 40.0802 21.7 40.5502C21.7 41.0202 21.32 41.4002 20.85 41.4002C20.38 41.4002 20 41.0202 20 40.5502Z" fill="#000086"/>
<path d="M6.68994 40.5502C6.68994 40.0802 7.06998 39.7002 7.53998 39.7002C8.00998 39.7002 8.38995 40.0802 8.38995 40.5502C8.38995 41.0202 8.00998 41.4002 7.53998 41.4002C7.06998 41.4002 6.68994 41.0202 6.68994 40.5502Z" fill="#000086"/>
<path d="M59.9299 28.66C59.9299 28.19 60.31 27.8101 60.78 27.8101C61.25 27.8101 61.6299 28.19 61.6299 28.66C61.6299 29.13 61.25 29.5101 60.78 29.5101C60.31 29.5001 59.9299 29.12 59.9299 28.66Z" fill="#000086"/>
<path d="M47.4699 29.5101C47.9394 29.5101 48.3199 29.1295 48.3199 28.66C48.3199 28.1906 47.9394 27.8101 47.4699 27.8101C47.0005 27.8101 46.6199 28.1906 46.6199 28.66C46.6199 29.1295 47.0005 29.5101 47.4699 29.5101Z" fill="#000086"/>
<path d="M34.1601 29.5101C34.6295 29.5101 35.0101 29.1295 35.0101 28.66C35.0101 28.1906 34.6295 27.8101 34.1601 27.8101C33.6907 27.8101 33.3101 28.1906 33.3101 28.66C33.3101 29.1295 33.6907 29.5101 34.1601 29.5101Z" fill="#000086"/>
<path d="M20 28.66C20 28.19 20.38 27.8101 20.85 27.8101C21.32 27.8101 21.7 28.19 21.7 28.66C21.7 29.13 21.32 29.5101 20.85 29.5101C20.38 29.5001 20 29.12 20 28.66Z" fill="#000086"/>
<path d="M6.68994 28.66C6.68994 28.19 7.06998 27.8101 7.53998 27.8101C8.00998 27.8101 8.38995 28.19 8.38995 28.66C8.38995 29.13 8.00998 29.5101 7.53998 29.5101C7.06998 29.5001 6.68994 29.12 6.68994 28.66Z" fill="#000086"/>
<path d="M59.9299 16.7602C59.9299 16.2902 60.31 15.9102 60.78 15.9102C61.25 15.9102 61.6299 16.2902 61.6299 16.7602C61.6299 17.2302 61.25 17.6102 60.78 17.6102C60.31 17.6102 59.9299 17.2302 59.9299 16.7602Z" fill="#000086"/>
<path d="M47.4699 17.6102C47.9394 17.6102 48.3199 17.2296 48.3199 16.7602C48.3199 16.2908 47.9394 15.9102 47.4699 15.9102C47.0005 15.9102 46.6199 16.2908 46.6199 16.7602C46.6199 17.2296 47.0005 17.6102 47.4699 17.6102Z" fill="#000086"/>
<path d="M34.1601 17.6102C34.6295 17.6102 35.0101 17.2296 35.0101 16.7602C35.0101 16.2908 34.6295 15.9102 34.1601 15.9102C33.6907 15.9102 33.3101 16.2908 33.3101 16.7602C33.3101 17.2296 33.6907 17.6102 34.1601 17.6102Z" fill="#000086"/>
<path d="M20 16.7602C20 16.2902 20.38 15.9102 20.85 15.9102C21.32 15.9102 21.7 16.2902 21.7 16.7602C21.7 17.2302 21.32 17.6102 20.85 17.6102C20.38 17.6102 20 17.2302 20 16.7602Z" fill="#000086"/>
<path d="M6.68994 16.7602C6.68994 16.2902 7.06998 15.9102 7.53998 15.9102C8.00998 15.9102 8.38995 16.2902 8.38995 16.7602C8.38995 17.2302 8.00998 17.6102 7.53998 17.6102C7.06998 17.6102 6.68994 17.2302 6.68994 16.7602Z" fill="#000086"/>
<path d="M59.9299 4.87003C59.9299 4.40003 60.31 4.02002 60.78 4.02002C61.25 4.02002 61.6299 4.40003 61.6299 4.87003C61.6299 5.34003 61.25 5.72003 60.78 5.72003C60.31 5.72003 59.9299 5.34003 59.9299 4.87003Z" fill="#000086"/>
<path d="M46.6199 4.87003C46.6199 4.40003 46.9999 4.02002 47.4699 4.02002C47.9399 4.02002 48.3199 4.40003 48.3199 4.87003C48.3199 5.34003 47.9399 5.72003 47.4699 5.72003C46.9999 5.72003 46.6199 5.34003 46.6199 4.87003Z" fill="#000086"/>
<path d="M33.3101 4.87003C33.3101 4.40003 33.6901 4.02002 34.1601 4.02002C34.6301 4.02002 35.0101 4.40003 35.0101 4.87003C35.0101 5.34003 34.6301 5.72003 34.1601 5.72003C33.6901 5.72003 33.3101 5.34003 33.3101 4.87003Z" fill="#000086"/>
<path d="M20 4.87003C20 4.40003 20.38 4.02002 20.85 4.02002C21.32 4.02002 21.7 4.40003 21.7 4.87003C21.7 5.34003 21.32 5.72003 20.85 5.72003C20.38 5.72003 20 5.34003 20 4.87003Z" fill="#000086"/>
<path d="M6.68994 4.87003C6.68994 4.40003 7.06998 4.02002 7.53998 4.02002C8.00998 4.02002 8.38995 4.40003 8.38995 4.87003C8.38995 5.34003 8.00998 5.72003 7.53998 5.72003C7.06998 5.72003 6.68994 5.34003 6.68994 4.87003Z" fill="#000086"/>
</svg>
