<svg width="72" height="72" viewBox="0 0 72 72" fill="none" xmlns="http://www.w3.org/2000/svg">
<path d="M35.9997 71.9994C55.8818 71.9994 71.9994 55.8818 71.9994 35.9997C71.9994 16.1176 55.8818 0 35.9997 0C16.1176 0 0 16.1176 0 35.9997C0 55.8818 16.1176 71.9994 35.9997 71.9994Z" fill="#55ACEE"/>
<path d="M58.0515 25.8721C56.5087 26.5562 54.8492 27.0189 53.1089 27.2255C54.8858 26.1609 56.2495 24.4763 56.8931 22.4658C55.2304 23.4521 53.388 24.1677 51.4288 24.5534C49.8592 22.8816 47.6227 21.8369 45.1463 21.8369C40.3949 21.8369 36.5414 25.6905 36.5414 30.4419C36.5414 31.1163 36.6177 31.7728 36.7653 32.403C29.6139 32.0442 23.273 28.6187 19.0286 23.4111C18.288 24.6817 17.8632 26.1609 17.8632 27.7376C17.8632 30.7223 19.3835 33.3572 21.6911 34.8999C20.2812 34.8557 18.9535 34.4687 17.7939 33.8225C17.7933 33.8591 17.7933 33.8956 17.7933 33.9316C17.7933 38.1009 20.7606 41.5784 24.6963 42.3684C23.975 42.566 23.2133 42.6706 22.4298 42.6706C21.874 42.6706 21.3356 42.6174 20.8107 42.5173C21.9055 45.9351 25.0827 48.4231 28.849 48.493C25.9034 50.8013 22.1936 52.1765 18.161 52.1765C17.4679 52.1765 16.7813 52.1361 16.1094 52.0559C19.9155 54.4983 24.4396 55.9223 29.2988 55.9223C45.1264 55.9223 53.782 42.8105 53.782 31.4385C53.782 31.0656 53.7737 30.694 53.757 30.3257C55.4396 29.1128 56.8983 27.5977 58.0515 25.8721Z" fill="#F1F2F2"/>
</svg>
