<svg width="56" height="56" viewBox="0 0 56 56" fill="none" xmlns="http://www.w3.org/2000/svg">
<path d="M40.583 0C41.6709 0.331405 42.5229 0.925478 42.8176 2.09153C42.906 2.44012 42.9232 2.81326 42.9256 3.17412C42.933 8.75153 42.9306 14.329 42.9281 19.9039C42.9281 20.0856 42.9232 20.2697 42.8962 20.4489C42.8201 20.9399 42.4812 21.2467 42.0097 21.2393C41.5039 21.232 41.1896 20.9718 41.1061 20.4685C41.0668 20.2378 41.0619 19.9972 41.0619 19.7615C41.0594 14.2749 41.0594 8.79081 41.0594 3.30423C41.0594 2.11608 40.8065 1.86814 39.6131 1.86814C27.5072 1.86814 15.4037 1.86814 3.29782 1.86814C2.1216 1.86814 1.86131 2.13081 1.86131 3.32386C1.86131 19.7812 1.86131 36.2385 1.86131 52.6958C1.86131 53.879 2.11915 54.1343 3.31255 54.1343C15.4185 54.1343 27.5219 54.1343 39.6278 54.1343C40.809 54.1343 41.0594 53.8815 41.0594 52.686C41.0594 49.9169 41.0594 47.1454 41.0594 44.3763C41.0594 44.1946 41.057 44.0105 41.0815 43.8313C41.1601 43.2667 41.5063 42.9525 42.0171 42.9598C42.5229 42.9697 42.8569 43.3035 42.9158 43.8681C42.9306 44.013 42.9306 44.1603 42.9306 44.3051C42.9306 47.1478 42.9355 49.9905 42.9306 52.8357C42.9256 54.9002 41.8157 56 39.7482 56C27.6791 56 15.61 56 3.54337 56C1.43159 56 0.807879 55.595 0 53.7023C0 36.5674 0 19.4326 0 2.29774C0.343778 1.1145 1.12219 0.360863 2.29349 0C15.055 0 27.819 0 40.583 0Z" fill="#000086"/>
<path d="M46.6728 17.778C47.4193 16.5064 48.1462 15.2888 48.8509 14.0565C49.1382 13.5557 49.4771 13.2218 50.1155 13.3323C50.2285 13.3519 50.4077 13.185 50.501 13.0622C50.7564 12.7333 50.9406 12.3405 51.2279 12.0459C52.1733 11.0689 53.6663 10.9437 54.7762 11.7072C55.8935 12.4755 56.3084 13.9043 55.7584 15.139C55.5963 15.5048 55.3901 15.8485 55.1887 16.2364C55.7682 16.7666 55.6332 17.3214 55.2648 17.9327C54.5503 19.1135 53.8799 20.3212 53.1653 21.5609C53.4084 21.7058 53.6245 21.831 53.8406 21.9586C55.3483 22.862 55.7977 24.4233 54.9382 25.9453C53.7669 28.0246 52.5637 30.0817 51.3679 32.1462C51.0167 32.7526 50.4937 32.9416 50.0099 32.6667C49.5188 32.3868 49.4132 31.8541 49.7644 31.2379C50.8669 29.3084 51.9793 27.3863 53.0868 25.4617C53.8062 24.2097 53.6564 23.7899 52.2568 23.1934C52.1659 23.3382 52.0652 23.4855 51.9768 23.6402C49.7398 27.5213 47.466 31.3803 45.2879 35.2934C44.2836 37.0977 42.9158 38.6025 41.6659 40.208C41.0643 40.9812 40.4775 41.7742 39.9667 42.6113C39.2423 43.7994 38.2822 44.4328 36.853 44.283C36.6885 44.2658 36.4528 44.4156 36.3349 44.5555C35.7186 45.2993 35.1366 46.0701 34.5276 46.8189C33.4472 48.142 31.8118 47.8965 31.1537 46.323C30.9941 45.94 30.8418 45.5571 30.6528 45.098C30.5202 45.2772 30.4268 45.3975 30.3409 45.5227C29.8031 46.3083 29.0174 46.6544 28.2414 46.4506C27.4163 46.2346 26.8933 45.562 26.8074 44.5948C26.7239 43.6325 26.6502 42.6702 26.5692 41.7079C26.5593 41.5876 26.5348 41.4673 26.4267 41.3249C26.3678 41.4796 26.3015 41.6318 26.2499 41.7889C25.5894 43.7749 24.9313 45.7584 24.2732 47.7443C24.1308 48.1789 23.8558 48.552 23.3941 48.498C23.0847 48.4612 22.7409 48.2059 22.5371 47.9481C22.407 47.7812 22.4315 47.4129 22.5077 47.1748C23.2345 44.9237 23.9761 42.68 24.7373 40.4412C25.0369 39.5574 25.8325 39.0665 26.7263 39.145C27.5563 39.2187 28.2488 39.8741 28.3593 40.7971C28.5017 41.9853 28.5827 43.1783 28.6981 44.4843C28.8651 44.2486 28.9707 44.094 29.0837 43.9418C29.9898 42.7095 31.6595 42.8469 32.3348 44.2192C32.5656 44.6881 32.74 45.1815 32.961 45.7191C33.624 44.909 34.2575 44.1554 34.8567 43.3796C34.9426 43.2692 34.9353 43.0065 34.8665 42.8666C34.4589 42.027 34.3582 41.1482 34.8198 40.343C36.0255 38.2441 36.7057 35.9316 37.5995 33.7051C37.7469 33.3344 37.9114 32.9662 38.1078 32.6225C40.5511 28.378 43.0018 24.1385 45.45 19.8965C45.531 19.7542 45.6071 19.6118 45.7053 19.435C45.1185 18.9637 43.9766 18.6912 44.6568 17.6332C45.2437 16.72 45.973 17.4613 46.6728 17.778ZM43.1466 35.1412C45.6439 30.8133 48.1142 26.5345 50.6115 22.2115C49.5164 21.5781 48.4703 20.9742 47.3825 20.3458C44.8876 24.6688 42.4075 28.9623 39.9176 33.2779C41.0103 33.9064 42.0466 34.5053 43.1466 35.1412ZM51.5471 20.5937C52.1807 19.4989 52.7847 18.4506 53.4133 17.3656C52.3182 16.7322 51.2598 16.1234 50.1843 15.5024C49.5434 16.6144 48.9393 17.6626 48.323 18.7305C49.4083 19.3589 50.4446 19.9579 51.5471 20.5937ZM39.1416 34.9767C38.6873 36.1943 38.2576 37.3456 37.8205 38.519C38.4516 38.8848 39.0459 39.2309 39.6647 39.5918C40.4676 38.6197 41.2559 37.6696 42.0785 36.6754C41.0963 36.1059 40.1558 35.5609 39.1416 34.9767ZM53.5435 15.2814C53.848 14.68 54.4128 14.1915 53.9585 13.5385C53.7964 13.3053 53.3863 13.1163 53.0966 13.1285C52.3624 13.158 52.2641 13.8601 51.9179 14.351C52.4851 14.6751 52.9885 14.9623 53.5435 15.2814ZM37.0519 40.2571C36.7646 40.8266 36.2293 41.2979 36.605 41.9288C36.7548 42.1817 37.1796 42.41 37.4768 42.4075C38.211 42.4001 38.3239 41.6907 38.6775 41.1899C38.1127 40.8659 37.602 40.5737 37.0519 40.2571Z" fill="#000086"/>
<path d="M10.2962 7.46519C10.2962 8.11573 10.2962 8.69262 10.2962 9.33333C10.554 9.33333 10.7848 9.33333 11.0156 9.33333C18.3627 9.33333 25.7097 9.33333 33.0567 9.33579C33.3293 9.33579 33.6092 9.34315 33.8695 9.40943C34.314 9.52727 34.5276 9.87585 34.508 10.3128C34.4883 10.7473 34.2502 11.0714 33.7934 11.1573C33.5798 11.1966 33.3588 11.2015 33.1402 11.2015C25.3561 11.2039 17.5695 11.2039 9.78541 11.2015C8.65585 11.2015 8.40293 10.9462 8.40293 9.82185C8.40293 8.78345 8.39556 7.74505 8.40538 6.70419C8.41275 5.97756 8.74671 5.64124 9.46864 5.59951C9.59633 5.59214 9.72402 5.59705 9.85171 5.59705C17.599 5.59705 25.3487 5.59705 33.096 5.59951C33.349 5.59951 33.6093 5.61424 33.8524 5.67315C34.3042 5.78362 34.5203 6.1273 34.5055 6.56426C34.4908 7.02823 34.233 7.35473 33.7517 7.43328C33.5209 7.4701 33.2802 7.46274 33.042 7.46274C25.7122 7.46519 18.3848 7.46274 11.0549 7.46274C10.8241 7.46519 10.5884 7.46519 10.2962 7.46519Z" fill="#000086"/>
<path d="M11.6394 52.2686C7.80131 52.2514 4.42001 49.3915 3.8405 45.67C3.23152 41.7545 5.45871 38.0109 9.16906 36.8154C11.6836 36.0053 14.0605 36.3833 16.246 37.8759C16.7788 38.2392 16.9213 38.7743 16.6241 39.2358C16.3319 39.6875 15.777 39.7931 15.2294 39.4249C14.2226 38.7498 13.1348 38.3374 11.9193 38.2809C8.64357 38.1336 5.91299 40.5566 5.60604 43.8878C5.31138 47.1012 7.7301 49.9611 11.0893 50.3686C14.1514 50.7393 17.103 48.4734 17.6236 45.3509C17.6776 45.0293 17.6899 44.7003 17.7242 44.3738C17.7881 43.765 18.1736 43.3894 18.704 43.414C19.2393 43.4385 19.5733 43.8387 19.5806 44.4598C19.6347 48.6698 15.9513 52.2883 11.6394 52.2686Z" fill="#000086"/>
<path d="M26.0928 21.4627C22.8318 21.4627 19.5708 21.4627 16.3098 21.4603C16.0913 21.4603 15.8678 21.4726 15.6567 21.4235C15.2392 21.3302 14.9986 21.0528 14.9593 20.6207C14.92 20.1911 15.1017 19.8597 15.4995 19.7075C15.7303 19.6191 15.998 19.5995 16.2484 19.5995C22.8441 19.5946 29.4373 19.5946 36.0329 19.5995C36.2662 19.5995 36.5142 19.6167 36.7303 19.6952C37.1526 19.8524 37.3515 20.1887 37.3024 20.6428C37.2558 21.07 37.0053 21.3449 36.5854 21.4284C36.3742 21.4701 36.1508 21.4603 35.9322 21.4603C32.6516 21.4627 29.3734 21.4627 26.0928 21.4627Z" fill="#000086"/>
<path d="M16.769 27.0696C13.8199 27.0696 10.8683 27.0696 7.91918 27.0696C6.98116 27.0696 6.54161 26.7628 6.55143 26.122C6.56126 25.4887 6.99835 25.1966 7.94865 25.1966C13.8494 25.1966 19.7501 25.1966 25.6508 25.199C25.8865 25.199 26.1272 25.2064 26.3555 25.2604C26.827 25.3709 27.0578 25.7023 27.0406 26.1785C27.0234 26.6302 26.7803 26.9321 26.331 27.0205C26.1001 27.0647 25.862 27.0696 25.6262 27.0696C22.6697 27.0721 19.7181 27.0696 16.769 27.0696Z" fill="#000086"/>
<path d="M21.4837 13.077C24.4353 13.077 27.3844 13.077 30.336 13.077C31.2789 13.077 31.7234 13.3789 31.7209 14.0123C31.716 14.6432 31.2666 14.9476 30.3262 14.9476C24.4255 14.9476 18.5247 14.9476 12.624 14.9451C12.3711 14.9451 12.1084 14.9378 11.8677 14.8739C11.4233 14.7561 11.2072 14.4173 11.2244 13.9779C11.2416 13.5385 11.4748 13.2169 11.9291 13.1285C12.1599 13.0843 12.4006 13.0819 12.6363 13.0819C15.583 13.0745 18.5321 13.077 21.4837 13.077Z" fill="#000086"/>
<path d="M12.1477 31.7265C10.635 31.7265 9.12241 31.7338 7.60978 31.724C6.87066 31.7191 6.42866 31.2208 6.56862 30.5899C6.67176 30.1357 7.04746 29.8706 7.65398 29.8657C8.76635 29.8559 9.87872 29.8632 10.9886 29.8632C12.7738 29.8632 14.5615 29.8632 16.3467 29.8632C16.4915 29.8632 16.6389 29.8559 16.7838 29.8706C17.351 29.9295 17.7267 30.3174 17.7144 30.8231C17.7021 31.3361 17.3191 31.7117 16.7396 31.7191C15.5191 31.7338 14.2963 31.724 13.0759 31.7265C12.7689 31.7289 12.4595 31.7265 12.1477 31.7265Z" fill="#000086"/>
<path d="M11.4306 45.1398C12.4153 44.148 13.3632 43.1906 14.3085 42.2381C14.4362 42.108 14.559 41.973 14.7014 41.8576C15.1164 41.5213 15.6444 41.5385 15.9857 41.8871C16.3319 42.2381 16.354 42.7635 15.9955 43.1685C15.6468 43.5637 15.2589 43.9221 14.8856 44.2977C14.2177 44.9679 13.5547 45.643 12.8794 46.3058C11.9586 47.2067 10.9051 47.2141 9.98922 46.3254C9.41462 45.7682 8.84984 45.1987 8.28997 44.6267C7.77921 44.1063 7.7301 43.5466 8.14264 43.144C8.56254 42.734 9.08312 42.7929 9.62334 43.3256C10.2176 43.9123 10.802 44.5064 11.4306 45.1398Z" fill="#000086"/>
<path d="M33.1378 27.0672C32.1015 27.0672 31.0628 27.0794 30.0266 27.0622C29.3636 27.0524 28.9977 26.7358 28.9609 26.2104C28.929 25.7342 29.1966 25.361 29.6656 25.2555C29.84 25.2162 30.0266 25.2015 30.2058 25.2015C32.1531 25.1966 34.1004 25.199 36.0476 25.199C36.1557 25.199 36.2662 25.1966 36.3742 25.2088C36.9685 25.2776 37.3147 25.6262 37.3122 26.1441C37.3098 26.6646 36.9586 27.0254 36.3595 27.0549C35.7235 27.0868 35.085 27.0672 34.4491 27.0696C34.012 27.0721 33.5749 27.0696 33.1378 27.0672C33.1378 27.0696 33.1378 27.0696 33.1378 27.0672Z" fill="#000086"/>
<path d="M23.7993 31.7265C22.7606 31.7265 21.7243 31.7338 20.6856 31.724C20.03 31.7191 19.6126 31.3582 19.6027 30.8157C19.5905 30.2806 20.0128 29.8706 20.6562 29.8681C22.7508 29.8559 24.8454 29.8559 26.9375 29.8681C27.5784 29.8731 28.0008 30.2781 27.9934 30.8133C27.986 31.3558 27.571 31.7191 26.9154 31.724C25.8742 31.7338 24.838 31.7265 23.7993 31.7265Z" fill="#000086"/>
</svg>
