<svg width="57" height="48" viewBox="0 0 57 48" fill="none" xmlns="http://www.w3.org/2000/svg">
<path d="M56.0016 19.1054C55.5384 19.6046 55.1044 20.1375 54.6033 20.5943C53.9195 21.218 53.1816 21.7817 52.4218 22.4097C53.8669 23.4565 54.6603 24.8254 54.6661 26.5661C54.6734 28.2922 53.9107 29.6596 52.53 30.6713C54.6121 34.2611 52.1369 38.3809 48.1145 38.3546C47.9362 39.8435 47.3109 41.104 46.0675 41.9971C44.8299 42.8858 43.4462 43.1098 42.0246 42.817C41.7674 43.4392 41.5921 44.0438 41.2867 44.5709C39.9761 46.8299 37.1211 47.6688 34.8228 46.4273C32.8678 45.3717 30.9654 44.2166 29.0397 43.1068C28.8673 43.0073 28.6919 42.9092 28.4669 42.7833C28.3369 42.9853 28.2156 43.183 28.0856 43.3718C26.9561 45.0013 25.3913 45.7582 23.4363 45.5562C21.6099 45.3673 20.2935 44.3674 19.5118 42.7028C19.3467 42.3514 19.202 42.2328 18.7988 42.2621C16.4844 42.4363 14.7456 41.3924 13.7682 39.2681C13.6483 39.0061 13.5168 38.946 13.2363 38.9651C10.7568 39.1276 9.14228 38.1847 8.07275 35.9316C7.91203 35.5934 7.69871 35.671 7.45616 35.6856C5.11692 35.8364 3.16634 34.6652 2.36273 32.6024C1.81481 31.1969 1.87472 29.8031 2.59212 28.4708C3.19702 27.3465 3.84868 26.2484 4.50764 25.0904C3.536 24.5238 2.5819 23.966 1.62779 23.4097C1.37648 23.2633 1.11786 23.1256 0.872397 22.9705C0.00303662 22.4185 -0.239508 21.565 0.248503 20.65C3.31537 14.8978 6.38663 9.14848 9.46519 3.4036C9.98534 2.43294 10.9102 2.18112 11.8775 2.73453C14.1232 4.02142 16.3631 5.31563 18.5942 6.62594C18.9069 6.80895 19.1246 6.80455 19.4329 6.62301C21.9635 5.13848 24.5073 3.67591 27.0438 2.20308C28.7402 1.21779 30.5037 1.04796 32.3462 1.73166C33.9666 2.33338 35.5869 2.93803 37.219 3.50608C37.4513 3.5866 37.799 3.55439 38.0153 3.43288C39.7935 2.43147 41.5526 1.3964 43.3191 0.374502C44.469 -0.291635 45.3033 -0.0749577 45.974 1.07138C49.1913 6.57177 52.4072 12.0736 55.6231 17.5755C55.7488 17.7922 55.8759 18.0074 56.0016 18.224C56.0016 18.5198 56.0016 18.8126 56.0016 19.1054ZM30.0858 39.9108C32.1942 41.1289 34.2675 42.3455 36.3672 43.5168C36.6565 43.6778 37.0831 43.7027 37.4192 43.6397C38.1307 43.508 38.5544 43.0175 38.6889 42.3001C38.8101 41.6487 38.4858 40.9854 37.8327 40.6004C36.6243 39.8859 35.4058 39.1905 34.193 38.4849C33.5501 38.1101 33.2068 37.5523 33.3047 36.8027C33.4639 35.5773 34.719 35.0019 35.8382 35.6432C37.9583 36.8554 40.055 38.1086 42.1897 39.293C42.5871 39.5141 43.1277 39.6122 43.5807 39.5653C44.2557 39.4936 44.7408 38.8919 44.8153 38.2052C44.8971 37.4556 44.5684 36.8964 43.924 36.5216C41.8273 35.305 39.7306 34.0898 37.6354 32.8717C36.6316 32.2876 36.297 31.3521 36.7792 30.4941C37.2716 29.6201 38.2637 29.4371 39.2952 30.033C40.4159 30.6801 41.5351 31.3301 42.6543 31.9787C44.2615 32.9113 45.8688 33.8468 47.4789 34.7765C48.0823 35.1249 48.6945 35.1395 49.2848 34.7457C49.8371 34.3753 50.0607 33.8351 49.9862 33.1821C49.9131 32.5453 49.5172 32.1485 48.9795 31.8381C46.2633 30.2731 43.5544 28.6963 40.844 27.1225C40.1091 26.695 39.7569 26.0625 39.8636 25.3803C40.0565 24.1578 41.2867 23.5941 42.4103 24.2383C44.5611 25.4696 46.6987 26.7257 48.848 27.9584C49.7305 28.465 50.7153 28.2161 51.177 27.4036C51.6431 26.5866 51.3625 25.6218 50.4756 25.1065C43.3834 20.9882 36.2897 16.8742 29.1858 12.7764C29.0134 12.6768 28.689 12.6885 28.5093 12.7851C27.6429 13.2492 26.8013 13.7617 25.9494 14.2536C24.1362 15.3033 22.339 16.3852 20.5039 17.3939C18.169 18.6764 15.333 17.8961 13.9552 15.6503C12.5788 13.4074 13.191 10.5335 15.3725 8.99475C15.4718 8.92448 15.558 8.8381 15.6822 8.73269C14.3088 7.93772 12.9762 7.16617 11.6057 6.37413C9.01224 11.2289 6.44361 16.0382 3.8516 20.8901C4.56755 21.3073 5.25281 21.6821 5.91031 22.0979C6.23467 22.3029 6.45092 22.2926 6.7709 22.0554C8.88513 20.4889 11.7591 20.8549 13.4526 22.8753C13.5548 22.9983 13.6571 23.1213 13.7667 23.253C15.466 22.2955 17.1813 22.1667 18.8806 23.1403C20.6003 24.1256 21.3572 25.695 21.3791 27.6393C21.458 27.6656 21.5091 27.6876 21.5617 27.6993C24.3875 28.3083 25.6338 29.7021 25.9597 32.5716C25.9743 32.7063 26.2066 32.8937 26.3615 32.923C28.4202 33.3153 29.7615 34.51 30.3605 36.5172C30.6951 37.6591 30.5534 38.7923 30.0858 39.9108ZM43.8188 3.89405C42.1108 4.8852 40.467 5.82511 38.8364 6.78845C38.2257 7.1486 37.6383 7.21009 36.9648 6.95242C35.0799 6.22919 33.1761 5.55134 31.2854 4.84274C30.3927 4.50748 29.5482 4.55433 28.7168 5.03893C24.953 7.22766 21.1833 9.40615 17.4209 11.5963C17.2062 11.7223 16.9943 11.8877 16.8438 12.0839C16.3631 12.7105 16.404 13.5816 16.9066 14.157C17.4355 14.7616 18.2801 14.889 19.0472 14.4454C21.9343 12.7793 24.8258 11.1205 27.6955 9.42225C28.4918 8.95083 29.1858 8.94205 29.988 9.41201C34.4531 12.0268 38.9343 14.6108 43.4112 17.2051C45.3954 18.3543 47.381 19.5022 49.3798 20.6602C50.3368 19.8667 51.2749 19.0908 52.2348 18.2943C49.4251 13.485 46.6358 8.71366 43.8188 3.89405ZM18.1252 27.4621C18.0697 26.6891 17.5904 26.0332 16.8935 25.8385C16.1468 25.6306 15.4104 25.9293 14.9882 26.6554C13.7346 28.8164 12.4897 30.9802 11.2536 33.1499C10.7466 34.0386 10.9789 35.0136 11.7825 35.488C12.608 35.9755 13.5724 35.6856 14.1042 34.7677C15.3374 32.6375 16.5647 30.5059 17.7818 28.3654C17.9382 28.0887 18.0127 27.7637 18.1252 27.4621ZM22.7131 32.6434C22.6561 31.8674 22.1929 31.2481 21.4697 31.0402C20.7201 30.825 20.0086 31.1164 19.5746 31.8586C18.6833 33.3856 17.8023 34.917 16.93 36.4542C16.4274 37.34 16.667 38.3194 17.4721 38.7879C18.283 39.2593 19.2502 38.9826 19.7631 38.1027C20.6544 36.5772 21.5354 35.0429 22.4019 33.5042C22.5509 33.2421 22.6123 32.9318 22.7131 32.6434ZM6.93162 32.4106C7.50438 32.4164 7.98655 32.1851 8.27146 31.7049C9.24748 30.0593 10.2089 28.4064 11.1309 26.7301C11.5356 25.9937 11.2141 25.0465 10.5172 24.6219C9.78517 24.1754 8.796 24.332 8.3416 25.0816C7.34073 26.733 6.36325 28.4006 5.45882 30.1062C4.89045 31.1749 5.73059 32.4106 6.93162 32.4106ZM23.9886 42.2943C24.5818 42.2943 25.0567 42.0366 25.3577 41.5388C25.9509 40.5565 26.531 39.5668 27.0687 38.5537C27.4895 37.7616 27.1724 36.7998 26.417 36.3737C25.6762 35.9579 24.7177 36.1673 24.2575 36.914C23.6467 37.9051 23.0506 38.9094 22.5202 39.946C21.9562 41.0528 22.7657 42.3001 23.9886 42.2943Z" fill="#F6F9FF"/>
</svg>
