<svg width="207" height="101" viewBox="0 0 207 101" fill="none" xmlns="http://www.w3.org/2000/svg">
<path d="M76.4472 53.3232C74.7354 47.2092 72.0297 42.0019 68.1229 37.3305C71.298 32.9613 74.4317 28.6609 77.5654 24.3467C83.1426 16.6938 88.7336 9.05467 94.2555 1.3743C94.9734 0.37132 95.7189 -0.0133853 96.9751 0.000354212C103.16 0.0690516 109.344 0.0278332 115.957 0.0278332C109.427 8.86231 103.091 17.422 96.6024 26.2015C101.379 26.5175 105.741 27.3831 109.814 29.3066C124.171 36.0665 131.832 47.4015 132.316 63.1744C132.716 76.0346 143.028 85.6797 155.577 84.347C165.447 83.3028 173.454 75.224 174.241 65.4827C175.056 55.4254 168.774 46.2474 159.18 43.4995C150.524 41.0264 141.082 44.4063 135.974 51.7982C135.698 52.1966 135.422 52.5951 134.966 53.2408C133.282 47.2504 130.59 42.0294 126.683 37.3305C128.45 34.8437 130.217 32.398 131.957 29.9387C138.721 20.4447 145.499 10.9507 152.222 1.41552C152.94 0.398799 153.699 0.0278332 154.942 0.0278332C171.894 0.0553121 188.847 0.0278332 205.813 0.0140937C206.13 0.0140937 206.434 0.0553121 207 0.082791C206.586 0.701067 206.31 1.14073 205.992 1.56665C202.624 6.12816 199.214 10.6484 195.901 15.2512C195.142 16.2954 194.369 16.7213 193.057 16.7213C183.228 16.6663 173.399 16.7213 163.57 16.6801C162.383 16.6801 161.665 17.051 160.988 17.9991C159.097 20.692 157.095 23.3162 155.038 26.1053C157.123 26.4076 159.056 26.6274 160.975 26.9984C177.913 30.2959 190.683 45.5742 190.862 62.7348C191.055 81.5853 178.382 96.8911 159.677 100.408C140.378 104.036 120.416 90.571 116.702 71.3082C116.095 68.1481 116.067 64.8781 115.736 61.6494C114.811 52.6088 108.64 45.4368 99.9155 43.2385C91.4669 41.1226 82.4938 44.5987 77.4412 51.9356C77.1513 52.3065 76.9028 52.6638 76.4472 53.3232Z" fill="#F6F9FF"/>
<path d="M23.4917 42.7713C29.9662 34.0055 36.2198 25.5283 42.6943 16.7762C30.9464 16.7762 19.4745 16.7762 7.54708 16.7762C9.49356 14.1245 11.164 11.8438 12.8482 9.57677C14.9741 6.70522 17.0862 3.80619 19.2812 0.989596C19.654 0.508715 20.427 0.082791 21.0068 0.0690516C38.898 0.0140937 56.7891 0.0278332 74.6802 0.0278332C74.8873 0.0278332 75.1082 0.0690516 75.688 0.11027C68.2195 10.2637 60.8753 20.2111 53.7658 29.8425C57.1894 32.7003 60.7373 35.1734 63.7053 38.2098C70.7458 45.4093 73.5206 54.3537 73.8795 64.2736C74.3075 76.1445 83.9847 84.9378 95.8431 84.347C102.497 84.0172 107.909 81.1319 111.871 75.7186C112.257 75.1827 112.63 74.6469 113.016 74.1248C113.044 74.0836 113.113 74.0698 113.279 74.0011C114.908 79.7855 117.6 85.0202 121.548 89.7328C117.82 93.5249 113.541 96.3278 108.668 98.2513C86.1107 107.141 61.3171 92.9066 57.714 68.9588C57.217 65.6475 57.2861 62.2402 56.6234 58.9839C54.4008 48.2122 44.5442 42.3866 36.4545 42.7576C32.2578 42.9225 28.0749 42.7713 23.4917 42.7713Z" fill="#F6F9FF"/>
<path d="M0.0234155 63.4905C5.51776 63.4905 10.9017 63.4905 16.2994 63.4905C17.1277 73.5752 21.918 80.7884 31.7884 83.4814C42.0317 86.2842 49.4449 81.5853 54.8978 73.273C56.0022 76.0483 56.9409 78.9061 58.2662 81.5716C59.6053 84.2645 61.3447 86.7514 62.9461 89.4031C56.9133 96.6988 41.3966 104.489 25.314 98.8696C7.34 92.5907 -0.487365 76.0209 0.0234155 63.4905Z" fill="#F6F9FF"/>
</svg>
