<svg width="56" height="57" viewBox="0 0 56 57" fill="none" xmlns="http://www.w3.org/2000/svg">
<path d="M40.583 0.332825C41.6709 0.663463 42.5229 1.25616 42.8176 2.41952C42.906 2.7673 42.9232 3.13958 42.9256 3.49961C42.933 9.06413 42.9306 14.6287 42.9281 20.1907C42.9281 20.372 42.9232 20.5557 42.8962 20.7345C42.8201 21.2243 42.4812 21.5304 42.0097 21.5231C41.5039 21.5157 41.1896 21.2561 41.1061 20.754C41.0668 20.5238 41.0619 20.2838 41.0619 20.0487C41.0594 14.5748 41.0594 9.10332 41.0594 3.62941C41.0594 2.44401 40.8065 2.19665 39.6131 2.19665C27.5072 2.19665 15.4037 2.19665 3.29782 2.19665C2.1216 2.19665 1.86131 2.45871 1.86131 3.64901C1.86131 20.0683 1.86131 36.4875 1.86131 52.9068C1.86131 54.0873 2.11915 54.342 3.31255 54.342C15.4185 54.342 27.5219 54.342 39.6278 54.342C40.809 54.342 41.0594 54.0898 41.0594 52.897C41.0594 50.1343 41.0594 47.3692 41.0594 44.6066C41.0594 44.4253 41.057 44.2416 41.0815 44.0628C41.1601 43.4995 41.5063 43.186 42.0171 43.1934C42.5229 43.2032 42.8569 43.5363 42.9158 44.0996C42.9306 44.2441 42.9306 44.391 42.9306 44.5355C42.9306 47.3717 42.9355 50.2078 42.9306 53.0464C42.9256 55.1062 41.8157 56.2034 39.7481 56.2034C27.6791 56.2034 15.61 56.2034 3.54337 56.2034C1.43159 56.2034 0.807879 55.7993 0 53.911C0 36.8157 0 19.7205 0 2.62525C0.343778 1.44475 1.12219 0.692853 2.29349 0.332825C15.055 0.332825 27.819 0.332825 40.583 0.332825Z" fill="#000086"/>
<path d="M46.6728 18.0697C47.4193 16.8011 48.1462 15.5863 48.8509 14.3568C49.1382 13.8572 49.4771 13.5241 50.1155 13.6343C50.2285 13.6539 50.4077 13.4873 50.501 13.3649C50.7564 13.0367 50.9406 12.6448 51.2279 12.3509C52.1733 11.3762 53.6663 11.2512 54.7762 12.0129C55.8935 12.7795 56.3084 14.205 55.7584 15.4369C55.5963 15.8018 55.3901 16.1447 55.1887 16.5317C55.7682 17.0607 55.6332 17.6142 55.2648 18.224C54.5503 19.4021 53.8799 20.6071 53.1653 21.8439C53.4084 21.9884 53.6245 22.1133 53.8406 22.2407C55.3483 23.142 55.7977 24.6997 54.9382 26.2182C53.7669 28.2926 52.5637 30.345 51.3679 32.4048C51.0167 33.0097 50.4937 33.1983 50.0099 32.924C49.5188 32.6448 49.4132 32.1133 49.7644 31.4986C50.8669 29.5735 51.9793 27.6558 53.0868 25.7357C53.8062 24.4866 53.6564 24.0678 52.2568 23.4726C52.1659 23.6171 52.0652 23.7641 51.9768 23.9184C49.7398 27.7905 47.466 31.6406 45.2879 35.5446C44.2836 37.3448 42.9158 38.8461 41.6659 40.4479C41.0643 41.2193 40.4775 42.0104 39.9667 42.8456C39.2423 44.031 38.2822 44.6629 36.853 44.5135C36.6885 44.4963 36.4528 44.6457 36.3349 44.7853C35.7186 45.5274 35.1366 46.2965 34.5276 47.0435C33.4472 48.3636 31.8118 48.1187 31.1537 46.5488C30.9941 46.1667 30.8418 45.7846 30.6528 45.3266C30.5202 45.5054 30.4268 45.6254 30.3409 45.7503C29.8031 46.5341 29.0174 46.8794 28.2414 46.6761C27.4163 46.4606 26.8933 45.7895 26.8074 44.8245C26.7239 43.8645 26.6502 42.9044 26.5692 41.9443C26.5593 41.8243 26.5348 41.7043 26.4267 41.5622C26.3678 41.7165 26.3015 41.8684 26.2499 42.0251C25.5894 44.0065 24.9313 45.9854 24.2732 47.9668C24.1308 48.4003 23.8558 48.7726 23.3941 48.7187C23.0847 48.682 22.7409 48.4273 22.5371 48.1701C22.407 48.0036 22.4315 47.6362 22.5077 47.3986C23.2345 45.1527 23.9761 42.9142 24.7373 40.6805C25.0369 39.7988 25.8325 39.309 26.7263 39.3874C27.5563 39.4608 28.2488 40.1148 28.3593 41.0357C28.5017 42.2211 28.5827 43.4114 28.6981 44.7143C28.8651 44.4792 28.9707 44.3249 29.0837 44.1731C29.9898 42.9436 31.6595 43.0807 32.3348 44.4498C32.5656 44.9176 32.74 45.4099 32.961 45.9463C33.624 45.138 34.2575 44.3861 34.8567 43.6122C34.9426 43.502 34.9353 43.2399 34.8665 43.1003C34.4589 42.2627 34.3582 41.3859 34.8198 40.5826C36.0255 38.4885 36.7057 36.1814 37.5995 33.96C37.7469 33.5902 37.9114 33.2228 38.1078 32.8799C40.5511 28.6453 43.0018 24.4156 45.45 20.1834C45.531 20.0413 45.6071 19.8993 45.7053 19.7229C45.1185 19.2527 43.9766 18.9808 44.6568 17.9252C45.2437 17.0142 45.973 17.7538 46.6728 18.0697ZM43.1466 35.3928C45.6439 31.0749 48.1142 26.806 50.6115 22.493C49.5164 21.8611 48.4703 21.2586 47.3825 20.6316C44.8876 24.9446 42.4075 29.2282 39.9176 33.5338C41.0103 34.1608 42.0466 34.7584 43.1466 35.3928ZM51.5471 20.879C52.1807 19.7866 52.7847 18.7408 53.4133 17.6583C52.3182 17.0264 51.2598 16.419 50.1843 15.7994C49.5434 16.9088 48.9393 17.9546 48.323 19.02C49.4083 19.647 50.4446 20.2446 51.5471 20.879ZM39.1416 35.2287C38.6873 36.4435 38.2576 37.5921 37.8205 38.7628C38.4516 39.1278 39.0459 39.4731 39.6647 39.8331C40.4676 38.8632 41.2559 37.9154 42.0785 36.9235C41.0963 36.3553 40.1558 35.8116 39.1416 35.2287ZM53.5435 15.5789C53.848 14.9789 54.4128 14.4915 53.9585 13.84C53.7964 13.6074 53.3863 13.4188 53.0966 13.431C52.3624 13.4604 52.2641 14.1609 51.9179 14.6507C52.4851 14.974 52.9885 15.2605 53.5435 15.5789ZM37.0519 40.4968C36.7646 41.0651 36.2293 41.5353 36.605 42.1647C36.7548 42.417 37.1796 42.6448 37.4768 42.6423C38.211 42.635 38.3239 41.9272 38.6775 41.4275C38.1127 41.1042 37.602 40.8128 37.0519 40.4968Z" fill="#000086"/>
<path d="M10.2962 7.78077C10.2962 8.4298 10.2962 9.00535 10.2962 9.64459C10.554 9.64459 10.7848 9.64459 11.0156 9.64459C18.3627 9.64459 25.7097 9.64459 33.0567 9.64704C33.3293 9.64704 33.6092 9.65438 33.8695 9.72051C34.314 9.83807 34.5276 10.1859 34.508 10.6218C34.4883 11.0553 34.2502 11.3786 33.7934 11.4643C33.5798 11.5035 33.3588 11.5084 33.1402 11.5084C25.3561 11.5109 17.5695 11.5109 9.78541 11.5084C8.65585 11.5084 8.40293 11.2537 8.40293 10.132C8.40293 9.09597 8.39556 8.05997 8.40538 7.02152C8.41275 6.29657 8.74671 5.96103 9.46864 5.91939C9.59633 5.91205 9.72402 5.91694 9.85171 5.91694C17.599 5.91694 25.3487 5.91694 33.096 5.91939C33.349 5.91939 33.6093 5.93409 33.8524 5.99287C34.3042 6.10308 34.5203 6.44596 34.5055 6.88192C34.4908 7.34481 34.233 7.67055 33.7517 7.74893C33.5209 7.78566 33.2802 7.77832 33.042 7.77832C25.7122 7.78077 18.3848 7.77832 11.0549 7.77832C10.8241 7.78077 10.5884 7.78077 10.2962 7.78077Z" fill="#000086"/>
<path d="M11.6394 52.4807C7.80131 52.4635 4.42001 49.6102 3.8405 45.8973C3.23152 41.9908 5.45871 38.2558 9.16906 37.0631C11.6836 36.2549 14.0605 36.632 16.246 38.1211C16.7788 38.4836 16.9213 39.0175 16.6241 39.478C16.3319 39.9286 15.777 40.034 15.2294 39.6666C14.2226 38.993 13.1348 38.5816 11.9193 38.5253C8.64357 38.3783 5.91299 40.7956 5.60604 44.1192C5.31138 47.3251 7.7301 50.1784 11.0893 50.585C14.1514 50.9548 17.103 48.6942 17.6236 45.5789C17.6776 45.258 17.6899 44.9298 17.7242 44.6041C17.7881 43.9967 18.1736 43.622 18.704 43.6465C19.2393 43.671 19.5733 44.0702 19.5806 44.6898C19.6347 48.8902 15.9513 52.5002 11.6394 52.4807Z" fill="#000086"/>
<path d="M26.0928 21.746C22.8318 21.746 19.5708 21.746 16.3098 21.7435C16.0913 21.7435 15.8678 21.7558 15.6567 21.7068C15.2392 21.6137 14.9986 21.3369 14.9593 20.9059C14.92 20.4773 15.1017 20.1466 15.4995 19.9948C15.7303 19.9066 15.998 19.887 16.2484 19.887C22.8441 19.8821 29.4373 19.8821 36.0329 19.887C36.2662 19.887 36.5142 19.9042 36.7303 19.9826C37.1526 20.1393 37.3515 20.4748 37.3024 20.9279C37.2558 21.3541 37.0053 21.6284 36.5854 21.7117C36.3742 21.7533 36.1508 21.7435 35.9322 21.7435C32.6516 21.746 29.3734 21.746 26.0928 21.746Z" fill="#000086"/>
<path d="M16.769 27.3399C13.8199 27.3399 10.8683 27.3399 7.91918 27.3399C6.98116 27.3399 6.54161 27.0337 6.55143 26.3945C6.56126 25.7626 6.99835 25.4712 7.94865 25.4712C13.8494 25.4712 19.7501 25.4712 25.6508 25.4736C25.8865 25.4736 26.1272 25.481 26.3555 25.5348C26.827 25.645 27.0578 25.9757 27.0406 26.4508C27.0234 26.9015 26.7803 27.2027 26.331 27.2909C26.1001 27.335 25.862 27.3399 25.6262 27.3399C22.6697 27.3423 19.7181 27.3399 16.769 27.3399Z" fill="#000086"/>
<path d="M21.4837 13.3796C24.4353 13.3796 27.3844 13.3796 30.336 13.3796C31.2789 13.3796 31.7234 13.6808 31.7209 14.3127C31.716 14.9422 31.2666 15.2458 30.3262 15.2458C24.4255 15.2458 18.5247 15.2459 12.624 15.2434C12.3711 15.2434 12.1084 15.2361 11.8677 15.1724C11.4233 15.0548 11.2072 14.7168 11.2244 14.2784C11.2416 13.84 11.4748 13.5192 11.9291 13.431C12.1599 13.3869 12.4006 13.3845 12.6363 13.3845C15.583 13.3771 18.5321 13.3796 21.4837 13.3796Z" fill="#000086"/>
<path d="M12.1477 31.986C10.635 31.986 9.12241 31.9933 7.60978 31.9835C6.87066 31.9786 6.42866 31.4814 6.56862 30.852C6.67176 30.3989 7.04746 30.1344 7.65398 30.1295C8.76635 30.1197 9.87872 30.127 10.9886 30.127C12.7738 30.127 14.5615 30.127 16.3467 30.127C16.4915 30.127 16.6389 30.1197 16.7838 30.1344C17.351 30.1932 17.7267 30.5801 17.7144 31.0847C17.7021 31.5965 17.3191 31.9713 16.7396 31.9786C15.5191 31.9933 14.2963 31.9835 13.0759 31.986C12.7689 31.9884 12.4595 31.986 12.1477 31.986Z" fill="#000086"/>
<path d="M11.4306 45.3683C12.4153 44.3788 13.3632 43.4236 14.3085 42.4733C14.4362 42.3435 14.559 42.2088 14.7014 42.0937C15.1164 41.7582 15.6444 41.7753 15.9857 42.1231C16.3319 42.4733 16.354 42.9975 15.9955 43.4016C15.6468 43.7959 15.2589 44.1535 14.8856 44.5282C14.2177 45.1968 13.5547 45.8703 12.8794 46.5316C11.9586 47.4305 10.9051 47.4378 9.98922 46.5512C9.41462 45.9952 8.84984 45.427 8.28997 44.8564C7.77921 44.3371 7.7301 43.7787 8.14264 43.3771C8.56254 42.9681 9.08312 43.0268 9.62334 43.5583C10.2176 44.1437 10.802 44.7364 11.4306 45.3683Z" fill="#000086"/>
<path d="M33.1378 27.3374C32.1015 27.3374 31.0628 27.3497 30.0266 27.3325C29.3636 27.3227 28.9977 27.0068 28.9609 26.4827C28.929 26.0075 29.1966 25.6352 29.6656 25.5299C29.84 25.4907 30.0266 25.4761 30.2058 25.4761C32.1531 25.4712 34.1004 25.4736 36.0476 25.4736C36.1557 25.4736 36.2662 25.4712 36.3742 25.4834C36.9685 25.552 37.3147 25.8998 37.3122 26.4165C37.3098 26.9358 36.9586 27.2958 36.3595 27.3252C35.7235 27.357 35.085 27.3374 34.4491 27.3399C34.012 27.3423 33.5749 27.3399 33.1378 27.3374C33.1378 27.3399 33.1378 27.3399 33.1378 27.3374Z" fill="#000086"/>
<path d="M23.7993 31.986C22.7606 31.986 21.7243 31.9933 20.6856 31.9835C20.03 31.9786 19.6126 31.6186 19.6027 31.0773C19.5905 30.5434 20.0128 30.1344 20.6562 30.1319C22.7508 30.1197 24.8454 30.1197 26.9375 30.1319C27.5784 30.1368 28.0008 30.5409 27.9934 31.0749C27.986 31.6161 27.571 31.9786 26.9154 31.9835C25.8742 31.9933 24.838 31.986 23.7993 31.986Z" fill="#000086"/>
</svg>
