<svg width="72" height="36" viewBox="0 0 72 36" fill="none" xmlns="http://www.w3.org/2000/svg">
<path d="M26.5903 19.0063C25.9949 16.827 25.0538 14.971 23.6949 13.3059C24.7993 11.7486 25.8893 10.2158 26.9793 8.67803C28.9192 5.95027 30.8639 3.22741 32.7845 0.48985C33.0342 0.132352 33.2935 -0.00477098 33.7305 0.000126254C35.8816 0.0246124 38.0328 0.00992073 40.3328 0.00992073C38.0616 3.15884 35.8576 6.20982 33.6008 9.33916C35.2622 9.45179 36.7795 9.76032 38.196 10.4459C43.1898 12.8554 45.8548 16.8956 46.0228 22.5176C46.1621 27.1014 49.7489 30.5393 54.1137 30.0643C57.5469 29.6921 60.3319 26.8125 60.6056 23.3404C60.8889 19.7556 58.7041 16.4842 55.3669 15.5048C52.3563 14.6233 49.0719 15.828 47.2953 18.4627C47.1992 18.6047 47.1032 18.7468 46.9447 18.9769C46.3589 16.8417 45.4226 14.9808 44.0637 13.3059C44.6783 12.4195 45.293 11.5478 45.898 10.6712C48.2508 7.28722 50.6084 3.90322 52.9469 0.504542C53.1965 0.142146 53.4606 0.00992073 53.8928 0.00992073C59.7893 0.0197152 65.6858 0.00992073 71.5871 0.00502349C71.6975 0.00502349 71.8031 0.0197152 72 0.0295097C71.8559 0.249885 71.7599 0.406597 71.6495 0.558411C70.4779 2.18429 69.2918 3.79549 68.1394 5.43606C67.8753 5.80825 67.6064 5.96006 67.1503 5.96006C63.7315 5.94047 60.3127 5.96006 56.8939 5.94537C56.4809 5.94537 56.2312 6.0776 55.9959 6.41551C55.3381 7.37537 54.6419 8.31074 53.9264 9.30488C54.6515 9.41262 55.3237 9.49097 55.9911 9.6232C61.8828 10.7985 66.3244 16.2443 66.3868 22.3609C66.454 29.0799 62.0461 34.5354 55.5398 35.7891C48.827 37.082 41.8838 32.2827 40.5921 25.4168C40.3808 24.2904 40.3712 23.1249 40.256 21.974C39.9343 18.7516 37.7879 16.1953 34.7532 15.4117C31.8146 14.6576 28.6935 15.8966 26.9361 18.5117C26.8352 18.6439 26.7488 18.7712 26.5903 19.0063Z" fill="#F6F9FF"/>
<path d="M8.17103 15.2452C10.423 12.1208 12.5982 9.09919 14.8502 5.97965C10.7639 5.97965 6.77374 5.97965 2.62507 5.97965C3.30211 5.03449 3.88311 4.22154 4.46892 3.4135C5.20838 2.38998 5.94304 1.35666 6.70651 0.352727C6.83616 0.181324 7.10505 0.0295097 7.30673 0.0246124C13.5297 0.00502349 19.7527 0.00992073 25.9757 0.00992073C26.0478 0.00992073 26.1246 0.0246124 26.3263 0.0393042C23.7285 3.65836 21.174 7.20396 18.7012 10.6369C19.892 11.6556 21.126 12.5371 22.1584 13.6193C24.6072 16.1855 25.5724 19.3736 25.6972 22.9094C25.8461 27.1406 29.2121 30.2748 33.3367 30.0643C35.6511 29.9467 37.5334 28.9183 38.9115 26.9888C39.0459 26.7978 39.1756 26.6068 39.31 26.4207C39.3196 26.406 39.3437 26.4011 39.4013 26.3766C39.9679 28.4384 40.9042 30.3042 42.2775 31.984C40.981 33.3356 39.4925 34.3347 37.7975 35.0203C29.9515 38.1888 21.3277 33.1152 20.0744 24.5794C19.9016 23.3991 19.9256 22.1846 19.6951 21.024C18.922 17.1845 15.4936 15.1081 12.6798 15.2403C11.2201 15.2991 9.76519 15.2452 8.17103 15.2452Z" fill="#F6F9FF"/>
<path d="M0.0081445 22.6303C1.91922 22.6303 3.79188 22.6303 5.66935 22.6303C5.95745 26.2248 7.62364 28.7959 11.0569 29.7557C14.6197 30.7548 17.1982 29.0799 19.0949 26.1171C19.479 27.1063 19.8055 28.125 20.2665 29.075C20.7323 30.0349 21.3373 30.9213 21.8943 31.8665C19.7959 34.4669 14.3988 37.2436 8.80485 35.2406C2.55304 33.0026 -0.169518 27.0965 0.0081445 22.6303Z" fill="#F6F9FF"/>
</svg>
