<svg width="56" height="57" viewBox="0 0 56 57" fill="none" xmlns="http://www.w3.org/2000/svg">
<path d="M40.583 0.601562C41.6709 0.932967 42.5229 1.52704 42.8176 2.69309C42.906 3.04168 42.9232 3.41482 42.9256 3.77568C42.933 9.3531 42.9306 14.9305 42.9281 20.5055C42.9281 20.6871 42.9232 20.8712 42.8962 21.0505C42.8201 21.5414 42.4812 21.8483 42.0097 21.8409C41.5039 21.8335 41.1896 21.5733 41.1061 21.0701C41.0668 20.8393 41.0619 20.5988 41.0619 20.3631C41.0594 14.8765 41.0594 9.39237 41.0594 3.90579C41.0594 2.71764 40.8065 2.4697 39.6131 2.4697C27.5072 2.4697 15.4037 2.4697 3.29782 2.4697C2.1216 2.4697 1.86131 2.73237 1.86131 3.92543C1.86131 20.3827 1.86131 36.84 1.86131 53.2973C1.86131 54.4806 2.11915 54.7359 3.31255 54.7359C15.4185 54.7359 27.5219 54.7359 39.6278 54.7359C40.809 54.7359 41.0594 54.483 41.0594 53.2875C41.0594 50.5184 41.0594 47.7469 41.0594 44.9779C41.0594 44.7962 41.057 44.6121 41.0815 44.4329C41.1601 43.8683 41.5063 43.554 42.0171 43.5614C42.5229 43.5712 42.8569 43.9051 42.9158 44.4697C42.9306 44.6145 42.9306 44.7618 42.9306 44.9067C42.9306 47.7494 42.9355 50.5921 42.9306 53.4373C42.9256 55.5018 41.8157 56.6016 39.7481 56.6016C27.6791 56.6016 15.61 56.6016 3.54337 56.6016C1.43159 56.6016 0.807879 56.1965 0 54.3038C0 37.169 0 20.0341 0 2.8993C0.343778 1.71606 1.12219 0.962425 2.29349 0.601562C15.055 0.601562 27.819 0.601562 40.583 0.601562Z" fill="#F6F9FF"/>
<path d="M46.6728 18.3796C47.4193 17.108 48.1462 15.8904 48.8509 14.658C49.1382 14.1572 49.4771 13.8234 50.1155 13.9338C50.2285 13.9535 50.4077 13.7866 50.501 13.6638C50.7564 13.3349 50.9406 12.9421 51.2279 12.6475C52.1733 11.6705 53.6663 11.5453 54.7762 12.3087C55.8935 13.0771 56.3084 14.5058 55.7584 15.7406C55.5963 16.1064 55.3901 16.4501 55.1887 16.8379C55.7682 17.3682 55.6332 17.923 55.2648 18.5342C54.5503 19.715 53.8799 20.9228 53.1653 22.1625C53.4084 22.3073 53.6245 22.4325 53.8406 22.5602C55.3483 23.4636 55.7977 25.0249 54.9382 26.5469C53.7669 28.6261 52.5637 30.6833 51.3679 32.7478C51.0167 33.3541 50.4937 33.5432 50.0099 33.2682C49.5188 32.9884 49.4132 32.4557 49.7644 31.8395C50.8669 29.91 51.9793 27.9879 53.0868 26.0633C53.8062 24.8113 53.6564 24.3915 52.2568 23.795C52.1659 23.9398 52.0652 24.0871 51.9768 24.2418C49.7398 28.1229 47.466 31.9819 45.2879 35.8949C44.2836 37.6992 42.9158 39.2041 41.6659 40.8095C41.0643 41.5828 40.4775 42.3757 39.9667 43.2128C39.2423 44.401 38.2822 45.0343 36.853 44.8846C36.6885 44.8674 36.4528 45.0171 36.3349 45.1571C35.7186 45.9009 35.1366 46.6717 34.5276 47.4204C33.4472 48.7436 31.8118 48.4981 31.1537 46.9246C30.9941 46.5416 30.8418 46.1586 30.6528 45.6996C30.5202 45.8788 30.4268 45.9991 30.3409 46.1243C29.8031 46.9098 29.0174 47.256 28.2414 47.0522C27.4163 46.8362 26.8933 46.1636 26.8074 45.1963C26.7239 44.234 26.6502 43.2717 26.5692 42.3094C26.5593 42.1891 26.5348 42.0689 26.4267 41.9265C26.3678 42.0811 26.3015 42.2333 26.2499 42.3904C25.5894 44.3764 24.9313 46.3599 24.2732 48.3459C24.1308 48.7804 23.8558 49.1536 23.3941 49.0995C23.0847 49.0627 22.7409 48.8074 22.5371 48.5497C22.407 48.3827 22.4315 48.0145 22.5077 47.7764C23.2345 45.5253 23.9761 43.2816 24.7373 41.0427C25.0369 40.159 25.8325 39.668 26.7263 39.7466C27.5563 39.8202 28.2488 40.4757 28.3593 41.3987C28.5017 42.5868 28.5827 43.7799 28.6981 45.0859C28.8651 44.8502 28.9707 44.6955 29.0837 44.5434C29.9898 43.311 31.6595 43.4485 32.3348 44.8207C32.5656 45.2896 32.74 45.7831 32.961 46.3207C33.624 45.5106 34.2575 44.7569 34.8567 43.9812C34.9426 43.8707 34.9353 43.6081 34.8665 43.4681C34.4589 42.6286 34.3582 41.7497 34.8198 40.9445C36.0255 38.8456 36.7057 36.5332 37.5995 34.3066C37.7469 33.936 37.9114 33.5677 38.1078 33.224C40.5511 28.9796 43.0018 24.7401 45.45 20.4981C45.531 20.3557 45.6071 20.2133 45.7053 20.0366C45.1185 19.5653 43.9766 19.2928 44.6568 18.2347C45.2437 17.3215 45.973 18.0629 46.6728 18.3796ZM43.1466 35.7427C45.6439 31.4148 48.1142 27.136 50.6115 22.813C49.5164 22.1797 48.4703 21.5758 47.3825 20.9473C44.8876 25.2703 42.4075 29.5639 39.9176 33.8795C41.0103 34.5079 42.0466 35.1069 43.1466 35.7427ZM51.5471 21.1953C52.1807 20.1004 52.7847 19.0522 53.4133 17.9672C52.3182 17.3338 51.2598 16.725 50.1843 16.1039C49.5434 17.216 48.9393 18.2642 48.323 19.3321C49.4083 19.9605 50.4446 20.5595 51.5471 21.1953ZM39.1416 35.5782C38.6873 36.7958 38.2576 37.9472 37.8205 39.1206C38.4516 39.4864 39.0459 39.8325 39.6647 40.1934C40.4676 39.2212 41.2559 38.2712 42.0785 37.277C41.0963 36.7075 40.1558 36.1625 39.1416 35.5782ZM53.5435 15.883C53.848 15.2816 54.4128 14.793 53.9585 14.1401C53.7964 13.9068 53.3863 13.7178 53.0966 13.7301C52.3624 13.7596 52.2641 14.4616 51.9179 14.9526C52.4851 15.2766 52.9885 15.5639 53.5435 15.883ZM37.0519 40.8586C36.7646 41.4281 36.2293 41.8995 36.605 42.5304C36.7548 42.7832 37.1796 43.0115 37.4768 43.0091C38.211 43.0017 38.3239 42.2923 38.6775 41.7915C38.1127 41.4674 37.602 41.1753 37.0519 40.8586Z" fill="#F6F9FF"/>
<path d="M10.2962 8.06676C10.2962 8.71729 10.2962 9.29418 10.2962 9.9349C10.554 9.9349 10.7848 9.9349 11.0156 9.9349C18.3627 9.9349 25.7097 9.9349 33.0567 9.93735C33.3293 9.93735 33.6092 9.94472 33.8695 10.011C34.314 10.1288 34.5276 10.4774 34.508 10.9144C34.4883 11.3489 34.2502 11.6729 33.7934 11.7588C33.5798 11.7981 33.3588 11.803 33.1402 11.803C25.3561 11.8055 17.5695 11.8055 9.78541 11.803C8.65585 11.803 8.40293 11.5477 8.40293 10.4234C8.40293 9.38501 8.39556 8.34661 8.40538 7.30575C8.41275 6.57912 8.74671 6.2428 9.46864 6.20107C9.59633 6.19371 9.72402 6.19862 9.85171 6.19862C17.599 6.19862 25.3487 6.19862 33.096 6.20107C33.349 6.20107 33.6093 6.2158 33.8524 6.27472C34.3042 6.38519 34.5203 6.72886 34.5055 7.16583C34.4908 7.62979 34.233 7.95629 33.7517 8.03484C33.5209 8.07167 33.2802 8.0643 33.042 8.0643C25.7122 8.06676 18.3848 8.0643 11.0549 8.0643C10.8241 8.06676 10.5884 8.06676 10.2962 8.06676Z" fill="#F6F9FF"/>
<path d="M11.6394 52.8702C7.80131 52.853 4.42001 49.9931 3.8405 46.2716C3.23152 42.3561 5.45871 38.6124 9.16906 37.4169C11.6836 36.6068 14.0605 36.9849 16.246 38.4774C16.7788 38.8407 16.9213 39.3759 16.6241 39.8374C16.3319 40.2891 15.777 40.3947 15.2294 40.0264C14.2226 39.3513 13.1348 38.9389 11.9193 38.8825C8.64357 38.7352 5.91299 41.1581 5.60604 44.4893C5.31138 47.7027 7.7301 50.5626 11.0893 50.9701C14.1514 51.3408 17.103 49.075 17.6236 45.9524C17.6776 45.6308 17.6899 45.3019 17.7242 44.9754C17.7881 44.3666 18.1736 43.991 18.704 44.0156C19.2393 44.0401 19.5733 44.4402 19.5806 45.0613C19.6347 49.2714 15.9513 52.8898 11.6394 52.8702Z" fill="#F6F9FF"/>
<path d="M26.0928 22.0643C22.8318 22.0643 19.5708 22.0643 16.3098 22.0618C16.0913 22.0618 15.8678 22.0741 15.6567 22.025C15.2392 21.9317 14.9986 21.6543 14.9593 21.2223C14.92 20.7927 15.1017 20.4613 15.4995 20.3091C15.7303 20.2207 15.998 20.2011 16.2484 20.2011C22.8441 20.1962 29.4373 20.1962 36.0329 20.2011C36.2662 20.2011 36.5142 20.2183 36.7303 20.2968C37.1526 20.4539 37.3515 20.7902 37.3024 21.2444C37.2558 21.6715 37.0053 21.9465 36.5854 22.0299C36.3742 22.0717 36.1508 22.0618 35.9322 22.0618C32.6516 22.0643 29.3734 22.0643 26.0928 22.0643Z" fill="#F6F9FF"/>
<path d="M16.769 27.6712C13.8199 27.6712 10.8683 27.6712 7.91918 27.6712C6.98116 27.6712 6.54161 27.3643 6.55143 26.7236C6.56126 26.0903 6.99835 25.7981 7.94865 25.7981C13.8494 25.7981 19.7501 25.7981 25.6508 25.8006C25.8865 25.8006 26.1272 25.8079 26.3555 25.862C26.827 25.9724 27.0578 26.3038 27.0406 26.7801C27.0234 27.2318 26.7803 27.5337 26.331 27.6221C26.1001 27.6663 25.862 27.6712 25.6262 27.6712C22.6697 27.6736 19.7181 27.6712 16.769 27.6712Z" fill="#F6F9FF"/>
<path d="M21.4837 13.6785C24.4353 13.6785 27.3844 13.6785 30.336 13.6785C31.2789 13.6785 31.7234 13.9805 31.7209 14.6138C31.716 15.2447 31.2666 15.5491 30.3262 15.5491C24.4255 15.5491 18.5247 15.5491 12.624 15.5467C12.3711 15.5467 12.1084 15.5393 11.8677 15.4755C11.4233 15.3577 11.2072 15.0189 11.2244 14.5795C11.2416 14.1401 11.4748 13.8185 11.9291 13.7301C12.1599 13.6859 12.4006 13.6834 12.6363 13.6834C15.583 13.6761 18.5321 13.6785 21.4837 13.6785Z" fill="#F6F9FF"/>
<path d="M12.1477 32.328C10.635 32.328 9.12241 32.3354 7.60978 32.3256C6.87066 32.3207 6.42866 31.8223 6.56862 31.1914C6.67176 30.7373 7.04746 30.4722 7.65398 30.4672C8.76635 30.4574 9.87872 30.4648 10.9886 30.4648C12.7738 30.4648 14.5615 30.4648 16.3467 30.4648C16.4915 30.4648 16.6389 30.4574 16.7838 30.4722C17.351 30.5311 17.7267 30.9189 17.7144 31.4246C17.7021 31.9377 17.3191 32.3133 16.7396 32.3207C15.5191 32.3354 14.2963 32.3256 13.0759 32.328C12.7689 32.3305 12.4595 32.328 12.1477 32.328Z" fill="#F6F9FF"/>
<path d="M11.4306 45.7413C12.4153 44.7496 13.3632 43.7922 14.3085 42.8397C14.4362 42.7096 14.559 42.5746 14.7014 42.4592C15.1164 42.1229 15.6444 42.1401 15.9857 42.4886C16.3319 42.8397 16.354 43.365 15.9955 43.7701C15.6468 44.1653 15.2589 44.5237 14.8856 44.8993C14.2177 45.5695 13.5547 46.2446 12.8794 46.9074C11.9586 47.8083 10.9051 47.8157 9.98922 46.927C9.41462 46.3698 8.84984 45.8002 8.28997 45.2283C7.77921 44.7078 7.7301 44.1481 8.14264 43.7455C8.56254 43.3356 9.08312 43.3945 9.62334 43.9272C10.2176 44.5139 10.802 45.108 11.4306 45.7413Z" fill="#F6F9FF"/>
<path d="M33.1378 27.6687C32.1015 27.6687 31.0628 27.681 30.0266 27.6638C29.3636 27.654 28.9977 27.3373 28.9609 26.812C28.929 26.3357 29.1966 25.9626 29.6656 25.857C29.84 25.8178 30.0266 25.803 30.2058 25.803C32.1531 25.7981 34.1004 25.8006 36.0476 25.8006C36.1557 25.8006 36.2662 25.7981 36.3742 25.8104C36.9685 25.8791 37.3147 26.2277 37.3122 26.7457C37.3098 27.2661 36.9586 27.627 36.3595 27.6564C35.7235 27.6884 35.085 27.6687 34.4491 27.6712C34.012 27.6736 33.5749 27.6712 33.1378 27.6687C33.1378 27.6712 33.1378 27.6712 33.1378 27.6687Z" fill="#F6F9FF"/>
<path d="M23.7993 32.328C22.7606 32.328 21.7243 32.3354 20.6856 32.3256C20.03 32.3207 19.6126 31.9598 19.6027 31.4173C19.5905 30.8821 20.0128 30.4722 20.6562 30.4697C22.7508 30.4574 24.8454 30.4574 26.9375 30.4697C27.5784 30.4746 28.0008 30.8797 27.9934 31.4148C27.986 31.9573 27.571 32.3207 26.9154 32.3256C25.8742 32.3354 24.838 32.328 23.7993 32.328Z" fill="#F6F9FF"/>
</svg>
